G04 ---------------------------- Layer name :TOP LAYER*
G04 EasyEDA v5.8.16, Sun, 14 Oct 2018 04:50:05 GMT*
G04 5a396672bee444fbbd75647f7a64e84d*
G04 Gerber Generator version 0.2*
G04 Scale: 100 percent, Rotated: No, Reflected: No *
G04 Dimensions in millimeters *
G04 leading zeros omitted , absolute positions ,3 integer and 3 decimal *
%FSLAX33Y33*%
%MOMM*%
G90*
G71D02*

%ADD11C,2.799994*%
%ADD12C,0.499999*%
%ADD13C,0.799998*%
%ADD14C,1.399997*%
%ADD15C,5.399989*%
%ADD16C,0.750011*%
%ADD17C,0.619760*%
%ADD18C,1.699997*%
%ADD19R,1.699997X1.699997*%
%ADD20C,1.524000*%
%ADD21C,1.999996*%
%ADD22R,1.524000X1.524000*%
%ADD23R,1.999996X1.999996*%
%ADD24C,7.499985*%

%LPD*%
G54D11*
G01X32941Y38313D02*
G01X50586Y38313D01*
G01X51816Y37084D01*
G01X51816Y38862D02*
G01X51816Y37084D01*
G01X51816Y37084D02*
G01X51816Y35052D01*
G01X53086Y33782D01*
G01X65278Y33782D01*
G01X68580Y37084D01*
G01X70358Y37084D02*
G01X68580Y37084D01*
G54D12*
G01X73660Y37084D02*
G01X73660Y36068D01*
G01X74676Y35052D01*
G01X81788Y35052D01*
G01X83820Y37084D01*
G01X83820Y37084D02*
G01X85852Y35052D01*
G01X89408Y35052D01*
G01X91440Y37084D01*
G01X91440Y37084D02*
G01X93472Y35052D01*
G01X102108Y35052D01*
G01X104140Y37084D01*
G01X104140Y37084D02*
G01X106172Y35052D01*
G01X107188Y35052D01*
G01X109220Y37084D01*
G01X116840Y39624D02*
G01X117602Y39624D01*
G01X118872Y38354D01*
G01X118872Y36322D01*
G01X117602Y35052D01*
G01X111252Y35052D01*
G01X109220Y37084D01*
G01X116840Y39624D02*
G01X115062Y41402D01*
G01X100838Y41402D01*
G01X99060Y39624D01*
G01X99060Y39624D02*
G01X97282Y41402D01*
G01X80518Y41402D01*
G01X78740Y39624D01*
G01X51816Y59944D02*
G01X51308Y59944D01*
G01X50038Y58674D01*
G01X50038Y54102D01*
G01X51816Y52324D01*
G01X51816Y72644D02*
G01X51308Y72644D01*
G01X50038Y71374D01*
G01X50038Y61722D01*
G01X51816Y59944D01*
G01X51816Y77724D02*
G01X50038Y75946D01*
G01X50038Y74422D01*
G01X51816Y72644D01*
G01X45720Y109728D02*
G01X45720Y107188D01*
G01X53848Y124968D02*
G01X63754Y124968D01*
G01X53848Y107188D02*
G01X63754Y107188D01*
G01X53848Y109728D02*
G01X63754Y109728D01*
G01X53848Y112268D02*
G01X63754Y112268D01*
G01X92202Y107188D02*
G01X102108Y107188D01*
G01X92202Y109728D02*
G01X102108Y109728D01*
G01X92202Y112268D02*
G01X102108Y112268D01*
G01X92202Y124968D02*
G01X102108Y124968D01*
G01X110236Y107188D02*
G01X110236Y109728D01*
G01X84074Y107188D02*
G01X84074Y109728D01*
G01X84074Y112268D02*
G01X86360Y112268D01*
G01X87884Y110744D01*
G01X87884Y107442D01*
G01X90170Y105156D01*
G01X104140Y105156D01*
G01X106172Y107188D01*
G01X106172Y111252D01*
G01X107188Y112268D01*
G01X110236Y112268D01*
G01X71882Y109728D02*
G01X71882Y107188D01*
G01X71882Y112268D02*
G01X68834Y112268D01*
G01X67818Y111252D01*
G01X67818Y107696D01*
G01X64770Y104648D01*
G01X52832Y104648D01*
G01X48006Y109474D01*
G01X48006Y111760D01*
G01X47498Y112268D01*
G01X45720Y112268D01*
G01X110236Y107188D02*
G01X108204Y107188D01*
G01X104902Y103886D01*
G01X89408Y103886D01*
G01X86106Y107188D01*
G01X84074Y107188D01*
G01X45720Y107188D02*
G01X48006Y107188D01*
G01X52070Y103124D01*
G01X66040Y103124D01*
G01X70104Y107188D01*
G01X71882Y107188D01*
G01X99433Y142240D02*
G01X86113Y142240D01*
G54D13*
G01X56758Y167022D02*
G01X78595Y167022D01*
G01X91186Y154432D01*
G01X91186Y147327D01*
G01X91302Y147210D01*
G54D12*
G01X116441Y154294D02*
G01X91323Y154294D01*
G01X91186Y154432D01*
G01X51816Y47244D02*
G01X51054Y47244D01*
G01X48768Y49530D01*
G01X48768Y87122D01*
G01X48768Y87122D02*
G01X48768Y87376D01*
G01X51308Y89916D01*
G01X51308Y89916D02*
G01X51308Y89916D01*
G01X65278Y89916D01*
G01X73914Y98552D01*
G01X73914Y119126D01*
G01X73152Y119888D01*
G01X71882Y119888D01*
G01X51816Y44704D02*
G01X50038Y44704D01*
G01X43942Y50800D01*
G01X43942Y110998D01*
G01X43942Y110998D02*
G01X43942Y119126D01*
G01X44704Y119888D01*
G01X45720Y119888D01*
G01X51816Y82804D02*
G01X50546Y82804D01*
G01X49530Y83820D01*
G01X49530Y86868D01*
G01X49530Y86868D02*
G01X50546Y87884D01*
G01X50546Y87884D02*
G01X51562Y88900D01*
G01X98552Y88900D01*
G01X112014Y102362D01*
G01X112014Y119380D01*
G01X111506Y119888D01*
G01X110236Y119888D01*
G01X51816Y85344D02*
G01X51816Y87376D01*
G01X52324Y87884D01*
G01X52324Y87884D02*
G01X81026Y87884D01*
G01X104394Y146558D02*
G01X116324Y146558D01*
G01X116441Y146674D01*
G01X100076Y136652D02*
G01X100076Y140746D01*
G01X99598Y141224D01*
G01X97282Y141224D01*
G01X96266Y136652D02*
G01X96266Y141224D01*
G01X96266Y143256D02*
G01X86614Y143256D01*
G01X86106Y143764D01*
G01X86106Y144556D01*
G01X86222Y144670D01*
G01X81280Y133604D02*
G01X80772Y134112D01*
G01X63500Y134112D01*
G01X63754Y135128D02*
G01X63754Y140716D01*
G01X102362Y135636D02*
G01X72390Y135636D01*
G01X65580Y142445D01*
G01X10012Y119062D02*
G01X33972Y119062D01*
G01X43180Y128270D01*
G01X50546Y128270D01*
G01X53848Y124968D01*
G01X97282Y132588D02*
G01X117094Y132588D01*
G01X121158Y136652D01*
G01X121158Y148336D01*
G01X120396Y149098D01*
G01X119095Y149098D01*
G01X118978Y149214D01*
G01X63754Y124968D02*
G01X63754Y125222D01*
G01X65532Y127000D01*
G01X90170Y127000D01*
G01X92202Y124968D01*
G01X45720Y97028D02*
G01X45720Y107188D01*
G01X63754Y114808D02*
G01X59182Y114808D01*
G01X55880Y118110D01*
G01X55880Y123698D01*
G54D13*
G01X52217Y200014D02*
G01X55996Y200014D01*
G01X71374Y215392D01*
G01X85852Y215392D01*
G54D12*
G01X45974Y187706D02*
G01X45974Y198628D01*
G01X47498Y200152D01*
G01X49537Y200152D01*
G01X49677Y200014D01*
G01X81026Y89916D02*
G01X81026Y118618D01*
G01X82296Y119888D01*
G01X84074Y119888D01*
G01X74422Y136652D02*
G01X72898Y136652D01*
G01X70612Y138938D01*
G01X70612Y141478D01*
G01X71628Y142494D01*
G01X75438Y136652D02*
G01X75438Y140716D01*
G01X107696Y147574D02*
G01X107696Y153162D01*
G01X82804Y182118D02*
G01X82804Y199898D01*
G01X79502Y203200D01*
G01X77978Y136652D02*
G01X77978Y140716D01*
G01X75692Y173482D02*
G01X66040Y173482D01*
G01X47244Y188722D02*
G01X47244Y190754D01*
G01X47244Y194056D01*
G01X48006Y194818D01*
G01X49560Y194818D01*
G01X49677Y194934D01*
G01X70104Y133096D02*
G01X66548Y133096D01*
G01X66040Y136652D02*
G01X65786Y136652D01*
G01X65786Y140716D01*
G54D14*
G01X12509Y159913D02*
G01X12509Y158432D01*
G01X13208Y157734D01*
G01X42387Y157734D01*
G01X15179Y159913D02*
G01X21229Y159913D01*
G01X33020Y171704D01*
G01X52077Y171704D01*
G01X56758Y167022D01*
G01X15179Y193654D02*
G01X37952Y193654D01*
G01X46482Y202184D01*
G01X51054Y202184D01*
G01X52070Y201168D01*
G54D12*
G01X82296Y180594D02*
G01X65532Y180594D01*
G01X110236Y117348D02*
G01X109982Y117348D01*
G01X108458Y118872D01*
G01X108458Y125476D01*
G01X110236Y127254D01*
G01X122174Y127254D01*
G01X123190Y128270D01*
G01X123190Y233426D01*
G01X122174Y234442D01*
G01X110236Y114808D02*
G01X107442Y117602D01*
G01X107442Y125730D01*
G01X109982Y128270D01*
G01X121412Y128270D01*
G01X122174Y129032D01*
G01X122174Y187706D01*
G01X121412Y188468D01*
G01X114554Y188468D01*
G01X114046Y188976D01*
G01X114046Y190238D01*
G01X114162Y190352D01*
G54D13*
G01X20429Y245226D02*
G01X20429Y246486D01*
G01X22349Y248412D01*
G01X81788Y248412D01*
G01X85087Y245115D01*
G01X85199Y245226D01*
G54D12*
G01X85199Y245226D02*
G01X85199Y256900D01*
G01X87884Y259588D01*
G01X118371Y259588D01*
G01X120004Y257954D01*
G54D14*
G01X14925Y240685D02*
G01X14925Y243779D01*
G01X16256Y245110D01*
G01X20312Y245110D01*
G01X20429Y245226D01*
G54D12*
G01X88138Y128016D02*
G01X88900Y128016D01*
G01X94488Y133604D01*
G01X116586Y133604D01*
G01X120142Y137160D01*
G01X86868Y129032D02*
G01X88646Y129032D01*
G01X94234Y134620D01*
G01X115570Y134620D01*
G01X120142Y139192D01*
G01X113192Y183987D02*
G01X107061Y190119D01*
G01X106172Y191008D01*
G01X106172Y191008D02*
G01X106172Y196342D01*
G01X115062Y232664D02*
G01X115062Y255277D01*
G01X114924Y255414D01*
G01X76454Y136652D02*
G01X76454Y140208D01*
G01X76454Y140208D02*
G01X76454Y140716D01*
G01X91186Y177800D02*
G01X91186Y183134D01*
G01X103632Y195580D01*
G01X91186Y233426D02*
G01X91186Y239268D01*
G01X90424Y240030D01*
G01X87853Y240030D01*
G01X87739Y240146D01*
G01X71882Y122428D02*
G01X74168Y122428D01*
G01X77470Y125730D01*
G01X77470Y128778D02*
G01X82296Y128778D01*
G01X83820Y130302D01*
G01X88646Y130302D01*
G01X91948Y133604D01*
G01X93472Y136652D02*
G01X93472Y139700D01*
G01X102870Y179578D02*
G01X102870Y193040D01*
G01X108204Y229362D02*
G01X114300Y229362D01*
G01X120142Y235204D01*
G01X120142Y250698D01*
G01X120142Y250698D02*
G01X120142Y255277D01*
G01X120004Y255414D01*
G01X69850Y131826D02*
G01X66040Y131826D01*
G01X65580Y142445D02*
G01X65580Y142953D01*
G01X65532Y143002D01*
G01X64770Y136144D02*
G01X64770Y141732D01*
G01X64516Y172212D02*
G01X64516Y176784D01*
G01X66548Y178816D01*
G01X85598Y178816D01*
G01X102108Y195326D01*
G01X96520Y223266D02*
G01X96520Y256794D01*
G01X97790Y258064D01*
G01X112275Y258064D01*
G01X112384Y257954D01*
G01X41910Y149352D02*
G01X38862Y152400D01*
G01X38862Y155956D01*
G01X75438Y239014D02*
G01X82296Y239014D01*
G01X83820Y237490D01*
G01X85082Y237490D01*
G01X85199Y237606D01*
G01X92202Y275336D02*
G01X102108Y275336D01*
G01X92202Y277876D02*
G01X102108Y277876D01*
G01X92202Y280416D02*
G01X102108Y280416D01*
G01X110236Y277876D02*
G01X110236Y275336D01*
G01X84074Y277876D02*
G01X84074Y275336D01*
G01X43180Y277876D02*
G01X43180Y275336D01*
G01X51308Y277876D02*
G01X63754Y277876D01*
G01X51308Y280416D02*
G01X63754Y280416D01*
G01X51308Y275336D02*
G01X63754Y275336D01*
G01X71882Y275336D02*
G01X71882Y277876D01*
G01X43180Y275336D02*
G01X45212Y275336D01*
G01X48260Y272288D01*
G01X66802Y272288D01*
G01X69850Y275336D01*
G01X71882Y275336D01*
G01X84074Y275336D02*
G01X87630Y275336D01*
G01X90424Y272542D01*
G01X104902Y272542D01*
G01X107696Y275336D01*
G01X110236Y275336D01*
G01X50546Y273304D02*
G01X64536Y273304D01*
G01X64536Y273304D02*
G01X66548Y273304D01*
G01X68834Y275590D01*
G01X68834Y279654D01*
G01X69596Y280416D01*
G01X71882Y280416D01*
G01X50546Y273304D02*
G01X50038Y273304D01*
G01X46990Y276352D01*
G01X46990Y279400D01*
G01X45974Y280416D01*
G01X43180Y280416D01*
G01X84074Y280416D02*
G01X86614Y280416D01*
G01X88900Y278130D01*
G01X88900Y275844D01*
G01X91186Y273558D01*
G01X104648Y273558D01*
G01X106426Y275336D01*
G01X106426Y279400D01*
G01X107442Y280416D01*
G01X110236Y280416D01*
G01X53848Y112268D02*
G01X52578Y112268D01*
G01X51308Y113538D01*
G01X51308Y124714D01*
G01X50546Y125476D01*
G01X53848Y109728D02*
G01X52578Y109728D01*
G01X50292Y112014D01*
G01X50292Y123952D01*
G01X49276Y124968D01*
G01X53848Y107188D02*
G01X52832Y107188D01*
G01X49276Y110744D01*
G01X49276Y122936D01*
G01X48006Y124206D01*
G01X48006Y138430D02*
G01X36576Y138430D01*
G01X49276Y139446D02*
G01X38100Y139446D01*
G01X50546Y141224D02*
G01X39624Y141224D01*
G01X33782Y274066D02*
G01X33782Y284226D01*
G01X37592Y288036D01*
G01X43180Y288036D01*
G01X38862Y108204D02*
G01X38862Y110998D01*
G01X32766Y268224D02*
G01X68326Y268224D01*
G01X73406Y273304D01*
G01X73406Y287782D01*
G01X73152Y288036D01*
G01X71882Y288036D01*
G01X36830Y108204D02*
G01X36830Y111760D01*
G01X31750Y266954D02*
G01X78232Y266954D01*
G01X81534Y270256D01*
G01X81534Y287020D01*
G01X82550Y288036D01*
G01X84074Y288036D01*
G01X34798Y108204D02*
G01X34798Y112522D01*
G01X30734Y265684D02*
G01X110744Y265684D01*
G01X112776Y267716D01*
G01X112776Y287020D01*
G01X111760Y288036D01*
G01X110236Y288036D01*
G01X51308Y293116D02*
G01X63754Y293116D01*
G01X63754Y293116D02*
G01X63754Y294640D01*
G01X64770Y295656D01*
G01X90932Y295656D01*
G01X92202Y294386D01*
G01X92202Y293672D01*
G01X92202Y293116D02*
G01X102108Y293116D01*
G01X10012Y279336D02*
G01X18605Y279336D01*
G01X22352Y275590D01*
G01X10012Y279336D02*
G01X12128Y279336D01*
G01X16764Y283972D01*
G01X16764Y293370D01*
G01X20574Y297180D01*
G01X49784Y297180D01*
G01X51308Y295656D01*
G01X51308Y293116D01*
G01X10012Y276666D02*
G01X18735Y276666D01*
G01X21590Y273812D01*
G01X27432Y273812D01*
G01X27940Y274320D01*
G01X27940Y290068D01*
G01X28702Y290830D01*
G01X29972Y290830D01*
G01X29972Y290830D02*
G01X30988Y290830D01*
G01X32512Y289306D01*
G01X32512Y273812D01*
G01X33274Y273050D01*
G01X42164Y273050D01*
G01X43180Y274066D01*
G01X43180Y275336D01*
G01X41148Y241808D02*
G01X29210Y241808D01*
G01X28194Y242824D01*
G01X28194Y244602D01*
G01X27432Y245364D01*
G01X23106Y245364D01*
G01X22966Y245226D01*
G01X41148Y240538D02*
G01X23360Y240538D01*
G01X22966Y240146D01*
G01X41148Y239268D02*
G01X29718Y239268D01*
G54D13*
G01X31125Y332376D02*
G01X31125Y334909D01*
G01X32004Y335788D01*
G01X75438Y335788D01*
G01X76962Y334264D01*
G01X76962Y331724D01*
G01X75438Y330200D01*
G01X73413Y330200D01*
G01X73268Y330055D01*
G01X73268Y330052D02*
G01X73914Y329438D01*
G01X117602Y329438D01*
G01X119380Y327660D01*
G01X119380Y320799D01*
G01X120289Y319902D01*
G54D14*
G01X15179Y331830D02*
G01X30579Y331830D01*
G01X31125Y332376D01*
G54D12*
G01X74061Y357515D02*
G01X101483Y357515D01*
G01X108712Y364744D01*
G01X116070Y364744D01*
G01X116441Y365114D01*
G54D13*
G01X61219Y365135D02*
G01X49159Y365135D01*
G01X47244Y363220D01*
G54D14*
G01X15179Y355239D02*
G01X39039Y355239D01*
G01X39253Y355452D01*
G01X12509Y355239D02*
G01X12509Y358203D01*
G01X14986Y360680D01*
G01X44704Y360680D01*
G01X47244Y363220D01*
G54D13*
G01X62387Y353822D02*
G01X39624Y353822D01*
G01X39116Y354330D01*
G01X39116Y355315D01*
G01X39253Y355455D01*
G54D12*
G01X118978Y357494D02*
G01X120258Y357494D01*
G01X120650Y357886D01*
G01X120650Y367030D01*
G01X118872Y368808D01*
G01X105648Y368808D01*
G01X103654Y368808D01*
G01X110236Y293116D02*
G01X110490Y293116D01*
G01X122682Y305308D01*
G01X122682Y338836D01*
G01X113284Y348234D01*
G01X113284Y358902D01*
G01X114554Y360172D01*
G01X116301Y360172D01*
G01X116438Y360034D01*
G01X102108Y282956D02*
G01X106172Y282956D01*
G01X107442Y284226D01*
G01X107442Y307340D01*
G01X109982Y309880D01*
G01X109982Y309880D02*
G01X109982Y309880D01*
G01X120650Y309880D01*
G01X121666Y310896D01*
G01X121666Y314198D01*
G01X121158Y314706D01*
G01X120403Y314706D01*
G01X120289Y314822D01*
G01X46482Y346710D02*
G01X44704Y346710D01*
G01X43434Y347980D01*
G01X43434Y351536D01*
G01X80518Y362712D02*
G01X74175Y362712D01*
G01X74061Y362595D01*
G01X106426Y331978D02*
G01X106426Y342646D01*
G01X102362Y346710D01*
G01X46482Y346710D01*
G01X82296Y333756D02*
G01X82296Y340106D01*
G01X77724Y344678D01*
G01X39116Y344678D01*
G01X36322Y347472D01*
G01X36322Y353314D01*
G01X107696Y349758D02*
G01X107696Y360934D01*
G01X110490Y363728D01*
G01X46736Y345694D02*
G01X39624Y345694D01*
G01X37338Y347980D01*
G01X37338Y353314D01*
G01X46990Y331724D02*
G01X39400Y331724D01*
G01X38745Y332376D01*
G01X51308Y282956D02*
G01X54356Y282956D01*
G01X56642Y285242D01*
G01X56642Y291592D01*
G01X56642Y310896D02*
G01X103378Y310896D01*
G01X103378Y310896D02*
G01X119888Y310896D01*
G01X120396Y311404D01*
G01X120396Y312173D01*
G01X120289Y312282D01*
G01X63754Y288036D02*
G01X58928Y288036D01*
G01X58166Y288798D01*
G01X58166Y291592D01*
G01X65278Y313690D02*
G01X97790Y313690D01*
G01X104140Y320040D01*
G01X117609Y320040D01*
G01X117749Y319902D01*
G01X92202Y290576D02*
G01X91694Y290576D01*
G01X87630Y294640D01*
G01X58166Y299212D02*
G01X30988Y326390D01*
G01X30988Y329699D01*
G01X31125Y329836D01*
G01X85852Y298450D02*
G01X65786Y298450D01*
G01X51054Y313182D01*
G01X51054Y319532D01*
G01X57404Y325882D01*
G01X57404Y329438D01*
G01X59182Y331216D01*
G01X61214Y331216D01*
G01X92202Y282956D02*
G01X94742Y282956D01*
G01X96774Y284988D01*
G01X96774Y291846D01*
G01X101600Y314452D02*
G01X117378Y314452D01*
G01X117749Y314822D01*
G01X92202Y288036D02*
G01X86106Y294132D01*
G01X85344Y297180D02*
G01X64516Y297180D01*
G01X36068Y325628D01*
G01X36068Y325628D02*
G01X36068Y329699D01*
G01X36205Y329836D01*
G01X102108Y290576D02*
G01X103886Y290576D01*
G01X104648Y291338D01*
G01X104648Y296926D01*
G01X101854Y299720D01*
G01X70612Y299720D01*
G01X70104Y300228D01*
G01X102108Y288036D02*
G01X104140Y288036D01*
G01X105664Y289560D01*
G01X105664Y299466D01*
G01X103378Y301752D01*
G01X64262Y301752D01*
G01X55372Y310642D01*
G01X55372Y314452D01*
G01X52324Y317500D01*
G01X49022Y330962D02*
G01X45720Y334264D01*
G01X37084Y334264D01*
G01X36322Y333502D01*
G01X36322Y332493D01*
G01X36205Y332376D01*
G01X108712Y364744D02*
G01X106707Y364744D01*
G01X104838Y366613D01*
G01X108712Y364744D02*
G01X109141Y364744D01*
G01X110744Y366346D01*
G01X112014Y361442D02*
G01X115308Y361442D01*
G01X116441Y362574D01*
G01X121785Y378439D02*
G01X122194Y378439D01*
G01X123190Y377444D01*
G01X123190Y363982D01*
G01X121920Y362712D01*
G01X97536Y361442D02*
G01X97536Y363474D01*
G01X101854Y367792D01*
G01X54800Y355691D02*
G01X54800Y355097D01*
G01X53522Y353822D01*
G01X56309Y362966D02*
G01X56309Y357200D01*
G01X54800Y355691D01*
G01X67231Y359156D02*
G01X66484Y359156D01*
G01X65976Y358648D01*
G01X78232Y352298D02*
G01X78232Y354330D01*
G01X76454Y356108D01*
G01X71521Y360055D02*
G01X69458Y360055D01*
G01X67818Y361696D01*
G01X67818Y362966D01*
G01X36322Y356870D02*
G01X36322Y358648D01*
G01X37035Y359361D01*
G01X43990Y359361D01*
G01X44450Y358902D01*
G01X44450Y358109D01*
G01X44333Y357992D01*
G01X45466Y347980D02*
G01X50751Y347980D01*
G01X50751Y348508D01*
G01X21671Y334518D02*
G01X21671Y332308D01*
G01X21191Y331830D01*
G01X21427Y328866D02*
G01X21427Y331482D01*
G01X21082Y331830D01*
G01X112522Y306496D02*
G01X117655Y306496D01*
G01X119796Y304355D01*
G01X120289Y317362D02*
G01X121020Y317362D01*
G01X121666Y318008D01*
G01X121666Y324358D01*
G01X120904Y325120D01*
G01X78740Y323088D02*
G01X73660Y323088D01*
G01X70866Y325882D01*
G01X70866Y329915D01*
G01X70728Y330052D01*
G01X17038Y311030D02*
G01X17038Y314980D01*
G01X20320Y318262D01*
G01X24638Y318262D01*
G01X28702Y322326D01*
G01X28702Y329692D01*
G01X37592Y322072D02*
G01X33528Y326136D01*
G01X33528Y329699D01*
G01X33665Y329836D01*
G01X78858Y316504D02*
G01X71168Y316504D01*
G01X67104Y320568D01*
G01X52344Y331604D02*
G01X52344Y333014D01*
G01X54102Y334772D01*
G01X70358Y334772D01*
G01X70866Y334264D01*
G01X70866Y332732D01*
G01X70728Y332592D01*
G01X101934Y261112D02*
G01X101934Y259635D01*
G01X101886Y259588D01*
G01X113538Y243840D02*
G01X111506Y243840D01*
G01X111506Y243840D02*
G01X104648Y243840D01*
G01X99568Y248920D01*
G01X99568Y256794D01*
G01X121871Y267736D02*
G01X119146Y267736D01*
G01X112268Y260858D01*
G01X80264Y242570D02*
G01X85082Y242570D01*
G01X85199Y242686D01*
G01X68813Y234830D02*
G01X68813Y233700D01*
G01X70104Y232410D01*
G01X80264Y232410D01*
G01X77703Y234830D02*
G01X81145Y234830D01*
G01X85344Y230632D01*
G01X91186Y230632D01*
G01X92964Y232410D01*
G01X92964Y240284D01*
G01X90678Y242570D01*
G01X87853Y242570D01*
G01X87739Y242686D01*
G01X16489Y237187D02*
G01X20010Y237187D01*
G01X20429Y237606D01*
G01X58420Y197358D02*
G01X52331Y197358D01*
G01X52217Y197474D01*
G01X90170Y207518D02*
G01X83058Y207518D01*
G01X82296Y208280D01*
G01X82296Y210027D01*
G01X82158Y210164D01*
G01X70337Y211444D02*
G01X70477Y211444D01*
G01X73406Y214376D01*
G01X81534Y214376D01*
G01X82296Y213614D01*
G01X82296Y212844D01*
G01X82158Y212704D01*
G01X114124Y139192D02*
G01X112041Y139192D01*
G01X110426Y140807D01*
G01X113792Y147574D02*
G01X113792Y151645D01*
G01X116441Y154294D01*
G01X69941Y147383D02*
G01X69088Y147828D01*
G01X69088Y166260D01*
G01X68326Y167022D01*
G01X85209Y154665D02*
G01X85209Y150766D01*
G01X88762Y147210D01*
G01X50546Y169926D02*
G01X51816Y169926D01*
G01X53848Y167894D01*
G01X53848Y167393D01*
G01X54218Y167022D01*
G01X61722Y171530D02*
G01X56589Y171530D01*
G01X56323Y171795D01*
G01X56323Y171795D02*
G01X56323Y167457D01*
G01X56758Y167022D01*
G01X50429Y179344D02*
G01X47772Y179344D01*
G01X45720Y177292D01*
G01X45720Y174767D01*
G01X54218Y164482D02*
G01X54218Y163205D01*
G01X55118Y162306D01*
G01X59298Y162306D01*
G01X62367Y165374D01*
G54D11*
G01X32941Y43314D02*
G01X31122Y43314D01*
G01X26924Y39116D01*
G01X26924Y34798D01*
G01X31496Y30226D01*
G01X70612Y30226D01*
G01X73660Y33274D01*
G01X73660Y37084D01*
G54D12*
G01X68580Y39624D02*
G01X56896Y39624D01*
G01X54356Y37084D01*
G01X42672Y72390D02*
G01X42672Y53045D01*
G01X32941Y43314D01*
G54D14*
G01X52070Y201168D02*
G01X52070Y200159D01*
G01X52217Y200014D01*
G54D13*
G01X85852Y215392D02*
G01X87376Y213868D01*
G01X87376Y211074D01*
G01X86360Y210058D01*
G01X84805Y210058D01*
G01X84698Y210164D01*
G54D12*
G01X45720Y174752D02*
G01X46228Y174244D01*
G01X46990Y173482D01*
G01X48006Y173482D01*
G54D15*
G01X32941Y43314D02*
G01X7739Y43314D01*
G01X3556Y47498D01*
G01X3556Y350266D01*
G54D11*
G01X51816Y42164D02*
G01X34089Y42164D01*
G01X32941Y43314D01*
G54D14*
G01X10012Y116392D02*
G01X3601Y116392D01*
G01X3556Y116344D01*
G01X15179Y159913D02*
G01X15179Y162112D01*
G01X13462Y163830D01*
G01X3627Y163830D01*
G01X3556Y163758D01*
G01X14925Y243779D02*
G01X3703Y243779D01*
G01X3556Y243631D01*
G01X10012Y276666D02*
G01X3619Y276666D01*
G01X3556Y276603D01*
G01X15179Y355239D02*
G01X15179Y352999D01*
G01X13716Y351536D01*
G01X3556Y351536D01*
G54D12*
G01X72390Y347726D02*
G01X72390Y350012D01*
G01X68834Y353568D01*
G01X44958Y352298D02*
G01X44958Y348488D01*
G01X45466Y347980D01*
G01X63500Y134112D02*
G01X52832Y134112D01*
G01X52324Y134620D01*
G01X52324Y148844D01*
G01X51308Y149860D01*
G01X69088Y135890D02*
G01X70612Y135890D01*
G01X71628Y134874D01*
G01X89916Y134874D01*
G01X90678Y134112D01*
G01X90678Y136652D02*
G01X90678Y140716D01*
G01X91186Y141224D01*
G01X80010Y141732D02*
G01X84836Y141732D01*
G01X85598Y140970D01*
G01X88646Y140970D01*
G01X98806Y128270D02*
G01X101600Y128270D01*
G01X101092Y136652D02*
G01X101092Y140970D01*
G01X101092Y140970D02*
G01X101092Y141224D01*
G01X41148Y243078D02*
G01X29464Y243078D01*
G01X39878Y155956D02*
G01X41402Y155956D01*
G01X42926Y154432D01*
G01X42926Y147574D01*
G01X84074Y117348D02*
G01X86360Y117348D01*
G01X87376Y118364D01*
G01X87376Y124460D01*
G01X85852Y125984D01*
G01X113192Y183987D02*
G01X113192Y175605D01*
G01X116332Y172466D01*
G01X121158Y172466D01*
G01X70358Y170180D02*
G01X75438Y170180D01*
G01X117467Y178074D02*
G01X117467Y185046D01*
G01X115824Y186690D01*
G01X53594Y324358D02*
G01X56134Y326898D01*
G01X59944Y330200D02*
G01X59944Y319786D01*
G01X59690Y319532D01*
G54D13*
G01X62387Y353822D02*
G01X62514Y353852D01*
G01X64262Y355600D01*
G01X72143Y355600D01*
G01X74061Y357515D01*
G54D12*
G01X65976Y363057D02*
G01X65976Y355600D01*
G01X65913Y355600D01*
G01X117466Y162539D02*
G01X114787Y162539D01*
G01X114046Y161798D01*
G01X114046Y155448D01*
G01X54356Y57404D02*
G01X55626Y57404D01*
G01X57404Y55626D01*
G01X57404Y40132D01*
G01X56896Y39624D01*
G01X99433Y142240D02*
G01X99822Y142240D01*
G01X100838Y143256D01*
G01X100909Y160088D02*
G01X105369Y160088D01*
G01X105966Y159491D01*
G01X101019Y162628D02*
G01X99382Y162628D01*
G01X91186Y154432D01*
G01X70793Y159580D02*
G01X70793Y166449D01*
G01X70220Y167022D01*
G54D13*
G01X67564Y144526D02*
G01X79502Y144526D01*
G01X81280Y142748D01*
G01X85605Y142748D01*
G01X86113Y142240D01*
G54D12*
G01X70793Y154500D02*
G01X70793Y149170D01*
G01X71628Y148336D01*
G01X71628Y145439D01*
G01X70714Y144526D01*
G01X118126Y139208D02*
G01X118126Y145820D01*
G01X118979Y146674D01*
G01X73795Y157500D02*
G01X71253Y157500D01*
G01X70793Y157040D01*
G01X81836Y161015D02*
G01X77311Y161015D01*
G01X73795Y157500D01*
G01X73442Y147384D02*
G01X80970Y147384D01*
G01X83682Y144672D01*
G54D13*
G01X67564Y144526D02*
G01X65024Y147066D01*
G01X62230Y147066D01*
G54D14*
G01X62230Y147066D02*
G01X60960Y147066D01*
G01X50292Y157734D01*
G01X42387Y157734D01*
G54D12*
G01X59109Y138752D02*
G01X56065Y138752D01*
G01X54610Y140208D01*
G01X54610Y149860D01*
G01X49530Y154940D01*
G01X59109Y141292D02*
G01X59109Y142421D01*
G01X61722Y145034D01*
G01X65024Y145034D01*
G01X68072Y141986D01*
G01X69168Y141986D01*
G01X52307Y362949D02*
G01X52307Y361684D01*
G01X54799Y359192D01*
G01X53775Y370400D02*
G01X50868Y370400D01*
G01X47244Y366776D01*
G01X47244Y363220D01*
G01X76381Y370908D02*
G01X97209Y370908D01*
G01X97463Y370654D01*
G01X101808Y370654D02*
G01X103654Y368808D01*
G01X97463Y373194D02*
G01X99268Y373194D01*
G01X101808Y370654D01*
G01X104837Y370114D02*
G01X104837Y369283D01*
G01X105313Y368808D01*
G01X110284Y378439D02*
G01X110284Y373359D01*
G01X110284Y373359D02*
G01X110284Y370791D01*
G01X110727Y370348D01*
G01X110727Y370348D02*
G01X110727Y369305D01*
G01X111225Y368808D01*
G01X33600Y341190D02*
G01X44127Y341190D01*
G01X44196Y341122D01*
G01X38745Y329838D02*
G01X44049Y329838D01*
G01X44196Y329692D01*
G54D14*
G01X15180Y331829D02*
G01X15180Y330140D01*
G01X13208Y328168D01*
G01X3571Y328168D01*
G01X3556Y328183D01*
G54D12*
G01X33600Y343730D02*
G01X33088Y343730D01*
G01X31496Y342138D01*
G01X31496Y335280D01*
G01X31125Y334909D01*
G01X109982Y330708D02*
G01X97536Y330708D01*
G01X95758Y332486D01*
G01X95758Y337312D01*
G01X94234Y338836D01*
G01X93358Y338836D01*
G01X93290Y338904D01*
G54D13*
G01X33599Y338650D02*
G01X52646Y338650D01*
G01X57150Y343154D01*
G01X72644Y343154D01*
G01X79248Y336550D01*
G01X79248Y332232D01*
G01X79756Y331724D01*
G01X84836Y331724D01*
G01X86106Y332994D01*
G01X86106Y336290D01*
G01X86177Y336364D01*
G01X86177Y341444D02*
G01X87815Y341444D01*
G01X89662Y339598D01*
G01X89662Y330347D01*
G01X90571Y329438D01*
G54D12*
G01X78858Y316504D02*
G01X83586Y316504D01*
G01X84074Y316992D01*
G01X67104Y320568D02*
G01X67104Y322531D01*
G01X63500Y326136D01*
G01X63500Y331978D01*
G01X64262Y332740D01*
G01X65502Y332740D01*
G01X65648Y332593D01*
G54D13*
G01X46409Y229684D02*
G01X56823Y229684D01*
G01X46409Y234764D02*
G01X56823Y234764D01*
G54D12*
G01X56823Y232224D02*
G01X62298Y232224D01*
G01X66294Y236220D01*
G01X86351Y236220D01*
G01X87737Y237606D01*
G01X22967Y237606D02*
G01X38999Y237606D01*
G01X44196Y232410D01*
G01X46223Y232410D01*
G01X46409Y232224D01*
G54D14*
G01X12256Y240686D02*
G01X12256Y236917D01*
G01X15494Y233680D01*
G01X38862Y233680D01*
G01X42926Y229616D01*
G01X46341Y229616D01*
G01X46409Y229684D01*
G54D13*
G01X46409Y234764D02*
G01X46409Y247263D01*
G01X45260Y248412D01*
G54D12*
G01X68813Y246331D02*
G01X68813Y238739D01*
G01X66294Y236220D01*
G01X106099Y236288D02*
G01X106099Y228781D01*
G01X98552Y221234D01*
G01X95504Y221234D01*
G01X87376Y229362D01*
G01X57145Y229362D01*
G01X56823Y229684D01*
G01X105966Y178074D02*
G01X105966Y185145D01*
G01X105881Y185230D01*
G01X55609Y182134D02*
G01X55609Y187790D01*
G01X56097Y188278D01*
G01X59609Y182118D02*
G01X59609Y188266D01*
G01X59598Y188278D01*
G01X55557Y207082D02*
G01X55557Y203355D01*
G01X52216Y200014D01*
G01X49676Y192394D02*
G01X49676Y190861D01*
G01X52324Y188214D01*
G01X56033Y188214D01*
G01X56097Y188278D01*
G54D14*
G01X3556Y190131D02*
G01X13601Y190131D01*
G01X14986Y191516D01*
G01X14986Y193459D01*
G01X15180Y193653D01*
G01X12510Y193653D02*
G01X12510Y200724D01*
G01X21590Y209804D01*
G01X59690Y209804D01*
G01X60706Y208788D01*
G01X60706Y207150D01*
G01X60637Y207082D01*
G54D12*
G01X85009Y218440D02*
G01X85009Y215808D01*
G01X85426Y215392D01*
G01X77124Y218250D02*
G01X77124Y216111D01*
G01X77843Y215392D01*
G01X81009Y218456D02*
G01X81009Y218964D01*
G01X79756Y220218D01*
G01X75591Y220218D01*
G01X73623Y218250D01*
G01X60637Y207081D02*
G01X60637Y216085D01*
G01X68326Y223774D01*
G01X87122Y223774D01*
G01X97028Y213868D01*
G01X97028Y213868D02*
G01X97028Y192786D01*
G01X94742Y190500D01*
G01X91190Y190500D01*
G01X91004Y190314D01*
G01X119242Y190355D02*
G01X119242Y190362D01*
G01X121412Y192532D01*
G01X121412Y212554D01*
G01X91004Y195394D02*
G01X91004Y205558D01*
G01X92456Y207010D01*
G01X92456Y208788D01*
G01X90678Y210566D01*
G01X86868Y210566D01*
G01X86360Y210058D01*
G01X91004Y192854D02*
G01X85783Y192854D01*
G01X84074Y194564D01*
G01X84074Y203708D01*
G01X81534Y206248D01*
G01X76708Y206248D01*
G01X74930Y208026D01*
G01X74930Y212090D01*
G01X75692Y212852D01*
G01X76932Y212852D01*
G01X77078Y212705D01*
G01X70337Y199946D02*
G01X70337Y203433D01*
G01X74930Y208026D01*
G01X86478Y199664D02*
G01X86478Y201303D01*
G01X84074Y203708D01*
G01X121412Y212554D02*
G01X121412Y212598D01*
G01X119888Y214122D01*
G01X114808Y214122D01*
G01X113284Y215646D01*
G01X113284Y216920D01*
G01X113215Y216988D01*
G01X97028Y213868D02*
G01X106934Y213868D01*
G01X112268Y219202D01*
G01X117094Y219202D01*
G01X118364Y217932D01*
G01X118364Y217055D01*
G01X118295Y216987D01*
G01X113215Y216988D02*
G01X112086Y216988D01*
G01X98298Y203200D01*
G01X105966Y178074D02*
G01X107938Y178074D01*
G01X111235Y181372D01*
G01X111235Y181372D02*
G01X109711Y181372D01*
G01X107696Y183388D01*
G01X107696Y187706D01*
G01X105156Y190246D01*
G01X102870Y193040D02*
G01X102870Y193294D01*
G01X104902Y195326D01*
G01X104902Y196596D01*
G01X105156Y190246D02*
G01X105156Y194310D01*
G01X29697Y363679D02*
G01X33761Y363679D01*
G01X102849Y354281D02*
G01X105385Y354281D01*
G01X107696Y356592D01*
G01X78437Y348254D02*
G01X74147Y348254D01*
G01X73914Y348488D01*
G01X66937Y348254D02*
G01X66937Y351654D01*
G01X64516Y354076D01*
G54D13*
G01X61219Y365135D02*
G01X61351Y365135D01*
G01X65532Y369316D01*
G01X74789Y369316D01*
G01X76381Y370908D01*
G54D12*
G01X58907Y361069D02*
G01X61095Y361069D01*
G01X64770Y364744D01*
G01X68072Y364744D01*
G01X70104Y362712D01*
G01X71403Y362712D01*
G01X71520Y362595D01*
G01X83291Y366403D02*
G01X77868Y366403D01*
G01X74060Y362595D01*
G01X76381Y373448D02*
G01X78836Y373448D01*
G01X83291Y377903D01*
G01X64634Y348467D02*
G01X64634Y347706D01*
G01X63637Y346710D01*
G01X53134Y348467D02*
G01X53134Y352503D01*
G01X52832Y352806D01*
G01X114418Y339577D02*
G01X114418Y347099D01*
G01X113284Y348234D01*
G01X25956Y302534D02*
G01X25956Y306724D01*
G01X26043Y306811D01*
G01X26043Y306811D02*
G01X16812Y306811D01*
G01X12679Y310944D01*
G01X12679Y310944D02*
G01X12679Y318173D01*
G01X17038Y322531D01*
G01X37543Y306811D02*
G01X37543Y319834D01*
G01X36546Y320831D01*
G01X37456Y302534D02*
G01X49804Y302534D01*
G01X51054Y303784D01*
G01X91673Y307642D02*
G01X94595Y307642D01*
G01X94762Y307475D01*
G01X94762Y307475D02*
G01X101650Y307475D01*
G01X104599Y304525D01*
G01X104599Y304525D02*
G01X104599Y306529D01*
G01X107696Y309626D01*
G01X94762Y318975D02*
G01X103075Y318975D01*
G01X103963Y319863D01*
G01X107950Y321818D02*
G01X94349Y321818D01*
G01X91673Y319142D01*
G01X56113Y319834D02*
G01X59387Y319834D01*
G01X59690Y319532D01*
G01X86085Y319396D02*
G01X80636Y319396D01*
G01X79756Y318516D01*
G01X73914Y318516D01*
G01X68072Y324358D01*
G01X68072Y329937D01*
G01X68188Y330053D01*
G01X47010Y317381D02*
G01X48903Y317381D01*
G01X51054Y319532D01*
G01X47010Y328881D02*
G01X53661Y328881D01*
G01X56113Y331334D01*
G01X51680Y263631D02*
G01X51680Y260457D01*
G01X51767Y260370D01*
G01X51767Y260370D02*
G01X51767Y257068D01*
G01X51767Y257068D02*
G01X51767Y254713D01*
G01X50292Y253238D01*
G01X28420Y253238D01*
G01X28145Y253512D01*
G01X28145Y250464D02*
G01X28145Y253512D01*
G01X40267Y257068D02*
G01X27706Y257068D01*
G01X26924Y256286D01*
G01X91694Y251968D02*
G01X91694Y243078D01*
G01X94742Y240030D01*
G01X94742Y229870D01*
G01X92710Y253238D02*
G01X92710Y243840D01*
G01X95250Y241300D01*
G01X87630Y256032D02*
G01X87630Y245334D01*
G01X87737Y245226D01*
G01X91321Y270022D02*
G01X99334Y270022D01*
G01X100838Y271526D01*
G01X110009Y271526D01*
G01X110538Y270997D01*
G01X108671Y263692D02*
G01X108671Y261914D01*
G01X109982Y260604D01*
G01X109982Y256794D02*
G01X109982Y254508D01*
G01X113792Y250698D01*
G01X105934Y261128D02*
G01X105934Y263922D01*
G01X106680Y264668D01*
G01X109755Y264668D01*
G01X110284Y264139D01*
G01X107188Y263652D02*
G01X107188Y262128D01*
G01X107696Y261620D01*
G01X107696Y260604D01*
G01X107696Y256794D02*
G01X107696Y252222D01*
G01X110490Y249428D01*
G01X114417Y249428D01*
G01X115062Y248783D01*
G01X39996Y222524D02*
G01X42749Y222524D01*
G01X48493Y216780D01*
G01X48493Y216780D02*
G01X51240Y216780D01*
G01X51328Y216867D01*
G01X46736Y207010D02*
G01X44958Y207010D01*
G01X43942Y208026D01*
G01X28496Y216682D02*
G01X28496Y219730D01*
G01X28496Y219730D02*
G01X37202Y219730D01*
G01X39996Y222524D01*
G01X39996Y216682D02*
G01X39996Y213241D01*
G01X41910Y211328D01*
G01X41910Y186690D02*
G01X46990Y186690D01*
G01X47244Y186944D01*
G01X47244Y188722D01*
G01X39996Y219730D02*
G01X39996Y219083D01*
G01X46228Y212852D01*
G01X58928Y212852D01*
G01X68580Y211074D02*
G01X68580Y210566D01*
G01X60706Y202692D01*
G01X60706Y195072D01*
G01X60198Y194564D01*
G01X52586Y194564D01*
G01X52216Y194934D01*
G01X75486Y185186D02*
G01X75486Y188234D01*
G01X75486Y188234D02*
G01X74401Y188234D01*
G01X70612Y192024D01*
G01X70612Y199671D01*
G01X70337Y199946D01*
G01X86986Y191282D02*
G01X89432Y191282D01*
G01X91004Y192854D01*
G01X75486Y191282D02*
G01X75486Y197309D01*
G01X86986Y188234D02*
G01X83268Y188234D01*
G01X82804Y188699D01*
G01X108966Y191516D02*
G01X108966Y194056D01*
G01X109728Y194818D01*
G01X113030Y194818D01*
G01X114046Y193802D01*
G01X114046Y193010D01*
G01X114162Y192893D01*
G01X100817Y178102D02*
G01X105938Y178102D01*
G01X105966Y178074D01*
G01X107442Y195326D02*
G01X107442Y191262D01*
G01X109728Y188976D01*
G01X112784Y188976D01*
G01X114162Y190353D01*
G01X110030Y206296D02*
G01X110030Y205691D01*
G01X119380Y196342D01*
G01X119380Y193031D01*
G01X119242Y192893D01*
G01X110030Y223794D02*
G01X118482Y223794D01*
G01X121530Y220746D01*
G01X105712Y170921D02*
G01X105712Y168127D01*
G01X105712Y168127D02*
G01X105712Y165461D01*
G01X105799Y165374D01*
G01X105799Y165374D02*
G01X105799Y162706D01*
G01X105966Y162539D01*
G01X105966Y162539D02*
G01X105966Y159491D01*
G01X110425Y144308D02*
G01X116613Y144308D01*
G01X118979Y146674D01*
G01X110425Y144308D02*
G01X103849Y144308D01*
G01X102362Y145796D01*
G01X102362Y150368D01*
G01X104902Y152908D01*
G01X117299Y165374D02*
G01X117581Y165374D01*
G01X119380Y163576D01*
G01X119380Y154694D01*
G01X118979Y154294D01*
G01X117212Y170921D02*
G01X118638Y170921D01*
G01X120396Y169164D01*
G01X120396Y150630D01*
G01X118979Y149214D01*
G01X108966Y153162D02*
G01X108966Y149098D01*
G01X109220Y148844D01*
G01X85392Y176001D02*
G01X85392Y173207D01*
G01X85392Y173207D02*
G01X85392Y170541D01*
G01X85479Y170454D01*
G01X115235Y181356D02*
G01X115235Y184577D01*
G01X115316Y184658D01*
G01X97536Y149606D02*
G01X96236Y149606D01*
G01X91302Y144672D01*
G01X88900Y149606D02*
G01X88900Y152908D01*
G01X89154Y153162D01*
G01X96892Y176001D02*
G01X99080Y176001D01*
G01X103886Y171196D01*
G01X103886Y161544D01*
G01X103886Y153416D02*
G01X98552Y148082D01*
G01X98552Y145542D01*
G01X96266Y143256D01*
G01X61996Y160900D02*
G01X62094Y160900D01*
G01X64516Y163322D01*
G01X64516Y165354D01*
G01X64008Y165862D01*
G01X61722Y168148D02*
G01X73914Y168148D01*
G01X29210Y159766D02*
G01X56388Y159766D01*
G01X56896Y160274D01*
G01X29718Y163830D02*
G01X39624Y163830D01*
G01X44704Y168910D01*
G01X48260Y168910D01*
G01X48768Y168402D01*
G01X50300Y168402D01*
G01X51678Y167024D01*
G01X29718Y165862D02*
G01X29718Y165608D01*
G01X28702Y164592D01*
G01X28702Y163068D01*
G01X29210Y162560D01*
G01X51054Y162560D01*
G01X51562Y163068D01*
G01X51562Y164368D01*
G01X51678Y164482D01*
G01X61705Y175530D02*
G01X61705Y179122D01*
G01X61927Y179344D01*
G01X61705Y175530D02*
G01X56557Y175530D01*
G01X56323Y175296D01*
G01X56323Y175296D02*
G01X47280Y175296D01*
G01X46990Y175006D01*
G01X46990Y167386D02*
G01X46990Y166632D01*
G01X49138Y164484D01*
G01X28907Y178328D02*
G01X44470Y178328D01*
G01X47244Y181102D01*
G01X53340Y181102D01*
G01X56896Y177546D01*
G01X56896Y175868D01*
G01X56323Y175296D01*
G01X61705Y175530D02*
G01X61959Y175530D01*
G01X63500Y173990D01*
G01X63500Y169926D01*
G01X61722Y168148D01*
G01X26416Y188214D02*
G01X45466Y188214D01*
G01X45974Y187706D01*
G01X23912Y229680D02*
G01X25940Y229680D01*
G01X27669Y231410D01*
G01X16489Y225687D02*
G01X19919Y225687D01*
G01X23912Y229680D01*
G01X16764Y235204D02*
G01X22352Y235204D01*
G01X23114Y235966D01*
G01X23114Y237460D01*
G01X22967Y237606D01*
G01X63012Y263770D02*
G01X60824Y263770D01*
G01X56134Y259080D01*
G01X56134Y249936D01*
G01X56134Y246634D02*
G01X68511Y246634D01*
G01X68813Y246331D01*
G01X71374Y353822D02*
G01X72870Y353822D01*
G01X78437Y348254D01*
G54D18*
G01X12510Y159914D03*
G54D19*
G01X9839Y159914D03*
G54D18*
G01X15180Y159914D03*
G01X12256Y240686D03*
G54D19*
G01X9585Y240686D03*
G54D18*
G01X14926Y240686D03*
G01X12510Y355240D03*
G54D19*
G01X9839Y355240D03*
G54D18*
G01X15180Y355240D03*
G54D20*
G01X112014Y361442D03*
G01X78232Y352298D03*
G01X41910Y352298D03*
G01X120650Y261620D03*
G01X80264Y232410D03*
G01X17018Y247396D03*
G01X111252Y151892D03*
G01X96266Y151638D03*
G01X50546Y169926D03*
G54D21*
G01X110236Y124968D03*
G01X110236Y122428D03*
G01X110236Y119888D03*
G01X110236Y117348D03*
G01X110236Y114808D03*
G01X110236Y112268D03*
G01X110236Y109728D03*
G01X110236Y107188D03*
G01X102108Y107188D03*
G01X102108Y109728D03*
G01X102108Y112268D03*
G01X102108Y114808D03*
G01X102108Y117348D03*
G01X102108Y119888D03*
G01X102108Y122428D03*
G01X102108Y124968D03*
G01X71882Y124968D03*
G01X71882Y122428D03*
G01X71882Y119888D03*
G01X71882Y117348D03*
G01X71882Y114808D03*
G01X71882Y112268D03*
G01X71882Y109728D03*
G01X71882Y107188D03*
G01X63754Y107188D03*
G01X63754Y109728D03*
G01X63754Y112268D03*
G01X63754Y114808D03*
G01X63754Y117348D03*
G01X63754Y119888D03*
G01X63754Y122428D03*
G01X63754Y124968D03*
G01X71882Y293116D03*
G01X71882Y290576D03*
G01X71882Y288036D03*
G01X71882Y285496D03*
G01X71882Y282956D03*
G01X71882Y280416D03*
G01X71882Y277876D03*
G01X71882Y275336D03*
G01X63754Y275336D03*
G01X63754Y277876D03*
G01X63754Y280416D03*
G01X63754Y282956D03*
G01X63754Y285496D03*
G01X63754Y288036D03*
G01X63754Y290576D03*
G01X63754Y293116D03*
G01X110236Y293116D03*
G01X110236Y290576D03*
G01X110236Y288036D03*
G01X110236Y285496D03*
G01X110236Y282956D03*
G01X110236Y280416D03*
G01X110236Y277876D03*
G01X110236Y275336D03*
G01X102108Y275336D03*
G01X102108Y277876D03*
G01X102108Y280416D03*
G01X102108Y282956D03*
G01X102108Y285496D03*
G01X102108Y288036D03*
G01X102108Y290576D03*
G01X102108Y293116D03*
G54D20*
G01X91302Y147212D03*
G01X91302Y144672D03*
G01X88762Y147212D03*
G01X88762Y144672D03*
G01X86222Y147212D03*
G01X86222Y144672D03*
G01X83682Y147212D03*
G54D22*
G01X83682Y144670D03*
G54D20*
G01X56758Y167024D03*
G01X56758Y164484D03*
G01X54218Y167024D03*
G01X54218Y164484D03*
G01X51678Y167024D03*
G01X51678Y164484D03*
G01X49138Y167024D03*
G54D22*
G01X49138Y164482D03*
G54D20*
G01X120004Y257956D03*
G01X120004Y255416D03*
G01X117464Y257956D03*
G01X117464Y255416D03*
G01X114924Y257956D03*
G01X114924Y255416D03*
G01X112384Y257956D03*
G54D22*
G01X112384Y255414D03*
G54D20*
G01X39253Y355453D03*
G01X39253Y357993D03*
G01X41793Y355453D03*
G01X41793Y357993D03*
G01X44333Y355453D03*
G01X44333Y357993D03*
G01X46873Y355453D03*
G54D22*
G01X46873Y357992D03*
G54D20*
G01X116439Y365114D03*
G01X118979Y365114D03*
G01X116439Y362574D03*
G01X118979Y362574D03*
G01X116439Y360034D03*
G01X118979Y360034D03*
G01X116439Y357494D03*
G54D22*
G01X118981Y357494D03*
G54D20*
G01X74060Y357515D03*
G01X71520Y357515D03*
G01X74060Y360055D03*
G01X71520Y360055D03*
G01X74060Y362595D03*
G01X71520Y362595D03*
G01X74060Y365135D03*
G54D22*
G01X71521Y365135D03*
G54D18*
G01X110284Y378439D03*
G01X121784Y378439D03*
G01X61516Y372597D03*
G01X73016Y372597D03*
G01X29697Y363679D03*
G01X29697Y352179D03*
G01X110727Y370348D03*
G01X110744Y366348D03*
G54D20*
G01X104837Y370114D03*
G01X104837Y366613D03*
G54D18*
G01X63229Y359139D03*
G01X67229Y359156D03*
G54D20*
G01X65975Y366558D03*
G01X65975Y363057D03*
G54D18*
G01X52307Y362949D03*
G01X56307Y362966D03*
G54D20*
G01X54799Y359192D03*
G01X54799Y355691D03*
G54D18*
G01X33761Y363679D03*
G01X33761Y352179D03*
G01X81259Y364187D03*
G01X81259Y352687D03*
G01X110284Y373359D03*
G01X121784Y373359D03*
G01X106728Y348213D03*
G01X118228Y348213D03*
G01X85364Y352600D03*
G01X85364Y364100D03*
G01X50751Y348508D03*
G01X39251Y348508D03*
G01X110284Y264139D03*
G01X121784Y264139D03*
G01X77703Y246331D03*
G01X77703Y234831D03*
G01X28145Y250464D03*
G01X16645Y250464D03*
G01X105934Y261128D03*
G01X101934Y261112D03*
G54D20*
G01X104583Y255814D03*
G01X104583Y252313D03*
G54D18*
G01X100059Y246396D03*
G01X100076Y242396D03*
G54D20*
G01X94931Y247686D03*
G01X94931Y244185D03*
G54D18*
G01X27669Y231410D03*
G01X27686Y227410D03*
G54D20*
G01X23912Y229680D03*
G01X20411Y229680D03*
G54D18*
G01X110538Y270997D03*
G01X122038Y270997D03*
G01X68813Y246331D03*
G01X68813Y234831D03*
G01X28145Y253512D03*
G01X16645Y253512D03*
G01X121871Y267736D03*
G01X110371Y267736D03*
G01X73426Y234744D03*
G01X73426Y246244D03*
G01X16489Y237187D03*
G01X16489Y225687D03*
G01X105966Y159491D03*
G01X117466Y159491D03*
G01X81836Y161015D03*
G01X93336Y161015D03*
G01X73865Y165374D03*
G01X62365Y165374D03*
G01X73168Y142002D03*
G01X69168Y141986D03*
G54D20*
G01X73442Y147384D03*
G01X69941Y147384D03*
G54D18*
G01X61705Y175530D03*
G01X61722Y171530D03*
G54D20*
G01X56323Y175296D03*
G01X56323Y171795D03*
G54D18*
G01X105966Y162539D03*
G01X117466Y162539D03*
G01X73708Y154665D03*
G01X85208Y154665D03*
G01X61927Y179344D03*
G01X50427Y179344D03*
G01X120601Y130830D03*
G01X109101Y130830D03*
G01X85295Y157500D03*
G01X73795Y157500D03*
G01X61996Y149400D03*
G01X61996Y160900D03*
G01X118126Y139208D03*
G01X114126Y139192D03*
G54D20*
G01X110425Y144308D03*
G01X110425Y140807D03*
G01X116439Y154294D03*
G01X118979Y154294D03*
G01X116439Y151754D03*
G01X118979Y151754D03*
G01X116439Y149214D03*
G01X118979Y149214D03*
G01X116439Y146674D03*
G54D22*
G01X118981Y146674D03*
G54D20*
G01X85197Y245226D03*
G01X87737Y245226D03*
G01X85197Y242686D03*
G01X87737Y242686D03*
G01X85197Y240146D03*
G01X87737Y240146D03*
G01X85197Y237606D03*
G54D22*
G01X87739Y237606D03*
G54D20*
G01X20427Y245226D03*
G01X22967Y245226D03*
G01X20427Y242686D03*
G01X22967Y242686D03*
G01X20427Y240146D03*
G01X22967Y240146D03*
G01X20427Y237606D03*
G54D22*
G01X22969Y237606D03*
G54D20*
G01X101019Y162628D03*
G01X101019Y160088D03*
G01X101019Y157548D03*
G01X70793Y159580D03*
G01X70793Y157040D03*
G01X70793Y154500D03*
G01X59109Y141292D03*
G01X59109Y138752D03*
G01X59109Y136212D03*
G54D18*
G01X102849Y354281D03*
G01X102849Y342781D03*
G01X78437Y348254D03*
G01X66937Y348254D03*
G01X49227Y342920D03*
G01X37727Y342920D03*
G01X102918Y339577D03*
G01X114418Y339577D03*
G01X83291Y377903D03*
G01X83291Y366403D03*
G01X53134Y348467D03*
G01X64634Y348467D03*
G01X107236Y345165D03*
G01X118736Y345165D03*
G01X58907Y372569D03*
G01X58907Y361069D03*
G01X25379Y363679D03*
G01X25379Y352179D03*
G01X102821Y270022D03*
G01X91321Y270022D03*
G01X63012Y252270D03*
G01X63012Y263770D03*
G01X40180Y263631D03*
G01X51680Y263631D03*
G01X91234Y267441D03*
G01X102734Y267441D03*
G01X66273Y263857D03*
G01X66273Y252357D03*
G01X51767Y260370D03*
G01X40267Y260370D03*
G01X91234Y264139D03*
G01X102734Y264139D03*
G01X69321Y263857D03*
G01X69321Y252357D03*
G01X51767Y257068D03*
G01X40267Y257068D03*
G54D20*
G01X46409Y234764D03*
G01X46409Y232224D03*
G01X46409Y229684D03*
G01X97463Y375734D03*
G01X97463Y373194D03*
G01X97463Y370654D03*
G01X76381Y375988D03*
G01X76381Y373448D03*
G01X76381Y370908D03*
G01X106099Y241368D03*
G01X106099Y238828D03*
G01X106099Y236288D03*
G01X53775Y375480D03*
G01X53775Y372940D03*
G01X53775Y370400D03*
G01X56823Y234764D03*
G01X56823Y232224D03*
G01X56823Y229684D03*
G54D18*
G01X117299Y165374D03*
G01X105799Y165374D03*
G01X96979Y170454D03*
G01X85479Y170454D03*
G01X17320Y172699D03*
G01X28820Y172699D03*
G01X105712Y168127D03*
G01X117212Y168127D03*
G01X85392Y173207D03*
G01X96892Y173207D03*
G01X28907Y175280D03*
G01X17407Y175280D03*
G01X105712Y170921D03*
G01X117212Y170921D03*
G01X85392Y176001D03*
G01X96892Y176001D03*
G01X28907Y178328D03*
G01X17407Y178328D03*
G01X12510Y193653D03*
G54D19*
G01X9839Y193653D03*
G54D18*
G01X15180Y193653D03*
G01X12510Y331829D03*
G54D19*
G01X9839Y331829D03*
G54D18*
G01X15180Y331829D03*
G54D23*
G01X32939Y38314D03*
G54D21*
G01X32939Y43314D03*
G54D22*
G01X68580Y39624D03*
G54D20*
G01X68580Y37084D03*
G01X71120Y39624D03*
G01X71120Y37084D03*
G01X73660Y39624D03*
G01X73660Y37084D03*
G01X76200Y39624D03*
G01X76200Y37084D03*
G01X78740Y39624D03*
G01X78740Y37084D03*
G01X81280Y39624D03*
G01X81280Y37084D03*
G01X83820Y39624D03*
G01X83820Y37084D03*
G01X86360Y39624D03*
G01X86360Y37084D03*
G01X88900Y39624D03*
G01X88900Y37084D03*
G01X91440Y39624D03*
G01X91440Y37084D03*
G01X93980Y39624D03*
G01X93980Y37084D03*
G01X96520Y39624D03*
G01X96520Y37084D03*
G01X99060Y39624D03*
G01X99060Y37084D03*
G01X101600Y39624D03*
G01X101600Y37084D03*
G01X104140Y39624D03*
G01X104140Y37084D03*
G01X106680Y39624D03*
G01X106680Y37084D03*
G01X109220Y39624D03*
G01X109220Y37084D03*
G01X111760Y39624D03*
G01X111760Y37084D03*
G01X114300Y39624D03*
G01X114300Y37084D03*
G01X116840Y39624D03*
G01X116840Y37084D03*
G01X58420Y197358D03*
G01X90170Y207518D03*
G01X115824Y186690D03*
G01X28702Y335534D03*
G01X78740Y323088D03*
G01X120904Y325120D03*
G54D22*
G01X54356Y37084D03*
G54D20*
G01X51816Y37084D03*
G01X54356Y39624D03*
G01X51816Y39624D03*
G01X54356Y42164D03*
G01X51816Y42164D03*
G01X54356Y44704D03*
G01X51816Y44704D03*
G01X54356Y47244D03*
G01X51816Y47244D03*
G01X54356Y49784D03*
G01X51816Y49784D03*
G01X54356Y52324D03*
G01X51816Y52324D03*
G01X54356Y54864D03*
G01X51816Y54864D03*
G01X54356Y57404D03*
G01X51816Y57404D03*
G01X54356Y59944D03*
G01X51816Y59944D03*
G01X54356Y62484D03*
G01X51816Y62484D03*
G01X54356Y65024D03*
G01X51816Y65024D03*
G01X54356Y67564D03*
G01X51816Y67564D03*
G01X54356Y70104D03*
G01X51816Y70104D03*
G01X54356Y72644D03*
G01X51816Y72644D03*
G01X54356Y75184D03*
G01X51816Y75184D03*
G01X54356Y77724D03*
G01X51816Y77724D03*
G01X54356Y80264D03*
G01X51816Y80264D03*
G01X54356Y82804D03*
G01X51816Y82804D03*
G01X54356Y85344D03*
G01X51816Y85344D03*
G54D18*
G01X10011Y119061D03*
G54D19*
G01X10011Y121732D03*
G54D18*
G01X10011Y116391D03*
G01X10011Y279335D03*
G54D19*
G01X10011Y282006D03*
G54D18*
G01X10011Y276665D03*
G54D21*
G01X45720Y124968D03*
G01X45720Y122428D03*
G01X45720Y119888D03*
G01X45720Y117348D03*
G01X45720Y114808D03*
G01X45720Y112268D03*
G01X45720Y109728D03*
G01X45720Y107188D03*
G01X53848Y107188D03*
G01X53848Y109728D03*
G01X53848Y112268D03*
G01X53848Y114808D03*
G01X53848Y117348D03*
G01X53848Y119888D03*
G01X53848Y122428D03*
G01X53848Y124968D03*
G01X84074Y124968D03*
G01X84074Y122428D03*
G01X84074Y119888D03*
G01X84074Y117348D03*
G01X84074Y114808D03*
G01X84074Y112268D03*
G01X84074Y109728D03*
G01X84074Y107188D03*
G01X92202Y107188D03*
G01X92202Y109728D03*
G01X92202Y112268D03*
G01X92202Y114808D03*
G01X92202Y117348D03*
G01X92202Y119888D03*
G01X92202Y122428D03*
G01X92202Y124968D03*
G54D23*
G01X29972Y275590D03*
G54D21*
G01X29972Y278130D03*
G01X29972Y280670D03*
G01X29972Y283210D03*
G01X29972Y285750D03*
G01X29972Y288290D03*
G01X29972Y290830D03*
G01X22352Y290830D03*
G01X22352Y288290D03*
G01X22352Y285750D03*
G01X22352Y283210D03*
G01X22352Y280670D03*
G01X22352Y278130D03*
G01X22352Y275590D03*
G01X84074Y293116D03*
G01X84074Y290576D03*
G01X84074Y288036D03*
G01X84074Y285496D03*
G01X84074Y282956D03*
G01X84074Y280416D03*
G01X84074Y277876D03*
G01X84074Y275336D03*
G01X92202Y275336D03*
G01X92202Y277876D03*
G01X92202Y280416D03*
G01X92202Y282956D03*
G01X92202Y285496D03*
G01X92202Y288036D03*
G01X92202Y290576D03*
G01X92202Y293116D03*
G01X43180Y293116D03*
G01X43180Y290576D03*
G01X43180Y288036D03*
G01X43180Y285496D03*
G01X43180Y282956D03*
G01X43180Y280416D03*
G01X43180Y277876D03*
G01X43180Y275336D03*
G01X51308Y275336D03*
G01X51308Y277876D03*
G01X51308Y280416D03*
G01X51308Y282956D03*
G01X51308Y285496D03*
G01X51308Y288036D03*
G01X51308Y290576D03*
G01X51308Y293116D03*
G54D20*
G01X55557Y207082D03*
G01X58097Y207082D03*
G01X60637Y207082D03*
G01X91004Y195394D03*
G01X91004Y192854D03*
G01X91004Y190314D03*
G54D18*
G01X28496Y222524D03*
G01X39996Y222524D03*
G01X75486Y191282D03*
G01X86986Y191282D03*
G01X110030Y220746D03*
G01X121530Y220746D03*
G01X37543Y306811D03*
G01X26043Y306811D03*
G01X56113Y319834D03*
G01X56113Y331334D03*
G01X94762Y318975D03*
G01X94762Y307475D03*
G01X28496Y219730D03*
G01X39996Y219730D03*
G01X75486Y188234D03*
G01X86986Y188234D03*
G01X110030Y223794D03*
G01X121530Y223794D03*
G01X25956Y302534D03*
G01X37456Y302534D03*
G01X86085Y307896D03*
G01X86085Y319396D03*
G01X91673Y307642D03*
G01X91673Y319142D03*
G01X100817Y178102D03*
G01X100817Y189602D03*
G01X75486Y185186D03*
G01X86986Y185186D03*
G01X28496Y216682D03*
G01X39996Y216682D03*
G01X104599Y304525D03*
G01X93099Y304525D03*
G01X47010Y328881D03*
G01X47010Y317381D03*
G01X12679Y310944D03*
G01X12679Y322444D03*
G01X51328Y216867D03*
G01X51328Y205367D03*
G01X70337Y199946D03*
G01X70337Y211446D03*
G01X105966Y174772D03*
G01X117466Y174772D03*
G01X25928Y322531D03*
G01X25928Y311031D03*
G01X52344Y343105D03*
G01X52344Y331605D03*
G01X115013Y332211D03*
G01X103513Y332211D03*
G01X81009Y218456D03*
G01X85009Y218440D03*
G01X111235Y181372D03*
G01X115235Y181356D03*
G01X25670Y334501D03*
G01X21670Y334518D03*
G54D20*
G01X24928Y328865D03*
G01X21427Y328865D03*
G54D18*
G01X67580Y337803D03*
G01X63580Y337820D03*
G54D20*
G01X58101Y337529D03*
G01X58101Y341030D03*
G54D18*
G01X112505Y302497D03*
G01X112522Y306497D03*
G54D20*
G01X116295Y304356D03*
G01X119796Y304356D03*
G54D18*
G01X105966Y178074D03*
G01X117466Y178074D03*
G01X93197Y200454D03*
G01X93197Y211954D03*
G01X62971Y190040D03*
G01X62971Y201540D03*
G01X17038Y322531D03*
G01X17038Y311031D03*
G01X67104Y320568D03*
G01X78604Y320568D03*
G01X115013Y327893D03*
G01X103513Y327893D03*
G54D20*
G01X52216Y200014D03*
G01X49676Y200014D03*
G01X52216Y197474D03*
G01X49676Y197474D03*
G01X52216Y194934D03*
G01X49676Y194934D03*
G01X52216Y192394D03*
G54D22*
G01X49677Y192394D03*
G54D20*
G01X119242Y190353D03*
G01X119242Y192893D03*
G01X116702Y190353D03*
G01X116702Y192893D03*
G01X114162Y190353D03*
G01X114162Y192893D03*
G01X111622Y190353D03*
G54D22*
G01X111622Y192892D03*
G54D20*
G01X31125Y332378D03*
G01X31125Y329838D03*
G01X33665Y332378D03*
G01X33665Y329838D03*
G01X36205Y332378D03*
G01X36205Y329838D03*
G01X38745Y332378D03*
G54D22*
G01X38745Y329836D03*
G54D20*
G01X73268Y330053D03*
G01X73268Y332593D03*
G01X70728Y330053D03*
G01X70728Y332593D03*
G01X68188Y330053D03*
G01X68188Y332593D03*
G01X65648Y330053D03*
G54D22*
G01X65648Y332592D03*
G54D20*
G01X120288Y319902D03*
G01X117748Y319902D03*
G01X120288Y317362D03*
G01X117748Y317362D03*
G01X120288Y314822D03*
G01X117748Y314822D03*
G01X120288Y312282D03*
G54D22*
G01X117749Y312282D03*
G54D20*
G01X84698Y210165D03*
G01X84698Y212705D03*
G01X82158Y210165D03*
G01X82158Y212705D03*
G01X79618Y210165D03*
G01X79618Y212705D03*
G01X77078Y210165D03*
G54D22*
G01X77078Y212704D03*
G54D18*
G01X48493Y205280D03*
G01X48493Y216780D03*
G01X74978Y199664D03*
G01X86478Y199664D03*
G01X98572Y199087D03*
G01X98572Y187587D03*
G01X21569Y310944D03*
G01X21569Y322444D03*
G01X67358Y316504D03*
G01X78858Y316504D03*
G01X103426Y324632D03*
G01X114926Y324632D03*
G01X55609Y182134D03*
G01X59609Y182118D03*
G54D20*
G01X33600Y343730D03*
G01X33600Y341190D03*
G01X33600Y338650D03*
G01X86178Y341444D03*
G01X86178Y338904D03*
G01X86178Y336364D03*
G01X93290Y341444D03*
G01X93290Y338904D03*
G01X93290Y336364D03*
G01X113215Y216988D03*
G01X115755Y216988D03*
G01X118295Y216988D03*
G01X73623Y218250D03*
G01X77124Y218250D03*
G01X109382Y185230D03*
G01X105881Y185230D03*
G01X56097Y188278D03*
G01X59598Y188278D03*
G54D24*
G01X116586Y26670D03*
G01X116586Y4670D03*
G01X7620Y26670D03*
G01X7620Y4670D03*
G54D16*
G01X81026Y87884D03*
G01X81026Y89916D03*
G01X104394Y146558D03*
G01X100076Y136652D03*
G01X97282Y141224D03*
G01X96266Y136652D03*
G01X96266Y141224D03*
G01X91186Y141224D03*
G01X96266Y143256D03*
G01X81280Y133604D03*
G01X51308Y149860D03*
G01X63754Y135128D03*
G01X63754Y140716D03*
G01X102362Y135636D03*
G01X65532Y143002D03*
G01X97282Y132588D03*
G01X45720Y97028D03*
G01X55880Y123698D03*
G01X45974Y187706D03*
G01X70104Y133096D03*
G01X74422Y136652D03*
G01X71628Y142494D03*
G01X75438Y136652D03*
G01X75438Y140716D03*
G01X75438Y170180D03*
G01X70358Y170180D03*
G01X107696Y147574D03*
G01X107696Y153162D03*
G01X82804Y182118D03*
G01X79502Y203200D03*
G01X77978Y136652D03*
G01X77978Y140716D03*
G01X75692Y173482D03*
G01X66040Y173482D03*
G01X47244Y188722D03*
G01X66548Y133096D03*
G01X66040Y136652D03*
G01X65786Y140716D03*
G01X98806Y128270D03*
G01X82296Y180594D03*
G01X65532Y180594D03*
G01X122174Y234442D03*
G01X88138Y128016D03*
G01X120142Y137160D03*
G01X86868Y129032D03*
G01X120142Y139192D03*
G01X121158Y172466D03*
G01X106172Y196342D03*
G01X115062Y232664D03*
G01X85852Y125984D03*
G01X76454Y136652D03*
G01X76454Y140716D03*
G01X91186Y177800D03*
G01X103632Y195580D03*
G01X91186Y233426D03*
G01X77470Y125730D03*
G01X77470Y128778D03*
G01X91948Y133604D03*
G01X93472Y136652D03*
G01X93472Y139700D03*
G01X102870Y179578D03*
G01X104902Y196596D03*
G01X108204Y229362D03*
G01X69850Y131826D03*
G01X66040Y131826D03*
G01X64770Y136144D03*
G01X64770Y141732D03*
G01X64516Y172212D03*
G01X102108Y195326D03*
G01X39878Y155956D03*
G01X96520Y223266D03*
G01X41910Y149352D03*
G01X38862Y155956D03*
G01X75438Y239014D03*
G01X50546Y125476D03*
G01X49276Y124968D03*
G01X48006Y124206D03*
G01X50546Y141224D03*
G01X49276Y139446D03*
G01X48006Y138430D03*
G01X39624Y141224D03*
G01X38100Y139446D03*
G01X36576Y138430D03*
G01X43942Y110998D03*
G01X33782Y274066D03*
G01X50546Y87884D03*
G01X51308Y89916D03*
G01X38862Y108204D03*
G01X38862Y110998D03*
G01X32766Y268224D03*
G01X52324Y87884D03*
G01X36830Y108204D03*
G01X36830Y111760D03*
G01X31750Y266954D03*
G01X34798Y108204D03*
G01X34798Y112522D03*
G01X30734Y265684D03*
G01X41148Y243078D03*
G01X41148Y241808D03*
G01X41148Y240538D03*
G01X41148Y239268D03*
G01X29718Y239268D03*
G01X44958Y352298D03*
G01X43434Y351536D03*
G01X80518Y362712D03*
G01X106426Y331978D03*
G01X82296Y333756D03*
G01X36322Y353314D03*
G01X72390Y347726D03*
G01X68834Y353568D03*
G01X107696Y349758D03*
G01X110490Y363728D03*
G01X46736Y345694D03*
G01X37338Y353314D03*
G01X73914Y348488D03*
G01X71374Y353822D03*
G01X53594Y324358D03*
G01X56134Y326898D03*
G01X46990Y331724D03*
G01X56642Y291592D03*
G01X56642Y310896D03*
G01X58166Y291592D03*
G01X58166Y299212D03*
G01X59690Y319532D03*
G01X59944Y330200D03*
G01X65278Y313690D03*
G01X87630Y294640D03*
G01X85852Y298450D03*
G01X61214Y331216D03*
G01X96774Y291846D03*
G01X101600Y314452D03*
G01X86106Y294132D03*
G01X85344Y297180D03*
G01X70104Y300228D03*
G01X52324Y317500D03*
G01X49022Y330962D03*
G01X121920Y362712D03*
G01X97536Y361442D03*
G01X101854Y367792D03*
G01X76454Y356108D03*
G01X67818Y362966D03*
G01X36322Y356870D03*
G01X28702Y329692D03*
G01X37592Y322072D03*
G01X103378Y310896D03*
G01X113538Y243840D03*
G01X99568Y256794D03*
G01X112268Y260858D03*
G01X80264Y242570D03*
G01X113792Y147574D03*
G01X114046Y155448D03*
G01X48006Y173482D03*
G01X42672Y72390D03*
G01X69088Y135890D03*
G01X90678Y134112D03*
G01X90678Y136652D03*
G01X80010Y141732D03*
G01X88646Y140970D03*
G01X101600Y128270D03*
G01X101092Y136652D03*
G01X101092Y141224D03*
G54D17*
G01X29464Y243078D03*
G01X42926Y147574D03*
G01X100838Y143256D03*
G01X49530Y154940D03*
G01X62230Y147066D03*
G01X44196Y341122D03*
G01X44196Y329692D03*
G01X109982Y330708D03*
G01X84074Y316992D03*
G01X98298Y203200D03*
G01X105156Y194310D03*
G01X64516Y354076D03*
G01X52832Y352806D03*
G01X51054Y303784D03*
G01X107696Y309626D03*
G01X109982Y309880D03*
G01X107950Y321818D03*
G01X26924Y256286D03*
G01X91694Y251968D03*
G01X94742Y229870D03*
G01X92710Y253238D03*
G01X95250Y241300D03*
G01X87630Y256032D03*
G01X108671Y263692D03*
G01X109982Y260604D03*
G01X109982Y256794D03*
G01X113792Y250698D03*
G01X120142Y250698D03*
G01X107188Y263652D03*
G01X107696Y260604D03*
G01X107696Y256794D03*
G01X46736Y207010D03*
G01X43942Y208026D03*
G01X41910Y211328D03*
G01X41910Y186690D03*
G01X58928Y212852D03*
G01X68580Y211074D03*
G01X75486Y197309D03*
G01X108966Y191516D03*
G01X107442Y195326D03*
G01X110030Y206296D03*
G01X104902Y152908D03*
G01X108966Y153162D03*
G01X109220Y148844D03*
G01X115316Y184658D03*
G01X97536Y149606D03*
G01X89154Y153162D03*
G01X88900Y149606D03*
G01X103886Y161544D03*
G01X103886Y153416D03*
G01X64008Y165862D03*
G01X61722Y168148D03*
G01X73914Y168148D03*
G01X29210Y159766D03*
G01X56896Y160274D03*
G01X29718Y163830D03*
G01X29718Y165862D03*
G01X46990Y175006D03*
G01X46990Y167386D03*
G01X26416Y188214D03*
G01X16764Y235204D03*
G01X56134Y249936D03*
G01X56134Y246634D03*
M00*
M02*
