G04 ---------------------------- Layer name :BOTTOM LAYER*
G04 EasyEDA v5.8.16, Sun, 14 Oct 2018 04:50:05 GMT*
G04 5a396672bee444fbbd75647f7a64e84d*
G04 Gerber Generator version 0.2*
G04 Scale: 100 percent, Rotated: No, Reflected: No *
G04 Dimensions in millimeters *
G04 leading zeros omitted , absolute positions ,3 integer and 3 decimal *
%FSLAX33Y33*%
%MOMM*%
G90*
G71D02*

%ADD12C,0.499999*%
%ADD13C,0.799998*%
%ADD14C,1.399997*%
%ADD15C,5.399989*%
%ADD16C,0.750011*%
%ADD17C,0.619760*%
%ADD18C,1.699997*%
%ADD19R,1.699997X1.699997*%
%ADD20C,1.524000*%
%ADD21C,1.999996*%
%ADD22R,1.524000X1.524000*%
%ADD23R,1.999996X1.999996*%
%ADD24C,7.499985*%

%LPD*%
G54D12*
G01X71120Y39624D02*
G01X71120Y40386D01*
G01X70358Y41148D01*
G01X55880Y41148D01*
G01X54356Y39624D01*
G01X73660Y39624D02*
G01X73660Y39878D01*
G01X71120Y42418D01*
G01X54356Y42418D01*
G01X54356Y42164D01*
G01X54356Y44704D02*
G01X71120Y44704D01*
G01X76200Y39624D01*
G01X54356Y47244D02*
G01X71120Y47244D01*
G01X78740Y39624D01*
G01X54356Y49784D02*
G01X71120Y49784D01*
G01X81280Y39624D01*
G01X54356Y52324D02*
G01X71120Y52324D01*
G01X83820Y39624D01*
G01X54356Y54864D02*
G01X71120Y54864D01*
G01X86360Y39624D01*
G01X54356Y57404D02*
G01X71120Y57404D01*
G01X88900Y39624D01*
G01X54356Y59944D02*
G01X71120Y59944D01*
G01X91440Y39624D01*
G01X54356Y62484D02*
G01X71120Y62484D01*
G01X93980Y39624D01*
G01X54356Y65024D02*
G01X71120Y65024D01*
G01X96520Y39624D01*
G01X54356Y67564D02*
G01X71120Y67564D01*
G01X99060Y39624D01*
G01X54356Y70104D02*
G01X71120Y70104D01*
G01X101600Y39624D01*
G01X54356Y72644D02*
G01X71120Y72644D01*
G01X104140Y39624D01*
G01X54356Y82804D02*
G01X55372Y82804D01*
G01X57150Y84582D01*
G01X57150Y88646D01*
G01X51716Y94079D01*
G01X102108Y107188D02*
G01X102108Y49276D01*
G01X111760Y39624D01*
G01X102108Y109728D02*
G01X101600Y109728D01*
G01X100584Y108712D01*
G01X100584Y48260D01*
G01X109220Y39624D01*
G01X102108Y112268D02*
G01X101600Y112268D01*
G01X99060Y109728D01*
G01X99060Y47244D01*
G01X106680Y39624D01*
G01X110236Y112268D02*
G01X111760Y112268D01*
G01X112776Y111252D01*
G01X112776Y41148D01*
G01X114300Y39624D01*
G01X76200Y37084D02*
G01X76200Y36322D01*
G01X74930Y35052D01*
G01X50800Y35052D01*
G01X49022Y36830D01*
G01X49022Y43434D01*
G01X50292Y44704D01*
G01X51816Y44704D01*
G01X78740Y37084D02*
G01X78740Y36068D01*
G01X76708Y34036D01*
G01X50292Y34036D01*
G01X48006Y36322D01*
G01X48006Y45720D01*
G01X49530Y47244D01*
G01X51816Y47244D01*
G01X81280Y37084D02*
G01X81280Y35052D01*
G01X79248Y33020D01*
G01X49784Y33020D01*
G01X46990Y35814D01*
G01X46990Y47752D01*
G01X49022Y49784D01*
G01X51816Y49784D01*
G01X86360Y37084D02*
G01X86360Y34544D01*
G01X83820Y32004D01*
G01X49276Y32004D01*
G01X45974Y35306D01*
G01X45974Y51562D01*
G01X49276Y54864D01*
G01X51816Y54864D01*
G01X88900Y37084D02*
G01X88900Y34036D01*
G01X85852Y30988D01*
G01X49022Y30988D01*
G01X44958Y35052D01*
G01X44958Y53594D01*
G01X48768Y57404D01*
G01X51816Y57404D01*
G01X93980Y37084D02*
G01X93980Y33274D01*
G01X90678Y29972D01*
G01X48768Y29972D01*
G01X43942Y34798D01*
G01X43942Y57658D01*
G01X48768Y62484D01*
G01X51816Y62484D01*
G01X96520Y37084D02*
G01X96520Y32512D01*
G01X92964Y28956D01*
G01X48260Y28956D01*
G01X42926Y34290D01*
G01X42926Y59944D01*
G01X48006Y65024D01*
G01X51816Y65024D01*
G01X99060Y37084D02*
G01X99060Y32258D01*
G01X94742Y27940D01*
G01X47752Y27940D01*
G01X41910Y33782D01*
G01X41910Y61214D01*
G01X48260Y67564D01*
G01X51816Y67564D01*
G01X101600Y37084D02*
G01X101600Y30734D01*
G01X97790Y26924D01*
G01X47244Y26924D01*
G01X40894Y33274D01*
G01X40894Y62992D01*
G01X48006Y70104D01*
G01X51816Y70104D01*
G01X106680Y37084D02*
G01X106680Y34290D01*
G01X98298Y25908D01*
G01X46736Y25908D01*
G01X39878Y32766D01*
G01X39878Y67056D01*
G01X48006Y75184D01*
G01X51816Y75184D01*
G01X111760Y37084D02*
G01X111760Y36322D01*
G01X100330Y24892D01*
G01X46228Y24892D01*
G01X38862Y32258D01*
G01X38862Y71374D01*
G01X47752Y80264D01*
G01X51816Y80264D01*
G01X114300Y37084D02*
G01X114300Y36576D01*
G01X101600Y23876D01*
G01X45720Y23876D01*
G01X37846Y31750D01*
G01X37846Y74168D01*
G01X46482Y82804D01*
G01X51816Y82804D01*
G01X116840Y37084D02*
G01X116840Y36830D01*
G01X102870Y22860D01*
G01X45212Y22860D01*
G01X36830Y31242D01*
G01X36830Y75692D01*
G01X46736Y85598D01*
G01X51562Y85598D01*
G01X51816Y85344D01*
G01X53848Y107188D02*
G01X53848Y97790D01*
G01X53848Y97790D02*
G01X53848Y93218D01*
G01X58166Y88900D01*
G01X58166Y84074D01*
G01X54356Y80264D01*
G01X53848Y109728D02*
G01X54102Y109728D01*
G01X55372Y108458D01*
G01X55372Y98806D01*
G01X55372Y98806D02*
G01X55372Y93218D01*
G01X59182Y89408D01*
G01X59182Y82550D01*
G01X54356Y77724D01*
G01X53848Y112268D02*
G01X54610Y112268D01*
G01X56642Y110236D01*
G01X56642Y99822D01*
G01X56642Y99822D02*
G01X56642Y93218D01*
G01X60198Y89662D01*
G01X60198Y81026D01*
G01X54356Y75184D01*
G01X63754Y107188D02*
G01X63754Y104648D01*
G01X66040Y102362D01*
G01X91440Y102362D01*
G01X92202Y103124D01*
G01X92202Y107188D01*
G01X63754Y109728D02*
G01X65278Y109728D01*
G01X66294Y108712D01*
G01X66294Y105156D01*
G01X67818Y103632D01*
G01X88392Y103632D01*
G01X90678Y105918D01*
G01X90678Y107950D01*
G01X92202Y109474D01*
G01X92202Y109728D01*
G01X63754Y112268D02*
G01X65532Y112268D01*
G01X67818Y109982D01*
G01X67818Y105918D01*
G01X68834Y104902D01*
G01X88138Y104902D01*
G01X89662Y106426D01*
G01X89662Y109728D01*
G01X92202Y112268D01*
G01X81026Y87884D02*
G01X81026Y89916D01*
G01X102108Y117348D02*
G01X105410Y117348D01*
G01X106426Y118364D01*
G01X106426Y147828D01*
G01X107442Y148844D01*
G01X116070Y148844D01*
G01X116438Y149214D01*
G01X63754Y117348D02*
G01X66802Y117348D01*
G01X68580Y119126D01*
G01X68580Y133604D01*
G01X72644Y137668D01*
G01X103124Y137668D01*
G01X105410Y139954D01*
G01X105410Y148082D01*
G01X114046Y156718D01*
G01X118110Y156718D01*
G01X118872Y155956D01*
G01X118872Y154401D01*
G01X118981Y154294D01*
G01X53848Y117348D02*
G01X58166Y117348D01*
G01X59436Y118618D01*
G01X59436Y132588D01*
G01X65532Y138684D01*
G01X102362Y138684D01*
G01X104394Y140716D01*
G01X104394Y140716D02*
G01X104394Y146558D01*
G01X102108Y119888D02*
G01X101346Y119888D01*
G01X100076Y121158D01*
G01X100076Y136652D01*
G01X92202Y119888D02*
G01X95758Y119888D01*
G01X96266Y120396D01*
G01X96266Y136652D01*
G01X96266Y141224D02*
G01X96266Y143256D01*
G01X63754Y119888D02*
G01X66548Y119888D01*
G01X67564Y120904D01*
G01X67564Y134366D01*
G01X69088Y135890D01*
G01X91186Y141224D02*
G01X91186Y144553D01*
G01X91302Y144670D01*
G01X53848Y119888D02*
G01X57658Y119888D01*
G01X58420Y120650D01*
G01X58420Y133096D01*
G01X65024Y139700D01*
G01X67310Y139700D01*
G01X92202Y122428D02*
G01X90932Y122428D01*
G01X90424Y122936D01*
G01X90424Y130048D01*
G01X89154Y131318D01*
G01X83566Y131318D01*
G01X81280Y133604D01*
G01X51308Y149860D02*
G01X51308Y164111D01*
G01X51678Y164482D01*
G01X53848Y122428D02*
G01X56642Y122428D01*
G01X57150Y122936D01*
G01X57150Y142748D01*
G01X48260Y151638D01*
G01X46990Y152908D01*
G01X46990Y166116D01*
G01X48006Y167132D01*
G01X49029Y167132D01*
G01X49138Y167022D01*
G01X63754Y122428D02*
G01X61722Y122428D01*
G01X60452Y123698D01*
G01X60452Y131826D01*
G01X63754Y135128D01*
G01X63754Y140716D02*
G01X63754Y161544D01*
G01X60706Y164592D01*
G01X56865Y164592D01*
G01X56758Y164482D01*
G01X102108Y122428D02*
G01X103378Y122428D01*
G01X104140Y123190D01*
G01X104140Y133858D01*
G01X102362Y135636D01*
G01X65532Y143002D02*
G01X65532Y165862D01*
G01X61976Y169418D01*
G01X52578Y169418D01*
G01X51816Y168656D01*
G01X51816Y167162D01*
G01X51678Y167022D01*
G01X92202Y117348D02*
G01X96520Y117348D01*
G01X97282Y118110D01*
G01X97282Y132588D01*
G01X53848Y114808D02*
G01X52324Y114808D01*
G01X51562Y115570D01*
G01X51562Y145288D01*
G01X44704Y152146D01*
G01X44704Y183388D01*
G01X71882Y107188D02*
G01X84074Y107188D01*
G01X54356Y85344D02*
G01X54356Y88392D01*
G01X45720Y97028D01*
G01X55880Y123698D02*
G01X55880Y142494D01*
G01X45974Y152400D01*
G01X45974Y187706D01*
G01X44704Y183388D02*
G01X44704Y188214D01*
G01X46482Y189992D01*
G01X51562Y189992D01*
G01X52324Y190754D01*
G01X52324Y192285D01*
G01X52217Y192394D01*
G01X45720Y124968D02*
G01X45720Y149352D01*
G01X42926Y152146D01*
G01X42926Y204978D01*
G01X48006Y210058D01*
G01X76969Y210058D01*
G01X77078Y210164D01*
G01X45720Y114808D02*
G01X44196Y114808D01*
G01X40894Y118110D01*
G01X40894Y212090D01*
G01X48768Y219964D01*
G01X87376Y219964D01*
G01X99822Y207518D01*
G01X99822Y200406D01*
G01X67310Y139700D02*
G01X80010Y139700D01*
G01X82042Y141732D01*
G01X82042Y146304D01*
G01X82804Y147066D01*
G01X83535Y147066D01*
G01X83682Y147210D01*
G01X71882Y124968D02*
G01X71882Y131318D01*
G01X70104Y133096D01*
G01X71882Y114808D02*
G01X72644Y114808D01*
G01X74422Y116586D01*
G01X74422Y136652D01*
G01X71628Y172720D02*
G01X82296Y183388D01*
G01X116332Y183388D01*
G01X120650Y187706D01*
G01X120650Y192532D01*
G01X120396Y192786D01*
G01X119349Y192786D01*
G01X119242Y192895D01*
G01X84074Y124968D02*
G01X83058Y124968D01*
G01X75438Y132588D01*
G01X75438Y136652D01*
G01X75438Y140716D02*
G01X75438Y170180D01*
G01X70358Y170180D02*
G01X70358Y188976D01*
G01X82550Y201168D01*
G01X85090Y201168D01*
G01X88392Y204470D01*
G01X88392Y212344D01*
G01X85344Y215392D01*
G01X80772Y215392D01*
G01X79756Y214376D01*
G01X79756Y212844D01*
G01X79618Y212704D01*
G01X110236Y124968D02*
G01X108458Y124968D01*
G01X107696Y125730D01*
G01X107696Y147574D01*
G01X107696Y153162D02*
G01X107696Y179578D01*
G01X105156Y182118D01*
G01X82804Y182118D01*
G01X79502Y203200D02*
G01X79502Y210047D01*
G01X79618Y210164D01*
G01X92202Y114808D02*
G01X90424Y114808D01*
G01X89408Y115824D01*
G01X89408Y129540D01*
G01X88646Y130302D01*
G01X81026Y130302D01*
G01X77978Y133350D01*
G01X77978Y136652D01*
G01X77978Y140716D02*
G01X77978Y172466D01*
G01X76962Y173482D01*
G01X75692Y173482D01*
G01X66040Y173482D02*
G01X52578Y173482D01*
G01X47244Y178816D01*
G01X47244Y188722D01*
G01X51716Y94079D02*
G01X48768Y97028D01*
G01X48768Y111506D01*
G01X48006Y112268D01*
G01X45720Y112268D01*
G01X66548Y133096D02*
G01X66548Y136144D01*
G01X66040Y136652D01*
G01X65786Y140716D02*
G01X66802Y140716D01*
G01X67564Y141478D01*
G01X67564Y172212D01*
G01X67564Y172212D02*
G01X67564Y189484D01*
G01X80772Y202692D01*
G01X84074Y202692D01*
G01X87122Y205740D01*
G01X87122Y211836D01*
G01X86106Y212852D01*
G01X84843Y212852D01*
G01X84698Y212704D01*
G01X102108Y114808D02*
G01X100076Y114808D01*
G01X98806Y116078D01*
G01X98806Y128270D01*
G01X97282Y141224D02*
G01X97282Y147574D01*
G01X95250Y149606D01*
G01X88900Y149606D01*
G01X88900Y149606D02*
G01X87630Y149606D01*
G01X86360Y148336D01*
G01X86360Y147350D01*
G01X86222Y147210D01*
G01X101092Y141224D02*
G01X98806Y143510D01*
G01X98806Y178562D01*
G01X96774Y180594D01*
G01X82296Y180594D01*
G01X110236Y122428D02*
G01X121920Y122428D01*
G01X123698Y124206D01*
G01X123698Y235440D01*
G01X122174Y234442D02*
G01X84836Y234442D01*
G01X83058Y236220D01*
G01X83058Y239268D01*
G01X84074Y240284D01*
G01X85059Y240284D01*
G01X85199Y240146D01*
G01X84074Y114808D02*
G01X86868Y114808D01*
G01X88138Y116078D01*
G01X88138Y128016D01*
G01X120142Y137160D02*
G01X122682Y139700D01*
G01X122682Y194564D01*
G01X121920Y195326D01*
G01X115316Y195326D01*
G01X114300Y194310D01*
G01X114300Y193032D01*
G01X114162Y192892D01*
G01X84074Y122428D02*
G01X85090Y122428D01*
G01X86868Y124206D01*
G01X86868Y129032D01*
G01X120142Y139192D02*
G01X121412Y140462D01*
G01X121412Y172212D01*
G01X121158Y172466D01*
G01X106172Y196342D02*
G01X106172Y223774D01*
G01X115062Y232664D01*
G01X85852Y125984D02*
G01X84328Y127508D01*
G01X82042Y127508D01*
G01X76454Y133096D01*
G01X76454Y136652D01*
G01X76454Y140716D02*
G01X76454Y170644D01*
G01X76454Y170644D02*
G01X76454Y170942D01*
G01X75692Y171704D01*
G01X74422Y171704D01*
G01X73660Y172466D01*
G01X73660Y173482D01*
G01X77942Y177764D01*
G01X77978Y177800D02*
G01X91186Y177800D01*
G01X103632Y195580D02*
G01X103632Y220980D01*
G01X91186Y233426D01*
G01X77470Y125730D02*
G01X77470Y128778D01*
G01X91948Y133604D02*
G01X91948Y134620D01*
G01X93472Y136144D01*
G01X93472Y136652D01*
G01X93472Y139700D02*
G01X101854Y139700D01*
G01X102870Y140716D01*
G01X102870Y179578D01*
G01X104902Y196596D02*
G01X104902Y226060D01*
G01X108204Y229362D01*
G01X71882Y117348D02*
G01X70612Y117348D01*
G01X69850Y118110D01*
G01X69850Y131826D01*
G01X64770Y141732D02*
G01X66040Y141732D01*
G01X66802Y142494D01*
G01X66802Y169926D01*
G01X64516Y172212D01*
G01X102108Y195326D02*
G01X102108Y220726D01*
G01X89662Y233172D01*
G01X84582Y233172D01*
G01X81788Y235966D01*
G01X81788Y245618D01*
G01X83820Y247650D01*
G01X87376Y247650D01*
G01X87884Y247142D01*
G01X87884Y245371D01*
G01X87739Y245226D01*
G01X45720Y122428D02*
G01X44450Y122428D01*
G01X42926Y123952D01*
G01X42926Y147574D01*
G01X39878Y155956D02*
G01X39878Y212598D01*
G01X48260Y220980D01*
G01X94234Y220980D01*
G01X96520Y223266D01*
G01X45720Y117348D02*
G01X44704Y117348D01*
G01X41910Y120142D01*
G01X41910Y149352D01*
G01X38862Y155956D02*
G01X38862Y213106D01*
G01X47752Y221996D01*
G01X58420Y221996D01*
G01X75438Y239014D01*
G01X45720Y112268D02*
G01X43942Y112268D01*
G01X34798Y121412D01*
G01X34798Y274828D01*
G01X34036Y275590D01*
G01X29972Y275590D01*
G01X43180Y280416D02*
G01X32512Y280416D01*
G01X30099Y278003D01*
G01X29972Y278130D01*
G01X48006Y124206D02*
G01X48006Y138430D01*
G01X49276Y124968D02*
G01X49276Y139446D01*
G01X50546Y125476D02*
G01X50546Y141224D01*
G01X36576Y138430D02*
G01X36576Y139446D01*
G01X35814Y140208D01*
G01X35814Y269748D01*
G01X37846Y271780D01*
G01X49530Y271780D01*
G01X51562Y273812D01*
G01X51562Y275082D01*
G01X51308Y275336D01*
G01X38100Y139446D02*
G01X36830Y140716D01*
G01X36830Y269240D01*
G01X38354Y270764D01*
G01X50038Y270764D01*
G01X53086Y273812D01*
G01X53086Y277368D01*
G01X52578Y277876D01*
G01X51308Y277876D01*
G01X39624Y141224D02*
G01X39370Y141224D01*
G01X37846Y142748D01*
G01X37846Y268478D01*
G01X39116Y269748D01*
G01X50546Y269748D01*
G01X54102Y273304D01*
G01X54102Y279400D01*
G01X53086Y280416D01*
G01X51308Y280416D01*
G01X63754Y280416D02*
G01X65532Y280416D01*
G01X66294Y279654D01*
G01X66294Y275590D01*
G01X68580Y273304D01*
G01X86868Y273304D01*
G01X89154Y275590D01*
G01X89154Y279146D01*
G01X90424Y280416D01*
G01X92202Y280416D01*
G01X63754Y277876D02*
G01X65024Y277876D01*
G01X65278Y277622D01*
G01X65278Y275082D01*
G01X67564Y272796D01*
G01X68072Y272288D01*
G01X87376Y272288D01*
G01X90170Y275082D01*
G01X90170Y277368D01*
G01X90678Y277876D01*
G01X92202Y277876D01*
G01X63754Y275336D02*
G01X63754Y274320D01*
G01X66548Y271526D01*
G01X89662Y271526D01*
G01X92202Y274066D01*
G01X92202Y275336D01*
G01X43942Y110998D02*
G01X33782Y121158D01*
G01X33782Y274066D01*
G01X51308Y89916D02*
G01X50038Y89916D01*
G01X43434Y96520D01*
G01X43434Y103632D01*
G01X38862Y108204D01*
G01X38862Y110998D02*
G01X38862Y114808D01*
G01X32766Y120904D01*
G01X32766Y268224D01*
G01X71882Y275336D02*
G01X84074Y275336D01*
G01X49530Y88900D02*
G01X42418Y96012D01*
G01X42418Y102616D01*
G01X36830Y108204D01*
G01X36830Y111760D02*
G01X36830Y115316D01*
G01X31750Y120396D01*
G01X31750Y266954D01*
G01X50546Y87884D02*
G01X49276Y87884D01*
G01X41402Y95758D01*
G01X41402Y101600D01*
G01X34798Y108204D01*
G01X34798Y112522D02*
G01X30734Y116586D01*
G01X30734Y265684D01*
G01X51308Y285496D02*
G01X54864Y285496D01*
G01X57658Y282702D01*
G01X57658Y243840D01*
G01X56896Y243078D01*
G01X41148Y243078D01*
G01X63754Y285496D02*
G01X61976Y285496D01*
G01X59182Y282702D01*
G01X59182Y243586D01*
G01X57404Y241808D01*
G01X41148Y241808D01*
G01X92202Y285496D02*
G01X93980Y285496D01*
G01X95504Y283972D01*
G01X95504Y253746D01*
G01X91440Y249682D01*
G01X62230Y249682D01*
G01X60706Y248158D01*
G01X60706Y243332D01*
G01X57912Y240538D01*
G01X41148Y240538D01*
G01X102108Y285496D02*
G01X99060Y285496D01*
G01X97790Y284226D01*
G01X97790Y253238D01*
G01X93218Y248666D01*
G01X62738Y248666D01*
G01X61722Y247650D01*
G01X61722Y242316D01*
G01X58674Y239268D01*
G01X41148Y239268D01*
G01X29718Y239268D02*
G01X29718Y235204D01*
G01X29210Y234696D01*
G01X20066Y234696D01*
G01X19050Y235712D01*
G01X19050Y239776D01*
G01X19558Y240284D01*
G01X20289Y240284D01*
G01X20426Y240146D01*
G01X43180Y293116D02*
G01X43180Y345694D01*
G01X48260Y350774D01*
G01X111252Y350774D01*
G01X116078Y355600D01*
G01X116078Y357131D01*
G01X116438Y357494D01*
G01X43180Y282956D02*
G01X41402Y282956D01*
G01X39878Y284480D01*
G01X39878Y323850D01*
G01X41402Y325374D01*
G01X41402Y345440D01*
G01X47752Y351790D01*
G01X74422Y351790D01*
G01X78994Y356362D01*
G01X78994Y363220D01*
G01X77216Y364998D01*
G01X74198Y364998D01*
G01X74061Y365135D01*
G01X43180Y290576D02*
G01X44196Y290576D01*
G01X45212Y291592D01*
G01X45212Y345991D01*
G01X44958Y352298D02*
G01X46736Y354076D01*
G01X46736Y355315D01*
G01X46873Y355452D01*
G01X43434Y351536D02*
G01X43434Y353060D01*
G01X44450Y354076D01*
G01X44450Y355338D01*
G01X44333Y355452D01*
G01X110236Y282956D02*
G01X121666Y282956D01*
G01X123190Y284480D01*
G01X123190Y365760D01*
G01X120904Y368046D01*
G01X104140Y368046D01*
G01X98806Y362712D01*
G01X80518Y362712D01*
G01X110236Y290576D02*
G01X107442Y290576D01*
G01X106426Y291592D01*
G01X106426Y331978D01*
G01X84074Y293116D02*
G01X88392Y293116D01*
G01X89154Y293878D01*
G01X89154Y325120D01*
G01X100838Y336804D01*
G01X119380Y336804D01*
G01X122428Y339852D01*
G01X122428Y358140D01*
G01X120650Y359918D01*
G01X119095Y359918D01*
G01X118981Y360034D01*
G01X84074Y290576D02*
G01X83820Y290576D01*
G01X82296Y292100D01*
G01X82296Y333756D01*
G01X84074Y282956D02*
G01X82296Y282956D01*
G01X80772Y284480D01*
G01X80772Y338074D01*
G01X76200Y342646D01*
G01X72390Y346456D01*
G01X72390Y347726D01*
G01X68834Y353568D02*
G01X68834Y360426D01*
G01X71120Y362712D01*
G01X71404Y362712D01*
G01X71521Y362595D01*
G01X71882Y293116D02*
G01X71882Y322072D01*
G01X77978Y328168D01*
G01X77978Y336804D01*
G01X74676Y340106D01*
G01X71882Y340106D01*
G01X68580Y343408D01*
G01X68580Y348234D01*
G01X68961Y348615D01*
G01X70231Y349758D01*
G01X70231Y349758D02*
G01X107696Y349758D01*
G01X110490Y363728D02*
G01X113792Y367030D01*
G01X113792Y367030D02*
G01X118110Y367030D01*
G01X118872Y366268D01*
G01X118872Y365221D01*
G01X118981Y365114D01*
G01X71882Y290576D02*
G01X69342Y290576D01*
G01X68834Y291084D01*
G01X68834Y312420D01*
G01X46736Y334518D01*
G01X46736Y345694D01*
G01X37338Y353314D02*
G01X37338Y357378D01*
G01X38100Y358140D01*
G01X39108Y358140D01*
G01X39253Y357992D01*
G01X71882Y282956D02*
G01X74676Y282956D01*
G01X75692Y283972D01*
G01X75692Y324104D01*
G01X78994Y327406D01*
G01X78994Y337820D01*
G01X78994Y337820D02*
G01X75438Y341376D01*
G01X72644Y341376D01*
G01X69850Y344170D01*
G01X69850Y346710D01*
G01X71882Y348742D01*
G01X73914Y348742D01*
G01X73914Y348488D01*
G01X71374Y353822D02*
G01X71374Y357367D01*
G01X71521Y357515D01*
G01X51308Y290576D02*
G01X53594Y290576D01*
G01X53594Y324358D01*
G01X56134Y326898D02*
G01X64770Y326898D01*
G01X65532Y327660D01*
G01X65532Y329938D01*
G01X65648Y330052D01*
G01X51308Y288036D02*
G01X50038Y288036D01*
G01X48768Y289306D01*
G01X48768Y329946D01*
G01X46990Y331724D01*
G01X56642Y291592D02*
G01X56642Y310896D01*
G01X58166Y291592D02*
G01X58166Y299212D01*
G01X63754Y290576D02*
G01X60960Y290576D01*
G01X59690Y291846D01*
G01X59690Y319532D01*
G01X59944Y330200D02*
G01X59944Y333248D01*
G01X61722Y335026D01*
G01X72136Y335026D01*
G01X73406Y333756D01*
G01X73406Y332732D01*
G01X73268Y332595D01*
G01X63754Y282956D02*
G01X65278Y282956D01*
G01X67056Y284734D01*
G01X67056Y311912D01*
G01X65278Y313690D01*
G01X61214Y331216D02*
G01X61214Y332994D01*
G01X62230Y334010D01*
G01X67818Y334010D01*
G01X68326Y333502D01*
G01X68326Y332732D01*
G01X68188Y332592D01*
G01X87630Y294640D02*
G01X87630Y296672D01*
G01X85852Y298450D01*
G01X96774Y291846D02*
G01X96774Y309626D01*
G01X101600Y314452D01*
G01X86106Y294132D02*
G01X86106Y296418D01*
G01X85344Y297180D01*
G01X70104Y300228D02*
G01X70104Y326390D01*
G01X68326Y328168D01*
G01X68326Y329915D01*
G01X68188Y330052D01*
G01X52324Y317500D02*
G01X52324Y327660D01*
G01X49022Y330962D01*
G01X121920Y362712D02*
G01X119118Y362712D01*
G01X118981Y362574D01*
G01X106728Y348213D02*
G01X108691Y348213D01*
G01X112014Y351536D01*
G01X112014Y361442D02*
G01X97536Y361442D01*
G01X101854Y367792D02*
G01X101854Y371094D01*
G01X106426Y375666D01*
G01X119479Y375666D01*
G01X121785Y373359D01*
G01X76454Y356108D02*
G01X76454Y357662D01*
G01X74061Y360055D01*
G01X78232Y352298D02*
G01X80871Y352298D01*
G01X81259Y352686D01*
G01X67818Y362966D02*
G01X67818Y369316D01*
G01X69088Y370586D01*
G01X71004Y370586D01*
G01X73016Y372597D01*
G01X85364Y352600D02*
G01X85364Y353992D01*
G01X78994Y360362D01*
G01X41910Y352298D02*
G01X41910Y355338D01*
G01X41793Y355452D01*
G01X33761Y352178D02*
G01X41793Y352178D01*
G01X41910Y352298D01*
G01X36322Y353314D02*
G01X36322Y356870D01*
G01X29697Y352178D02*
G01X29697Y358119D01*
G01X30988Y359410D01*
G01X41148Y359410D01*
G01X41656Y358902D01*
G01X41656Y358132D01*
G01X41793Y357992D01*
G01X119796Y304355D02*
G01X119796Y308264D01*
G01X121920Y310388D01*
G01X121920Y318269D01*
G01X120289Y319902D01*
G01X58102Y341030D02*
G01X60370Y341030D01*
G01X63581Y337820D01*
G01X63578Y337820D02*
G01X63754Y337820D01*
G01X65532Y339598D01*
G01X69088Y339598D01*
G01X75692Y332994D01*
G01X75692Y331216D01*
G01X74676Y330200D01*
G01X73413Y330200D01*
G01X73268Y330055D01*
G01X33665Y332376D02*
G01X33637Y332376D01*
G01X30479Y335534D01*
G01X28702Y335534D01*
G01X21569Y310944D02*
G01X21569Y317225D01*
G01X23876Y319532D01*
G01X26924Y319532D01*
G01X31496Y324104D01*
G01X38354Y324104D01*
G01X40386Y326136D01*
G01X40386Y331978D01*
G01X39878Y332486D01*
G01X38854Y332486D01*
G01X38745Y332376D01*
G01X28702Y329692D02*
G01X28702Y333248D01*
G01X29718Y334264D01*
G01X31727Y334264D01*
G01X25928Y311030D02*
G01X33665Y311030D01*
G01X37592Y314957D01*
G01X37592Y322072D01*
G01X67358Y316504D02*
G01X67358Y316689D01*
G01X64770Y319278D01*
G01X64770Y326898D01*
G01X64785Y326913D01*
G01X78605Y320568D02*
G01X78605Y322950D01*
G01X78740Y323088D01*
G01X103378Y310896D02*
G01X103378Y324584D01*
G01X103426Y324632D01*
G01X103515Y327893D02*
G01X103144Y327893D01*
G01X101854Y329184D01*
G01X101854Y332994D01*
G01X103632Y334772D01*
G01X118872Y334772D01*
G01X120904Y332740D01*
G01X120904Y325120D01*
G01X117749Y317362D02*
G01X116977Y317362D01*
G01X116078Y318262D01*
G01X116078Y322834D01*
G01X117348Y324104D01*
G01X117348Y332232D01*
G01X115824Y333756D01*
G01X105057Y333756D01*
G01X103513Y332211D01*
G01X104584Y252313D02*
G01X104302Y252313D01*
G01X102870Y253746D01*
G01X102870Y260176D01*
G01X101934Y261112D01*
G01X123698Y235440D02*
G01X123698Y241046D01*
G01X120904Y243840D01*
G01X113538Y243840D01*
G01X99568Y256794D02*
G01X99568Y261366D01*
G01X100838Y262636D01*
G01X107696Y262636D01*
G01X108458Y261874D01*
G01X112522Y261874D01*
G01X114808Y259588D01*
G01X114808Y258071D01*
G01X114924Y257954D01*
G01X117464Y255414D02*
G01X117464Y254391D01*
G01X118110Y253746D01*
G01X121666Y253746D01*
G01X122936Y255016D01*
G01X122936Y262989D01*
G01X121785Y264139D01*
G01X122039Y270997D02*
G01X121391Y270997D01*
G01X119888Y269494D01*
G01X119888Y262382D01*
G01X120650Y261620D01*
G01X112268Y260858D02*
G01X112268Y258071D01*
G01X112384Y257954D01*
G01X94931Y244185D02*
G01X98284Y244185D01*
G01X100076Y242394D01*
G01X100076Y242394D02*
G01X100076Y242824D01*
G01X104394Y247142D01*
G01X104394Y252122D01*
G01X104584Y252313D01*
G01X80264Y232410D02*
G01X80264Y242570D01*
G01X73426Y234744D02*
G01X71274Y234744D01*
G01X71221Y234797D01*
G01X20426Y242686D02*
G01X17917Y242686D01*
G01X17018Y243586D01*
G01X17018Y247396D01*
G01X27686Y227408D02*
G01X22682Y227408D01*
G01X20411Y229679D01*
G01X16647Y250464D02*
G01X23093Y250464D01*
G01X24892Y248666D01*
G01X24892Y242824D01*
G01X24638Y242570D01*
G01X23083Y242570D01*
G01X22969Y242686D01*
G01X16647Y253512D02*
G01X16647Y253372D01*
G01X14732Y251460D01*
G01X14732Y249682D01*
G01X17018Y247396D01*
G01X59598Y188277D02*
G01X59598Y194655D01*
G01X58674Y195580D01*
G01X56642Y195580D01*
G01X55372Y196850D01*
G01X55372Y198882D01*
G01X54356Y199898D01*
G01X52331Y199898D01*
G01X52217Y200014D01*
G01X65532Y180594D02*
G01X65532Y182372D01*
G01X62738Y185166D01*
G01X56134Y185166D01*
G01X54102Y187198D01*
G01X54102Y194056D01*
G01X53340Y194818D01*
G01X52331Y194818D01*
G01X52217Y194934D01*
G01X115824Y186690D02*
G01X115824Y189476D01*
G01X116702Y190352D01*
G01X44704Y187960D02*
G01X43942Y188722D01*
G01X43942Y200728D01*
G01X48493Y205280D01*
G01X51328Y205366D02*
G01X51328Y204490D01*
G01X47752Y200914D01*
G01X47752Y198120D01*
G01X48514Y197358D01*
G01X49560Y197358D01*
G01X49677Y197474D01*
G01X74978Y199664D02*
G01X74978Y208066D01*
G01X77078Y210164D01*
G01X58420Y197358D02*
G01X58790Y197358D01*
G01X62971Y201538D01*
G01X116702Y192895D02*
G01X116702Y193664D01*
G01X117348Y194310D01*
G01X120650Y194310D01*
G01X121666Y193294D01*
G01X121666Y186436D01*
G01X119634Y184404D01*
G01X119634Y176938D01*
G01X117464Y174772D01*
G01X109382Y185230D02*
G01X109382Y185003D01*
G01X109728Y184658D01*
G01X115316Y184658D01*
G01X115316Y184658D02*
G01X115824Y184658D01*
G01X119126Y187960D01*
G01X119126Y190469D01*
G01X119242Y190352D01*
G01X111252Y151892D02*
G01X116301Y151892D01*
G01X116441Y151754D01*
G01X110426Y140807D02*
G01X111851Y140807D01*
G01X113792Y142748D01*
G01X113792Y147574D01*
G01X118981Y151754D02*
G01X119242Y151754D01*
G01X120396Y152908D01*
G01X120396Y156562D01*
G01X117466Y159491D01*
G01X114046Y155448D02*
G01X114046Y154686D01*
G01X111252Y151892D01*
G01X120601Y130830D02*
G01X118851Y130830D01*
G01X116586Y133096D01*
G01X116586Y146527D01*
G01X116438Y146674D01*
G01X69169Y141986D02*
G01X69169Y146608D01*
G01X69941Y147383D01*
G01X85295Y157500D02*
G01X82824Y157500D01*
G01X82042Y156718D01*
G01X82042Y148851D01*
G01X83682Y147210D01*
G01X96266Y151638D02*
G01X88237Y151638D01*
G01X85206Y154665D01*
G01X48006Y173482D02*
G01X48006Y172466D01*
G01X50546Y169926D01*
G01X61996Y149400D02*
G01X54404Y149400D01*
G01X53086Y148082D01*
G01X51816Y148082D01*
G01X51584Y148313D01*
G01X51816Y77724D02*
G01X48006Y77724D01*
G01X42672Y72390D01*
G54D15*
G01X32941Y38313D02*
G01X12232Y38313D01*
G01X3556Y46990D01*
G01X3556Y353314D01*
G54D14*
G01X9839Y355239D02*
G01X3959Y355239D01*
G01X3556Y354838D01*
G01X9839Y331828D02*
G01X4015Y331828D01*
G01X3556Y331370D01*
G01X10012Y282006D02*
G01X3802Y282006D01*
G01X3556Y281759D01*
G01X9839Y193652D02*
G01X3919Y193652D01*
G01X3556Y193291D01*
G01X9839Y159913D02*
G01X5473Y159913D01*
G01X3556Y157995D01*
G01X10012Y121732D02*
G01X3723Y121732D01*
G01X3556Y121564D01*
G01X9585Y240685D02*
G01X3566Y240685D01*
G01X3556Y240675D01*
G54D12*
G01X20411Y229679D02*
G01X17401Y229679D01*
G01X14925Y232156D01*
G01X58102Y337530D02*
G01X58102Y330009D01*
G01X59182Y328930D01*
G01X61468Y328930D01*
G01X63246Y330708D01*
G01X63246Y331470D01*
G01X64262Y332486D01*
G01X65542Y332486D01*
G01X65648Y332592D01*
G01X45720Y109728D02*
G01X21082Y109728D01*
G01X14732Y116078D01*
G01X10325Y116078D01*
G01X10012Y116392D01*
G01X14925Y232156D02*
G01X14925Y240685D01*
G01X71882Y112268D02*
G01X84074Y112268D01*
G01X71882Y280416D02*
G01X84074Y280416D01*
G01X117464Y257954D02*
G01X117464Y260466D01*
G01X118618Y261620D01*
G01X120650Y261620D01*
G01X66040Y131826D02*
G01X64770Y133096D01*
G01X64770Y136144D01*
G01X90678Y134112D02*
G01X90678Y136652D01*
G01X93337Y161015D02*
G01X85069Y161015D01*
G01X83312Y159258D01*
G01X81788Y159258D01*
G01X80010Y157480D01*
G01X80010Y141732D01*
G01X88646Y140970D02*
G01X88646Y144556D01*
G01X88762Y144670D01*
G01X101600Y128270D02*
G01X101600Y134874D01*
G01X101092Y135382D01*
G01X101092Y136652D01*
G01X29464Y243078D02*
G01X29464Y242316D01*
G01X28702Y241554D01*
G01X28702Y237236D01*
G01X27432Y235966D01*
G01X20574Y235966D01*
G01X20320Y236220D01*
G01X20320Y237497D01*
G01X20429Y237606D01*
G01X99822Y200406D02*
G01X99822Y200337D01*
G01X98572Y199087D01*
G01X98572Y199087D02*
G01X98572Y196067D01*
G01X101346Y193294D01*
G01X108681Y193294D01*
G01X111622Y190352D01*
G01X45212Y345991D02*
G01X45212Y346456D01*
G01X46736Y347980D01*
G01X50223Y347980D01*
G01X50751Y348508D01*
G01X49530Y88900D02*
G01X51308Y88900D01*
G01X52324Y87884D01*
G01X100910Y157548D02*
G01X100910Y143328D01*
G01X100838Y143256D01*
G01X71628Y172720D02*
G01X71628Y164338D01*
G01X68834Y161544D01*
G01X68834Y151130D01*
G01X71374Y148590D01*
G01X71374Y142748D01*
G01X71628Y142494D01*
G01X73795Y157500D02*
G01X73795Y154753D01*
G01X73708Y154665D01*
G01X73442Y147384D02*
G01X73442Y142276D01*
G01X73168Y142002D01*
G01X73442Y147384D02*
G01X73442Y154399D01*
G01X73708Y154665D01*
G01X49138Y164484D02*
G01X49138Y155331D01*
G01X49530Y154940D01*
G01X59109Y136212D02*
G01X59504Y136212D01*
G01X61976Y138684D01*
G01X61976Y146812D01*
G01X62230Y147066D01*
G01X76381Y375988D02*
G01X97209Y375988D01*
G01X97463Y375734D01*
G54D13*
G01X53775Y375480D02*
G01X75873Y375480D01*
G01X76381Y375988D01*
G54D14*
G01X53775Y375480D02*
G01X54541Y375480D01*
G01X56642Y373380D01*
G01X56642Y363299D01*
G01X56308Y362966D01*
G54D12*
G01X53775Y372940D02*
G01X50106Y372940D01*
G01X46990Y369824D01*
G01X46990Y358110D01*
G01X46873Y357993D01*
G01X46873Y357993D02*
G01X47351Y357993D01*
G01X52307Y362949D01*
G01X33761Y363679D02*
G01X41187Y363679D01*
G01X46873Y357993D01*
G01X39251Y348508D02*
G01X42692Y348508D01*
G01X48514Y354330D01*
G01X48514Y356354D01*
G01X46873Y357995D01*
G01X76381Y373448D02*
G01X78671Y373448D01*
G01X81534Y370586D01*
G01X81534Y364462D01*
G01X81259Y364187D01*
G01X85364Y364100D02*
G01X81347Y364100D01*
G01X81259Y364187D01*
G01X81259Y364187D02*
G01X80566Y364187D01*
G01X77978Y366776D01*
G01X73160Y366776D01*
G01X71520Y365135D01*
G01X71520Y365135D02*
G01X71511Y365135D01*
G01X67564Y361188D01*
G01X65278Y361188D01*
G01X63229Y359139D01*
G01X61516Y372597D02*
G01X61516Y371018D01*
G01X65976Y366557D01*
G01X65975Y366558D02*
G01X65975Y366203D01*
G01X63246Y363474D01*
G01X63246Y359156D01*
G01X63229Y359139D01*
G01X44196Y341122D02*
G01X44196Y329946D01*
G01X44196Y329692D01*
G54D14*
G01X12510Y331829D02*
G01X12510Y337630D01*
G01X13462Y338582D01*
G01X33532Y338582D01*
G01X33600Y338650D01*
G54D12*
G01X17038Y322531D02*
G01X21482Y322531D01*
G01X21569Y322444D01*
G01X21569Y322444D02*
G01X25840Y322444D01*
G01X25928Y322531D01*
G01X25928Y322531D02*
G01X25928Y327865D01*
G01X24928Y328865D01*
G01X24928Y328865D02*
G01X24928Y333760D01*
G01X25670Y334501D01*
G01X25669Y334502D02*
G01X25669Y335041D01*
G01X27432Y336804D01*
G01X34798Y336804D01*
G01X35814Y337820D01*
G01X35814Y340614D01*
G01X35052Y341376D01*
G01X33787Y341376D01*
G01X33599Y341190D01*
G01X86178Y341444D02*
G01X93290Y341444D01*
G01X86178Y336364D02*
G01X93290Y336364D01*
G01X115013Y332211D02*
G01X115013Y327893D01*
G01X115013Y327893D01*
G01X115013Y327893D02*
G01X115013Y324720D01*
G01X114926Y324632D01*
G01X114926Y324632D02*
G01X114926Y313571D01*
G01X116078Y312420D01*
G01X117610Y312420D01*
G01X117748Y312282D01*
G01X112505Y302497D02*
G01X114437Y302497D01*
G01X116295Y304356D01*
G01X117748Y312282D02*
G01X117748Y305808D01*
G01X116295Y304356D01*
G01X117748Y312282D02*
G01X110881Y312282D01*
G01X109982Y313182D01*
G01X109982Y330708D01*
G01X86178Y338904D02*
G01X85412Y338904D01*
G01X84074Y337566D01*
G01X84074Y316992D01*
G01X67580Y337803D02*
G01X66531Y337803D01*
G01X64770Y336042D01*
G01X59589Y336042D01*
G01X58101Y337529D01*
G01X52344Y343105D02*
G01X52525Y343105D01*
G01X58101Y337529D01*
G01X110538Y270997D02*
G01X110538Y267902D01*
G01X110371Y267736D01*
G01X110371Y267736D02*
G01X110371Y264227D01*
G01X110284Y264139D01*
G01X104584Y255813D02*
G01X104584Y259778D01*
G01X105934Y261128D01*
G01X94931Y247686D02*
G01X98769Y247686D01*
G01X100060Y246395D01*
G01X68813Y246331D02*
G01X73338Y246331D01*
G01X73426Y246244D01*
G01X73426Y246244D02*
G01X77616Y246244D01*
G01X77703Y246331D01*
G01X94931Y247686D02*
G01X94778Y247686D01*
G01X90170Y243078D01*
G01X90170Y240037D01*
G01X87739Y237606D01*
G01X100076Y242396D02*
G01X105071Y242396D01*
G01X106099Y241368D01*
G01X106099Y238828D02*
G01X111066Y238828D01*
G01X112268Y240030D01*
G01X112268Y255299D01*
G01X112384Y255416D01*
G01X104583Y255814D02*
G01X111986Y255814D01*
G01X112384Y255416D01*
G01X105966Y174772D02*
G01X105966Y178074D01*
G01X56097Y188278D02*
G01X56097Y187996D01*
G01X57658Y186436D01*
G01X61722Y186436D01*
G01X62738Y187452D01*
G01X62738Y189806D01*
G01X62971Y190040D01*
G01X62971Y190040D02*
G01X62971Y198861D01*
G01X65532Y201422D01*
G01X65532Y202946D01*
G01X64516Y203962D01*
G01X59182Y203962D01*
G01X57912Y205232D01*
G01X57912Y206896D01*
G01X58097Y207082D01*
G01X73623Y218250D02*
G01X73623Y214412D01*
G01X75438Y212598D01*
G01X76970Y212598D01*
G01X77078Y212705D01*
G01X115755Y216988D02*
G01X115755Y198559D01*
G01X112014Y194818D01*
G01X112014Y193285D01*
G01X111622Y192893D01*
G01X86478Y199664D02*
G01X92407Y199664D01*
G01X93197Y200454D01*
G01X90170Y207518D02*
G01X90170Y208926D01*
G01X93197Y211954D01*
G01X98298Y203200D02*
G01X98298Y202687D01*
G01X91004Y195394D01*
G01X98572Y187587D02*
G01X103524Y187587D01*
G01X105881Y185230D01*
G01X105156Y194310D02*
G01X110206Y194310D01*
G01X111622Y192893D01*
G01X118228Y348213D02*
G01X118228Y356742D01*
G01X118979Y357494D01*
G01X118736Y345165D02*
G01X120914Y345165D01*
G01X122428Y346679D01*
G01X107236Y345165D02*
G01X115180Y345165D01*
G01X118228Y348213D01*
G01X102849Y342781D02*
G01X104851Y342781D01*
G01X107236Y345165D01*
G01X64516Y354076D02*
G01X64516Y357853D01*
G01X63229Y359139D01*
G01X58907Y372569D02*
G01X61488Y372569D01*
G01X61516Y372597D01*
G01X49227Y342920D02*
G01X49227Y343202D01*
G01X46736Y345694D01*
G01X37727Y342920D02*
G01X37727Y346984D01*
G01X39251Y348508D01*
G01X52832Y352806D02*
G01X52832Y357224D01*
G01X54799Y359192D01*
G01X25379Y352179D02*
G01X25379Y358373D01*
G01X27940Y360934D01*
G01X41393Y360934D01*
G01X44333Y357993D01*
G01X25379Y363679D02*
G01X29697Y363679D01*
G01X102918Y339577D02*
G01X102918Y342713D01*
G01X102849Y342781D01*
G01X12679Y322445D02*
G01X12679Y322346D01*
G01X14478Y320548D01*
G01X26162Y320548D01*
G01X33020Y327406D01*
G01X33774Y327406D01*
G01X36205Y329836D01*
G01X51054Y303784D02*
G01X51054Y316230D01*
G01X52324Y317500D01*
G01X107696Y309626D02*
G01X107696Y307307D01*
G01X112505Y302497D01*
G01X93099Y304525D02*
G01X96111Y304525D01*
G01X96774Y305188D01*
G01X109982Y309880D02*
G01X107950Y311912D01*
G01X107950Y321818D01*
G01X56113Y331334D02*
G01X57043Y331334D01*
G01X58102Y332392D01*
G01X86085Y307896D02*
G01X86085Y314980D01*
G01X84074Y316992D01*
G01X28145Y250464D02*
G01X28145Y242775D01*
G01X25654Y240284D01*
G01X25645Y240284D01*
G01X22967Y237606D01*
G01X40267Y260370D02*
G01X42397Y260370D01*
G01X43434Y259334D01*
G01X43434Y248920D01*
G01X39116Y244602D01*
G01X39116Y240030D01*
G01X39878Y239268D01*
G01X41148Y239268D01*
G01X26924Y256286D02*
G01X25908Y255270D01*
G01X25908Y242316D01*
G01X23622Y240030D01*
G01X23083Y240030D01*
G01X22966Y240146D01*
G01X40180Y263631D02*
G01X42692Y263631D01*
G01X44704Y261620D01*
G01X44704Y248666D01*
G01X40132Y244094D01*
G01X40132Y242316D01*
G01X40640Y241808D01*
G01X41148Y241808D01*
G01X63012Y263770D02*
G01X66186Y263770D01*
G01X66273Y263857D01*
G01X66273Y263857D02*
G01X69321Y263857D01*
G01X69321Y252357D02*
G01X91304Y252357D01*
G01X91694Y251968D01*
G01X66273Y252357D02*
G01X66273Y253471D01*
G01X67310Y254508D01*
G01X91440Y254508D01*
G01X92710Y253238D01*
G01X95250Y241300D02*
G01X95250Y234861D01*
G01X94830Y234442D01*
G01X63012Y252270D02*
G01X63012Y253766D01*
G01X66040Y256794D01*
G01X86868Y256794D01*
G01X87630Y256032D01*
G01X91234Y264139D02*
G01X91234Y267441D01*
G01X91234Y267441D02*
G01X91234Y269934D01*
G01X91321Y270022D01*
G01X102734Y267441D02*
G01X102734Y267326D01*
G01X100838Y265430D01*
G01X100838Y262636D01*
G01X102821Y270022D02*
G01X105389Y270022D01*
G01X108204Y267208D01*
G01X108204Y264160D01*
G01X108671Y263692D01*
G01X109982Y260604D02*
G01X109982Y256794D01*
G01X113792Y250698D02*
G01X120142Y250698D01*
G01X102734Y264139D02*
G01X106700Y264139D01*
G01X107188Y263652D01*
G01X107696Y260604D02*
G01X107696Y256794D01*
G01X58097Y207082D02*
G01X58097Y207840D01*
G01X57150Y208788D01*
G01X48514Y208788D01*
G01X46736Y207010D01*
G01X43942Y208026D02*
G01X43942Y211074D01*
G01X46482Y213614D01*
G01X49276Y213614D01*
G01X51054Y215392D01*
G01X51054Y216593D01*
G01X51328Y216867D01*
G01X41910Y211328D02*
G01X41910Y186690D01*
G01X58928Y212852D02*
G01X66802Y212852D01*
G01X68580Y211074D01*
G01X86986Y185186D02*
G01X79014Y185186D01*
G01X76454Y182626D01*
G01X71004Y182626D01*
G01X70358Y183272D01*
G01X100817Y189602D02*
G01X107052Y189602D01*
G01X108966Y191516D01*
G01X121530Y220746D02*
G01X119513Y220746D01*
G01X115755Y216988D01*
G01X121528Y223794D02*
G01X117368Y223794D01*
G01X111252Y217678D01*
G01X111252Y199136D01*
G01X107442Y195326D01*
G01X110030Y220746D02*
G01X110030Y206296D01*
G01X109982Y206248D01*
G01X110425Y144308D02*
G01X110425Y144207D01*
G01X108966Y142748D01*
G01X108966Y130965D01*
G01X109101Y130830D01*
G01X104902Y152908D02*
G01X104902Y158427D01*
G01X105966Y159491D01*
G01X117212Y168127D02*
G01X115041Y168127D01*
G01X108966Y162052D01*
G01X108966Y153162D01*
G01X85479Y170454D02*
G01X85479Y164659D01*
G01X81836Y161015D01*
G01X96979Y170454D02*
G01X96979Y153972D01*
G01X97790Y153162D01*
G01X97790Y149860D01*
G01X97536Y149606D01*
G01X96890Y173207D02*
G01X95737Y173207D01*
G01X94996Y172466D01*
G01X94996Y159004D01*
G01X89154Y153162D01*
G01X103886Y161544D02*
G01X103886Y153416D01*
G01X64008Y165862D02*
G01X61722Y168148D01*
G01X73914Y168148D02*
G01X73914Y165422D01*
G01X73865Y165374D01*
G01X28907Y178328D02*
G01X28907Y175280D01*
G01X28907Y175280D02*
G01X28907Y172787D01*
G01X28820Y172699D01*
G01X17320Y172699D02*
G01X17320Y166575D01*
G01X24130Y159766D01*
G01X29210Y159766D01*
G01X56896Y160274D02*
G01X56896Y164346D01*
G01X56758Y164484D01*
G01X17407Y175280D02*
G01X18267Y175280D01*
G01X29718Y163830D01*
G01X17407Y178328D02*
G01X17407Y178172D01*
G01X29718Y165862D01*
G01X46990Y175006D02*
G01X46990Y167386D01*
G01X28496Y222524D02*
G01X27452Y222524D01*
G01X26416Y221488D01*
G01X26416Y188214D01*
G01X23912Y229680D02*
G01X23912Y230087D01*
G01X21844Y232156D01*
G01X18034Y232156D01*
G01X16764Y233426D01*
G01X16764Y235204D01*
G01X56134Y249936D02*
G01X56134Y246634D01*
G54D18*
G01X12510Y159914D03*
G54D19*
G01X9839Y159914D03*
G54D18*
G01X15180Y159914D03*
G01X12256Y240686D03*
G54D19*
G01X9585Y240686D03*
G54D18*
G01X14926Y240686D03*
G01X12510Y355240D03*
G54D19*
G01X9839Y355240D03*
G54D18*
G01X15180Y355240D03*
G54D20*
G01X112014Y361442D03*
G01X78232Y352298D03*
G01X41910Y352298D03*
G01X120650Y261620D03*
G01X80264Y232410D03*
G01X17018Y247396D03*
G01X111252Y151892D03*
G01X96266Y151638D03*
G01X50546Y169926D03*
G54D21*
G01X110236Y124968D03*
G01X110236Y122428D03*
G01X110236Y119888D03*
G01X110236Y117348D03*
G01X110236Y114808D03*
G01X110236Y112268D03*
G01X110236Y109728D03*
G01X110236Y107188D03*
G01X102108Y107188D03*
G01X102108Y109728D03*
G01X102108Y112268D03*
G01X102108Y114808D03*
G01X102108Y117348D03*
G01X102108Y119888D03*
G01X102108Y122428D03*
G01X102108Y124968D03*
G01X71882Y124968D03*
G01X71882Y122428D03*
G01X71882Y119888D03*
G01X71882Y117348D03*
G01X71882Y114808D03*
G01X71882Y112268D03*
G01X71882Y109728D03*
G01X71882Y107188D03*
G01X63754Y107188D03*
G01X63754Y109728D03*
G01X63754Y112268D03*
G01X63754Y114808D03*
G01X63754Y117348D03*
G01X63754Y119888D03*
G01X63754Y122428D03*
G01X63754Y124968D03*
G01X71882Y293116D03*
G01X71882Y290576D03*
G01X71882Y288036D03*
G01X71882Y285496D03*
G01X71882Y282956D03*
G01X71882Y280416D03*
G01X71882Y277876D03*
G01X71882Y275336D03*
G01X63754Y275336D03*
G01X63754Y277876D03*
G01X63754Y280416D03*
G01X63754Y282956D03*
G01X63754Y285496D03*
G01X63754Y288036D03*
G01X63754Y290576D03*
G01X63754Y293116D03*
G01X110236Y293116D03*
G01X110236Y290576D03*
G01X110236Y288036D03*
G01X110236Y285496D03*
G01X110236Y282956D03*
G01X110236Y280416D03*
G01X110236Y277876D03*
G01X110236Y275336D03*
G01X102108Y275336D03*
G01X102108Y277876D03*
G01X102108Y280416D03*
G01X102108Y282956D03*
G01X102108Y285496D03*
G01X102108Y288036D03*
G01X102108Y290576D03*
G01X102108Y293116D03*
G54D20*
G01X91302Y147212D03*
G01X91302Y144672D03*
G01X88762Y147212D03*
G01X88762Y144672D03*
G01X86222Y147212D03*
G01X86222Y144672D03*
G01X83682Y147212D03*
G54D22*
G01X83682Y144670D03*
G54D20*
G01X56758Y167024D03*
G01X56758Y164484D03*
G01X54218Y167024D03*
G01X54218Y164484D03*
G01X51678Y167024D03*
G01X51678Y164484D03*
G01X49138Y167024D03*
G54D22*
G01X49138Y164482D03*
G54D20*
G01X120004Y257956D03*
G01X120004Y255416D03*
G01X117464Y257956D03*
G01X117464Y255416D03*
G01X114924Y257956D03*
G01X114924Y255416D03*
G01X112384Y257956D03*
G54D22*
G01X112384Y255414D03*
G54D20*
G01X39253Y355453D03*
G01X39253Y357993D03*
G01X41793Y355453D03*
G01X41793Y357993D03*
G01X44333Y355453D03*
G01X44333Y357993D03*
G01X46873Y355453D03*
G54D22*
G01X46873Y357992D03*
G54D20*
G01X116439Y365114D03*
G01X118979Y365114D03*
G01X116439Y362574D03*
G01X118979Y362574D03*
G01X116439Y360034D03*
G01X118979Y360034D03*
G01X116439Y357494D03*
G54D22*
G01X118981Y357494D03*
G54D20*
G01X74060Y357515D03*
G01X71520Y357515D03*
G01X74060Y360055D03*
G01X71520Y360055D03*
G01X74060Y362595D03*
G01X71520Y362595D03*
G01X74060Y365135D03*
G54D22*
G01X71521Y365135D03*
G54D18*
G01X110284Y378439D03*
G01X121784Y378439D03*
G01X61516Y372597D03*
G01X73016Y372597D03*
G01X29697Y363679D03*
G01X29697Y352179D03*
G01X110727Y370348D03*
G01X110744Y366348D03*
G54D20*
G01X104837Y370114D03*
G01X104837Y366613D03*
G54D18*
G01X63229Y359139D03*
G01X67229Y359156D03*
G54D20*
G01X65975Y366558D03*
G01X65975Y363057D03*
G54D18*
G01X52307Y362949D03*
G01X56307Y362966D03*
G54D20*
G01X54799Y359192D03*
G01X54799Y355691D03*
G54D18*
G01X33761Y363679D03*
G01X33761Y352179D03*
G01X81259Y364187D03*
G01X81259Y352687D03*
G01X110284Y373359D03*
G01X121784Y373359D03*
G01X106728Y348213D03*
G01X118228Y348213D03*
G01X85364Y352600D03*
G01X85364Y364100D03*
G01X50751Y348508D03*
G01X39251Y348508D03*
G01X110284Y264139D03*
G01X121784Y264139D03*
G01X77703Y246331D03*
G01X77703Y234831D03*
G01X28145Y250464D03*
G01X16645Y250464D03*
G01X105934Y261128D03*
G01X101934Y261112D03*
G54D20*
G01X104583Y255814D03*
G01X104583Y252313D03*
G54D18*
G01X100059Y246396D03*
G01X100076Y242396D03*
G54D20*
G01X94931Y247686D03*
G01X94931Y244185D03*
G54D18*
G01X27669Y231410D03*
G01X27686Y227410D03*
G54D20*
G01X23912Y229680D03*
G01X20411Y229680D03*
G54D18*
G01X110538Y270997D03*
G01X122038Y270997D03*
G01X68813Y246331D03*
G01X68813Y234831D03*
G01X28145Y253512D03*
G01X16645Y253512D03*
G01X121871Y267736D03*
G01X110371Y267736D03*
G01X73426Y234744D03*
G01X73426Y246244D03*
G01X16489Y237187D03*
G01X16489Y225687D03*
G01X105966Y159491D03*
G01X117466Y159491D03*
G01X81836Y161015D03*
G01X93336Y161015D03*
G01X73865Y165374D03*
G01X62365Y165374D03*
G01X73168Y142002D03*
G01X69168Y141986D03*
G54D20*
G01X73442Y147384D03*
G01X69941Y147384D03*
G54D18*
G01X61705Y175530D03*
G01X61722Y171530D03*
G54D20*
G01X56323Y175296D03*
G01X56323Y171795D03*
G54D18*
G01X105966Y162539D03*
G01X117466Y162539D03*
G01X73708Y154665D03*
G01X85208Y154665D03*
G01X61927Y179344D03*
G01X50427Y179344D03*
G01X120601Y130830D03*
G01X109101Y130830D03*
G01X85295Y157500D03*
G01X73795Y157500D03*
G01X61996Y149400D03*
G01X61996Y160900D03*
G01X118126Y139208D03*
G01X114126Y139192D03*
G54D20*
G01X110425Y144308D03*
G01X110425Y140807D03*
G01X116439Y154294D03*
G01X118979Y154294D03*
G01X116439Y151754D03*
G01X118979Y151754D03*
G01X116439Y149214D03*
G01X118979Y149214D03*
G01X116439Y146674D03*
G54D22*
G01X118981Y146674D03*
G54D20*
G01X85197Y245226D03*
G01X87737Y245226D03*
G01X85197Y242686D03*
G01X87737Y242686D03*
G01X85197Y240146D03*
G01X87737Y240146D03*
G01X85197Y237606D03*
G54D22*
G01X87739Y237606D03*
G54D20*
G01X20427Y245226D03*
G01X22967Y245226D03*
G01X20427Y242686D03*
G01X22967Y242686D03*
G01X20427Y240146D03*
G01X22967Y240146D03*
G01X20427Y237606D03*
G54D22*
G01X22969Y237606D03*
G54D20*
G01X101019Y162628D03*
G01X101019Y160088D03*
G01X101019Y157548D03*
G01X70793Y159580D03*
G01X70793Y157040D03*
G01X70793Y154500D03*
G01X59109Y141292D03*
G01X59109Y138752D03*
G01X59109Y136212D03*
G54D18*
G01X102849Y354281D03*
G01X102849Y342781D03*
G01X78437Y348254D03*
G01X66937Y348254D03*
G01X49227Y342920D03*
G01X37727Y342920D03*
G01X102918Y339577D03*
G01X114418Y339577D03*
G01X83291Y377903D03*
G01X83291Y366403D03*
G01X53134Y348467D03*
G01X64634Y348467D03*
G01X107236Y345165D03*
G01X118736Y345165D03*
G01X58907Y372569D03*
G01X58907Y361069D03*
G01X25379Y363679D03*
G01X25379Y352179D03*
G01X102821Y270022D03*
G01X91321Y270022D03*
G01X63012Y252270D03*
G01X63012Y263770D03*
G01X40180Y263631D03*
G01X51680Y263631D03*
G01X91234Y267441D03*
G01X102734Y267441D03*
G01X66273Y263857D03*
G01X66273Y252357D03*
G01X51767Y260370D03*
G01X40267Y260370D03*
G01X91234Y264139D03*
G01X102734Y264139D03*
G01X69321Y263857D03*
G01X69321Y252357D03*
G01X51767Y257068D03*
G01X40267Y257068D03*
G54D20*
G01X46409Y234764D03*
G01X46409Y232224D03*
G01X46409Y229684D03*
G01X97463Y375734D03*
G01X97463Y373194D03*
G01X97463Y370654D03*
G01X76381Y375988D03*
G01X76381Y373448D03*
G01X76381Y370908D03*
G01X106099Y241368D03*
G01X106099Y238828D03*
G01X106099Y236288D03*
G01X53775Y375480D03*
G01X53775Y372940D03*
G01X53775Y370400D03*
G01X56823Y234764D03*
G01X56823Y232224D03*
G01X56823Y229684D03*
G54D18*
G01X117299Y165374D03*
G01X105799Y165374D03*
G01X96979Y170454D03*
G01X85479Y170454D03*
G01X17320Y172699D03*
G01X28820Y172699D03*
G01X105712Y168127D03*
G01X117212Y168127D03*
G01X85392Y173207D03*
G01X96892Y173207D03*
G01X28907Y175280D03*
G01X17407Y175280D03*
G01X105712Y170921D03*
G01X117212Y170921D03*
G01X85392Y176001D03*
G01X96892Y176001D03*
G01X28907Y178328D03*
G01X17407Y178328D03*
G01X12510Y193653D03*
G54D19*
G01X9839Y193653D03*
G54D18*
G01X15180Y193653D03*
G01X12510Y331829D03*
G54D19*
G01X9839Y331829D03*
G54D18*
G01X15180Y331829D03*
G54D23*
G01X32939Y38314D03*
G54D21*
G01X32939Y43314D03*
G54D22*
G01X68580Y39624D03*
G54D20*
G01X68580Y37084D03*
G01X71120Y39624D03*
G01X71120Y37084D03*
G01X73660Y39624D03*
G01X73660Y37084D03*
G01X76200Y39624D03*
G01X76200Y37084D03*
G01X78740Y39624D03*
G01X78740Y37084D03*
G01X81280Y39624D03*
G01X81280Y37084D03*
G01X83820Y39624D03*
G01X83820Y37084D03*
G01X86360Y39624D03*
G01X86360Y37084D03*
G01X88900Y39624D03*
G01X88900Y37084D03*
G01X91440Y39624D03*
G01X91440Y37084D03*
G01X93980Y39624D03*
G01X93980Y37084D03*
G01X96520Y39624D03*
G01X96520Y37084D03*
G01X99060Y39624D03*
G01X99060Y37084D03*
G01X101600Y39624D03*
G01X101600Y37084D03*
G01X104140Y39624D03*
G01X104140Y37084D03*
G01X106680Y39624D03*
G01X106680Y37084D03*
G01X109220Y39624D03*
G01X109220Y37084D03*
G01X111760Y39624D03*
G01X111760Y37084D03*
G01X114300Y39624D03*
G01X114300Y37084D03*
G01X116840Y39624D03*
G01X116840Y37084D03*
G01X58420Y197358D03*
G01X90170Y207518D03*
G01X115824Y186690D03*
G01X28702Y335534D03*
G01X78740Y323088D03*
G01X120904Y325120D03*
G54D22*
G01X54356Y37084D03*
G54D20*
G01X51816Y37084D03*
G01X54356Y39624D03*
G01X51816Y39624D03*
G01X54356Y42164D03*
G01X51816Y42164D03*
G01X54356Y44704D03*
G01X51816Y44704D03*
G01X54356Y47244D03*
G01X51816Y47244D03*
G01X54356Y49784D03*
G01X51816Y49784D03*
G01X54356Y52324D03*
G01X51816Y52324D03*
G01X54356Y54864D03*
G01X51816Y54864D03*
G01X54356Y57404D03*
G01X51816Y57404D03*
G01X54356Y59944D03*
G01X51816Y59944D03*
G01X54356Y62484D03*
G01X51816Y62484D03*
G01X54356Y65024D03*
G01X51816Y65024D03*
G01X54356Y67564D03*
G01X51816Y67564D03*
G01X54356Y70104D03*
G01X51816Y70104D03*
G01X54356Y72644D03*
G01X51816Y72644D03*
G01X54356Y75184D03*
G01X51816Y75184D03*
G01X54356Y77724D03*
G01X51816Y77724D03*
G01X54356Y80264D03*
G01X51816Y80264D03*
G01X54356Y82804D03*
G01X51816Y82804D03*
G01X54356Y85344D03*
G01X51816Y85344D03*
G54D18*
G01X10011Y119061D03*
G54D19*
G01X10011Y121732D03*
G54D18*
G01X10011Y116391D03*
G01X10011Y279335D03*
G54D19*
G01X10011Y282006D03*
G54D18*
G01X10011Y276665D03*
G54D21*
G01X45720Y124968D03*
G01X45720Y122428D03*
G01X45720Y119888D03*
G01X45720Y117348D03*
G01X45720Y114808D03*
G01X45720Y112268D03*
G01X45720Y109728D03*
G01X45720Y107188D03*
G01X53848Y107188D03*
G01X53848Y109728D03*
G01X53848Y112268D03*
G01X53848Y114808D03*
G01X53848Y117348D03*
G01X53848Y119888D03*
G01X53848Y122428D03*
G01X53848Y124968D03*
G01X84074Y124968D03*
G01X84074Y122428D03*
G01X84074Y119888D03*
G01X84074Y117348D03*
G01X84074Y114808D03*
G01X84074Y112268D03*
G01X84074Y109728D03*
G01X84074Y107188D03*
G01X92202Y107188D03*
G01X92202Y109728D03*
G01X92202Y112268D03*
G01X92202Y114808D03*
G01X92202Y117348D03*
G01X92202Y119888D03*
G01X92202Y122428D03*
G01X92202Y124968D03*
G54D23*
G01X29972Y275590D03*
G54D21*
G01X29972Y278130D03*
G01X29972Y280670D03*
G01X29972Y283210D03*
G01X29972Y285750D03*
G01X29972Y288290D03*
G01X29972Y290830D03*
G01X22352Y290830D03*
G01X22352Y288290D03*
G01X22352Y285750D03*
G01X22352Y283210D03*
G01X22352Y280670D03*
G01X22352Y278130D03*
G01X22352Y275590D03*
G01X84074Y293116D03*
G01X84074Y290576D03*
G01X84074Y288036D03*
G01X84074Y285496D03*
G01X84074Y282956D03*
G01X84074Y280416D03*
G01X84074Y277876D03*
G01X84074Y275336D03*
G01X92202Y275336D03*
G01X92202Y277876D03*
G01X92202Y280416D03*
G01X92202Y282956D03*
G01X92202Y285496D03*
G01X92202Y288036D03*
G01X92202Y290576D03*
G01X92202Y293116D03*
G01X43180Y293116D03*
G01X43180Y290576D03*
G01X43180Y288036D03*
G01X43180Y285496D03*
G01X43180Y282956D03*
G01X43180Y280416D03*
G01X43180Y277876D03*
G01X43180Y275336D03*
G01X51308Y275336D03*
G01X51308Y277876D03*
G01X51308Y280416D03*
G01X51308Y282956D03*
G01X51308Y285496D03*
G01X51308Y288036D03*
G01X51308Y290576D03*
G01X51308Y293116D03*
G54D20*
G01X55557Y207082D03*
G01X58097Y207082D03*
G01X60637Y207082D03*
G01X91004Y195394D03*
G01X91004Y192854D03*
G01X91004Y190314D03*
G54D18*
G01X28496Y222524D03*
G01X39996Y222524D03*
G01X75486Y191282D03*
G01X86986Y191282D03*
G01X110030Y220746D03*
G01X121530Y220746D03*
G01X37543Y306811D03*
G01X26043Y306811D03*
G01X56113Y319834D03*
G01X56113Y331334D03*
G01X94762Y318975D03*
G01X94762Y307475D03*
G01X28496Y219730D03*
G01X39996Y219730D03*
G01X75486Y188234D03*
G01X86986Y188234D03*
G01X110030Y223794D03*
G01X121530Y223794D03*
G01X25956Y302534D03*
G01X37456Y302534D03*
G01X86085Y307896D03*
G01X86085Y319396D03*
G01X91673Y307642D03*
G01X91673Y319142D03*
G01X100817Y178102D03*
G01X100817Y189602D03*
G01X75486Y185186D03*
G01X86986Y185186D03*
G01X28496Y216682D03*
G01X39996Y216682D03*
G01X104599Y304525D03*
G01X93099Y304525D03*
G01X47010Y328881D03*
G01X47010Y317381D03*
G01X12679Y310944D03*
G01X12679Y322444D03*
G01X51328Y216867D03*
G01X51328Y205367D03*
G01X70337Y199946D03*
G01X70337Y211446D03*
G01X105966Y174772D03*
G01X117466Y174772D03*
G01X25928Y322531D03*
G01X25928Y311031D03*
G01X52344Y343105D03*
G01X52344Y331605D03*
G01X115013Y332211D03*
G01X103513Y332211D03*
G01X81009Y218456D03*
G01X85009Y218440D03*
G01X111235Y181372D03*
G01X115235Y181356D03*
G01X25670Y334501D03*
G01X21670Y334518D03*
G54D20*
G01X24928Y328865D03*
G01X21427Y328865D03*
G54D18*
G01X67580Y337803D03*
G01X63580Y337820D03*
G54D20*
G01X58101Y337529D03*
G01X58101Y341030D03*
G54D18*
G01X112505Y302497D03*
G01X112522Y306497D03*
G54D20*
G01X116295Y304356D03*
G01X119796Y304356D03*
G54D18*
G01X105966Y178074D03*
G01X117466Y178074D03*
G01X93197Y200454D03*
G01X93197Y211954D03*
G01X62971Y190040D03*
G01X62971Y201540D03*
G01X17038Y322531D03*
G01X17038Y311031D03*
G01X67104Y320568D03*
G01X78604Y320568D03*
G01X115013Y327893D03*
G01X103513Y327893D03*
G54D20*
G01X52216Y200014D03*
G01X49676Y200014D03*
G01X52216Y197474D03*
G01X49676Y197474D03*
G01X52216Y194934D03*
G01X49676Y194934D03*
G01X52216Y192394D03*
G54D22*
G01X49677Y192394D03*
G54D20*
G01X119242Y190353D03*
G01X119242Y192893D03*
G01X116702Y190353D03*
G01X116702Y192893D03*
G01X114162Y190353D03*
G01X114162Y192893D03*
G01X111622Y190353D03*
G54D22*
G01X111622Y192892D03*
G54D20*
G01X31125Y332378D03*
G01X31125Y329838D03*
G01X33665Y332378D03*
G01X33665Y329838D03*
G01X36205Y332378D03*
G01X36205Y329838D03*
G01X38745Y332378D03*
G54D22*
G01X38745Y329836D03*
G54D20*
G01X73268Y330053D03*
G01X73268Y332593D03*
G01X70728Y330053D03*
G01X70728Y332593D03*
G01X68188Y330053D03*
G01X68188Y332593D03*
G01X65648Y330053D03*
G54D22*
G01X65648Y332592D03*
G54D20*
G01X120288Y319902D03*
G01X117748Y319902D03*
G01X120288Y317362D03*
G01X117748Y317362D03*
G01X120288Y314822D03*
G01X117748Y314822D03*
G01X120288Y312282D03*
G54D22*
G01X117749Y312282D03*
G54D20*
G01X84698Y210165D03*
G01X84698Y212705D03*
G01X82158Y210165D03*
G01X82158Y212705D03*
G01X79618Y210165D03*
G01X79618Y212705D03*
G01X77078Y210165D03*
G54D22*
G01X77078Y212704D03*
G54D18*
G01X48493Y205280D03*
G01X48493Y216780D03*
G01X74978Y199664D03*
G01X86478Y199664D03*
G01X98572Y199087D03*
G01X98572Y187587D03*
G01X21569Y310944D03*
G01X21569Y322444D03*
G01X67358Y316504D03*
G01X78858Y316504D03*
G01X103426Y324632D03*
G01X114926Y324632D03*
G01X55609Y182134D03*
G01X59609Y182118D03*
G54D20*
G01X33600Y343730D03*
G01X33600Y341190D03*
G01X33600Y338650D03*
G01X86178Y341444D03*
G01X86178Y338904D03*
G01X86178Y336364D03*
G01X93290Y341444D03*
G01X93290Y338904D03*
G01X93290Y336364D03*
G01X113215Y216988D03*
G01X115755Y216988D03*
G01X118295Y216988D03*
G01X73623Y218250D03*
G01X77124Y218250D03*
G01X109382Y185230D03*
G01X105881Y185230D03*
G01X56097Y188278D03*
G01X59598Y188278D03*
G54D24*
G01X116586Y26670D03*
G01X116586Y4670D03*
G01X7620Y26670D03*
G01X7620Y4670D03*
G54D16*
G01X81026Y87884D03*
G01X81026Y89916D03*
G01X104394Y146558D03*
G01X100076Y136652D03*
G01X97282Y141224D03*
G01X96266Y136652D03*
G01X96266Y141224D03*
G01X91186Y141224D03*
G01X96266Y143256D03*
G01X81280Y133604D03*
G01X51308Y149860D03*
G01X63754Y135128D03*
G01X63754Y140716D03*
G01X102362Y135636D03*
G01X65532Y143002D03*
G01X97282Y132588D03*
G01X45720Y97028D03*
G01X55880Y123698D03*
G01X45974Y187706D03*
G01X70104Y133096D03*
G01X74422Y136652D03*
G01X71628Y142494D03*
G01X75438Y136652D03*
G01X75438Y140716D03*
G01X75438Y170180D03*
G01X70358Y170180D03*
G01X107696Y147574D03*
G01X107696Y153162D03*
G01X82804Y182118D03*
G01X79502Y203200D03*
G01X77978Y136652D03*
G01X77978Y140716D03*
G01X75692Y173482D03*
G01X66040Y173482D03*
G01X47244Y188722D03*
G01X66548Y133096D03*
G01X66040Y136652D03*
G01X65786Y140716D03*
G01X98806Y128270D03*
G01X82296Y180594D03*
G01X65532Y180594D03*
G01X122174Y234442D03*
G01X88138Y128016D03*
G01X120142Y137160D03*
G01X86868Y129032D03*
G01X120142Y139192D03*
G01X121158Y172466D03*
G01X106172Y196342D03*
G01X115062Y232664D03*
G01X85852Y125984D03*
G01X76454Y136652D03*
G01X76454Y140716D03*
G01X91186Y177800D03*
G01X103632Y195580D03*
G01X91186Y233426D03*
G01X77470Y125730D03*
G01X77470Y128778D03*
G01X91948Y133604D03*
G01X93472Y136652D03*
G01X93472Y139700D03*
G01X102870Y179578D03*
G01X104902Y196596D03*
G01X108204Y229362D03*
G01X69850Y131826D03*
G01X66040Y131826D03*
G01X64770Y136144D03*
G01X64770Y141732D03*
G01X64516Y172212D03*
G01X102108Y195326D03*
G01X39878Y155956D03*
G01X96520Y223266D03*
G01X41910Y149352D03*
G01X38862Y155956D03*
G01X75438Y239014D03*
G01X50546Y125476D03*
G01X49276Y124968D03*
G01X48006Y124206D03*
G01X50546Y141224D03*
G01X49276Y139446D03*
G01X48006Y138430D03*
G01X39624Y141224D03*
G01X38100Y139446D03*
G01X36576Y138430D03*
G01X43942Y110998D03*
G01X33782Y274066D03*
G01X50546Y87884D03*
G01X51308Y89916D03*
G01X38862Y108204D03*
G01X38862Y110998D03*
G01X32766Y268224D03*
G01X52324Y87884D03*
G01X36830Y108204D03*
G01X36830Y111760D03*
G01X31750Y266954D03*
G01X34798Y108204D03*
G01X34798Y112522D03*
G01X30734Y265684D03*
G01X41148Y243078D03*
G01X41148Y241808D03*
G01X41148Y240538D03*
G01X41148Y239268D03*
G01X29718Y239268D03*
G01X44958Y352298D03*
G01X43434Y351536D03*
G01X80518Y362712D03*
G01X106426Y331978D03*
G01X82296Y333756D03*
G01X36322Y353314D03*
G01X72390Y347726D03*
G01X68834Y353568D03*
G01X107696Y349758D03*
G01X110490Y363728D03*
G01X46736Y345694D03*
G01X37338Y353314D03*
G01X73914Y348488D03*
G01X71374Y353822D03*
G01X53594Y324358D03*
G01X56134Y326898D03*
G01X46990Y331724D03*
G01X56642Y291592D03*
G01X56642Y310896D03*
G01X58166Y291592D03*
G01X58166Y299212D03*
G01X59690Y319532D03*
G01X59944Y330200D03*
G01X65278Y313690D03*
G01X87630Y294640D03*
G01X85852Y298450D03*
G01X61214Y331216D03*
G01X96774Y291846D03*
G01X101600Y314452D03*
G01X86106Y294132D03*
G01X85344Y297180D03*
G01X70104Y300228D03*
G01X52324Y317500D03*
G01X49022Y330962D03*
G01X121920Y362712D03*
G01X97536Y361442D03*
G01X101854Y367792D03*
G01X76454Y356108D03*
G01X67818Y362966D03*
G01X36322Y356870D03*
G01X28702Y329692D03*
G01X37592Y322072D03*
G01X103378Y310896D03*
G01X113538Y243840D03*
G01X99568Y256794D03*
G01X112268Y260858D03*
G01X80264Y242570D03*
G01X113792Y147574D03*
G01X114046Y155448D03*
G01X48006Y173482D03*
G01X42672Y72390D03*
G01X69088Y135890D03*
G01X90678Y134112D03*
G01X90678Y136652D03*
G01X80010Y141732D03*
G01X88646Y140970D03*
G01X101600Y128270D03*
G01X101092Y136652D03*
G01X101092Y141224D03*
G54D17*
G01X29464Y243078D03*
G01X42926Y147574D03*
G01X100838Y143256D03*
G01X49530Y154940D03*
G01X62230Y147066D03*
G01X44196Y341122D03*
G01X44196Y329692D03*
G01X109982Y330708D03*
G01X84074Y316992D03*
G01X98298Y203200D03*
G01X105156Y194310D03*
G01X64516Y354076D03*
G01X52832Y352806D03*
G01X51054Y303784D03*
G01X107696Y309626D03*
G01X109982Y309880D03*
G01X107950Y321818D03*
G01X26924Y256286D03*
G01X91694Y251968D03*
G01X94742Y229870D03*
G01X92710Y253238D03*
G01X95250Y241300D03*
G01X87630Y256032D03*
G01X108671Y263692D03*
G01X109982Y260604D03*
G01X109982Y256794D03*
G01X113792Y250698D03*
G01X120142Y250698D03*
G01X107188Y263652D03*
G01X107696Y260604D03*
G01X107696Y256794D03*
G01X46736Y207010D03*
G01X43942Y208026D03*
G01X41910Y211328D03*
G01X41910Y186690D03*
G01X58928Y212852D03*
G01X68580Y211074D03*
G01X75486Y197309D03*
G01X108966Y191516D03*
G01X107442Y195326D03*
G01X110030Y206296D03*
G01X104902Y152908D03*
G01X108966Y153162D03*
G01X109220Y148844D03*
G01X115316Y184658D03*
G01X97536Y149606D03*
G01X89154Y153162D03*
G01X88900Y149606D03*
G01X103886Y161544D03*
G01X103886Y153416D03*
G01X64008Y165862D03*
G01X61722Y168148D03*
G01X73914Y168148D03*
G01X29210Y159766D03*
G01X56896Y160274D03*
G01X29718Y163830D03*
G01X29718Y165862D03*
G01X46990Y175006D03*
G01X46990Y167386D03*
G01X26416Y188214D03*
G01X16764Y235204D03*
G01X56134Y249936D03*
G01X56134Y246634D03*
M00*
M02*
