G04 ---------------------------- Layer name :BOTTOM SILK LAYER*
G04 EasyEDA v5.8.16, Sun, 14 Oct 2018 04:50:05 GMT*
G04 5a396672bee444fbbd75647f7a64e84d*
G04 Gerber Generator version 0.2*
G04 Scale: 100 percent, Rotated: No, Reflected: No *
G04 Dimensions in millimeters *
G04 leading zeros omitted , absolute positions ,3 integer and 3 decimal *
%FSLAX33Y33*%
%MOMM*%
G90*
G71D02*

%ADD10C,0.254000*%
%ADD25C,0.177800*%
%ADD26C,0.203200*%

%LPD*%
G54D10*
G01X17780Y162814D02*
G01X17780Y158115D01*
G01X7239Y162814D02*
G01X7239Y158115D01*
G01X17780Y162814D02*
G01X7239Y162814D01*
G01X17780Y158115D02*
G01X7239Y158115D01*
G01X17526Y243586D02*
G01X17526Y238887D01*
G01X6985Y243586D02*
G01X6985Y238887D01*
G01X17526Y243586D02*
G01X6985Y243586D01*
G01X17526Y238887D02*
G01X6985Y238887D01*
G01X17780Y358140D02*
G01X17780Y353441D01*
G01X7239Y358140D02*
G01X7239Y353441D01*
G01X17780Y358140D02*
G01X7239Y358140D01*
G01X17780Y353441D02*
G01X7239Y353441D01*
G01X113284Y362712D02*
G01X110744Y362712D01*
G01X113284Y360172D02*
G01X110744Y360172D01*
G01X110744Y362712D02*
G01X110744Y360172D01*
G01X113284Y362712D02*
G01X113284Y360172D01*
G01X79502Y353568D02*
G01X76962Y353568D01*
G01X79502Y351028D02*
G01X76962Y351028D01*
G01X76962Y353568D02*
G01X76962Y351028D01*
G01X79502Y353568D02*
G01X79502Y351028D01*
G01X43180Y353568D02*
G01X40640Y353568D01*
G01X43180Y351028D02*
G01X40640Y351028D01*
G01X40640Y353568D02*
G01X40640Y351028D01*
G01X43180Y353568D02*
G01X43180Y351028D01*
G01X121920Y262890D02*
G01X119380Y262890D01*
G01X121920Y260350D02*
G01X119380Y260350D01*
G01X119380Y262890D02*
G01X119380Y260350D01*
G01X121920Y262890D02*
G01X121920Y260350D01*
G01X81534Y233680D02*
G01X78994Y233680D01*
G01X81534Y231140D02*
G01X78994Y231140D01*
G01X78994Y233680D02*
G01X78994Y231140D01*
G01X81534Y233680D02*
G01X81534Y231140D01*
G01X18288Y248666D02*
G01X15748Y248666D01*
G01X18288Y246126D02*
G01X15748Y246126D01*
G01X15748Y248666D02*
G01X15748Y246126D01*
G01X18288Y248666D02*
G01X18288Y246126D01*
G01X112522Y153162D02*
G01X109982Y153162D01*
G01X112522Y150622D02*
G01X109982Y150622D01*
G01X109982Y153162D02*
G01X109982Y150622D01*
G01X112522Y153162D02*
G01X112522Y150622D01*
G01X97536Y152908D02*
G01X94996Y152908D01*
G01X97536Y150368D02*
G01X94996Y150368D01*
G01X94996Y152908D02*
G01X94996Y150368D01*
G01X97536Y152908D02*
G01X97536Y150368D01*
G01X51816Y171196D02*
G01X49276Y171196D01*
G01X51816Y168656D02*
G01X49276Y168656D01*
G01X49276Y171196D02*
G01X49276Y168656D01*
G01X51816Y171196D02*
G01X51816Y168656D01*
G01X108966Y126746D02*
G01X103378Y126746D01*
G01X103378Y105410D01*
G01X108966Y105410D01*
G01X108966Y126746D01*
G01X108966Y126746D01*
G01X70612Y126746D02*
G01X65024Y126746D01*
G01X65024Y105410D01*
G01X70612Y105410D01*
G01X70612Y126746D01*
G01X70612Y126746D01*
G01X70612Y294894D02*
G01X65024Y294894D01*
G01X65024Y273558D01*
G01X70612Y273558D01*
G01X70612Y294894D01*
G01X70612Y294894D01*
G01X108966Y294894D02*
G01X103378Y294894D01*
G01X103378Y273558D01*
G01X108966Y273558D01*
G01X108966Y294894D01*
G01X108966Y294894D01*
G01X94742Y168402D02*
G01X80241Y168402D01*
G01X94742Y143400D02*
G01X80241Y143400D01*
G01X94742Y168402D02*
G01X94742Y143400D01*
G01X80241Y168402D02*
G01X80241Y143400D01*
G01X92572Y148480D02*
G01X92572Y143400D01*
G01X82412Y148480D02*
G01X82412Y143400D01*
G01X92572Y148480D02*
G01X82412Y148480D01*
G01X60198Y168402D02*
G01X45697Y168402D01*
G01X60198Y143400D02*
G01X45697Y143400D01*
G01X60198Y168402D02*
G01X60198Y143400D01*
G01X45697Y168402D02*
G01X45697Y143400D01*
G01X58028Y168292D02*
G01X58028Y163212D01*
G01X47868Y168292D02*
G01X47868Y163212D01*
G01X58028Y163212D02*
G01X47868Y163212D01*
G01X123444Y259334D02*
G01X108943Y259334D01*
G01X123444Y234332D02*
G01X108943Y234332D01*
G01X123444Y259334D02*
G01X123444Y234332D01*
G01X108943Y259334D02*
G01X108943Y234332D01*
G01X121274Y259224D02*
G01X121274Y254144D01*
G01X111114Y259224D02*
G01X111114Y254144D01*
G01X121274Y254144D02*
G01X111114Y254144D01*
G01X35814Y354076D02*
G01X50314Y354076D01*
G01X35814Y379074D02*
G01X50314Y379074D01*
G01X35814Y354076D02*
G01X35814Y379074D01*
G01X50314Y354076D02*
G01X50314Y379074D01*
G01X37983Y354182D02*
G01X37983Y359262D01*
G01X48143Y354182D02*
G01X48143Y359262D01*
G01X37983Y359262D02*
G01X48143Y359262D01*
G01X115062Y368554D02*
G01X115062Y354053D01*
G01X140063Y368554D02*
G01X140063Y354053D01*
G01X115062Y368554D02*
G01X140063Y368554D01*
G01X115062Y354053D02*
G01X140063Y354053D01*
G01X115171Y366384D02*
G01X120251Y366384D01*
G01X115171Y356224D02*
G01X120251Y356224D01*
G01X120251Y366384D02*
G01X120251Y356224D01*
G01X95250Y354076D02*
G01X95250Y368576D01*
G01X70251Y354076D02*
G01X70251Y368576D01*
G01X95250Y354076D02*
G01X70251Y354076D01*
G01X95250Y368576D02*
G01X70251Y368576D01*
G01X75331Y356245D02*
G01X70251Y356245D01*
G01X75331Y366405D02*
G01X70251Y366405D01*
G01X75331Y356245D02*
G01X75331Y366405D01*
G01X113284Y377190D02*
G01X113284Y379689D01*
G01X113284Y377190D02*
G01X118783Y377190D01*
G01X118783Y377190D02*
G01X118784Y379689D01*
G01X113284Y379689D02*
G01X118783Y379689D01*
G01X64516Y371348D02*
G01X64516Y373847D01*
G01X64516Y371348D02*
G01X70015Y371348D01*
G01X70015Y371348D02*
G01X70015Y373847D01*
G01X64516Y373847D02*
G01X70015Y373847D01*
G01X28448Y360680D02*
G01X30947Y360680D01*
G01X28448Y360680D02*
G01X28448Y355180D01*
G01X28448Y355180D02*
G01X30947Y355179D01*
G01X30947Y360680D02*
G01X30947Y355180D01*
G01X109728Y368808D02*
G01X109728Y367792D01*
G01X109728Y368808D02*
G01X111726Y368808D01*
G01X109728Y367792D02*
G01X111726Y367792D01*
G01X111727Y368808D02*
G01X111727Y367792D01*
G01X64770Y358140D02*
G01X65786Y358140D01*
G01X64770Y358140D02*
G01X64770Y360138D01*
G01X65786Y358140D02*
G01X65786Y360138D01*
G01X64770Y360139D02*
G01X65786Y360139D01*
G01X53848Y361950D02*
G01X54864Y361950D01*
G01X53848Y361950D02*
G01X53848Y363948D01*
G01X54864Y361950D02*
G01X54864Y363948D01*
G01X53848Y363949D02*
G01X54864Y363949D01*
G01X32512Y360680D02*
G01X35011Y360680D01*
G01X32512Y360680D02*
G01X32512Y355180D01*
G01X32512Y355180D02*
G01X35011Y355179D01*
G01X35011Y360680D02*
G01X35011Y355180D01*
G01X80010Y361188D02*
G01X82509Y361188D01*
G01X80010Y361188D02*
G01X80010Y355688D01*
G01X80010Y355688D02*
G01X82509Y355687D01*
G01X82509Y361188D02*
G01X82509Y355688D01*
G01X113284Y372110D02*
G01X113284Y374609D01*
G01X113284Y372110D02*
G01X118783Y372110D01*
G01X118783Y372110D02*
G01X118784Y374609D01*
G01X113284Y374609D02*
G01X118783Y374609D01*
G01X109728Y346964D02*
G01X109728Y349463D01*
G01X109728Y346964D02*
G01X115227Y346964D01*
G01X115227Y346964D02*
G01X115227Y349463D01*
G01X109728Y349463D02*
G01X115227Y349463D01*
G01X86614Y355600D02*
G01X84114Y355600D01*
G01X86614Y355600D02*
G01X86614Y361099D01*
G01X86614Y361099D02*
G01X84114Y361100D01*
G01X84114Y355600D02*
G01X84114Y361099D01*
G01X47752Y349758D02*
G01X47752Y347258D01*
G01X47752Y349758D02*
G01X42252Y349758D01*
G01X42252Y349758D02*
G01X42252Y347258D01*
G01X47752Y347258D02*
G01X42252Y347258D01*
G01X113284Y262890D02*
G01X113284Y265389D01*
G01X113284Y262890D02*
G01X118783Y262890D01*
G01X118783Y262890D02*
G01X118784Y265389D01*
G01X113284Y265389D02*
G01X118783Y265389D01*
G01X76454Y243332D02*
G01X78953Y243332D01*
G01X76454Y243332D02*
G01X76454Y237832D01*
G01X76454Y237832D02*
G01X78953Y237831D01*
G01X78953Y243332D02*
G01X78953Y237832D01*
G01X25146Y251714D02*
G01X25146Y249214D01*
G01X25146Y251714D02*
G01X19646Y251714D01*
G01X19646Y251714D02*
G01X19645Y249214D01*
G01X25146Y249214D02*
G01X19646Y249214D01*
G01X104394Y262128D02*
G01X103378Y262128D01*
G01X104394Y262128D02*
G01X104394Y260129D01*
G01X103378Y262128D02*
G01X103378Y260129D01*
G01X104394Y260129D02*
G01X103378Y260129D01*
G01X99060Y244856D02*
G01X99060Y243840D01*
G01X99060Y244856D02*
G01X101058Y244856D01*
G01X99060Y243840D02*
G01X101058Y243840D01*
G01X101059Y244856D02*
G01X101059Y243840D01*
G01X26670Y229870D02*
G01X26670Y228854D01*
G01X26670Y229870D02*
G01X28668Y229870D01*
G01X26670Y228854D02*
G01X28668Y228854D01*
G01X28669Y229870D02*
G01X28669Y228854D01*
G01X113538Y269748D02*
G01X113538Y272247D01*
G01X113538Y269748D02*
G01X119037Y269748D01*
G01X119037Y269748D02*
G01X119038Y272247D01*
G01X113538Y272247D02*
G01X119037Y272247D01*
G01X67564Y243332D02*
G01X70063Y243332D01*
G01X67564Y243332D02*
G01X67564Y237832D01*
G01X67564Y237832D02*
G01X70063Y237831D01*
G01X70063Y243332D02*
G01X70063Y237832D01*
G01X25146Y254762D02*
G01X25146Y252262D01*
G01X25146Y254762D02*
G01X19646Y254762D01*
G01X19646Y254762D02*
G01X19645Y252262D01*
G01X25146Y252262D02*
G01X19646Y252262D01*
G01X118872Y268986D02*
G01X118872Y266486D01*
G01X118872Y268986D02*
G01X113372Y268986D01*
G01X113372Y268986D02*
G01X113371Y266486D01*
G01X118872Y266486D02*
G01X113372Y266486D01*
G01X74676Y237744D02*
G01X72176Y237744D01*
G01X74676Y237744D02*
G01X74676Y243243D01*
G01X74676Y243243D02*
G01X72176Y243244D01*
G01X72176Y237744D02*
G01X72176Y243243D01*
G01X15240Y234188D02*
G01X17739Y234188D01*
G01X15240Y234188D02*
G01X15240Y228688D01*
G01X15240Y228688D02*
G01X17739Y228687D01*
G01X17739Y234188D02*
G01X17739Y228688D01*
G01X108966Y158242D02*
G01X108966Y160741D01*
G01X108966Y158242D02*
G01X114465Y158242D01*
G01X114465Y158242D02*
G01X114465Y160741D01*
G01X108966Y160741D02*
G01X114465Y160741D01*
G01X84836Y159766D02*
G01X84836Y162265D01*
G01X84836Y159766D02*
G01X90335Y159766D01*
G01X90335Y159766D02*
G01X90336Y162265D01*
G01X84836Y162265D02*
G01X90335Y162265D01*
G01X70866Y166624D02*
G01X70866Y164124D01*
G01X70866Y166624D02*
G01X65366Y166624D01*
G01X65366Y166624D02*
G01X65365Y164124D01*
G01X70866Y164124D02*
G01X65366Y164124D01*
G01X71628Y143002D02*
G01X70612Y143002D01*
G01X71628Y143002D02*
G01X71628Y141003D01*
G01X70612Y143002D02*
G01X70612Y141003D01*
G01X71628Y141002D02*
G01X70612Y141002D01*
G01X60706Y173990D02*
G01X60706Y172974D01*
G01X60706Y173990D02*
G01X62704Y173990D01*
G01X60706Y172974D02*
G01X62704Y172974D01*
G01X62704Y173990D02*
G01X62704Y172974D01*
G01X108966Y161290D02*
G01X108966Y163789D01*
G01X108966Y161290D02*
G01X114465Y161290D01*
G01X114465Y161290D02*
G01X114465Y163789D01*
G01X108966Y163789D02*
G01X114465Y163789D01*
G01X76708Y153416D02*
G01X76708Y155915D01*
G01X76708Y153416D02*
G01X82207Y153416D01*
G01X82207Y153416D02*
G01X82208Y155915D01*
G01X76708Y155915D02*
G01X82207Y155915D01*
G01X58928Y180594D02*
G01X58928Y178094D01*
G01X58928Y180594D02*
G01X53428Y180594D01*
G01X53428Y180594D02*
G01X53427Y178094D01*
G01X58928Y178094D02*
G01X53428Y178094D01*
G01X117602Y132080D02*
G01X117602Y129580D01*
G01X117602Y132080D02*
G01X112102Y132080D01*
G01X112102Y132080D02*
G01X112101Y129580D01*
G01X117602Y129580D02*
G01X112102Y129580D01*
G01X82296Y158750D02*
G01X82296Y156250D01*
G01X82296Y158750D02*
G01X76796Y158750D01*
G01X76796Y158750D02*
G01X76795Y156250D01*
G01X82296Y156250D02*
G01X76796Y156250D01*
G01X63246Y152400D02*
G01X60746Y152400D01*
G01X63246Y152400D02*
G01X63246Y157899D01*
G01X63246Y157899D02*
G01X60746Y157900D01*
G01X60746Y152400D02*
G01X60746Y157899D01*
G01X116586Y140208D02*
G01X115570Y140208D01*
G01X116586Y140208D02*
G01X116586Y138209D01*
G01X115570Y140208D02*
G01X115570Y138209D01*
G01X116586Y138208D02*
G01X115570Y138208D01*
G01X115062Y157734D02*
G01X115062Y143233D01*
G01X140063Y157734D02*
G01X140063Y143233D01*
G01X115062Y157734D02*
G01X140063Y157734D01*
G01X115062Y143233D02*
G01X140063Y143233D01*
G01X115171Y155564D02*
G01X120251Y155564D01*
G01X115171Y145404D02*
G01X120251Y145404D01*
G01X120251Y155564D02*
G01X120251Y145404D01*
G01X64008Y248666D02*
G01X64008Y234165D01*
G01X89009Y248666D02*
G01X89009Y234165D01*
G01X64008Y248666D02*
G01X89009Y248666D01*
G01X64008Y234165D02*
G01X89009Y234165D01*
G01X83929Y246496D02*
G01X89009Y246496D01*
G01X83929Y236336D02*
G01X89009Y236336D01*
G01X83929Y246496D02*
G01X83929Y236336D01*
G01X19050Y248666D02*
G01X19050Y234165D01*
G01X44051Y248666D02*
G01X44051Y234165D01*
G01X19050Y248666D02*
G01X44051Y248666D01*
G01X19050Y234165D02*
G01X44051Y234165D01*
G01X19159Y246496D02*
G01X24239Y246496D01*
G01X19159Y236336D02*
G01X24239Y236336D01*
G01X24239Y246496D02*
G01X24239Y236336D01*
G01X102870Y164338D02*
G01X99170Y164338D01*
G01X102870Y164338D02*
G01X102870Y155838D01*
G01X99170Y164338D02*
G01X99170Y155838D01*
G01X102870Y155837D02*
G01X99170Y155837D01*
G01X72644Y161290D02*
G01X68944Y161290D01*
G01X72644Y161290D02*
G01X72644Y152790D01*
G01X68944Y161290D02*
G01X68944Y152790D01*
G01X72644Y152789D02*
G01X68944Y152789D01*
G01X60960Y143002D02*
G01X57260Y143002D01*
G01X60960Y143002D02*
G01X60960Y134502D01*
G01X57260Y143002D02*
G01X57260Y134502D01*
G01X60960Y134501D02*
G01X57260Y134501D01*
G01X101600Y351282D02*
G01X104099Y351282D01*
G01X101600Y351282D02*
G01X101600Y345782D01*
G01X101600Y345782D02*
G01X104099Y345782D01*
G01X104099Y351282D02*
G01X104099Y345782D01*
G01X75438Y349504D02*
G01X75438Y347004D01*
G01X75438Y349504D02*
G01X69938Y349504D01*
G01X69938Y349504D02*
G01X69938Y347004D01*
G01X75438Y347004D02*
G01X69938Y347004D01*
G01X46228Y344170D02*
G01X46228Y341670D01*
G01X46228Y344170D02*
G01X40728Y344170D01*
G01X40728Y344170D02*
G01X40728Y341670D01*
G01X46228Y341670D02*
G01X40728Y341670D01*
G01X105918Y338328D02*
G01X105918Y340827D01*
G01X105918Y338328D02*
G01X111417Y338328D01*
G01X111417Y338328D02*
G01X111417Y340827D01*
G01X105918Y340827D02*
G01X111417Y340827D01*
G01X82042Y374904D02*
G01X84541Y374904D01*
G01X82042Y374904D02*
G01X82042Y369404D01*
G01X82042Y369404D02*
G01X84541Y369404D01*
G01X84541Y374904D02*
G01X84541Y369404D01*
G01X56134Y347218D02*
G01X56134Y349717D01*
G01X56134Y347218D02*
G01X61633Y347218D01*
G01X61633Y347218D02*
G01X61633Y349717D01*
G01X56134Y349717D02*
G01X61633Y349717D01*
G01X110236Y343916D02*
G01X110236Y346415D01*
G01X110236Y343916D02*
G01X115735Y343916D01*
G01X115735Y343916D02*
G01X115735Y346415D01*
G01X110236Y346415D02*
G01X115735Y346415D01*
G01X57658Y369570D02*
G01X60157Y369570D01*
G01X57658Y369570D02*
G01X57658Y364070D01*
G01X57658Y364070D02*
G01X60157Y364070D01*
G01X60157Y369570D02*
G01X60157Y364070D01*
G01X24130Y360680D02*
G01X26629Y360680D01*
G01X24130Y360680D02*
G01X24130Y355180D01*
G01X24130Y355180D02*
G01X26629Y355180D01*
G01X26629Y360680D02*
G01X26629Y355180D01*
G01X99822Y271272D02*
G01X99822Y268772D01*
G01X99822Y271272D02*
G01X94322Y271272D01*
G01X94322Y271272D02*
G01X94322Y268772D01*
G01X99822Y268772D02*
G01X94322Y268772D01*
G01X64262Y255270D02*
G01X61762Y255270D01*
G01X64262Y255270D02*
G01X64262Y260769D01*
G01X64262Y260769D02*
G01X61762Y260769D01*
G01X61762Y255270D02*
G01X61762Y260769D01*
G01X43180Y262382D02*
G01X43180Y264881D01*
G01X43180Y262382D02*
G01X48679Y262382D01*
G01X48679Y262382D02*
G01X48679Y264881D01*
G01X43180Y264881D02*
G01X48679Y264881D01*
G01X94234Y266192D02*
G01X94234Y268691D01*
G01X94234Y266192D02*
G01X99733Y266192D01*
G01X99733Y266192D02*
G01X99733Y268691D01*
G01X94234Y268691D02*
G01X99733Y268691D01*
G01X65024Y260858D02*
G01X67523Y260858D01*
G01X65024Y260858D02*
G01X65024Y255358D01*
G01X65024Y255358D02*
G01X67523Y255358D01*
G01X67523Y260858D02*
G01X67523Y255358D01*
G01X48768Y261620D02*
G01X48768Y259120D01*
G01X48768Y261620D02*
G01X43268Y261620D01*
G01X43268Y261620D02*
G01X43268Y259120D01*
G01X48768Y259120D02*
G01X43268Y259120D01*
G01X94234Y262890D02*
G01X94234Y265389D01*
G01X94234Y262890D02*
G01X99733Y262890D01*
G01X99733Y262890D02*
G01X99733Y265389D01*
G01X94234Y265389D02*
G01X99733Y265389D01*
G01X68072Y260858D02*
G01X70571Y260858D01*
G01X68072Y260858D02*
G01X68072Y255358D01*
G01X68072Y255358D02*
G01X70571Y255358D01*
G01X70571Y260858D02*
G01X70571Y255358D01*
G01X48768Y258318D02*
G01X48768Y255818D01*
G01X48768Y258318D02*
G01X43268Y258318D01*
G01X43268Y258318D02*
G01X43268Y255818D01*
G01X48768Y255818D02*
G01X43268Y255818D01*
G01X48260Y236474D02*
G01X44560Y236474D01*
G01X48260Y236474D02*
G01X48260Y227974D01*
G01X44560Y236474D02*
G01X44560Y227974D01*
G01X48260Y227973D02*
G01X44560Y227973D01*
G01X99314Y377444D02*
G01X95614Y377444D01*
G01X99314Y377444D02*
G01X99314Y368944D01*
G01X95614Y377444D02*
G01X95614Y368944D01*
G01X99314Y368943D02*
G01X95614Y368943D01*
G01X78232Y377698D02*
G01X74532Y377698D01*
G01X78232Y377698D02*
G01X78232Y369198D01*
G01X74532Y377698D02*
G01X74532Y369198D01*
G01X78232Y369197D02*
G01X74532Y369197D01*
G01X107950Y243078D02*
G01X104250Y243078D01*
G01X107950Y243078D02*
G01X107950Y234578D01*
G01X104250Y243078D02*
G01X104250Y234578D01*
G01X107950Y234577D02*
G01X104250Y234577D01*
G01X55626Y377190D02*
G01X51926Y377190D01*
G01X55626Y377190D02*
G01X55626Y368690D01*
G01X51926Y377190D02*
G01X51926Y368690D01*
G01X55626Y368689D02*
G01X51926Y368689D01*
G01X58674Y236474D02*
G01X54974Y236474D01*
G01X58674Y236474D02*
G01X58674Y227974D01*
G01X54974Y236474D02*
G01X54974Y227974D01*
G01X58674Y227973D02*
G01X54974Y227973D01*
G01X114300Y166624D02*
G01X114300Y164124D01*
G01X114300Y166624D02*
G01X108800Y166624D01*
G01X108800Y166624D02*
G01X108800Y164124D01*
G01X114300Y164124D02*
G01X108800Y164124D01*
G01X93980Y171704D02*
G01X93980Y169204D01*
G01X93980Y171704D02*
G01X88480Y171704D01*
G01X88480Y171704D02*
G01X88480Y169204D01*
G01X93980Y169204D02*
G01X88480Y169204D01*
G01X20320Y171450D02*
G01X20320Y173949D01*
G01X20320Y171450D02*
G01X25819Y171450D01*
G01X25819Y171450D02*
G01X25819Y173949D01*
G01X20320Y173949D02*
G01X25819Y173949D01*
G01X108712Y166878D02*
G01X108712Y169377D01*
G01X108712Y166878D02*
G01X114211Y166878D01*
G01X114211Y166878D02*
G01X114211Y169377D01*
G01X108712Y169377D02*
G01X114211Y169377D01*
G01X88392Y171958D02*
G01X88392Y174457D01*
G01X88392Y171958D02*
G01X93891Y171958D01*
G01X93891Y171958D02*
G01X93891Y174457D01*
G01X88392Y174457D02*
G01X93891Y174457D01*
G01X25908Y176530D02*
G01X25908Y174030D01*
G01X25908Y176530D02*
G01X20408Y176530D01*
G01X20408Y176530D02*
G01X20408Y174030D01*
G01X25908Y174030D02*
G01X20408Y174030D01*
G01X108712Y169672D02*
G01X108712Y172171D01*
G01X108712Y169672D02*
G01X114211Y169672D01*
G01X114211Y169672D02*
G01X114211Y172171D01*
G01X108712Y172171D02*
G01X114211Y172171D01*
G01X88392Y174752D02*
G01X88392Y177251D01*
G01X88392Y174752D02*
G01X93891Y174752D01*
G01X93891Y174752D02*
G01X93891Y177251D01*
G01X88392Y177251D02*
G01X93891Y177251D01*
G01X25908Y179578D02*
G01X25908Y177078D01*
G01X25908Y179578D02*
G01X20408Y179578D01*
G01X20408Y179578D02*
G01X20408Y177078D01*
G01X25908Y177078D02*
G01X20408Y177078D01*
G54D25*
G01X12700Y164706D02*
G01X12700Y163616D01*
G01X12700Y163616D02*
G01X12077Y163616D01*
G01X11734Y164706D02*
G01X11734Y163616D01*
G01X11734Y164706D02*
G01X11318Y163616D01*
G01X10901Y164706D02*
G01X11318Y163616D01*
G01X10901Y164706D02*
G01X10901Y163616D01*
G01X10558Y164500D02*
G01X10454Y164551D01*
G01X10299Y164706D01*
G01X10299Y163616D01*
G01X12446Y245478D02*
G01X12446Y244388D01*
G01X12446Y244388D02*
G01X11823Y244388D01*
G01X11480Y245478D02*
G01X11480Y244388D01*
G01X11480Y245478D02*
G01X11064Y244388D01*
G01X10647Y245478D02*
G01X11064Y244388D01*
G01X10647Y245478D02*
G01X10647Y244388D01*
G01X10200Y245478D02*
G01X9629Y245478D01*
G01X9941Y245064D01*
G01X9786Y245064D01*
G01X9682Y245010D01*
G01X9629Y244960D01*
G01X9578Y244805D01*
G01X9578Y244701D01*
G01X9629Y244543D01*
G01X9733Y244439D01*
G01X9890Y244388D01*
G01X10045Y244388D01*
G01X10200Y244439D01*
G01X10253Y244492D01*
G01X10304Y244596D01*
G01X12700Y360032D02*
G01X12700Y358942D01*
G01X12700Y358942D02*
G01X12077Y358942D01*
G01X11734Y360032D02*
G01X11734Y358942D01*
G01X11734Y360032D02*
G01X11318Y358942D01*
G01X10901Y360032D02*
G01X11318Y358942D01*
G01X10901Y360032D02*
G01X10901Y358942D01*
G01X9936Y360032D02*
G01X10454Y360032D01*
G01X10507Y359564D01*
G01X10454Y359618D01*
G01X10299Y359669D01*
G01X10144Y359669D01*
G01X9987Y359618D01*
G01X9883Y359514D01*
G01X9832Y359359D01*
G01X9832Y359255D01*
G01X9883Y359097D01*
G01X9987Y358993D01*
G01X10144Y358942D01*
G01X10299Y358942D01*
G01X10454Y358993D01*
G01X10507Y359046D01*
G01X10558Y359150D01*
G01X109128Y362597D02*
G01X109905Y362597D01*
G01X110063Y362546D01*
G01X110167Y362442D01*
G01X110218Y362285D01*
G01X110218Y362181D01*
G01X110167Y362026D01*
G01X110063Y361922D01*
G01X109905Y361871D01*
G01X109128Y361871D01*
G01X109387Y361475D02*
G01X109334Y361475D01*
G01X109230Y361424D01*
G01X109179Y361370D01*
G01X109128Y361266D01*
G01X109128Y361061D01*
G01X109179Y360956D01*
G01X109230Y360903D01*
G01X109334Y360852D01*
G01X109438Y360852D01*
G01X109542Y360903D01*
G01X109700Y361007D01*
G01X110218Y361528D01*
G01X110218Y360799D01*
G01X109491Y359780D02*
G01X109646Y359834D01*
G01X109750Y359938D01*
G01X109801Y360093D01*
G01X109801Y360146D01*
G01X109750Y360301D01*
G01X109646Y360405D01*
G01X109491Y360456D01*
G01X109438Y360456D01*
G01X109283Y360405D01*
G01X109179Y360301D01*
G01X109128Y360146D01*
G01X109128Y360093D01*
G01X109179Y359938D01*
G01X109283Y359834D01*
G01X109491Y359780D01*
G01X109750Y359780D01*
G01X110009Y359834D01*
G01X110167Y359938D01*
G01X110218Y360093D01*
G01X110218Y360197D01*
G01X110167Y360352D01*
G01X110063Y360405D01*
G01X79575Y350266D02*
G01X79575Y349488D01*
G01X79524Y349331D01*
G01X79420Y349227D01*
G01X79263Y349176D01*
G01X79159Y349176D01*
G01X79004Y349227D01*
G01X78900Y349331D01*
G01X78849Y349488D01*
G01X78849Y350266D01*
G01X78402Y350266D02*
G01X77830Y350266D01*
G01X78140Y349851D01*
G01X77985Y349851D01*
G01X77881Y349798D01*
G01X77830Y349747D01*
G01X77777Y349592D01*
G01X77777Y349488D01*
G01X77830Y349331D01*
G01X77934Y349227D01*
G01X78089Y349176D01*
G01X78244Y349176D01*
G01X78402Y349227D01*
G01X78452Y349280D01*
G01X78506Y349384D01*
G01X77124Y350266D02*
G01X77279Y350215D01*
G01X77383Y350060D01*
G01X77434Y349798D01*
G01X77434Y349643D01*
G01X77383Y349384D01*
G01X77279Y349227D01*
G01X77124Y349176D01*
G01X77020Y349176D01*
G01X76862Y349227D01*
G01X76758Y349384D01*
G01X76708Y349643D01*
G01X76708Y349798D01*
G01X76758Y350060D01*
G01X76862Y350215D01*
G01X77020Y350266D01*
G01X77124Y350266D01*
G01X43040Y350774D02*
G01X43040Y349996D01*
G01X42989Y349839D01*
G01X42885Y349735D01*
G01X42727Y349684D01*
G01X42623Y349684D01*
G01X42468Y349735D01*
G01X42364Y349839D01*
G01X42313Y349996D01*
G01X42313Y350774D01*
G01X41866Y350774D02*
G01X41295Y350774D01*
G01X41605Y350359D01*
G01X41450Y350359D01*
G01X41346Y350306D01*
G01X41295Y350255D01*
G01X41242Y350100D01*
G01X41242Y349996D01*
G01X41295Y349839D01*
G01X41399Y349735D01*
G01X41554Y349684D01*
G01X41709Y349684D01*
G01X41866Y349735D01*
G01X41917Y349788D01*
G01X41971Y349892D01*
G01X40899Y350568D02*
G01X40794Y350619D01*
G01X40640Y350774D01*
G01X40640Y349684D01*
G01X122428Y262890D02*
G01X123205Y262890D01*
G01X123362Y262839D01*
G01X123466Y262735D01*
G01X123517Y262577D01*
G01X123517Y262473D01*
G01X123466Y262318D01*
G01X123362Y262214D01*
G01X123205Y262163D01*
G01X122428Y262163D01*
G01X122687Y261767D02*
G01X122633Y261767D01*
G01X122529Y261716D01*
G01X122478Y261663D01*
G01X122428Y261559D01*
G01X122428Y261353D01*
G01X122478Y261249D01*
G01X122529Y261195D01*
G01X122633Y261145D01*
G01X122737Y261145D01*
G01X122842Y261195D01*
G01X122999Y261299D01*
G01X123517Y261820D01*
G01X123517Y261091D01*
G01X122428Y260644D02*
G01X122428Y260073D01*
G01X122842Y260385D01*
G01X122842Y260230D01*
G01X122895Y260126D01*
G01X122946Y260073D01*
G01X123101Y260022D01*
G01X123205Y260022D01*
G01X123362Y260073D01*
G01X123466Y260177D01*
G01X123517Y260334D01*
G01X123517Y260489D01*
G01X123466Y260644D01*
G01X123413Y260697D01*
G01X123309Y260748D01*
G01X77216Y233172D02*
G01X77993Y233172D01*
G01X78150Y233121D01*
G01X78254Y233017D01*
G01X78305Y232859D01*
G01X78305Y232755D01*
G01X78254Y232600D01*
G01X78150Y232496D01*
G01X77993Y232445D01*
G01X77216Y232445D01*
G01X77475Y232049D02*
G01X77421Y232049D01*
G01X77317Y231998D01*
G01X77266Y231945D01*
G01X77216Y231841D01*
G01X77216Y231635D01*
G01X77266Y231531D01*
G01X77317Y231477D01*
G01X77421Y231427D01*
G01X77525Y231427D01*
G01X77630Y231477D01*
G01X77787Y231581D01*
G01X78305Y232102D01*
G01X78305Y231373D01*
G01X77216Y230512D02*
G01X77942Y231030D01*
G01X77942Y230251D01*
G01X77216Y230512D02*
G01X78305Y230512D01*
G01X17018Y250558D02*
G01X17018Y249781D01*
G01X16967Y249623D01*
G01X16863Y249519D01*
G01X16705Y249468D01*
G01X16601Y249468D01*
G01X16446Y249519D01*
G01X16342Y249623D01*
G01X16291Y249781D01*
G01X16291Y250558D01*
G01X15895Y250299D02*
G01X15895Y250352D01*
G01X15844Y250456D01*
G01X15791Y250507D01*
G01X15687Y250558D01*
G01X15481Y250558D01*
G01X15377Y250507D01*
G01X15323Y250456D01*
G01X15273Y250352D01*
G01X15273Y250248D01*
G01X15323Y250144D01*
G01X15427Y249986D01*
G01X15948Y249468D01*
G01X15219Y249468D01*
G01X14254Y250558D02*
G01X14772Y250558D01*
G01X14825Y250090D01*
G01X14772Y250144D01*
G01X14617Y250195D01*
G01X14462Y250195D01*
G01X14305Y250144D01*
G01X14201Y250040D01*
G01X14150Y249885D01*
G01X14150Y249781D01*
G01X14201Y249623D01*
G01X14305Y249519D01*
G01X14462Y249468D01*
G01X14617Y249468D01*
G01X14772Y249519D01*
G01X14825Y249572D01*
G01X14876Y249676D01*
G01X111252Y155054D02*
G01X111252Y154277D01*
G01X111201Y154119D01*
G01X111097Y154015D01*
G01X110939Y153964D01*
G01X110835Y153964D01*
G01X110680Y154015D01*
G01X110576Y154119D01*
G01X110525Y154277D01*
G01X110525Y155054D01*
G01X110182Y154848D02*
G01X110078Y154899D01*
G01X109921Y155054D01*
G01X109921Y153964D01*
G01X108851Y155054D02*
G01X109372Y153964D01*
G01X109578Y155054D02*
G01X108851Y155054D01*
G01X97396Y154432D02*
G01X97396Y153654D01*
G01X97345Y153497D01*
G01X97241Y153393D01*
G01X97083Y153342D01*
G01X96979Y153342D01*
G01X96824Y153393D01*
G01X96720Y153497D01*
G01X96669Y153654D01*
G01X96669Y154432D01*
G01X96327Y154226D02*
G01X96222Y154277D01*
G01X96065Y154432D01*
G01X96065Y153342D01*
G01X95463Y154432D02*
G01X95618Y154381D01*
G01X95671Y154277D01*
G01X95671Y154172D01*
G01X95618Y154068D01*
G01X95516Y154017D01*
G01X95308Y153964D01*
G01X95150Y153913D01*
G01X95046Y153809D01*
G01X94996Y153705D01*
G01X94996Y153550D01*
G01X95046Y153446D01*
G01X95100Y153393D01*
G01X95255Y153342D01*
G01X95463Y153342D01*
G01X95618Y153393D01*
G01X95671Y153446D01*
G01X95722Y153550D01*
G01X95722Y153705D01*
G01X95671Y153809D01*
G01X95567Y153913D01*
G01X95412Y153964D01*
G01X95204Y154017D01*
G01X95100Y154068D01*
G01X95046Y154172D01*
G01X95046Y154277D01*
G01X95100Y154381D01*
G01X95255Y154432D01*
G01X95463Y154432D01*
G01X50546Y173088D02*
G01X50546Y172311D01*
G01X50495Y172153D01*
G01X50391Y172049D01*
G01X50233Y171998D01*
G01X50129Y171998D01*
G01X49974Y172049D01*
G01X49870Y172153D01*
G01X49819Y172311D01*
G01X49819Y173088D01*
G01X49476Y172882D02*
G01X49372Y172933D01*
G01X49215Y173088D01*
G01X49215Y171998D01*
G01X48196Y172725D02*
G01X48249Y172570D01*
G01X48353Y172466D01*
G01X48508Y172415D01*
G01X48562Y172415D01*
G01X48717Y172466D01*
G01X48821Y172570D01*
G01X48872Y172725D01*
G01X48872Y172778D01*
G01X48821Y172933D01*
G01X48717Y173037D01*
G01X48562Y173088D01*
G01X48508Y173088D01*
G01X48353Y173037D01*
G01X48249Y172933D01*
G01X48196Y172725D01*
G01X48196Y172466D01*
G01X48249Y172206D01*
G01X48353Y172049D01*
G01X48508Y171998D01*
G01X48613Y171998D01*
G01X48768Y172049D01*
G01X48821Y172153D01*
G01X109710Y128379D02*
G01X109763Y128483D01*
G01X109867Y128587D01*
G01X109969Y128638D01*
G01X110177Y128638D01*
G01X110281Y128587D01*
G01X110385Y128483D01*
G01X110439Y128379D01*
G01X110490Y128224D01*
G01X110490Y127965D01*
G01X110439Y127807D01*
G01X110385Y127703D01*
G01X110281Y127599D01*
G01X110177Y127548D01*
G01X109969Y127548D01*
G01X109867Y127599D01*
G01X109763Y127703D01*
G01X109710Y127807D01*
G01X109710Y127965D01*
G01X109969Y127965D02*
G01X109710Y127965D01*
G01X109367Y128638D02*
G01X109367Y127548D01*
G01X109367Y128638D02*
G01X108899Y128638D01*
G01X108745Y128587D01*
G01X108691Y128536D01*
G01X108640Y128432D01*
G01X108640Y128275D01*
G01X108691Y128170D01*
G01X108745Y128120D01*
G01X108899Y128066D01*
G01X109367Y128066D01*
G01X108297Y128638D02*
G01X108297Y127548D01*
G01X107642Y128638D02*
G01X107746Y128587D01*
G01X107850Y128483D01*
G01X107901Y128379D01*
G01X107955Y128224D01*
G01X107955Y127965D01*
G01X107901Y127807D01*
G01X107850Y127703D01*
G01X107746Y127599D01*
G01X107642Y127548D01*
G01X107434Y127548D01*
G01X107330Y127599D01*
G01X107226Y127703D01*
G01X107175Y127807D01*
G01X107124Y127965D01*
G01X107124Y128224D01*
G01X107175Y128379D01*
G01X107226Y128483D01*
G01X107330Y128587D01*
G01X107434Y128638D01*
G01X107642Y128638D01*
G01X106469Y128638D02*
G01X106624Y128587D01*
G01X106728Y128432D01*
G01X106781Y128170D01*
G01X106781Y128016D01*
G01X106728Y127756D01*
G01X106624Y127599D01*
G01X106469Y127548D01*
G01X106365Y127548D01*
G01X106210Y127599D01*
G01X106105Y127756D01*
G01X106052Y128016D01*
G01X106052Y128170D01*
G01X106105Y128432D01*
G01X106210Y128587D01*
G01X106365Y128638D01*
G01X106469Y128638D01*
G01X105709Y128016D02*
G01X104775Y128016D01*
G01X104119Y128638D02*
G01X104277Y128587D01*
G01X104381Y128432D01*
G01X104432Y128170D01*
G01X104432Y128016D01*
G01X104381Y127756D01*
G01X104277Y127599D01*
G01X104119Y127548D01*
G01X104015Y127548D01*
G01X103860Y127599D01*
G01X103756Y127756D01*
G01X103705Y128016D01*
G01X103705Y128170D01*
G01X103756Y128432D01*
G01X103860Y128587D01*
G01X104015Y128638D01*
G01X104119Y128638D01*
G01X103362Y128016D02*
G01X102425Y128016D01*
G01X101356Y128638D02*
G01X101876Y127548D01*
G01X102082Y128638D02*
G01X101356Y128638D01*
G54D26*
G01X103985Y125475D02*
G01X103985Y124658D01*
G01X104394Y125067D02*
G01X103576Y125067D01*
G01X108031Y107467D02*
G01X108074Y107558D01*
G01X108165Y107650D01*
G01X108257Y107696D01*
G01X108440Y107696D01*
G01X108529Y107650D01*
G01X108620Y107558D01*
G01X108666Y107467D01*
G01X108712Y107332D01*
G01X108712Y107104D01*
G01X108666Y106967D01*
G01X108620Y106878D01*
G01X108529Y106786D01*
G01X108440Y106740D01*
G01X108257Y106740D01*
G01X108165Y106786D01*
G01X108074Y106878D01*
G01X108031Y106967D01*
G01X108031Y107104D01*
G01X108257Y107104D02*
G01X108031Y107104D01*
G01X107729Y107696D02*
G01X107729Y106740D01*
G01X107729Y107696D02*
G01X107094Y106740D01*
G01X107094Y107696D02*
G01X107094Y106740D01*
G01X106794Y107696D02*
G01X106794Y106740D01*
G01X106794Y107696D02*
G01X106476Y107696D01*
G01X106339Y107650D01*
G01X106248Y107558D01*
G01X106202Y107467D01*
G01X106156Y107332D01*
G01X106156Y107104D01*
G01X106202Y106967D01*
G01X106248Y106878D01*
G01X106339Y106786D01*
G01X106476Y106740D01*
G01X106794Y106740D01*
G54D25*
G01X70104Y128524D02*
G01X70104Y127434D01*
G01X70104Y128524D02*
G01X69636Y128524D01*
G01X69481Y128473D01*
G01X69428Y128422D01*
G01X69377Y128318D01*
G01X69377Y128214D01*
G01X69428Y128109D01*
G01X69481Y128056D01*
G01X69636Y128005D01*
G01X70104Y128005D01*
G01X69740Y128005D02*
G01X69377Y127434D01*
G01X69034Y128524D02*
G01X68305Y127434D01*
G01X68305Y128524D02*
G01X69034Y127434D01*
G01X67652Y128524D02*
G01X67807Y128473D01*
G01X67911Y128318D01*
G01X67962Y128056D01*
G01X67962Y127901D01*
G01X67911Y127642D01*
G01X67807Y127485D01*
G01X67652Y127434D01*
G01X67548Y127434D01*
G01X67391Y127485D01*
G01X67287Y127642D01*
G01X67236Y127901D01*
G01X67236Y128056D01*
G01X67287Y128318D01*
G01X67391Y128473D01*
G01X67548Y128524D01*
G01X67652Y128524D01*
G01X66893Y127901D02*
G01X65958Y127901D01*
G01X64886Y128524D02*
G01X65407Y127434D01*
G01X65615Y128524D02*
G01X64886Y128524D01*
G54D26*
G01X65631Y125475D02*
G01X65631Y124658D01*
G01X66040Y125067D02*
G01X65222Y125067D01*
G01X69677Y107467D02*
G01X69720Y107558D01*
G01X69811Y107650D01*
G01X69903Y107696D01*
G01X70086Y107696D01*
G01X70175Y107650D01*
G01X70266Y107558D01*
G01X70312Y107467D01*
G01X70358Y107332D01*
G01X70358Y107104D01*
G01X70312Y106967D01*
G01X70266Y106878D01*
G01X70175Y106786D01*
G01X70086Y106740D01*
G01X69903Y106740D01*
G01X69811Y106786D01*
G01X69720Y106878D01*
G01X69677Y106967D01*
G01X69677Y107104D01*
G01X69903Y107104D02*
G01X69677Y107104D01*
G01X69375Y107696D02*
G01X69375Y106740D01*
G01X69375Y107696D02*
G01X68740Y106740D01*
G01X68740Y107696D02*
G01X68740Y106740D01*
G01X68440Y107696D02*
G01X68440Y106740D01*
G01X68440Y107696D02*
G01X68122Y107696D01*
G01X67985Y107650D01*
G01X67894Y107558D01*
G01X67848Y107467D01*
G01X67802Y107332D01*
G01X67802Y107104D01*
G01X67848Y106967D01*
G01X67894Y106878D01*
G01X67985Y106786D01*
G01X68122Y106740D01*
G01X68440Y106740D01*
G54D25*
G01X70358Y296925D02*
G01X70358Y295836D01*
G01X70358Y296925D02*
G01X69890Y296925D01*
G01X69735Y296875D01*
G01X69682Y296824D01*
G01X69631Y296720D01*
G01X69631Y296616D01*
G01X69682Y296511D01*
G01X69735Y296458D01*
G01X69890Y296407D01*
G01X70358Y296407D01*
G01X69994Y296407D02*
G01X69631Y295836D01*
G01X69288Y296925D02*
G01X68559Y295836D01*
G01X68559Y296925D02*
G01X69288Y295836D01*
G01X67957Y296925D02*
G01X68112Y296875D01*
G01X68165Y296771D01*
G01X68165Y296666D01*
G01X68112Y296562D01*
G01X68008Y296511D01*
G01X67802Y296458D01*
G01X67645Y296407D01*
G01X67541Y296303D01*
G01X67490Y296199D01*
G01X67490Y296044D01*
G01X67541Y295940D01*
G01X67594Y295887D01*
G01X67749Y295836D01*
G01X67957Y295836D01*
G01X68112Y295887D01*
G01X68165Y295940D01*
G01X68216Y296044D01*
G01X68216Y296199D01*
G01X68165Y296303D01*
G01X68061Y296407D01*
G01X67906Y296458D01*
G01X67698Y296511D01*
G01X67594Y296562D01*
G01X67541Y296666D01*
G01X67541Y296771D01*
G01X67594Y296875D01*
G01X67749Y296925D01*
G01X67957Y296925D01*
G01X67147Y296303D02*
G01X66212Y296303D01*
G01X65869Y296720D02*
G01X65765Y296771D01*
G01X65608Y296925D01*
G01X65608Y295836D01*
G01X64747Y296925D02*
G01X65265Y296199D01*
G01X64488Y296199D01*
G01X64747Y296925D02*
G01X64747Y295836D01*
G54D26*
G01X65631Y293623D02*
G01X65631Y292806D01*
G01X66040Y293215D02*
G01X65222Y293215D01*
G01X69677Y275615D02*
G01X69720Y275706D01*
G01X69811Y275798D01*
G01X69903Y275844D01*
G01X70086Y275844D01*
G01X70175Y275798D01*
G01X70266Y275706D01*
G01X70312Y275615D01*
G01X70358Y275480D01*
G01X70358Y275252D01*
G01X70312Y275115D01*
G01X70266Y275026D01*
G01X70175Y274934D01*
G01X70086Y274888D01*
G01X69903Y274888D01*
G01X69811Y274934D01*
G01X69720Y275026D01*
G01X69677Y275115D01*
G01X69677Y275252D01*
G01X69903Y275252D02*
G01X69677Y275252D01*
G01X69375Y275844D02*
G01X69375Y274888D01*
G01X69375Y275844D02*
G01X68740Y274888D01*
G01X68740Y275844D02*
G01X68740Y274888D01*
G01X68440Y275844D02*
G01X68440Y274888D01*
G01X68440Y275844D02*
G01X68122Y275844D01*
G01X67985Y275798D01*
G01X67894Y275706D01*
G01X67848Y275615D01*
G01X67802Y275480D01*
G01X67802Y275252D01*
G01X67848Y275115D01*
G01X67894Y275026D01*
G01X67985Y274934D01*
G01X68122Y274888D01*
G01X68440Y274888D01*
G54D25*
G01X109710Y296412D02*
G01X109763Y296517D01*
G01X109867Y296621D01*
G01X109969Y296671D01*
G01X110177Y296671D01*
G01X110281Y296621D01*
G01X110385Y296517D01*
G01X110439Y296412D01*
G01X110490Y296257D01*
G01X110490Y295998D01*
G01X110439Y295841D01*
G01X110385Y295737D01*
G01X110281Y295633D01*
G01X110177Y295582D01*
G01X109969Y295582D01*
G01X109867Y295633D01*
G01X109763Y295737D01*
G01X109710Y295841D01*
G01X109710Y295998D01*
G01X109969Y295998D02*
G01X109710Y295998D01*
G01X109367Y296671D02*
G01X109367Y295582D01*
G01X109367Y296671D02*
G01X108899Y296671D01*
G01X108745Y296621D01*
G01X108691Y296570D01*
G01X108640Y296466D01*
G01X108640Y296308D01*
G01X108691Y296204D01*
G01X108745Y296153D01*
G01X108899Y296100D01*
G01X109367Y296100D01*
G01X108297Y296671D02*
G01X108297Y295582D01*
G01X107642Y296671D02*
G01X107746Y296621D01*
G01X107850Y296517D01*
G01X107901Y296412D01*
G01X107955Y296257D01*
G01X107955Y295998D01*
G01X107901Y295841D01*
G01X107850Y295737D01*
G01X107746Y295633D01*
G01X107642Y295582D01*
G01X107434Y295582D01*
G01X107330Y295633D01*
G01X107226Y295737D01*
G01X107175Y295841D01*
G01X107124Y295998D01*
G01X107124Y296257D01*
G01X107175Y296412D01*
G01X107226Y296517D01*
G01X107330Y296621D01*
G01X107434Y296671D01*
G01X107642Y296671D01*
G01X106469Y296671D02*
G01X106624Y296621D01*
G01X106728Y296466D01*
G01X106781Y296204D01*
G01X106781Y296049D01*
G01X106728Y295790D01*
G01X106624Y295633D01*
G01X106469Y295582D01*
G01X106365Y295582D01*
G01X106210Y295633D01*
G01X106105Y295790D01*
G01X106052Y296049D01*
G01X106052Y296204D01*
G01X106105Y296466D01*
G01X106210Y296621D01*
G01X106365Y296671D01*
G01X106469Y296671D01*
G01X105709Y296049D02*
G01X104775Y296049D01*
G01X104173Y296671D02*
G01X104327Y296621D01*
G01X104381Y296517D01*
G01X104381Y296412D01*
G01X104327Y296308D01*
G01X104223Y296257D01*
G01X104015Y296204D01*
G01X103860Y296153D01*
G01X103756Y296049D01*
G01X103705Y295945D01*
G01X103705Y295790D01*
G01X103756Y295686D01*
G01X103809Y295633D01*
G01X103964Y295582D01*
G01X104173Y295582D01*
G01X104327Y295633D01*
G01X104381Y295686D01*
G01X104432Y295790D01*
G01X104432Y295945D01*
G01X104381Y296049D01*
G01X104277Y296153D01*
G01X104119Y296204D01*
G01X103911Y296257D01*
G01X103809Y296308D01*
G01X103756Y296412D01*
G01X103756Y296517D01*
G01X103809Y296621D01*
G01X103964Y296671D01*
G01X104173Y296671D01*
G01X103362Y296049D02*
G01X102425Y296049D01*
G01X102082Y296466D02*
G01X101981Y296517D01*
G01X101823Y296671D01*
G01X101823Y295582D01*
G01X100962Y296671D02*
G01X101480Y295945D01*
G01X100700Y295945D01*
G01X100962Y296671D02*
G01X100962Y295582D01*
G54D26*
G01X103985Y293623D02*
G01X103985Y292806D01*
G01X104394Y293215D02*
G01X103576Y293215D01*
G01X108031Y275615D02*
G01X108074Y275706D01*
G01X108165Y275798D01*
G01X108257Y275844D01*
G01X108440Y275844D01*
G01X108529Y275798D01*
G01X108620Y275706D01*
G01X108666Y275615D01*
G01X108712Y275480D01*
G01X108712Y275252D01*
G01X108666Y275115D01*
G01X108620Y275026D01*
G01X108529Y274934D01*
G01X108440Y274888D01*
G01X108257Y274888D01*
G01X108165Y274934D01*
G01X108074Y275026D01*
G01X108031Y275115D01*
G01X108031Y275252D01*
G01X108257Y275252D02*
G01X108031Y275252D01*
G01X107729Y275844D02*
G01X107729Y274888D01*
G01X107729Y275844D02*
G01X107094Y274888D01*
G01X107094Y275844D02*
G01X107094Y274888D01*
G01X106794Y275844D02*
G01X106794Y274888D01*
G01X106794Y275844D02*
G01X106476Y275844D01*
G01X106339Y275798D01*
G01X106248Y275706D01*
G01X106202Y275615D01*
G01X106156Y275480D01*
G01X106156Y275252D01*
G01X106202Y275115D01*
G01X106248Y275026D01*
G01X106339Y274934D01*
G01X106476Y274888D01*
G01X106794Y274888D01*
G54D25*
G01X87944Y142749D02*
G01X87944Y141658D01*
G01X87944Y142749D02*
G01X87269Y142749D01*
G01X87944Y142229D02*
G01X87529Y142229D01*
G01X87944Y141658D02*
G01X87269Y141658D01*
G01X86199Y142593D02*
G01X86303Y142697D01*
G01X86459Y142749D01*
G01X86666Y142749D01*
G01X86822Y142697D01*
G01X86926Y142593D01*
G01X86926Y142489D01*
G01X86874Y142385D01*
G01X86822Y142333D01*
G01X86718Y142281D01*
G01X86407Y142177D01*
G01X86303Y142125D01*
G01X86251Y142073D01*
G01X86199Y141969D01*
G01X86199Y141813D01*
G01X86303Y141710D01*
G01X86459Y141658D01*
G01X86666Y141658D01*
G01X86822Y141710D01*
G01X86926Y141813D01*
G01X85856Y142749D02*
G01X85856Y141658D01*
G01X85856Y142749D02*
G01X85388Y142749D01*
G01X85232Y142697D01*
G01X85180Y142645D01*
G01X85129Y142541D01*
G01X85129Y142385D01*
G01X85180Y142281D01*
G01X85232Y142229D01*
G01X85388Y142177D01*
G01X85856Y142177D01*
G01X84786Y142541D02*
G01X84682Y142593D01*
G01X84526Y142749D01*
G01X84526Y141658D01*
G01X54432Y143001D02*
G01X54432Y141910D01*
G01X54432Y143001D02*
G01X53756Y143001D01*
G01X54432Y142482D02*
G01X54016Y142482D01*
G01X54432Y141910D02*
G01X53756Y141910D01*
G01X52686Y142846D02*
G01X52790Y142950D01*
G01X52946Y143001D01*
G01X53154Y143001D01*
G01X53310Y142950D01*
G01X53413Y142846D01*
G01X53413Y142742D01*
G01X53361Y142638D01*
G01X53310Y142586D01*
G01X53206Y142534D01*
G01X52894Y142430D01*
G01X52790Y142378D01*
G01X52738Y142326D01*
G01X52686Y142222D01*
G01X52686Y142066D01*
G01X52790Y141962D01*
G01X52946Y141910D01*
G01X53154Y141910D01*
G01X53310Y141962D01*
G01X53413Y142066D01*
G01X52343Y143001D02*
G01X52343Y141910D01*
G01X52343Y143001D02*
G01X51876Y143001D01*
G01X51720Y142950D01*
G01X51668Y142898D01*
G01X51616Y142794D01*
G01X51616Y142638D01*
G01X51668Y142534D01*
G01X51720Y142482D01*
G01X51876Y142430D01*
G01X52343Y142430D01*
G01X51221Y142742D02*
G01X51221Y142794D01*
G01X51169Y142898D01*
G01X51117Y142950D01*
G01X51013Y143001D01*
G01X50805Y143001D01*
G01X50701Y142950D01*
G01X50649Y142898D01*
G01X50598Y142794D01*
G01X50598Y142690D01*
G01X50649Y142586D01*
G01X50753Y142430D01*
G01X51273Y141910D01*
G01X50546Y141910D01*
G54D26*
G01X53408Y161660D02*
G01X53502Y161383D01*
G01X53685Y161198D01*
G01X53962Y161107D01*
G01X54056Y161107D01*
G01X54333Y161198D01*
G01X54518Y161383D01*
G01X54610Y161660D01*
G01X54610Y161752D01*
G01X54518Y162029D01*
G01X54333Y162214D01*
G01X54056Y162305D01*
G01X53962Y162305D01*
G01X53685Y162214D01*
G01X53502Y162029D01*
G01X53408Y161660D01*
G01X53408Y161198D01*
G01X53502Y160736D01*
G01X53685Y160459D01*
G01X53962Y160367D01*
G01X54147Y160367D01*
G01X54424Y160459D01*
G01X54518Y160644D01*
G01X52245Y162305D02*
G01X52522Y162214D01*
G01X52707Y161937D01*
G01X52798Y161475D01*
G01X52798Y161198D01*
G01X52707Y160736D01*
G01X52522Y160459D01*
G01X52245Y160367D01*
G01X52059Y160367D01*
G01X51782Y160459D01*
G01X51600Y160736D01*
G01X51506Y161198D01*
G01X51506Y161475D01*
G01X51600Y161937D01*
G01X51782Y162214D01*
G01X52059Y162305D01*
G01X52245Y162305D01*
G01X50434Y161752D02*
G01X50434Y160644D01*
G01X50896Y161475D02*
G01X49974Y160921D01*
G01X49974Y161475D02*
G01X50896Y160921D01*
G54D25*
G01X117568Y261113D02*
G01X117568Y260022D01*
G01X117568Y261113D02*
G01X116893Y261113D01*
G01X117568Y260593D02*
G01X117153Y260593D01*
G01X117568Y260022D02*
G01X116893Y260022D01*
G01X115823Y260957D02*
G01X115927Y261061D01*
G01X116083Y261113D01*
G01X116290Y261113D01*
G01X116446Y261061D01*
G01X116550Y260957D01*
G01X116550Y260853D01*
G01X116498Y260749D01*
G01X116446Y260697D01*
G01X116342Y260645D01*
G01X116031Y260541D01*
G01X115927Y260489D01*
G01X115875Y260437D01*
G01X115823Y260333D01*
G01X115823Y260177D01*
G01X115927Y260074D01*
G01X116083Y260022D01*
G01X116290Y260022D01*
G01X116446Y260074D01*
G01X116550Y260177D01*
G01X115480Y261113D02*
G01X115480Y260022D01*
G01X115480Y261113D02*
G01X115012Y261113D01*
G01X114856Y261061D01*
G01X114805Y261009D01*
G01X114753Y260905D01*
G01X114753Y260749D01*
G01X114805Y260645D01*
G01X114856Y260593D01*
G01X115012Y260541D01*
G01X115480Y260541D01*
G01X113786Y260957D02*
G01X113838Y261061D01*
G01X113994Y261113D01*
G01X114098Y261113D01*
G01X114254Y261061D01*
G01X114358Y260905D01*
G01X114410Y260645D01*
G01X114410Y260385D01*
G01X114358Y260177D01*
G01X114254Y260074D01*
G01X114098Y260022D01*
G01X114046Y260022D01*
G01X113890Y260074D01*
G01X113786Y260177D01*
G01X113734Y260333D01*
G01X113734Y260385D01*
G01X113786Y260541D01*
G01X113890Y260645D01*
G01X114046Y260697D01*
G01X114098Y260697D01*
G01X114254Y260645D01*
G01X114358Y260541D01*
G01X114410Y260385D01*
G54D26*
G01X116654Y252592D02*
G01X116748Y252315D01*
G01X116931Y252130D01*
G01X117208Y252039D01*
G01X117302Y252039D01*
G01X117579Y252130D01*
G01X117764Y252315D01*
G01X117856Y252592D01*
G01X117856Y252684D01*
G01X117764Y252961D01*
G01X117579Y253146D01*
G01X117302Y253237D01*
G01X117208Y253237D01*
G01X116931Y253146D01*
G01X116748Y252961D01*
G01X116654Y252592D01*
G01X116654Y252130D01*
G01X116748Y251668D01*
G01X116931Y251391D01*
G01X117208Y251299D01*
G01X117393Y251299D01*
G01X117670Y251391D01*
G01X117764Y251576D01*
G01X115491Y253237D02*
G01X115768Y253146D01*
G01X115953Y252869D01*
G01X116044Y252407D01*
G01X116044Y252130D01*
G01X115953Y251668D01*
G01X115768Y251391D01*
G01X115491Y251299D01*
G01X115305Y251299D01*
G01X115028Y251391D01*
G01X114846Y251668D01*
G01X114752Y252130D01*
G01X114752Y252407D01*
G01X114846Y252869D01*
G01X115028Y253146D01*
G01X115305Y253237D01*
G01X115491Y253237D01*
G01X113680Y252684D02*
G01X113680Y251576D01*
G01X114142Y252407D02*
G01X113220Y251853D01*
G01X113220Y252407D02*
G01X114142Y251853D01*
G54D25*
G01X50514Y353313D02*
G01X50514Y352222D01*
G01X50514Y353313D02*
G01X49839Y353313D01*
G01X50514Y352794D02*
G01X50099Y352794D01*
G01X50514Y352222D02*
G01X49839Y352222D01*
G01X48769Y353158D02*
G01X48873Y353262D01*
G01X49028Y353313D01*
G01X49236Y353313D01*
G01X49392Y353262D01*
G01X49496Y353158D01*
G01X49496Y353054D01*
G01X49444Y352950D01*
G01X49392Y352898D01*
G01X49288Y352846D01*
G01X48976Y352742D01*
G01X48873Y352690D01*
G01X48821Y352638D01*
G01X48769Y352534D01*
G01X48769Y352378D01*
G01X48873Y352274D01*
G01X49028Y352222D01*
G01X49236Y352222D01*
G01X49392Y352274D01*
G01X49496Y352378D01*
G01X48426Y353313D02*
G01X48426Y352222D01*
G01X48426Y353313D02*
G01X47958Y353313D01*
G01X47802Y353262D01*
G01X47750Y353210D01*
G01X47698Y353106D01*
G01X47698Y352950D01*
G01X47750Y352846D01*
G01X47802Y352794D01*
G01X47958Y352742D01*
G01X48426Y352742D01*
G01X47355Y353106D02*
G01X47252Y353158D01*
G01X47096Y353313D01*
G01X47096Y352222D01*
G01X46233Y353313D02*
G01X46753Y352586D01*
G01X45973Y352586D01*
G01X46233Y353313D02*
G01X46233Y352222D01*
G54D26*
G01X42603Y360817D02*
G01X42509Y361094D01*
G01X42326Y361279D01*
G01X42049Y361370D01*
G01X41955Y361370D01*
G01X41678Y361279D01*
G01X41493Y361094D01*
G01X41402Y360817D01*
G01X41402Y360725D01*
G01X41493Y360448D01*
G01X41678Y360263D01*
G01X41955Y360172D01*
G01X42049Y360172D01*
G01X42326Y360263D01*
G01X42509Y360448D01*
G01X42603Y360817D01*
G01X42603Y361279D01*
G01X42509Y361741D01*
G01X42326Y362018D01*
G01X42049Y362110D01*
G01X41864Y362110D01*
G01X41587Y362018D01*
G01X41493Y361833D01*
G01X43766Y360172D02*
G01X43489Y360263D01*
G01X43304Y360540D01*
G01X43213Y361002D01*
G01X43213Y361279D01*
G01X43304Y361741D01*
G01X43489Y362018D01*
G01X43766Y362110D01*
G01X43952Y362110D01*
G01X44229Y362018D01*
G01X44411Y361741D01*
G01X44505Y361279D01*
G01X44505Y361002D01*
G01X44411Y360540D01*
G01X44229Y360263D01*
G01X43952Y360172D01*
G01X43766Y360172D01*
G01X45577Y360725D02*
G01X45577Y361833D01*
G01X45115Y361002D02*
G01X46037Y361556D01*
G01X46037Y361002D02*
G01X45115Y361556D01*
G54D25*
G01X113537Y359156D02*
G01X114629Y359156D01*
G01X113537Y359156D02*
G01X113537Y358480D01*
G01X114057Y359156D02*
G01X114057Y358740D01*
G01X114629Y359156D02*
G01X114629Y358480D01*
G01X113693Y357410D02*
G01X113589Y357514D01*
G01X113537Y357670D01*
G01X113537Y357877D01*
G01X113589Y358033D01*
G01X113693Y358137D01*
G01X113797Y358137D01*
G01X113901Y358085D01*
G01X113953Y358033D01*
G01X114005Y357929D01*
G01X114109Y357618D01*
G01X114161Y357514D01*
G01X114213Y357462D01*
G01X114317Y357410D01*
G01X114473Y357410D01*
G01X114577Y357514D01*
G01X114629Y357670D01*
G01X114629Y357877D01*
G01X114577Y358033D01*
G01X114473Y358137D01*
G01X113537Y357067D02*
G01X114629Y357067D01*
G01X113537Y357067D02*
G01X113537Y356599D01*
G01X113589Y356443D01*
G01X113641Y356392D01*
G01X113745Y356340D01*
G01X113901Y356340D01*
G01X114005Y356392D01*
G01X114057Y356443D01*
G01X114109Y356599D01*
G01X114109Y357067D01*
G01X113745Y355997D02*
G01X113693Y355893D01*
G01X113537Y355737D01*
G01X114629Y355737D01*
G01X113797Y355342D02*
G01X113745Y355342D01*
G01X113641Y355290D01*
G01X113589Y355238D01*
G01X113537Y355134D01*
G01X113537Y354926D01*
G01X113589Y354822D01*
G01X113641Y354771D01*
G01X113745Y354719D01*
G01X113849Y354719D01*
G01X113953Y354771D01*
G01X114109Y354874D01*
G01X114629Y355394D01*
G01X114629Y354667D01*
G54D26*
G01X121803Y361764D02*
G01X122080Y361858D01*
G01X122265Y362041D01*
G01X122356Y362318D01*
G01X122356Y362412D01*
G01X122265Y362689D01*
G01X122080Y362874D01*
G01X121803Y362966D01*
G01X121711Y362966D01*
G01X121434Y362874D01*
G01X121249Y362689D01*
G01X121158Y362412D01*
G01X121158Y362318D01*
G01X121249Y362041D01*
G01X121434Y361858D01*
G01X121803Y361764D01*
G01X122265Y361764D01*
G01X122727Y361858D01*
G01X123004Y362041D01*
G01X123096Y362318D01*
G01X123096Y362503D01*
G01X123004Y362780D01*
G01X122819Y362874D01*
G01X121158Y360601D02*
G01X121249Y360878D01*
G01X121526Y361063D01*
G01X121988Y361154D01*
G01X122265Y361154D01*
G01X122727Y361063D01*
G01X123004Y360878D01*
G01X123096Y360601D01*
G01X123096Y360415D01*
G01X123004Y360138D01*
G01X122727Y359956D01*
G01X122265Y359862D01*
G01X121988Y359862D01*
G01X121526Y359956D01*
G01X121249Y360138D01*
G01X121158Y360415D01*
G01X121158Y360601D01*
G01X121711Y358790D02*
G01X122819Y358790D01*
G01X121988Y359252D02*
G01X122542Y358330D01*
G01X121988Y358330D02*
G01X122542Y359252D01*
G54D25*
G01X68579Y359664D02*
G01X69671Y359664D01*
G01X68579Y359664D02*
G01X68579Y358988D01*
G01X69099Y359664D02*
G01X69099Y359248D01*
G01X69671Y359664D02*
G01X69671Y358988D01*
G01X68735Y357918D02*
G01X68631Y358022D01*
G01X68579Y358178D01*
G01X68579Y358385D01*
G01X68631Y358541D01*
G01X68735Y358645D01*
G01X68839Y358645D01*
G01X68943Y358593D01*
G01X68995Y358541D01*
G01X69047Y358437D01*
G01X69151Y358126D01*
G01X69203Y358022D01*
G01X69255Y357970D01*
G01X69359Y357918D01*
G01X69515Y357918D01*
G01X69619Y358022D01*
G01X69671Y358178D01*
G01X69671Y358385D01*
G01X69619Y358541D01*
G01X69515Y358645D01*
G01X68579Y357575D02*
G01X69671Y357575D01*
G01X68579Y357575D02*
G01X68579Y357107D01*
G01X68631Y356951D01*
G01X68683Y356900D01*
G01X68787Y356848D01*
G01X68943Y356848D01*
G01X69047Y356900D01*
G01X69099Y356951D01*
G01X69151Y357107D01*
G01X69151Y357575D01*
G01X68787Y356505D02*
G01X68735Y356401D01*
G01X68579Y356245D01*
G01X69671Y356245D01*
G01X68579Y355798D02*
G01X68579Y355227D01*
G01X68995Y355538D01*
G01X68995Y355382D01*
G01X69047Y355279D01*
G01X69099Y355227D01*
G01X69255Y355175D01*
G01X69359Y355175D01*
G01X69515Y355227D01*
G01X69619Y355330D01*
G01X69671Y355486D01*
G01X69671Y355642D01*
G01X69619Y355798D01*
G01X69567Y355850D01*
G01X69463Y355902D01*
G01X116954Y376682D02*
G01X116954Y375592D01*
G01X116954Y376682D02*
G01X116486Y376682D01*
G01X116332Y376631D01*
G01X116278Y376580D01*
G01X116227Y376476D01*
G01X116227Y376372D01*
G01X116278Y376267D01*
G01X116332Y376214D01*
G01X116486Y376163D01*
G01X116954Y376163D01*
G01X116591Y376163D02*
G01X116227Y375592D01*
G01X115885Y376476D02*
G01X115780Y376527D01*
G01X115623Y376682D01*
G01X115623Y375592D01*
G01X115176Y376682D02*
G01X114604Y376682D01*
G01X114917Y376267D01*
G01X114762Y376267D01*
G01X114658Y376214D01*
G01X114604Y376163D01*
G01X114554Y376008D01*
G01X114554Y375904D01*
G01X114604Y375747D01*
G01X114708Y375643D01*
G01X114866Y375592D01*
G01X115021Y375592D01*
G01X115176Y375643D01*
G01X115229Y375696D01*
G01X115280Y375800D01*
G01X68999Y375412D02*
G01X68999Y374322D01*
G01X68999Y375412D02*
G01X68531Y375412D01*
G01X68376Y375361D01*
G01X68323Y375310D01*
G01X68272Y375206D01*
G01X68272Y375102D01*
G01X68323Y374997D01*
G01X68376Y374944D01*
G01X68531Y374893D01*
G01X68999Y374893D01*
G01X68635Y374893D02*
G01X68272Y374322D01*
G01X67929Y375206D02*
G01X67825Y375257D01*
G01X67668Y375412D01*
G01X67668Y374322D01*
G01X66807Y375412D02*
G01X67325Y374685D01*
G01X66547Y374685D01*
G01X66807Y375412D02*
G01X66807Y374322D01*
G01X26924Y358648D02*
G01X28013Y358648D01*
G01X26924Y358648D02*
G01X26924Y358180D01*
G01X26974Y358025D01*
G01X27025Y357972D01*
G01X27129Y357921D01*
G01X27233Y357921D01*
G01X27338Y357972D01*
G01X27391Y358025D01*
G01X27442Y358180D01*
G01X27442Y358648D01*
G01X27442Y358284D02*
G01X28013Y357921D01*
G01X27129Y357578D02*
G01X27078Y357474D01*
G01X26924Y357317D01*
G01X28013Y357317D01*
G01X27078Y356351D02*
G01X26974Y356402D01*
G01X26924Y356560D01*
G01X26924Y356664D01*
G01X26974Y356819D01*
G01X27129Y356923D01*
G01X27391Y356974D01*
G01X27650Y356974D01*
G01X27858Y356923D01*
G01X27962Y356819D01*
G01X28013Y356664D01*
G01X28013Y356610D01*
G01X27962Y356455D01*
G01X27858Y356351D01*
G01X27701Y356298D01*
G01X27650Y356298D01*
G01X27495Y356351D01*
G01X27391Y356455D01*
G01X27338Y356610D01*
G01X27338Y356664D01*
G01X27391Y356819D01*
G01X27495Y356923D01*
G01X27650Y356974D01*
G01X112527Y368790D02*
G01X112422Y368843D01*
G01X112318Y368947D01*
G01X112268Y369049D01*
G01X112268Y369257D01*
G01X112318Y369361D01*
G01X112422Y369465D01*
G01X112527Y369519D01*
G01X112682Y369570D01*
G01X112941Y369570D01*
G01X113098Y369519D01*
G01X113202Y369465D01*
G01X113306Y369361D01*
G01X113357Y369257D01*
G01X113357Y369049D01*
G01X113306Y368947D01*
G01X113202Y368843D01*
G01X113098Y368790D01*
G01X112527Y368396D02*
G01X112473Y368396D01*
G01X112369Y368343D01*
G01X112318Y368292D01*
G01X112268Y368188D01*
G01X112268Y367979D01*
G01X112318Y367875D01*
G01X112369Y367825D01*
G01X112473Y367771D01*
G01X112577Y367771D01*
G01X112682Y367825D01*
G01X112839Y367929D01*
G01X113357Y368447D01*
G01X113357Y367720D01*
G01X112268Y366753D02*
G01X112268Y367273D01*
G01X112735Y367324D01*
G01X112682Y367273D01*
G01X112631Y367118D01*
G01X112631Y366961D01*
G01X112682Y366806D01*
G01X112786Y366702D01*
G01X112941Y366649D01*
G01X113045Y366649D01*
G01X113202Y366702D01*
G01X113306Y366806D01*
G01X113357Y366961D01*
G01X113357Y367118D01*
G01X113306Y367273D01*
G01X113253Y367324D01*
G01X113149Y367377D01*
G01X99827Y369298D02*
G01X99722Y369351D01*
G01X99618Y369455D01*
G01X99568Y369557D01*
G01X99568Y369765D01*
G01X99618Y369869D01*
G01X99722Y369973D01*
G01X99827Y370027D01*
G01X99982Y370078D01*
G01X100241Y370078D01*
G01X100398Y370027D01*
G01X100502Y369973D01*
G01X100606Y369869D01*
G01X100657Y369765D01*
G01X100657Y369557D01*
G01X100606Y369455D01*
G01X100502Y369351D01*
G01X100398Y369298D01*
G01X99827Y368904D02*
G01X99773Y368904D01*
G01X99669Y368851D01*
G01X99618Y368800D01*
G01X99568Y368696D01*
G01X99568Y368487D01*
G01X99618Y368383D01*
G01X99669Y368333D01*
G01X99773Y368279D01*
G01X99877Y368279D01*
G01X99982Y368333D01*
G01X100139Y368437D01*
G01X100657Y368955D01*
G01X100657Y368228D01*
G01X99722Y367261D02*
G01X99618Y367314D01*
G01X99568Y367469D01*
G01X99568Y367573D01*
G01X99618Y367728D01*
G01X99773Y367832D01*
G01X100035Y367885D01*
G01X100294Y367885D01*
G01X100502Y367832D01*
G01X100606Y367728D01*
G01X100657Y367573D01*
G01X100657Y367522D01*
G01X100606Y367365D01*
G01X100502Y367261D01*
G01X100345Y367210D01*
G01X100294Y367210D01*
G01X100139Y367261D01*
G01X100035Y367365D01*
G01X99982Y367522D01*
G01X99982Y367573D01*
G01X100035Y367728D01*
G01X100139Y367832D01*
G01X100294Y367885D01*
G54D26*
G01X101854Y370009D02*
G01X103515Y370009D01*
G01X102684Y370840D02*
G01X102684Y369176D01*
G54D25*
G01X64244Y357233D02*
G01X64297Y357337D01*
G01X64401Y357441D01*
G01X64503Y357492D01*
G01X64711Y357492D01*
G01X64815Y357441D01*
G01X64919Y357337D01*
G01X64973Y357233D01*
G01X65024Y357078D01*
G01X65024Y356819D01*
G01X64973Y356661D01*
G01X64919Y356557D01*
G01X64815Y356453D01*
G01X64711Y356402D01*
G01X64503Y356402D01*
G01X64401Y356453D01*
G01X64297Y356557D01*
G01X64244Y356661D01*
G01X63850Y357233D02*
G01X63850Y357286D01*
G01X63797Y357390D01*
G01X63746Y357441D01*
G01X63642Y357492D01*
G01X63433Y357492D01*
G01X63329Y357441D01*
G01X63279Y357390D01*
G01X63225Y357286D01*
G01X63225Y357182D01*
G01X63279Y357078D01*
G01X63383Y356920D01*
G01X63901Y356402D01*
G01X63174Y356402D01*
G01X62103Y357492D02*
G01X62623Y356402D01*
G01X62831Y357492D02*
G01X62103Y357492D01*
G01X60965Y363710D02*
G01X60860Y363763D01*
G01X60756Y363867D01*
G01X60706Y363969D01*
G01X60706Y364177D01*
G01X60756Y364281D01*
G01X60860Y364385D01*
G01X60965Y364439D01*
G01X61120Y364490D01*
G01X61379Y364490D01*
G01X61536Y364439D01*
G01X61640Y364385D01*
G01X61744Y364281D01*
G01X61795Y364177D01*
G01X61795Y363969D01*
G01X61744Y363867D01*
G01X61640Y363763D01*
G01X61536Y363710D01*
G01X60965Y363316D02*
G01X60911Y363316D01*
G01X60807Y363263D01*
G01X60756Y363212D01*
G01X60706Y363108D01*
G01X60706Y362899D01*
G01X60756Y362795D01*
G01X60807Y362745D01*
G01X60911Y362691D01*
G01X61015Y362691D01*
G01X61120Y362745D01*
G01X61277Y362849D01*
G01X61795Y363367D01*
G01X61795Y362640D01*
G01X60706Y362038D02*
G01X60756Y362193D01*
G01X60860Y362244D01*
G01X60965Y362244D01*
G01X61069Y362193D01*
G01X61120Y362089D01*
G01X61173Y361881D01*
G01X61224Y361726D01*
G01X61328Y361622D01*
G01X61432Y361569D01*
G01X61587Y361569D01*
G01X61691Y361622D01*
G01X61744Y361673D01*
G01X61795Y361830D01*
G01X61795Y362038D01*
G01X61744Y362193D01*
G01X61691Y362244D01*
G01X61587Y362297D01*
G01X61432Y362297D01*
G01X61328Y362244D01*
G01X61224Y362140D01*
G01X61173Y361985D01*
G01X61120Y361777D01*
G01X61069Y361673D01*
G01X60965Y361622D01*
G01X60860Y361622D01*
G01X60756Y361673D01*
G01X60706Y361830D01*
G01X60706Y362038D01*
G54D26*
G01X62992Y366453D02*
G01X64653Y366453D01*
G01X63822Y367284D02*
G01X63822Y365620D01*
G54D25*
G01X55173Y365500D02*
G01X55227Y365605D01*
G01X55331Y365709D01*
G01X55432Y365760D01*
G01X55641Y365760D01*
G01X55745Y365709D01*
G01X55849Y365605D01*
G01X55902Y365500D01*
G01X55953Y365345D01*
G01X55953Y365086D01*
G01X55902Y364929D01*
G01X55849Y364825D01*
G01X55745Y364721D01*
G01X55641Y364670D01*
G01X55432Y364670D01*
G01X55331Y364721D01*
G01X55227Y364825D01*
G01X55173Y364929D01*
G01X54780Y365500D02*
G01X54780Y365554D01*
G01X54726Y365658D01*
G01X54676Y365709D01*
G01X54571Y365760D01*
G01X54363Y365760D01*
G01X54259Y365709D01*
G01X54208Y365658D01*
G01X54155Y365554D01*
G01X54155Y365450D01*
G01X54208Y365345D01*
G01X54312Y365188D01*
G01X54830Y364670D01*
G01X54104Y364670D01*
G01X53086Y365396D02*
G01X53136Y365241D01*
G01X53240Y365137D01*
G01X53398Y365086D01*
G01X53449Y365086D01*
G01X53604Y365137D01*
G01X53708Y365241D01*
G01X53761Y365396D01*
G01X53761Y365450D01*
G01X53708Y365605D01*
G01X53604Y365709D01*
G01X53449Y365760D01*
G01X53398Y365760D01*
G01X53240Y365709D01*
G01X53136Y365605D01*
G01X53086Y365396D01*
G01X53086Y365137D01*
G01X53136Y364878D01*
G01X53240Y364721D01*
G01X53398Y364670D01*
G01X53502Y364670D01*
G01X53657Y364721D01*
G01X53708Y364825D01*
G01X59441Y356344D02*
G01X59336Y356397D01*
G01X59232Y356501D01*
G01X59182Y356603D01*
G01X59182Y356811D01*
G01X59232Y356915D01*
G01X59336Y357019D01*
G01X59441Y357073D01*
G01X59596Y357124D01*
G01X59855Y357124D01*
G01X60012Y357073D01*
G01X60116Y357019D01*
G01X60220Y356915D01*
G01X60271Y356811D01*
G01X60271Y356603D01*
G01X60220Y356501D01*
G01X60116Y356397D01*
G01X60012Y356344D01*
G01X59182Y355897D02*
G01X59182Y355325D01*
G01X59596Y355638D01*
G01X59596Y355483D01*
G01X59649Y355379D01*
G01X59700Y355325D01*
G01X59855Y355274D01*
G01X59959Y355274D01*
G01X60116Y355325D01*
G01X60220Y355429D01*
G01X60271Y355587D01*
G01X60271Y355742D01*
G01X60220Y355897D01*
G01X60167Y355950D01*
G01X60063Y356001D01*
G01X59182Y354619D02*
G01X59232Y354774D01*
G01X59387Y354878D01*
G01X59649Y354931D01*
G01X59804Y354931D01*
G01X60063Y354878D01*
G01X60220Y354774D01*
G01X60271Y354619D01*
G01X60271Y354515D01*
G01X60220Y354360D01*
G01X60063Y354256D01*
G01X59804Y354203D01*
G01X59649Y354203D01*
G01X59387Y354256D01*
G01X59232Y354360D01*
G01X59182Y354515D01*
G01X59182Y354619D01*
G54D26*
G01X51816Y359087D02*
G01X53477Y359087D01*
G01X52646Y359918D02*
G01X52646Y358254D01*
G54D25*
G01X31242Y358648D02*
G01X32331Y358648D01*
G01X31242Y358648D02*
G01X31242Y358180D01*
G01X31292Y358025D01*
G01X31343Y357972D01*
G01X31447Y357921D01*
G01X31551Y357921D01*
G01X31656Y357972D01*
G01X31709Y358025D01*
G01X31760Y358180D01*
G01X31760Y358648D01*
G01X31760Y358284D02*
G01X32331Y357921D01*
G01X31242Y357057D02*
G01X31968Y357578D01*
G01X31968Y356798D01*
G01X31242Y357057D02*
G01X32331Y357057D01*
G01X31242Y356351D02*
G01X31242Y355780D01*
G01X31656Y356092D01*
G01X31656Y355935D01*
G01X31709Y355831D01*
G01X31760Y355780D01*
G01X31915Y355727D01*
G01X32019Y355727D01*
G01X32176Y355780D01*
G01X32280Y355884D01*
G01X32331Y356039D01*
G01X32331Y356196D01*
G01X32280Y356351D01*
G01X32227Y356402D01*
G01X32123Y356455D01*
G01X82804Y359918D02*
G01X83893Y359918D01*
G01X82804Y359918D02*
G01X82804Y359450D01*
G01X82854Y359295D01*
G01X82905Y359242D01*
G01X83009Y359191D01*
G01X83113Y359191D01*
G01X83218Y359242D01*
G01X83271Y359295D01*
G01X83322Y359450D01*
G01X83322Y359918D01*
G01X83322Y359554D02*
G01X83893Y359191D01*
G01X82804Y358327D02*
G01X83530Y358848D01*
G01X83530Y358068D01*
G01X82804Y358327D02*
G01X83893Y358327D01*
G01X82804Y357205D02*
G01X83530Y357725D01*
G01X83530Y356946D01*
G01X82804Y357205D02*
G01X83893Y357205D01*
G01X117221Y371602D02*
G01X117221Y370512D01*
G01X117221Y371602D02*
G01X116753Y371602D01*
G01X116598Y371551D01*
G01X116545Y371500D01*
G01X116494Y371396D01*
G01X116494Y371292D01*
G01X116545Y371187D01*
G01X116598Y371134D01*
G01X116753Y371083D01*
G01X117221Y371083D01*
G01X116857Y371083D02*
G01X116494Y370512D01*
G01X115630Y371602D02*
G01X116151Y370875D01*
G01X115371Y370875D01*
G01X115630Y371602D02*
G01X115630Y370512D01*
G01X114404Y371602D02*
G01X114924Y371602D01*
G01X114975Y371134D01*
G01X114924Y371187D01*
G01X114769Y371238D01*
G01X114612Y371238D01*
G01X114457Y371187D01*
G01X114353Y371083D01*
G01X114300Y370928D01*
G01X114300Y370824D01*
G01X114353Y370667D01*
G01X114457Y370563D01*
G01X114612Y370512D01*
G01X114769Y370512D01*
G01X114924Y370563D01*
G01X114975Y370616D01*
G01X115028Y370720D01*
G01X115783Y349643D02*
G01X116873Y349643D01*
G01X115783Y349643D02*
G01X115783Y349176D01*
G01X115834Y349021D01*
G01X115884Y348968D01*
G01X115989Y348917D01*
G01X116093Y348917D01*
G01X116197Y348968D01*
G01X116250Y349021D01*
G01X116301Y349176D01*
G01X116301Y349643D01*
G01X116301Y349280D02*
G01X116873Y348917D01*
G01X116042Y348521D02*
G01X115989Y348521D01*
G01X115884Y348470D01*
G01X115834Y348416D01*
G01X115783Y348312D01*
G01X115783Y348107D01*
G01X115834Y348002D01*
G01X115884Y347949D01*
G01X115989Y347898D01*
G01X116093Y347898D01*
G01X116197Y347949D01*
G01X116354Y348053D01*
G01X116873Y348574D01*
G01X116873Y347845D01*
G01X115783Y347243D02*
G01X115834Y347398D01*
G01X115938Y347451D01*
G01X116042Y347451D01*
G01X116146Y347398D01*
G01X116197Y347294D01*
G01X116250Y347088D01*
G01X116301Y346930D01*
G01X116405Y346826D01*
G01X116509Y346776D01*
G01X116664Y346776D01*
G01X116768Y346826D01*
G01X116822Y346880D01*
G01X116873Y347035D01*
G01X116873Y347243D01*
G01X116822Y347398D01*
G01X116768Y347451D01*
G01X116664Y347502D01*
G01X116509Y347502D01*
G01X116405Y347451D01*
G01X116301Y347347D01*
G01X116250Y347192D01*
G01X116197Y346984D01*
G01X116146Y346880D01*
G01X116042Y346826D01*
G01X115938Y346826D01*
G01X115834Y346880D01*
G01X115783Y347035D01*
G01X115783Y347243D01*
G01X86868Y359664D02*
G01X87957Y359664D01*
G01X86868Y359664D02*
G01X86868Y359196D01*
G01X86918Y359041D01*
G01X86969Y358988D01*
G01X87073Y358937D01*
G01X87177Y358937D01*
G01X87282Y358988D01*
G01X87335Y359041D01*
G01X87386Y359196D01*
G01X87386Y359664D01*
G01X87386Y359300D02*
G01X87957Y358937D01*
G01X87127Y358541D02*
G01X87073Y358541D01*
G01X86969Y358490D01*
G01X86918Y358437D01*
G01X86868Y358333D01*
G01X86868Y358127D01*
G01X86918Y358023D01*
G01X86969Y357969D01*
G01X87073Y357919D01*
G01X87177Y357919D01*
G01X87282Y357969D01*
G01X87439Y358073D01*
G01X87957Y358594D01*
G01X87957Y357865D01*
G01X87231Y356847D02*
G01X87386Y356900D01*
G01X87490Y357004D01*
G01X87541Y357159D01*
G01X87541Y357212D01*
G01X87490Y357367D01*
G01X87386Y357471D01*
G01X87231Y357522D01*
G01X87177Y357522D01*
G01X87022Y357471D01*
G01X86918Y357367D01*
G01X86868Y357212D01*
G01X86868Y357159D01*
G01X86918Y357004D01*
G01X87022Y356900D01*
G01X87231Y356847D01*
G01X87490Y356847D01*
G01X87749Y356900D01*
G01X87906Y357004D01*
G01X87957Y357159D01*
G01X87957Y357263D01*
G01X87906Y357418D01*
G01X87802Y357471D01*
G01X45285Y346710D02*
G01X45285Y345620D01*
G01X45285Y346710D02*
G01X44818Y346710D01*
G01X44663Y346659D01*
G01X44610Y346608D01*
G01X44559Y346504D01*
G01X44559Y346400D01*
G01X44610Y346295D01*
G01X44663Y346242D01*
G01X44818Y346191D01*
G01X45285Y346191D01*
G01X44922Y346191D02*
G01X44559Y345620D01*
G01X44112Y346710D02*
G01X43540Y346710D01*
G01X43850Y346295D01*
G01X43695Y346295D01*
G01X43591Y346242D01*
G01X43540Y346191D01*
G01X43487Y346036D01*
G01X43487Y345932D01*
G01X43540Y345775D01*
G01X43644Y345671D01*
G01X43799Y345620D01*
G01X43954Y345620D01*
G01X44112Y345671D01*
G01X44162Y345724D01*
G01X44216Y345828D01*
G01X42834Y346710D02*
G01X42989Y346659D01*
G01X43093Y346504D01*
G01X43144Y346242D01*
G01X43144Y346087D01*
G01X43093Y345828D01*
G01X42989Y345671D01*
G01X42834Y345620D01*
G01X42730Y345620D01*
G01X42572Y345671D01*
G01X42468Y345828D01*
G01X42418Y346087D01*
G01X42418Y346242D01*
G01X42468Y346504D01*
G01X42572Y346659D01*
G01X42730Y346710D01*
G01X42834Y346710D01*
G01X111920Y265061D02*
G01X113009Y265061D01*
G01X111920Y265061D02*
G01X111920Y264594D01*
G01X111970Y264439D01*
G01X112021Y264386D01*
G01X112125Y264335D01*
G01X112229Y264335D01*
G01X112334Y264386D01*
G01X112387Y264439D01*
G01X112438Y264594D01*
G01X112438Y265061D01*
G01X112438Y264698D02*
G01X113009Y264335D01*
G01X111920Y263263D02*
G01X113009Y263784D01*
G01X111920Y263992D02*
G01X111920Y263263D01*
G01X74930Y241808D02*
G01X76019Y241808D01*
G01X74930Y241808D02*
G01X74930Y241340D01*
G01X74980Y241185D01*
G01X75031Y241132D01*
G01X75135Y241081D01*
G01X75239Y241081D01*
G01X75344Y241132D01*
G01X75397Y241185D01*
G01X75448Y241340D01*
G01X75448Y241808D01*
G01X75448Y241444D02*
G01X76019Y241081D01*
G01X74930Y240477D02*
G01X74980Y240634D01*
G01X75084Y240685D01*
G01X75189Y240685D01*
G01X75293Y240634D01*
G01X75344Y240530D01*
G01X75397Y240322D01*
G01X75448Y240167D01*
G01X75552Y240063D01*
G01X75656Y240009D01*
G01X75811Y240009D01*
G01X75915Y240063D01*
G01X75968Y240113D01*
G01X76019Y240271D01*
G01X76019Y240477D01*
G01X75968Y240634D01*
G01X75915Y240685D01*
G01X75811Y240738D01*
G01X75656Y240738D01*
G01X75552Y240685D01*
G01X75448Y240581D01*
G01X75397Y240426D01*
G01X75344Y240217D01*
G01X75293Y240113D01*
G01X75189Y240063D01*
G01X75084Y240063D01*
G01X74980Y240113D01*
G01X74930Y240271D01*
G01X74930Y240477D01*
G01X18140Y251345D02*
G01X19230Y251345D01*
G01X18140Y251345D02*
G01X18140Y250878D01*
G01X18191Y250723D01*
G01X18242Y250670D01*
G01X18346Y250619D01*
G01X18450Y250619D01*
G01X18554Y250670D01*
G01X18608Y250723D01*
G01X18658Y250878D01*
G01X18658Y251345D01*
G01X18658Y250982D02*
G01X19230Y250619D01*
G01X18503Y249600D02*
G01X18658Y249651D01*
G01X18763Y249755D01*
G01X18813Y249910D01*
G01X18813Y249963D01*
G01X18763Y250118D01*
G01X18658Y250223D01*
G01X18503Y250276D01*
G01X18450Y250276D01*
G01X18295Y250223D01*
G01X18191Y250118D01*
G01X18140Y249963D01*
G01X18140Y249910D01*
G01X18191Y249755D01*
G01X18295Y249651D01*
G01X18503Y249600D01*
G01X18763Y249600D01*
G01X19022Y249651D01*
G01X19179Y249755D01*
G01X19230Y249910D01*
G01X19230Y250014D01*
G01X19179Y250172D01*
G01X19075Y250223D01*
G01X104541Y259582D02*
G01X104594Y259687D01*
G01X104698Y259791D01*
G01X104800Y259842D01*
G01X105008Y259842D01*
G01X105112Y259791D01*
G01X105216Y259687D01*
G01X105270Y259582D01*
G01X105321Y259427D01*
G01X105321Y259168D01*
G01X105270Y259011D01*
G01X105216Y258907D01*
G01X105112Y258803D01*
G01X105008Y258752D01*
G01X104800Y258752D01*
G01X104698Y258803D01*
G01X104594Y258907D01*
G01X104541Y259011D01*
G01X104198Y259636D02*
G01X104094Y259687D01*
G01X103939Y259842D01*
G01X103939Y258752D01*
G01X103492Y259842D02*
G01X102920Y259842D01*
G01X103233Y259427D01*
G01X103075Y259427D01*
G01X102971Y259374D01*
G01X102920Y259323D01*
G01X102869Y259168D01*
G01X102869Y259064D01*
G01X102920Y258907D01*
G01X103024Y258803D01*
G01X103179Y258752D01*
G01X103337Y258752D01*
G01X103492Y258803D01*
G01X103543Y258856D01*
G01X103596Y258960D01*
G01X99573Y254998D02*
G01X99468Y255051D01*
G01X99364Y255155D01*
G01X99314Y255257D01*
G01X99314Y255465D01*
G01X99364Y255569D01*
G01X99468Y255673D01*
G01X99573Y255727D01*
G01X99728Y255778D01*
G01X99987Y255778D01*
G01X100144Y255727D01*
G01X100248Y255673D01*
G01X100352Y255569D01*
G01X100403Y255465D01*
G01X100403Y255257D01*
G01X100352Y255155D01*
G01X100248Y255051D01*
G01X100144Y254998D01*
G01X99519Y254655D02*
G01X99468Y254551D01*
G01X99314Y254396D01*
G01X100403Y254396D01*
G01X99314Y253532D02*
G01X100040Y254053D01*
G01X100040Y253273D01*
G01X99314Y253532D02*
G01X100403Y253532D01*
G54D26*
G01X101600Y255709D02*
G01X103261Y255709D01*
G01X102430Y256540D02*
G01X102430Y254876D01*
G54D25*
G01X102113Y243822D02*
G01X102008Y243875D01*
G01X101904Y243979D01*
G01X101854Y244081D01*
G01X101854Y244289D01*
G01X101904Y244393D01*
G01X102008Y244497D01*
G01X102113Y244551D01*
G01X102268Y244602D01*
G01X102527Y244602D01*
G01X102684Y244551D01*
G01X102788Y244497D01*
G01X102892Y244393D01*
G01X102943Y244289D01*
G01X102943Y244081D01*
G01X102892Y243979D01*
G01X102788Y243875D01*
G01X102684Y243822D01*
G01X102059Y243479D02*
G01X102008Y243375D01*
G01X101854Y243220D01*
G01X102943Y243220D01*
G01X101854Y242252D02*
G01X101854Y242773D01*
G01X102321Y242824D01*
G01X102268Y242773D01*
G01X102217Y242618D01*
G01X102217Y242460D01*
G01X102268Y242305D01*
G01X102372Y242201D01*
G01X102527Y242150D01*
G01X102631Y242150D01*
G01X102788Y242201D01*
G01X102892Y242305D01*
G01X102943Y242460D01*
G01X102943Y242618D01*
G01X102892Y242773D01*
G01X102839Y242824D01*
G01X102735Y242877D01*
G01X90429Y249410D02*
G01X90324Y249463D01*
G01X90220Y249567D01*
G01X90170Y249669D01*
G01X90170Y249877D01*
G01X90220Y249981D01*
G01X90324Y250085D01*
G01X90429Y250139D01*
G01X90584Y250190D01*
G01X90843Y250190D01*
G01X91000Y250139D01*
G01X91104Y250085D01*
G01X91208Y249981D01*
G01X91259Y249877D01*
G01X91259Y249669D01*
G01X91208Y249567D01*
G01X91104Y249463D01*
G01X91000Y249410D01*
G01X90375Y249067D02*
G01X90324Y248963D01*
G01X90170Y248808D01*
G01X91259Y248808D01*
G01X90324Y247840D02*
G01X90220Y247893D01*
G01X90170Y248048D01*
G01X90170Y248152D01*
G01X90220Y248310D01*
G01X90375Y248412D01*
G01X90637Y248465D01*
G01X90896Y248465D01*
G01X91104Y248412D01*
G01X91208Y248310D01*
G01X91259Y248152D01*
G01X91259Y248102D01*
G01X91208Y247944D01*
G01X91104Y247840D01*
G01X90947Y247789D01*
G01X90896Y247789D01*
G01X90741Y247840D01*
G01X90637Y247944D01*
G01X90584Y248102D01*
G01X90584Y248152D01*
G01X90637Y248310D01*
G01X90741Y248412D01*
G01X90896Y248465D01*
G54D26*
G01X91948Y247581D02*
G01X93609Y247581D01*
G01X92778Y248412D02*
G01X92778Y246748D01*
G54D25*
G01X29215Y229598D02*
G01X29110Y229651D01*
G01X29006Y229755D01*
G01X28956Y229857D01*
G01X28956Y230065D01*
G01X29006Y230169D01*
G01X29110Y230273D01*
G01X29215Y230327D01*
G01X29370Y230378D01*
G01X29629Y230378D01*
G01X29786Y230327D01*
G01X29890Y230273D01*
G01X29994Y230169D01*
G01X30045Y230065D01*
G01X30045Y229857D01*
G01X29994Y229755D01*
G01X29890Y229651D01*
G01X29786Y229598D01*
G01X29161Y229255D02*
G01X29110Y229151D01*
G01X28956Y228996D01*
G01X30045Y228996D01*
G01X28956Y227926D02*
G01X30045Y228445D01*
G01X28956Y228653D02*
G01X28956Y227926D01*
G01X22230Y224680D02*
G01X22176Y224576D01*
G01X22072Y224472D01*
G01X21971Y224421D01*
G01X21762Y224421D01*
G01X21658Y224472D01*
G01X21554Y224576D01*
G01X21501Y224680D01*
G01X21450Y224835D01*
G01X21450Y225094D01*
G01X21501Y225252D01*
G01X21554Y225356D01*
G01X21658Y225460D01*
G01X21762Y225511D01*
G01X21971Y225511D01*
G01X22072Y225460D01*
G01X22176Y225356D01*
G01X22230Y225252D01*
G01X22573Y224627D02*
G01X22677Y224576D01*
G01X22832Y224421D01*
G01X22832Y225511D01*
G01X23434Y224421D02*
G01X23279Y224472D01*
G01X23228Y224576D01*
G01X23228Y224680D01*
G01X23279Y224784D01*
G01X23383Y224835D01*
G01X23591Y224889D01*
G01X23746Y224939D01*
G01X23850Y225043D01*
G01X23901Y225148D01*
G01X23901Y225303D01*
G01X23850Y225407D01*
G01X23799Y225460D01*
G01X23642Y225511D01*
G01X23434Y225511D01*
G01X23279Y225460D01*
G01X23228Y225407D01*
G01X23175Y225303D01*
G01X23175Y225148D01*
G01X23228Y225043D01*
G01X23329Y224939D01*
G01X23487Y224889D01*
G01X23695Y224835D01*
G01X23799Y224784D01*
G01X23850Y224680D01*
G01X23850Y224576D01*
G01X23799Y224472D01*
G01X23642Y224421D01*
G01X23434Y224421D01*
G54D26*
G01X23807Y232664D02*
G01X23807Y231002D01*
G01X24638Y231833D02*
G01X22974Y231833D01*
G54D25*
G01X111973Y272427D02*
G01X113063Y272427D01*
G01X111973Y272427D02*
G01X111973Y271960D01*
G01X112024Y271805D01*
G01X112074Y271752D01*
G01X112179Y271701D01*
G01X112283Y271701D01*
G01X112387Y271752D01*
G01X112440Y271805D01*
G01X112491Y271960D01*
G01X112491Y272427D01*
G01X112491Y272064D02*
G01X113063Y271701D01*
G01X111973Y271254D02*
G01X111973Y270682D01*
G01X112387Y270992D01*
G01X112387Y270837D01*
G01X112440Y270733D01*
G01X112491Y270682D01*
G01X112646Y270629D01*
G01X112750Y270629D01*
G01X112908Y270682D01*
G01X113012Y270786D01*
G01X113063Y270941D01*
G01X113063Y271096D01*
G01X113012Y271254D01*
G01X112958Y271305D01*
G01X112854Y271358D01*
G01X111973Y269560D02*
G01X113063Y270078D01*
G01X111973Y270286D02*
G01X111973Y269560D01*
G01X66040Y241808D02*
G01X67129Y241808D01*
G01X66040Y241808D02*
G01X66040Y241340D01*
G01X66090Y241185D01*
G01X66141Y241132D01*
G01X66245Y241081D01*
G01X66349Y241081D01*
G01X66454Y241132D01*
G01X66507Y241185D01*
G01X66558Y241340D01*
G01X66558Y241808D01*
G01X66558Y241444D02*
G01X67129Y241081D01*
G01X66040Y240634D02*
G01X66040Y240063D01*
G01X66454Y240372D01*
G01X66454Y240217D01*
G01X66507Y240113D01*
G01X66558Y240063D01*
G01X66713Y240009D01*
G01X66817Y240009D01*
G01X66974Y240063D01*
G01X67078Y240167D01*
G01X67129Y240322D01*
G01X67129Y240477D01*
G01X67078Y240634D01*
G01X67025Y240685D01*
G01X66921Y240738D01*
G01X66040Y239407D02*
G01X66090Y239562D01*
G01X66194Y239615D01*
G01X66299Y239615D01*
G01X66403Y239562D01*
G01X66454Y239458D01*
G01X66507Y239252D01*
G01X66558Y239095D01*
G01X66662Y238991D01*
G01X66766Y238940D01*
G01X66921Y238940D01*
G01X67025Y238991D01*
G01X67078Y239044D01*
G01X67129Y239199D01*
G01X67129Y239407D01*
G01X67078Y239562D01*
G01X67025Y239615D01*
G01X66921Y239666D01*
G01X66766Y239666D01*
G01X66662Y239615D01*
G01X66558Y239511D01*
G01X66507Y239356D01*
G01X66454Y239148D01*
G01X66403Y239044D01*
G01X66299Y238991D01*
G01X66194Y238991D01*
G01X66090Y239044D01*
G01X66040Y239199D01*
G01X66040Y239407D01*
G01X18196Y254647D02*
G01X19286Y254647D01*
G01X18196Y254647D02*
G01X18196Y254180D01*
G01X18247Y254025D01*
G01X18298Y253972D01*
G01X18402Y253921D01*
G01X18506Y253921D01*
G01X18610Y253972D01*
G01X18663Y254025D01*
G01X18714Y254180D01*
G01X18714Y254647D01*
G01X18714Y254284D02*
G01X19286Y253921D01*
G01X18196Y253474D02*
G01X18196Y252902D01*
G01X18610Y253212D01*
G01X18610Y253057D01*
G01X18663Y252953D01*
G01X18714Y252902D01*
G01X18869Y252849D01*
G01X18973Y252849D01*
G01X19131Y252902D01*
G01X19235Y253006D01*
G01X19286Y253161D01*
G01X19286Y253316D01*
G01X19235Y253474D01*
G01X19182Y253525D01*
G01X19077Y253578D01*
G01X18559Y251830D02*
G01X18714Y251884D01*
G01X18818Y251988D01*
G01X18869Y252143D01*
G01X18869Y252196D01*
G01X18818Y252351D01*
G01X18714Y252455D01*
G01X18559Y252506D01*
G01X18506Y252506D01*
G01X18351Y252455D01*
G01X18247Y252351D01*
G01X18196Y252196D01*
G01X18196Y252143D01*
G01X18247Y251988D01*
G01X18351Y251884D01*
G01X18559Y251830D01*
G01X18818Y251830D01*
G01X19077Y251884D01*
G01X19235Y251988D01*
G01X19286Y252143D01*
G01X19286Y252247D01*
G01X19235Y252402D01*
G01X19131Y252455D01*
G01X111973Y269125D02*
G01X113063Y269125D01*
G01X111973Y269125D02*
G01X111973Y268658D01*
G01X112024Y268503D01*
G01X112074Y268450D01*
G01X112179Y268399D01*
G01X112283Y268399D01*
G01X112387Y268450D01*
G01X112440Y268503D01*
G01X112491Y268658D01*
G01X112491Y269125D01*
G01X112491Y268762D02*
G01X113063Y268399D01*
G01X112232Y268003D02*
G01X112179Y268003D01*
G01X112074Y267952D01*
G01X112024Y267898D01*
G01X111973Y267794D01*
G01X111973Y267589D01*
G01X112024Y267484D01*
G01X112074Y267431D01*
G01X112179Y267380D01*
G01X112283Y267380D01*
G01X112387Y267431D01*
G01X112544Y267535D01*
G01X113063Y268056D01*
G01X113063Y267327D01*
G01X112232Y266933D02*
G01X112179Y266933D01*
G01X112074Y266880D01*
G01X112024Y266829D01*
G01X111973Y266725D01*
G01X111973Y266517D01*
G01X112024Y266412D01*
G01X112074Y266362D01*
G01X112179Y266308D01*
G01X112283Y266308D01*
G01X112387Y266362D01*
G01X112544Y266466D01*
G01X113063Y266984D01*
G01X113063Y266258D01*
G01X70612Y241808D02*
G01X71701Y241808D01*
G01X70612Y241808D02*
G01X70612Y241340D01*
G01X70662Y241185D01*
G01X70713Y241132D01*
G01X70817Y241081D01*
G01X70921Y241081D01*
G01X71026Y241132D01*
G01X71079Y241185D01*
G01X71130Y241340D01*
G01X71130Y241808D01*
G01X71130Y241444D02*
G01X71701Y241081D01*
G01X70871Y240685D02*
G01X70817Y240685D01*
G01X70713Y240634D01*
G01X70662Y240581D01*
G01X70612Y240477D01*
G01X70612Y240271D01*
G01X70662Y240167D01*
G01X70713Y240113D01*
G01X70817Y240063D01*
G01X70921Y240063D01*
G01X71026Y240113D01*
G01X71183Y240217D01*
G01X71701Y240738D01*
G01X71701Y240009D01*
G01X70612Y239562D02*
G01X70612Y238991D01*
G01X71026Y239303D01*
G01X71026Y239148D01*
G01X71079Y239044D01*
G01X71130Y238991D01*
G01X71285Y238940D01*
G01X71389Y238940D01*
G01X71546Y238991D01*
G01X71650Y239095D01*
G01X71701Y239252D01*
G01X71701Y239407D01*
G01X71650Y239562D01*
G01X71597Y239615D01*
G01X71493Y239666D01*
G01X13347Y231648D02*
G01X14437Y231648D01*
G01X13347Y231648D02*
G01X13347Y231180D01*
G01X13398Y231025D01*
G01X13449Y230972D01*
G01X13553Y230921D01*
G01X13657Y230921D01*
G01X13761Y230972D01*
G01X13815Y231025D01*
G01X13865Y231180D01*
G01X13865Y231648D01*
G01X13865Y231284D02*
G01X14437Y230921D01*
G01X13606Y230525D02*
G01X13553Y230525D01*
G01X13449Y230474D01*
G01X13398Y230421D01*
G01X13347Y230317D01*
G01X13347Y230111D01*
G01X13398Y230007D01*
G01X13449Y229953D01*
G01X13553Y229903D01*
G01X13657Y229903D01*
G01X13761Y229953D01*
G01X13919Y230057D01*
G01X14437Y230578D01*
G01X14437Y229849D01*
G01X13347Y228988D02*
G01X14074Y229506D01*
G01X14074Y228727D01*
G01X13347Y228988D02*
G01X14437Y228988D01*
G01X115008Y159905D02*
G01X116098Y159905D01*
G01X115008Y159905D02*
G01X115008Y159438D01*
G01X115059Y159283D01*
G01X115110Y159230D01*
G01X115214Y159179D01*
G01X115318Y159179D01*
G01X115422Y159230D01*
G01X115476Y159283D01*
G01X115526Y159438D01*
G01X115526Y159905D01*
G01X115526Y159542D02*
G01X116098Y159179D01*
G01X115214Y158836D02*
G01X115163Y158732D01*
G01X115008Y158574D01*
G01X116098Y158574D01*
G01X89174Y163576D02*
G01X89174Y162486D01*
G01X89174Y163576D02*
G01X88706Y163576D01*
G01X88552Y163525D01*
G01X88498Y163474D01*
G01X88447Y163370D01*
G01X88447Y163266D01*
G01X88498Y163161D01*
G01X88552Y163108D01*
G01X88706Y163057D01*
G01X89174Y163057D01*
G01X88811Y163057D02*
G01X88447Y162486D01*
G01X88051Y163316D02*
G01X88051Y163370D01*
G01X88000Y163474D01*
G01X87947Y163525D01*
G01X87843Y163576D01*
G01X87637Y163576D01*
G01X87533Y163525D01*
G01X87480Y163474D01*
G01X87429Y163370D01*
G01X87429Y163266D01*
G01X87480Y163161D01*
G01X87584Y163004D01*
G01X88105Y162486D01*
G01X87376Y162486D01*
G01X68326Y168516D02*
G01X68326Y167426D01*
G01X68326Y168516D02*
G01X67858Y168516D01*
G01X67703Y168465D01*
G01X67650Y168414D01*
G01X67599Y168310D01*
G01X67599Y168206D01*
G01X67650Y168102D01*
G01X67703Y168048D01*
G01X67858Y167998D01*
G01X68326Y167998D01*
G01X67962Y167998D02*
G01X67599Y167426D01*
G01X67152Y168516D02*
G01X66581Y168516D01*
G01X66890Y168102D01*
G01X66735Y168102D01*
G01X66631Y168048D01*
G01X66581Y167998D01*
G01X66527Y167843D01*
G01X66527Y167739D01*
G01X66581Y167581D01*
G01X66685Y167477D01*
G01X66840Y167426D01*
G01X66995Y167426D01*
G01X67152Y167477D01*
G01X67203Y167530D01*
G01X67256Y167634D01*
G01X71213Y140202D02*
G01X71267Y140307D01*
G01X71371Y140411D01*
G01X71473Y140462D01*
G01X71681Y140462D01*
G01X71785Y140411D01*
G01X71889Y140307D01*
G01X71942Y140202D01*
G01X71993Y140047D01*
G01X71993Y139788D01*
G01X71942Y139631D01*
G01X71889Y139527D01*
G01X71785Y139423D01*
G01X71681Y139372D01*
G01X71473Y139372D01*
G01X71371Y139423D01*
G01X71267Y139527D01*
G01X71213Y139631D01*
G01X70871Y140256D02*
G01X70766Y140307D01*
G01X70611Y140462D01*
G01X70611Y139372D01*
G01X71681Y152648D02*
G01X71734Y152753D01*
G01X71838Y152857D01*
G01X71940Y152908D01*
G01X72148Y152908D01*
G01X72252Y152857D01*
G01X72356Y152753D01*
G01X72410Y152648D01*
G01X72461Y152493D01*
G01X72461Y152234D01*
G01X72410Y152077D01*
G01X72356Y151973D01*
G01X72252Y151869D01*
G01X72148Y151818D01*
G01X71940Y151818D01*
G01X71838Y151869D01*
G01X71734Y151973D01*
G01X71681Y152077D01*
G01X71287Y152648D02*
G01X71287Y152702D01*
G01X71234Y152806D01*
G01X71183Y152857D01*
G01X71079Y152908D01*
G01X70871Y152908D01*
G01X70766Y152857D01*
G01X70716Y152806D01*
G01X70662Y152702D01*
G01X70662Y152598D01*
G01X70716Y152493D01*
G01X70820Y152336D01*
G01X71338Y151818D01*
G01X70611Y151818D01*
G54D26*
G01X73337Y150368D02*
G01X73337Y148706D01*
G01X74168Y149537D02*
G01X72504Y149537D01*
G54D25*
G01X64013Y175242D02*
G01X63908Y175295D01*
G01X63804Y175399D01*
G01X63754Y175501D01*
G01X63754Y175709D01*
G01X63804Y175813D01*
G01X63908Y175917D01*
G01X64013Y175971D01*
G01X64168Y176022D01*
G01X64427Y176022D01*
G01X64584Y175971D01*
G01X64688Y175917D01*
G01X64792Y175813D01*
G01X64843Y175709D01*
G01X64843Y175501D01*
G01X64792Y175399D01*
G01X64688Y175295D01*
G01X64584Y175242D01*
G01X63754Y174795D02*
G01X63754Y174223D01*
G01X64168Y174536D01*
G01X64168Y174381D01*
G01X64221Y174277D01*
G01X64272Y174223D01*
G01X64427Y174172D01*
G01X64531Y174172D01*
G01X64688Y174223D01*
G01X64792Y174327D01*
G01X64843Y174485D01*
G01X64843Y174640D01*
G01X64792Y174795D01*
G01X64739Y174848D01*
G01X64635Y174899D01*
G01X51313Y174734D02*
G01X51208Y174787D01*
G01X51104Y174891D01*
G01X51054Y174993D01*
G01X51054Y175201D01*
G01X51104Y175305D01*
G01X51208Y175409D01*
G01X51313Y175463D01*
G01X51468Y175514D01*
G01X51727Y175514D01*
G01X51884Y175463D01*
G01X51988Y175409D01*
G01X52092Y175305D01*
G01X52143Y175201D01*
G01X52143Y174993D01*
G01X52092Y174891D01*
G01X51988Y174787D01*
G01X51884Y174734D01*
G01X51054Y173873D02*
G01X51780Y174391D01*
G01X51780Y173611D01*
G01X51054Y173873D02*
G01X52143Y173873D01*
G54D26*
G01X53340Y175191D02*
G01X55001Y175191D01*
G01X54170Y176022D02*
G01X54170Y174358D01*
G54D25*
G01X115062Y163461D02*
G01X116151Y163461D01*
G01X115062Y163461D02*
G01X115062Y162994D01*
G01X115112Y162839D01*
G01X115163Y162786D01*
G01X115267Y162735D01*
G01X115371Y162735D01*
G01X115476Y162786D01*
G01X115529Y162839D01*
G01X115580Y162994D01*
G01X115580Y163461D01*
G01X115580Y163098D02*
G01X116151Y162735D01*
G01X115062Y162288D02*
G01X115062Y161716D01*
G01X115476Y162026D01*
G01X115476Y161871D01*
G01X115529Y161767D01*
G01X115580Y161716D01*
G01X115735Y161663D01*
G01X115839Y161663D01*
G01X115996Y161716D01*
G01X116100Y161820D01*
G01X116151Y161975D01*
G01X116151Y162130D01*
G01X116100Y162288D01*
G01X116047Y162339D01*
G01X115943Y162392D01*
G01X115267Y161320D02*
G01X115216Y161216D01*
G01X115062Y161061D01*
G01X116151Y161061D01*
G01X79248Y152768D02*
G01X79248Y151678D01*
G01X79248Y152768D02*
G01X78780Y152768D01*
G01X78625Y152717D01*
G01X78572Y152666D01*
G01X78521Y152562D01*
G01X78521Y152458D01*
G01X78572Y152354D01*
G01X78625Y152300D01*
G01X78780Y152250D01*
G01X79248Y152250D01*
G01X78884Y152250D02*
G01X78521Y151678D01*
G01X78074Y152768D02*
G01X77503Y152768D01*
G01X77812Y152354D01*
G01X77657Y152354D01*
G01X77553Y152300D01*
G01X77503Y152250D01*
G01X77449Y152095D01*
G01X77449Y151991D01*
G01X77503Y151833D01*
G01X77607Y151729D01*
G01X77762Y151678D01*
G01X77917Y151678D01*
G01X78074Y151729D01*
G01X78125Y151782D01*
G01X78178Y151886D01*
G01X77055Y152509D02*
G01X77055Y152562D01*
G01X77002Y152666D01*
G01X76951Y152717D01*
G01X76847Y152768D01*
G01X76639Y152768D01*
G01X76535Y152717D01*
G01X76484Y152666D01*
G01X76431Y152562D01*
G01X76431Y152458D01*
G01X76484Y152354D01*
G01X76588Y152196D01*
G01X77106Y151678D01*
G01X76380Y151678D01*
G01X52397Y181864D02*
G01X52397Y180774D01*
G01X52397Y181864D02*
G01X51930Y181864D01*
G01X51775Y181813D01*
G01X51722Y181762D01*
G01X51671Y181658D01*
G01X51671Y181554D01*
G01X51722Y181449D01*
G01X51775Y181396D01*
G01X51930Y181345D01*
G01X52397Y181345D01*
G01X52034Y181345D02*
G01X51671Y180774D01*
G01X51224Y181864D02*
G01X50652Y181864D01*
G01X50962Y181449D01*
G01X50807Y181449D01*
G01X50703Y181396D01*
G01X50652Y181345D01*
G01X50599Y181190D01*
G01X50599Y181086D01*
G01X50652Y180929D01*
G01X50756Y180825D01*
G01X50911Y180774D01*
G01X51066Y180774D01*
G01X51224Y180825D01*
G01X51274Y180878D01*
G01X51328Y180982D01*
G01X50152Y181864D02*
G01X49580Y181864D01*
G01X49893Y181449D01*
G01X49738Y181449D01*
G01X49634Y181396D01*
G01X49580Y181345D01*
G01X49530Y181190D01*
G01X49530Y181086D01*
G01X49580Y180929D01*
G01X49684Y180825D01*
G01X49842Y180774D01*
G01X49997Y180774D01*
G01X50152Y180825D01*
G01X50205Y180878D01*
G01X50256Y180982D01*
G01X115062Y133972D02*
G01X115062Y132882D01*
G01X115062Y133972D02*
G01X114594Y133972D01*
G01X114439Y133921D01*
G01X114386Y133870D01*
G01X114335Y133766D01*
G01X114335Y133662D01*
G01X114386Y133558D01*
G01X114439Y133504D01*
G01X114594Y133454D01*
G01X115062Y133454D01*
G01X114698Y133454D02*
G01X114335Y132882D01*
G01X113992Y133766D02*
G01X113888Y133817D01*
G01X113731Y133972D01*
G01X113731Y132882D01*
G01X112765Y133972D02*
G01X113284Y133972D01*
G01X113337Y133504D01*
G01X113284Y133558D01*
G01X113129Y133609D01*
G01X112974Y133609D01*
G01X112816Y133558D01*
G01X112712Y133454D01*
G01X112661Y133299D01*
G01X112661Y133195D01*
G01X112712Y133037D01*
G01X112816Y132933D01*
G01X112974Y132882D01*
G01X113129Y132882D01*
G01X113284Y132933D01*
G01X113337Y132986D01*
G01X113388Y133090D01*
G01X79756Y160642D02*
G01X79756Y159552D01*
G01X79756Y160642D02*
G01X79288Y160642D01*
G01X79133Y160591D01*
G01X79080Y160540D01*
G01X79029Y160436D01*
G01X79029Y160332D01*
G01X79080Y160228D01*
G01X79133Y160174D01*
G01X79288Y160124D01*
G01X79756Y160124D01*
G01X79392Y160124D02*
G01X79029Y159552D01*
G01X78686Y160436D02*
G01X78582Y160487D01*
G01X78425Y160642D01*
G01X78425Y159552D01*
G01X77355Y160642D02*
G01X77876Y159552D01*
G01X78082Y160642D02*
G01X77355Y160642D01*
G01X63754Y156464D02*
G01X64843Y156464D01*
G01X63754Y156464D02*
G01X63754Y155996D01*
G01X63804Y155841D01*
G01X63855Y155788D01*
G01X63959Y155737D01*
G01X64063Y155737D01*
G01X64168Y155788D01*
G01X64221Y155841D01*
G01X64272Y155996D01*
G01X64272Y156464D01*
G01X64272Y156100D02*
G01X64843Y155737D01*
G01X63959Y155394D02*
G01X63908Y155290D01*
G01X63754Y155133D01*
G01X64843Y155133D01*
G01X63754Y154531D02*
G01X63804Y154686D01*
G01X63908Y154739D01*
G01X64013Y154739D01*
G01X64117Y154686D01*
G01X64168Y154584D01*
G01X64221Y154376D01*
G01X64272Y154218D01*
G01X64376Y154114D01*
G01X64480Y154063D01*
G01X64635Y154063D01*
G01X64739Y154114D01*
G01X64792Y154167D01*
G01X64843Y154322D01*
G01X64843Y154531D01*
G01X64792Y154686D01*
G01X64739Y154739D01*
G01X64635Y154790D01*
G01X64480Y154790D01*
G01X64376Y154739D01*
G01X64272Y154635D01*
G01X64221Y154480D01*
G01X64168Y154271D01*
G01X64117Y154167D01*
G01X64013Y154114D01*
G01X63908Y154114D01*
G01X63804Y154167D01*
G01X63754Y154322D01*
G01X63754Y154531D01*
G01X116773Y141726D02*
G01X116827Y141831D01*
G01X116931Y141935D01*
G01X117033Y141986D01*
G01X117241Y141986D01*
G01X117345Y141935D01*
G01X117449Y141831D01*
G01X117502Y141726D01*
G01X117553Y141571D01*
G01X117553Y141312D01*
G01X117502Y141155D01*
G01X117449Y141051D01*
G01X117345Y140947D01*
G01X117241Y140896D01*
G01X117033Y140896D01*
G01X116931Y140947D01*
G01X116827Y141051D01*
G01X116773Y141155D01*
G01X116431Y141780D02*
G01X116326Y141831D01*
G01X116172Y141986D01*
G01X116172Y140896D01*
G01X115829Y141780D02*
G01X115724Y141831D01*
G01X115570Y141986D01*
G01X115570Y140896D01*
G01X111094Y137777D02*
G01X111147Y137881D01*
G01X111252Y137985D01*
G01X111353Y138036D01*
G01X111561Y138036D01*
G01X111666Y137985D01*
G01X111770Y137881D01*
G01X111823Y137777D01*
G01X111874Y137622D01*
G01X111874Y137363D01*
G01X111823Y137205D01*
G01X111770Y137101D01*
G01X111666Y136997D01*
G01X111561Y136946D01*
G01X111353Y136946D01*
G01X111252Y136997D01*
G01X111147Y137101D01*
G01X111094Y137205D01*
G01X110751Y137830D02*
G01X110647Y137881D01*
G01X110492Y138036D01*
G01X110492Y136946D01*
G01X110096Y137777D02*
G01X110096Y137830D01*
G01X110045Y137934D01*
G01X109994Y137985D01*
G01X109890Y138036D01*
G01X109682Y138036D01*
G01X109578Y137985D01*
G01X109524Y137934D01*
G01X109474Y137830D01*
G01X109474Y137726D01*
G01X109524Y137622D01*
G01X109628Y137464D01*
G01X110149Y136946D01*
G01X109423Y136946D01*
G54D26*
G01X107442Y144203D02*
G01X109103Y144203D01*
G01X108272Y145034D02*
G01X108272Y143370D01*
G54D25*
G01X113283Y152654D02*
G01X114375Y152654D01*
G01X113283Y152654D02*
G01X113283Y151978D01*
G01X113803Y152654D02*
G01X113803Y152238D01*
G01X114375Y152654D02*
G01X114375Y151978D01*
G01X113439Y150908D02*
G01X113335Y151012D01*
G01X113283Y151168D01*
G01X113283Y151375D01*
G01X113335Y151531D01*
G01X113439Y151635D01*
G01X113543Y151635D01*
G01X113647Y151583D01*
G01X113699Y151531D01*
G01X113751Y151427D01*
G01X113855Y151116D01*
G01X113907Y151012D01*
G01X113959Y150960D01*
G01X114063Y150908D01*
G01X114219Y150908D01*
G01X114323Y151012D01*
G01X114375Y151168D01*
G01X114375Y151375D01*
G01X114323Y151531D01*
G01X114219Y151635D01*
G01X113283Y150565D02*
G01X114375Y150565D01*
G01X113283Y150565D02*
G01X113283Y150097D01*
G01X113335Y149941D01*
G01X113387Y149890D01*
G01X113491Y149838D01*
G01X113647Y149838D01*
G01X113751Y149890D01*
G01X113803Y149941D01*
G01X113855Y150097D01*
G01X113855Y150565D01*
G01X113283Y149183D02*
G01X113335Y149339D01*
G01X113491Y149443D01*
G01X113751Y149495D01*
G01X113907Y149495D01*
G01X114167Y149443D01*
G01X114323Y149339D01*
G01X114375Y149183D01*
G01X114375Y149079D01*
G01X114323Y148923D01*
G01X114167Y148819D01*
G01X113907Y148767D01*
G01X113751Y148767D01*
G01X113491Y148819D01*
G01X113335Y148923D01*
G01X113283Y149079D01*
G01X113283Y149183D01*
G54D26*
G01X121803Y150944D02*
G01X122080Y151038D01*
G01X122265Y151221D01*
G01X122356Y151498D01*
G01X122356Y151592D01*
G01X122265Y151869D01*
G01X122080Y152054D01*
G01X121803Y152146D01*
G01X121711Y152146D01*
G01X121434Y152054D01*
G01X121249Y151869D01*
G01X121158Y151592D01*
G01X121158Y151498D01*
G01X121249Y151221D01*
G01X121434Y151038D01*
G01X121803Y150944D01*
G01X122265Y150944D01*
G01X122727Y151038D01*
G01X123004Y151221D01*
G01X123096Y151498D01*
G01X123096Y151683D01*
G01X123004Y151960D01*
G01X122819Y152054D01*
G01X121158Y149781D02*
G01X121249Y150058D01*
G01X121526Y150243D01*
G01X121988Y150334D01*
G01X122265Y150334D01*
G01X122727Y150243D01*
G01X123004Y150058D01*
G01X123096Y149781D01*
G01X123096Y149595D01*
G01X123004Y149318D01*
G01X122727Y149136D01*
G01X122265Y149042D01*
G01X121988Y149042D01*
G01X121526Y149136D01*
G01X121249Y149318D01*
G01X121158Y149595D01*
G01X121158Y149781D01*
G01X121711Y147970D02*
G01X122819Y147970D01*
G01X121988Y148432D02*
G01X122542Y147510D01*
G01X121988Y147510D02*
G01X122542Y148432D01*
G54D25*
G01X90753Y239445D02*
G01X89662Y239445D01*
G01X90753Y239445D02*
G01X90753Y240121D01*
G01X90233Y239445D02*
G01X90233Y239861D01*
G01X89662Y239445D02*
G01X89662Y240121D01*
G01X90597Y241191D02*
G01X90701Y241087D01*
G01X90753Y240931D01*
G01X90753Y240723D01*
G01X90701Y240568D01*
G01X90597Y240464D01*
G01X90493Y240464D01*
G01X90389Y240516D01*
G01X90337Y240568D01*
G01X90285Y240671D01*
G01X90181Y240983D01*
G01X90129Y241087D01*
G01X90077Y241139D01*
G01X89973Y241191D01*
G01X89817Y241191D01*
G01X89713Y241087D01*
G01X89662Y240931D01*
G01X89662Y240723D01*
G01X89713Y240568D01*
G01X89817Y240464D01*
G01X90753Y241534D02*
G01X89662Y241534D01*
G01X90753Y241534D02*
G01X90753Y242001D01*
G01X90701Y242157D01*
G01X90649Y242209D01*
G01X90545Y242261D01*
G01X90389Y242261D01*
G01X90285Y242209D01*
G01X90233Y242157D01*
G01X90181Y242001D01*
G01X90181Y241534D01*
G01X90753Y243332D02*
G01X89662Y242812D01*
G01X90753Y242604D02*
G01X90753Y243332D01*
G01X35675Y250813D02*
G01X35675Y249722D01*
G01X35675Y250813D02*
G01X35000Y250813D01*
G01X35675Y250293D02*
G01X35259Y250293D01*
G01X35675Y249722D02*
G01X35000Y249722D01*
G01X33929Y250657D02*
G01X34033Y250761D01*
G01X34189Y250813D01*
G01X34397Y250813D01*
G01X34553Y250761D01*
G01X34657Y250657D01*
G01X34657Y250553D01*
G01X34605Y250449D01*
G01X34553Y250397D01*
G01X34449Y250345D01*
G01X34137Y250241D01*
G01X34033Y250190D01*
G01X33981Y250138D01*
G01X33929Y250034D01*
G01X33929Y249878D01*
G01X34033Y249774D01*
G01X34189Y249722D01*
G01X34397Y249722D01*
G01X34553Y249774D01*
G01X34657Y249878D01*
G01X33586Y250813D02*
G01X33586Y249722D01*
G01X33586Y250813D02*
G01X33119Y250813D01*
G01X32963Y250761D01*
G01X32911Y250709D01*
G01X32859Y250605D01*
G01X32859Y250449D01*
G01X32911Y250345D01*
G01X32963Y250293D01*
G01X33119Y250241D01*
G01X33586Y250241D01*
G01X32256Y250813D02*
G01X32412Y250761D01*
G01X32464Y250657D01*
G01X32464Y250553D01*
G01X32412Y250449D01*
G01X32308Y250397D01*
G01X32100Y250345D01*
G01X31945Y250293D01*
G01X31841Y250190D01*
G01X31789Y250086D01*
G01X31789Y249930D01*
G01X31841Y249826D01*
G01X31893Y249774D01*
G01X32048Y249722D01*
G01X32256Y249722D01*
G01X32412Y249774D01*
G01X32464Y249826D01*
G01X32516Y249930D01*
G01X32516Y250086D01*
G01X32464Y250190D01*
G01X32360Y250293D01*
G01X32204Y250345D01*
G01X31997Y250397D01*
G01X31893Y250449D01*
G01X31841Y250553D01*
G01X31841Y250657D01*
G01X31893Y250761D01*
G01X32048Y250813D01*
G01X32256Y250813D01*
G54D26*
G01X25791Y241876D02*
G01X26068Y241970D01*
G01X26253Y242153D01*
G01X26344Y242430D01*
G01X26344Y242524D01*
G01X26253Y242801D01*
G01X26068Y242986D01*
G01X25791Y243078D01*
G01X25699Y243078D01*
G01X25422Y242986D01*
G01X25237Y242801D01*
G01X25146Y242524D01*
G01X25146Y242430D01*
G01X25237Y242153D01*
G01X25422Y241970D01*
G01X25791Y241876D01*
G01X26253Y241876D01*
G01X26715Y241970D01*
G01X26992Y242153D01*
G01X27084Y242430D01*
G01X27084Y242615D01*
G01X26992Y242892D01*
G01X26807Y242986D01*
G01X25146Y240713D02*
G01X25237Y240990D01*
G01X25514Y241175D01*
G01X25976Y241266D01*
G01X26253Y241266D01*
G01X26715Y241175D01*
G01X26992Y240990D01*
G01X27084Y240713D01*
G01X27084Y240527D01*
G01X26992Y240250D01*
G01X26715Y240068D01*
G01X26253Y239974D01*
G01X25976Y239974D01*
G01X25514Y240068D01*
G01X25237Y240250D01*
G01X25146Y240527D01*
G01X25146Y240713D01*
G01X25699Y238902D02*
G01X26807Y238902D01*
G01X25976Y239364D02*
G01X26530Y238442D01*
G01X25976Y238442D02*
G01X26530Y239364D01*
G54D25*
G01X100365Y166075D02*
G01X100469Y166179D01*
G01X100624Y166230D01*
G01X100832Y166230D01*
G01X100987Y166179D01*
G01X101092Y166075D01*
G01X101092Y165971D01*
G01X101041Y165867D01*
G01X100987Y165816D01*
G01X100883Y165762D01*
G01X100571Y165658D01*
G01X100469Y165608D01*
G01X100416Y165557D01*
G01X100365Y165453D01*
G01X100365Y165295D01*
G01X100469Y165191D01*
G01X100624Y165140D01*
G01X100832Y165140D01*
G01X100987Y165191D01*
G01X101092Y165295D01*
G01X99710Y166230D02*
G01X99865Y166179D01*
G01X99969Y166024D01*
G01X100022Y165762D01*
G01X100022Y165608D01*
G01X99969Y165348D01*
G01X99865Y165191D01*
G01X99710Y165140D01*
G01X99606Y165140D01*
G01X99451Y165191D01*
G01X99347Y165348D01*
G01X99293Y165608D01*
G01X99293Y165762D01*
G01X99347Y166024D01*
G01X99451Y166179D01*
G01X99606Y166230D01*
G01X99710Y166230D01*
G01X70139Y163027D02*
G01X70243Y163131D01*
G01X70398Y163182D01*
G01X70606Y163182D01*
G01X70761Y163131D01*
G01X70866Y163027D01*
G01X70866Y162923D01*
G01X70815Y162819D01*
G01X70761Y162768D01*
G01X70657Y162714D01*
G01X70345Y162610D01*
G01X70243Y162560D01*
G01X70190Y162509D01*
G01X70139Y162405D01*
G01X70139Y162247D01*
G01X70243Y162143D01*
G01X70398Y162092D01*
G01X70606Y162092D01*
G01X70761Y162143D01*
G01X70866Y162247D01*
G01X69796Y162976D02*
G01X69692Y163027D01*
G01X69535Y163182D01*
G01X69535Y162092D01*
G01X59237Y133957D02*
G01X59342Y134061D01*
G01X59496Y134112D01*
G01X59705Y134112D01*
G01X59860Y134061D01*
G01X59964Y133957D01*
G01X59964Y133852D01*
G01X59913Y133748D01*
G01X59860Y133697D01*
G01X59756Y133644D01*
G01X59443Y133540D01*
G01X59342Y133489D01*
G01X59288Y133438D01*
G01X59237Y133334D01*
G01X59237Y133177D01*
G01X59342Y133073D01*
G01X59496Y133022D01*
G01X59705Y133022D01*
G01X59860Y133073D01*
G01X59964Y133177D01*
G01X58841Y133852D02*
G01X58841Y133906D01*
G01X58790Y134010D01*
G01X58737Y134061D01*
G01X58633Y134112D01*
G01X58427Y134112D01*
G01X58323Y134061D01*
G01X58270Y134010D01*
G01X58219Y133906D01*
G01X58219Y133802D01*
G01X58270Y133697D01*
G01X58374Y133540D01*
G01X58895Y133022D01*
G01X58166Y133022D01*
G01X99707Y348742D02*
G01X100797Y348742D01*
G01X99707Y348742D02*
G01X99707Y348274D01*
G01X99758Y348119D01*
G01X99809Y348066D01*
G01X99913Y348015D01*
G01X100017Y348015D01*
G01X100121Y348066D01*
G01X100175Y348119D01*
G01X100225Y348274D01*
G01X100225Y348742D01*
G01X100225Y348378D02*
G01X100797Y348015D01*
G01X99707Y347047D02*
G01X99707Y347568D01*
G01X100175Y347619D01*
G01X100121Y347568D01*
G01X100070Y347411D01*
G01X100070Y347256D01*
G01X100121Y347101D01*
G01X100225Y346997D01*
G01X100380Y346943D01*
G01X100484Y346943D01*
G01X100642Y346997D01*
G01X100746Y347101D01*
G01X100797Y347256D01*
G01X100797Y347411D01*
G01X100746Y347568D01*
G01X100693Y347619D01*
G01X100589Y347672D01*
G01X99707Y346341D02*
G01X99758Y346496D01*
G01X99862Y346549D01*
G01X99966Y346549D01*
G01X100070Y346496D01*
G01X100121Y346392D01*
G01X100175Y346186D01*
G01X100225Y346029D01*
G01X100330Y345925D01*
G01X100434Y345874D01*
G01X100589Y345874D01*
G01X100693Y345925D01*
G01X100746Y345978D01*
G01X100797Y346133D01*
G01X100797Y346341D01*
G01X100746Y346496D01*
G01X100693Y346549D01*
G01X100589Y346600D01*
G01X100434Y346600D01*
G01X100330Y346549D01*
G01X100225Y346445D01*
G01X100175Y346290D01*
G01X100121Y346082D01*
G01X100070Y345978D01*
G01X99966Y345925D01*
G01X99862Y345925D01*
G01X99758Y345978D01*
G01X99707Y346133D01*
G01X99707Y346341D01*
G01X72898Y351396D02*
G01X72898Y350306D01*
G01X72898Y351396D02*
G01X72430Y351396D01*
G01X72275Y351345D01*
G01X72222Y351294D01*
G01X72171Y351190D01*
G01X72171Y351086D01*
G01X72222Y350982D01*
G01X72275Y350928D01*
G01X72430Y350878D01*
G01X72898Y350878D01*
G01X72534Y350878D02*
G01X72171Y350306D01*
G01X71203Y351396D02*
G01X71724Y351396D01*
G01X71775Y350928D01*
G01X71724Y350982D01*
G01X71567Y351033D01*
G01X71412Y351033D01*
G01X71257Y350982D01*
G01X71153Y350878D01*
G01X71099Y350723D01*
G01X71099Y350619D01*
G01X71153Y350461D01*
G01X71257Y350357D01*
G01X71412Y350306D01*
G01X71567Y350306D01*
G01X71724Y350357D01*
G01X71775Y350410D01*
G01X71828Y350514D01*
G01X70081Y351033D02*
G01X70134Y350878D01*
G01X70238Y350774D01*
G01X70393Y350723D01*
G01X70446Y350723D01*
G01X70601Y350774D01*
G01X70705Y350878D01*
G01X70756Y351033D01*
G01X70756Y351086D01*
G01X70705Y351241D01*
G01X70601Y351345D01*
G01X70446Y351396D01*
G01X70393Y351396D01*
G01X70238Y351345D01*
G01X70134Y351241D01*
G01X70081Y351033D01*
G01X70081Y350774D01*
G01X70134Y350514D01*
G01X70238Y350357D01*
G01X70393Y350306D01*
G01X70497Y350306D01*
G01X70652Y350357D01*
G01X70705Y350461D01*
G01X42694Y345440D02*
G01X42694Y344350D01*
G01X42694Y345440D02*
G01X42227Y345440D01*
G01X42072Y345389D01*
G01X42019Y345338D01*
G01X41968Y345234D01*
G01X41968Y345130D01*
G01X42019Y345026D01*
G01X42072Y344972D01*
G01X42227Y344921D01*
G01X42694Y344921D01*
G01X42331Y344921D02*
G01X41968Y344350D01*
G01X41000Y345285D02*
G01X41053Y345389D01*
G01X41208Y345440D01*
G01X41313Y345440D01*
G01X41468Y345389D01*
G01X41572Y345234D01*
G01X41625Y344972D01*
G01X41625Y344713D01*
G01X41572Y344505D01*
G01X41468Y344401D01*
G01X41313Y344350D01*
G01X41259Y344350D01*
G01X41104Y344401D01*
G01X41000Y344505D01*
G01X40949Y344662D01*
G01X40949Y344713D01*
G01X41000Y344868D01*
G01X41104Y344972D01*
G01X41259Y345026D01*
G01X41313Y345026D01*
G01X41468Y344972D01*
G01X41572Y344868D01*
G01X41625Y344713D01*
G01X40294Y345440D02*
G01X40449Y345389D01*
G01X40553Y345234D01*
G01X40606Y344972D01*
G01X40606Y344817D01*
G01X40553Y344558D01*
G01X40449Y344401D01*
G01X40294Y344350D01*
G01X40190Y344350D01*
G01X40035Y344401D01*
G01X39931Y344558D01*
G01X39877Y344817D01*
G01X39877Y344972D01*
G01X39931Y345234D01*
G01X40035Y345389D01*
G01X40190Y345440D01*
G01X40294Y345440D01*
G01X111325Y342392D02*
G01X111325Y341302D01*
G01X111325Y342392D02*
G01X110858Y342392D01*
G01X110703Y342341D01*
G01X110650Y342290D01*
G01X110599Y342186D01*
G01X110599Y342082D01*
G01X110650Y341977D01*
G01X110703Y341924D01*
G01X110858Y341873D01*
G01X111325Y341873D01*
G01X110962Y341873D02*
G01X110599Y341302D01*
G01X109527Y342392D02*
G01X110048Y341302D01*
G01X110256Y342392D02*
G01X109527Y342392D01*
G01X109080Y342392D02*
G01X108508Y342392D01*
G01X108821Y341977D01*
G01X108666Y341977D01*
G01X108562Y341924D01*
G01X108508Y341873D01*
G01X108458Y341718D01*
G01X108458Y341614D01*
G01X108508Y341457D01*
G01X108612Y341353D01*
G01X108770Y341302D01*
G01X108925Y341302D01*
G01X109080Y341353D01*
G01X109133Y341406D01*
G01X109184Y341510D01*
G01X80149Y372364D02*
G01X81239Y372364D01*
G01X80149Y372364D02*
G01X80149Y371896D01*
G01X80200Y371741D01*
G01X80251Y371688D01*
G01X80355Y371637D01*
G01X80459Y371637D01*
G01X80563Y371688D01*
G01X80617Y371741D01*
G01X80667Y371896D01*
G01X80667Y372364D01*
G01X80667Y372000D02*
G01X81239Y371637D01*
G01X80149Y370565D02*
G01X81239Y371086D01*
G01X80149Y371294D02*
G01X80149Y370565D01*
G01X80149Y369704D02*
G01X80876Y370222D01*
G01X80876Y369443D01*
G01X80149Y369704D02*
G01X81239Y369704D01*
G01X58674Y346570D02*
G01X58674Y345480D01*
G01X58674Y346570D02*
G01X58206Y346570D01*
G01X58051Y346519D01*
G01X57998Y346468D01*
G01X57947Y346364D01*
G01X57947Y346260D01*
G01X57998Y346156D01*
G01X58051Y346102D01*
G01X58206Y346052D01*
G01X58674Y346052D01*
G01X58310Y346052D02*
G01X57947Y345480D01*
G01X56875Y346570D02*
G01X57396Y345480D01*
G01X57604Y346570D02*
G01X56875Y346570D01*
G01X55910Y346570D02*
G01X56428Y346570D01*
G01X56481Y346102D01*
G01X56428Y346156D01*
G01X56273Y346207D01*
G01X56118Y346207D01*
G01X55961Y346156D01*
G01X55857Y346052D01*
G01X55806Y345897D01*
G01X55806Y345793D01*
G01X55857Y345635D01*
G01X55961Y345531D01*
G01X56118Y345480D01*
G01X56273Y345480D01*
G01X56428Y345531D01*
G01X56481Y345584D01*
G01X56532Y345688D01*
G01X116037Y346341D02*
G01X117127Y346341D01*
G01X116037Y346341D02*
G01X116037Y345874D01*
G01X116088Y345719D01*
G01X116138Y345666D01*
G01X116243Y345615D01*
G01X116347Y345615D01*
G01X116451Y345666D01*
G01X116504Y345719D01*
G01X116555Y345874D01*
G01X116555Y346341D01*
G01X116555Y345978D02*
G01X117127Y345615D01*
G01X116037Y345010D02*
G01X116088Y345168D01*
G01X116192Y345219D01*
G01X116296Y345219D01*
G01X116400Y345168D01*
G01X116451Y345064D01*
G01X116504Y344855D01*
G01X116555Y344700D01*
G01X116659Y344596D01*
G01X116763Y344543D01*
G01X116918Y344543D01*
G01X117022Y344596D01*
G01X117076Y344647D01*
G01X117127Y344805D01*
G01X117127Y345010D01*
G01X117076Y345168D01*
G01X117022Y345219D01*
G01X116918Y345272D01*
G01X116763Y345272D01*
G01X116659Y345219D01*
G01X116555Y345114D01*
G01X116504Y344959D01*
G01X116451Y344751D01*
G01X116400Y344647D01*
G01X116296Y344596D01*
G01X116192Y344596D01*
G01X116088Y344647D01*
G01X116037Y344805D01*
G01X116037Y345010D01*
G01X116037Y343941D02*
G01X116088Y344096D01*
G01X116192Y344149D01*
G01X116296Y344149D01*
G01X116400Y344096D01*
G01X116451Y343992D01*
G01X116504Y343786D01*
G01X116555Y343628D01*
G01X116659Y343524D01*
G01X116763Y343474D01*
G01X116918Y343474D01*
G01X117022Y343524D01*
G01X117076Y343578D01*
G01X117127Y343733D01*
G01X117127Y343941D01*
G01X117076Y344096D01*
G01X117022Y344149D01*
G01X116918Y344200D01*
G01X116763Y344200D01*
G01X116659Y344149D01*
G01X116555Y344045D01*
G01X116504Y343890D01*
G01X116451Y343682D01*
G01X116400Y343578D01*
G01X116296Y343524D01*
G01X116192Y343524D01*
G01X116088Y343578D01*
G01X116037Y343733D01*
G01X116037Y343941D01*
G01X60452Y368554D02*
G01X61541Y368554D01*
G01X60452Y368554D02*
G01X60452Y368086D01*
G01X60502Y367931D01*
G01X60553Y367878D01*
G01X60657Y367827D01*
G01X60761Y367827D01*
G01X60866Y367878D01*
G01X60919Y367931D01*
G01X60970Y368086D01*
G01X60970Y368554D01*
G01X60970Y368190D02*
G01X61541Y367827D01*
G01X60452Y367223D02*
G01X60502Y367380D01*
G01X60606Y367431D01*
G01X60711Y367431D01*
G01X60815Y367380D01*
G01X60866Y367276D01*
G01X60919Y367068D01*
G01X60970Y366913D01*
G01X61074Y366809D01*
G01X61178Y366755D01*
G01X61333Y366755D01*
G01X61437Y366809D01*
G01X61490Y366859D01*
G01X61541Y367017D01*
G01X61541Y367223D01*
G01X61490Y367380D01*
G01X61437Y367431D01*
G01X61333Y367484D01*
G01X61178Y367484D01*
G01X61074Y367431D01*
G01X60970Y367327D01*
G01X60919Y367172D01*
G01X60866Y366963D01*
G01X60815Y366859D01*
G01X60711Y366809D01*
G01X60606Y366809D01*
G01X60502Y366859D01*
G01X60452Y367017D01*
G01X60452Y367223D01*
G01X60815Y365737D02*
G01X60970Y365790D01*
G01X61074Y365894D01*
G01X61125Y366049D01*
G01X61125Y366102D01*
G01X61074Y366257D01*
G01X60970Y366361D01*
G01X60815Y366412D01*
G01X60761Y366412D01*
G01X60606Y366361D01*
G01X60502Y366257D01*
G01X60452Y366102D01*
G01X60452Y366049D01*
G01X60502Y365894D01*
G01X60606Y365790D01*
G01X60815Y365737D01*
G01X61074Y365737D01*
G01X61333Y365790D01*
G01X61490Y365894D01*
G01X61541Y366049D01*
G01X61541Y366153D01*
G01X61490Y366308D01*
G01X61386Y366361D01*
G01X22237Y358140D02*
G01X23327Y358140D01*
G01X22237Y358140D02*
G01X22237Y357672D01*
G01X22288Y357517D01*
G01X22339Y357464D01*
G01X22443Y357413D01*
G01X22547Y357413D01*
G01X22651Y357464D01*
G01X22705Y357517D01*
G01X22755Y357672D01*
G01X22755Y358140D01*
G01X22755Y357776D02*
G01X23327Y357413D01*
G01X22600Y356395D02*
G01X22755Y356445D01*
G01X22860Y356549D01*
G01X22910Y356704D01*
G01X22910Y356758D01*
G01X22860Y356913D01*
G01X22755Y357017D01*
G01X22600Y357070D01*
G01X22547Y357070D01*
G01X22392Y357017D01*
G01X22288Y356913D01*
G01X22237Y356758D01*
G01X22237Y356704D01*
G01X22288Y356549D01*
G01X22392Y356445D01*
G01X22600Y356395D01*
G01X22860Y356395D01*
G01X23119Y356445D01*
G01X23276Y356549D01*
G01X23327Y356704D01*
G01X23327Y356809D01*
G01X23276Y356966D01*
G01X23172Y357017D01*
G01X22237Y355739D02*
G01X22288Y355894D01*
G01X22443Y355998D01*
G01X22705Y356052D01*
G01X22860Y356052D01*
G01X23119Y355998D01*
G01X23276Y355894D01*
G01X23327Y355739D01*
G01X23327Y355635D01*
G01X23276Y355480D01*
G01X23119Y355376D01*
G01X22860Y355323D01*
G01X22705Y355323D01*
G01X22443Y355376D01*
G01X22288Y355480D01*
G01X22237Y355635D01*
G01X22237Y355739D01*
G01X92923Y271411D02*
G01X94013Y271411D01*
G01X92923Y271411D02*
G01X92923Y270944D01*
G01X92974Y270789D01*
G01X93024Y270736D01*
G01X93129Y270685D01*
G01X93233Y270685D01*
G01X93337Y270736D01*
G01X93390Y270789D01*
G01X93441Y270944D01*
G01X93441Y271411D01*
G01X93441Y271048D02*
G01X94013Y270685D01*
G01X92923Y269717D02*
G01X92923Y270238D01*
G01X93390Y270289D01*
G01X93337Y270238D01*
G01X93286Y270080D01*
G01X93286Y269925D01*
G01X93337Y269770D01*
G01X93441Y269666D01*
G01X93596Y269613D01*
G01X93700Y269613D01*
G01X93858Y269666D01*
G01X93962Y269770D01*
G01X94013Y269925D01*
G01X94013Y270080D01*
G01X93962Y270238D01*
G01X93908Y270289D01*
G01X93804Y270342D01*
G01X93182Y269219D02*
G01X93129Y269219D01*
G01X93024Y269166D01*
G01X92974Y269115D01*
G01X92923Y269011D01*
G01X92923Y268803D01*
G01X92974Y268698D01*
G01X93024Y268648D01*
G01X93129Y268594D01*
G01X93233Y268594D01*
G01X93337Y268648D01*
G01X93494Y268752D01*
G01X94013Y269270D01*
G01X94013Y268544D01*
G01X64376Y262496D02*
G01X64376Y261406D01*
G01X64376Y262496D02*
G01X63908Y262496D01*
G01X63754Y262445D01*
G01X63700Y262394D01*
G01X63649Y262290D01*
G01X63649Y262186D01*
G01X63700Y262082D01*
G01X63754Y262028D01*
G01X63908Y261978D01*
G01X64376Y261978D01*
G01X64013Y261978D02*
G01X63649Y261406D01*
G01X62682Y262496D02*
G01X63202Y262496D01*
G01X63253Y262028D01*
G01X63202Y262082D01*
G01X63045Y262133D01*
G01X62890Y262133D01*
G01X62735Y262082D01*
G01X62631Y261978D01*
G01X62578Y261823D01*
G01X62578Y261719D01*
G01X62631Y261561D01*
G01X62735Y261457D01*
G01X62890Y261406D01*
G01X63045Y261406D01*
G01X63202Y261457D01*
G01X63253Y261510D01*
G01X63307Y261614D01*
G01X62130Y262496D02*
G01X61559Y262496D01*
G01X61871Y262082D01*
G01X61716Y262082D01*
G01X61612Y262028D01*
G01X61559Y261978D01*
G01X61508Y261823D01*
G01X61508Y261719D01*
G01X61559Y261561D01*
G01X61663Y261457D01*
G01X61821Y261406D01*
G01X61976Y261406D01*
G01X62130Y261457D01*
G01X62184Y261510D01*
G01X62235Y261614D01*
G01X41668Y264807D02*
G01X42758Y264807D01*
G01X41668Y264807D02*
G01X41668Y264340D01*
G01X41719Y264185D01*
G01X41770Y264132D01*
G01X41874Y264081D01*
G01X41978Y264081D01*
G01X42082Y264132D01*
G01X42136Y264185D01*
G01X42186Y264340D01*
G01X42186Y264807D01*
G01X42186Y264444D02*
G01X42758Y264081D01*
G01X41668Y263113D02*
G01X41668Y263634D01*
G01X42136Y263685D01*
G01X42082Y263634D01*
G01X42031Y263476D01*
G01X42031Y263321D01*
G01X42082Y263166D01*
G01X42186Y263062D01*
G01X42341Y263009D01*
G01X42445Y263009D01*
G01X42603Y263062D01*
G01X42707Y263166D01*
G01X42758Y263321D01*
G01X42758Y263476D01*
G01X42707Y263634D01*
G01X42654Y263685D01*
G01X42550Y263738D01*
G01X41668Y262148D02*
G01X42395Y262666D01*
G01X42395Y261886D01*
G01X41668Y262148D02*
G01X42758Y262148D01*
G01X92618Y268363D02*
G01X93708Y268363D01*
G01X92618Y268363D02*
G01X92618Y267896D01*
G01X92669Y267741D01*
G01X92720Y267688D01*
G01X92824Y267637D01*
G01X92928Y267637D01*
G01X93032Y267688D01*
G01X93085Y267741D01*
G01X93136Y267896D01*
G01X93136Y268363D01*
G01X93136Y268000D02*
G01X93708Y267637D01*
G01X92773Y266669D02*
G01X92669Y266722D01*
G01X92618Y266877D01*
G01X92618Y266981D01*
G01X92669Y267136D01*
G01X92824Y267241D01*
G01X93085Y267294D01*
G01X93344Y267294D01*
G01X93553Y267241D01*
G01X93657Y267136D01*
G01X93708Y266981D01*
G01X93708Y266928D01*
G01X93657Y266773D01*
G01X93553Y266669D01*
G01X93395Y266618D01*
G01X93344Y266618D01*
G01X93190Y266669D01*
G01X93085Y266773D01*
G01X93032Y266928D01*
G01X93032Y266981D01*
G01X93085Y267136D01*
G01X93190Y267241D01*
G01X93344Y267294D01*
G01X92618Y265546D02*
G01X93708Y266067D01*
G01X92618Y266275D02*
G01X92618Y265546D01*
G01X67586Y262382D02*
G01X67586Y261292D01*
G01X67586Y262382D02*
G01X67119Y262382D01*
G01X66964Y262331D01*
G01X66911Y262280D01*
G01X66860Y262176D01*
G01X66860Y262072D01*
G01X66911Y261967D01*
G01X66964Y261914D01*
G01X67119Y261863D01*
G01X67586Y261863D01*
G01X67223Y261863D02*
G01X66860Y261292D01*
G01X65892Y262227D02*
G01X65945Y262331D01*
G01X66100Y262382D01*
G01X66205Y262382D01*
G01X66359Y262331D01*
G01X66464Y262176D01*
G01X66517Y261914D01*
G01X66517Y261655D01*
G01X66464Y261447D01*
G01X66359Y261343D01*
G01X66205Y261292D01*
G01X66151Y261292D01*
G01X65996Y261343D01*
G01X65892Y261447D01*
G01X65841Y261604D01*
G01X65841Y261655D01*
G01X65892Y261810D01*
G01X65996Y261914D01*
G01X66151Y261967D01*
G01X66205Y261967D01*
G01X66359Y261914D01*
G01X66464Y261810D01*
G01X66517Y261655D01*
G01X65237Y262382D02*
G01X65394Y262331D01*
G01X65445Y262227D01*
G01X65445Y262122D01*
G01X65394Y262018D01*
G01X65290Y261967D01*
G01X65082Y261914D01*
G01X64927Y261863D01*
G01X64823Y261759D01*
G01X64769Y261655D01*
G01X64769Y261500D01*
G01X64823Y261396D01*
G01X64874Y261343D01*
G01X65031Y261292D01*
G01X65237Y261292D01*
G01X65394Y261343D01*
G01X65445Y261396D01*
G01X65498Y261500D01*
G01X65498Y261655D01*
G01X65445Y261759D01*
G01X65341Y261863D01*
G01X65186Y261914D01*
G01X64978Y261967D01*
G01X64874Y262018D01*
G01X64823Y262122D01*
G01X64823Y262227D01*
G01X64874Y262331D01*
G01X65031Y262382D01*
G01X65237Y262382D01*
G01X41765Y261759D02*
G01X42854Y261759D01*
G01X41765Y261759D02*
G01X41765Y261292D01*
G01X41815Y261137D01*
G01X41866Y261084D01*
G01X41970Y261033D01*
G01X42075Y261033D01*
G01X42179Y261084D01*
G01X42232Y261137D01*
G01X42283Y261292D01*
G01X42283Y261759D01*
G01X42283Y261396D02*
G01X42854Y261033D01*
G01X41920Y260065D02*
G01X41815Y260118D01*
G01X41765Y260273D01*
G01X41765Y260377D01*
G01X41815Y260532D01*
G01X41970Y260637D01*
G01X42232Y260690D01*
G01X42491Y260690D01*
G01X42699Y260637D01*
G01X42804Y260532D01*
G01X42854Y260377D01*
G01X42854Y260324D01*
G01X42804Y260169D01*
G01X42699Y260065D01*
G01X42542Y260014D01*
G01X42491Y260014D01*
G01X42336Y260065D01*
G01X42232Y260169D01*
G01X42179Y260324D01*
G01X42179Y260377D01*
G01X42232Y260532D01*
G01X42336Y260637D01*
G01X42491Y260690D01*
G01X42128Y258996D02*
G01X42283Y259046D01*
G01X42387Y259151D01*
G01X42438Y259308D01*
G01X42438Y259359D01*
G01X42387Y259514D01*
G01X42283Y259618D01*
G01X42128Y259671D01*
G01X42075Y259671D01*
G01X41920Y259618D01*
G01X41815Y259514D01*
G01X41765Y259359D01*
G01X41765Y259308D01*
G01X41815Y259151D01*
G01X41920Y259046D01*
G01X42128Y258996D01*
G01X42387Y258996D01*
G01X42646Y259046D01*
G01X42804Y259151D01*
G01X42854Y259308D01*
G01X42854Y259410D01*
G01X42804Y259567D01*
G01X42699Y259618D01*
G01X92669Y264807D02*
G01X93759Y264807D01*
G01X92669Y264807D02*
G01X92669Y264340D01*
G01X92720Y264185D01*
G01X92770Y264132D01*
G01X92875Y264081D01*
G01X92979Y264081D01*
G01X93083Y264132D01*
G01X93136Y264185D01*
G01X93187Y264340D01*
G01X93187Y264807D01*
G01X93187Y264444D02*
G01X93759Y264081D01*
G01X92669Y263476D02*
G01X92720Y263634D01*
G01X92824Y263685D01*
G01X92928Y263685D01*
G01X93032Y263634D01*
G01X93083Y263530D01*
G01X93136Y263321D01*
G01X93187Y263166D01*
G01X93291Y263062D01*
G01X93395Y263009D01*
G01X93550Y263009D01*
G01X93654Y263062D01*
G01X93708Y263113D01*
G01X93759Y263271D01*
G01X93759Y263476D01*
G01X93708Y263634D01*
G01X93654Y263685D01*
G01X93550Y263738D01*
G01X93395Y263738D01*
G01X93291Y263685D01*
G01X93187Y263580D01*
G01X93136Y263425D01*
G01X93083Y263217D01*
G01X93032Y263113D01*
G01X92928Y263062D01*
G01X92824Y263062D01*
G01X92720Y263113D01*
G01X92669Y263271D01*
G01X92669Y263476D01*
G01X92928Y262615D02*
G01X92875Y262615D01*
G01X92770Y262562D01*
G01X92720Y262511D01*
G01X92669Y262407D01*
G01X92669Y262199D01*
G01X92720Y262094D01*
G01X92770Y262044D01*
G01X92875Y261990D01*
G01X92979Y261990D01*
G01X93083Y262044D01*
G01X93240Y262148D01*
G01X93759Y262666D01*
G01X93759Y261940D01*
G01X70980Y262496D02*
G01X70980Y261406D01*
G01X70980Y262496D02*
G01X70512Y262496D01*
G01X70358Y262445D01*
G01X70304Y262394D01*
G01X70253Y262290D01*
G01X70253Y262186D01*
G01X70304Y262082D01*
G01X70358Y262028D01*
G01X70512Y261978D01*
G01X70980Y261978D01*
G01X70617Y261978D02*
G01X70253Y261406D01*
G01X69649Y262496D02*
G01X69806Y262445D01*
G01X69857Y262341D01*
G01X69857Y262237D01*
G01X69806Y262133D01*
G01X69702Y262082D01*
G01X69494Y262028D01*
G01X69339Y261978D01*
G01X69235Y261874D01*
G01X69182Y261769D01*
G01X69182Y261614D01*
G01X69235Y261510D01*
G01X69286Y261457D01*
G01X69443Y261406D01*
G01X69649Y261406D01*
G01X69806Y261457D01*
G01X69857Y261510D01*
G01X69911Y261614D01*
G01X69911Y261769D01*
G01X69857Y261874D01*
G01X69753Y261978D01*
G01X69598Y262028D01*
G01X69390Y262082D01*
G01X69286Y262133D01*
G01X69235Y262237D01*
G01X69235Y262341D01*
G01X69286Y262445D01*
G01X69443Y262496D01*
G01X69649Y262496D01*
G01X68734Y262496D02*
G01X68163Y262496D01*
G01X68475Y262082D01*
G01X68320Y262082D01*
G01X68216Y262028D01*
G01X68163Y261978D01*
G01X68112Y261823D01*
G01X68112Y261719D01*
G01X68163Y261561D01*
G01X68267Y261457D01*
G01X68425Y261406D01*
G01X68580Y261406D01*
G01X68734Y261457D01*
G01X68788Y261510D01*
G01X68839Y261614D01*
G01X41668Y258457D02*
G01X42758Y258457D01*
G01X41668Y258457D02*
G01X41668Y257990D01*
G01X41719Y257835D01*
G01X41770Y257782D01*
G01X41874Y257731D01*
G01X41978Y257731D01*
G01X42082Y257782D01*
G01X42136Y257835D01*
G01X42186Y257990D01*
G01X42186Y258457D01*
G01X42186Y258094D02*
G01X42758Y257731D01*
G01X41668Y257126D02*
G01X41719Y257284D01*
G01X41823Y257335D01*
G01X41927Y257335D01*
G01X42031Y257284D01*
G01X42082Y257180D01*
G01X42136Y256971D01*
G01X42186Y256816D01*
G01X42291Y256712D01*
G01X42395Y256659D01*
G01X42550Y256659D01*
G01X42654Y256712D01*
G01X42707Y256763D01*
G01X42758Y256921D01*
G01X42758Y257126D01*
G01X42707Y257284D01*
G01X42654Y257335D01*
G01X42550Y257388D01*
G01X42395Y257388D01*
G01X42291Y257335D01*
G01X42186Y257230D01*
G01X42136Y257075D01*
G01X42082Y256867D01*
G01X42031Y256763D01*
G01X41927Y256712D01*
G01X41823Y256712D01*
G01X41719Y256763D01*
G01X41668Y256921D01*
G01X41668Y257126D01*
G01X41668Y255798D02*
G01X42395Y256316D01*
G01X42395Y255536D01*
G01X41668Y255798D02*
G01X42758Y255798D01*
G01X45755Y238211D02*
G01X45859Y238315D01*
G01X46014Y238366D01*
G01X46222Y238366D01*
G01X46377Y238315D01*
G01X46482Y238211D01*
G01X46482Y238107D01*
G01X46431Y238003D01*
G01X46377Y237952D01*
G01X46273Y237898D01*
G01X45961Y237794D01*
G01X45859Y237744D01*
G01X45806Y237693D01*
G01X45755Y237589D01*
G01X45755Y237431D01*
G01X45859Y237327D01*
G01X46014Y237276D01*
G01X46222Y237276D01*
G01X46377Y237327D01*
G01X46482Y237431D01*
G01X45151Y238366D02*
G01X45308Y238315D01*
G01X45359Y238211D01*
G01X45359Y238107D01*
G01X45308Y238003D01*
G01X45204Y237952D01*
G01X44996Y237898D01*
G01X44841Y237848D01*
G01X44737Y237744D01*
G01X44683Y237639D01*
G01X44683Y237484D01*
G01X44737Y237380D01*
G01X44787Y237327D01*
G01X44945Y237276D01*
G01X45151Y237276D01*
G01X45308Y237327D01*
G01X45359Y237380D01*
G01X45412Y237484D01*
G01X45412Y237639D01*
G01X45359Y237744D01*
G01X45255Y237848D01*
G01X45100Y237898D01*
G01X44891Y237952D01*
G01X44787Y238003D01*
G01X44737Y238107D01*
G01X44737Y238211D01*
G01X44787Y238315D01*
G01X44945Y238366D01*
G01X45151Y238366D01*
G01X96809Y379181D02*
G01X96913Y379285D01*
G01X97068Y379336D01*
G01X97276Y379336D01*
G01X97431Y379285D01*
G01X97536Y379181D01*
G01X97536Y379077D01*
G01X97485Y378973D01*
G01X97431Y378922D01*
G01X97327Y378868D01*
G01X97015Y378764D01*
G01X96913Y378714D01*
G01X96860Y378663D01*
G01X96809Y378559D01*
G01X96809Y378401D01*
G01X96913Y378297D01*
G01X97068Y378246D01*
G01X97276Y378246D01*
G01X97431Y378297D01*
G01X97536Y378401D01*
G01X96466Y379130D02*
G01X96362Y379181D01*
G01X96205Y379336D01*
G01X96205Y378246D01*
G01X95811Y379077D02*
G01X95811Y379130D01*
G01X95758Y379234D01*
G01X95707Y379285D01*
G01X95603Y379336D01*
G01X95394Y379336D01*
G01X95290Y379285D01*
G01X95239Y379234D01*
G01X95186Y379130D01*
G01X95186Y379026D01*
G01X95239Y378922D01*
G01X95343Y378764D01*
G01X95862Y378246D01*
G01X95135Y378246D01*
G01X75727Y379435D02*
G01X75831Y379539D01*
G01X75986Y379590D01*
G01X76194Y379590D01*
G01X76349Y379539D01*
G01X76454Y379435D01*
G01X76454Y379331D01*
G01X76403Y379227D01*
G01X76349Y379176D01*
G01X76245Y379122D01*
G01X75933Y379018D01*
G01X75831Y378968D01*
G01X75778Y378917D01*
G01X75727Y378813D01*
G01X75727Y378655D01*
G01X75831Y378551D01*
G01X75986Y378500D01*
G01X76194Y378500D01*
G01X76349Y378551D01*
G01X76454Y378655D01*
G01X75384Y379384D02*
G01X75280Y379435D01*
G01X75123Y379590D01*
G01X75123Y378500D01*
G01X74676Y379590D02*
G01X74104Y379590D01*
G01X74416Y379176D01*
G01X74261Y379176D01*
G01X74157Y379122D01*
G01X74104Y379072D01*
G01X74053Y378917D01*
G01X74053Y378813D01*
G01X74104Y378655D01*
G01X74208Y378551D01*
G01X74366Y378500D01*
G01X74521Y378500D01*
G01X74676Y378551D01*
G01X74729Y378604D01*
G01X74780Y378708D01*
G01X105445Y244815D02*
G01X105549Y244919D01*
G01X105704Y244970D01*
G01X105912Y244970D01*
G01X106067Y244919D01*
G01X106172Y244815D01*
G01X106172Y244711D01*
G01X106121Y244607D01*
G01X106067Y244556D01*
G01X105963Y244502D01*
G01X105651Y244398D01*
G01X105549Y244348D01*
G01X105496Y244297D01*
G01X105445Y244193D01*
G01X105445Y244035D01*
G01X105549Y243931D01*
G01X105704Y243880D01*
G01X105912Y243880D01*
G01X106067Y243931D01*
G01X106172Y244035D01*
G01X104477Y244815D02*
G01X104531Y244919D01*
G01X104686Y244970D01*
G01X104790Y244970D01*
G01X104945Y244919D01*
G01X105049Y244764D01*
G01X105102Y244502D01*
G01X105102Y244243D01*
G01X105049Y244035D01*
G01X104945Y243931D01*
G01X104790Y243880D01*
G01X104736Y243880D01*
G01X104581Y243931D01*
G01X104477Y244035D01*
G01X104427Y244193D01*
G01X104427Y244243D01*
G01X104477Y244398D01*
G01X104581Y244502D01*
G01X104736Y244556D01*
G01X104790Y244556D01*
G01X104945Y244502D01*
G01X105049Y244398D01*
G01X105102Y244243D01*
G01X53121Y378927D02*
G01X53225Y379031D01*
G01X53380Y379082D01*
G01X53588Y379082D01*
G01X53743Y379031D01*
G01X53848Y378927D01*
G01X53848Y378823D01*
G01X53797Y378719D01*
G01X53743Y378668D01*
G01X53639Y378614D01*
G01X53327Y378510D01*
G01X53225Y378460D01*
G01X53172Y378409D01*
G01X53121Y378305D01*
G01X53121Y378147D01*
G01X53225Y378043D01*
G01X53380Y377992D01*
G01X53588Y377992D01*
G01X53743Y378043D01*
G01X53848Y378147D01*
G01X52778Y378876D02*
G01X52674Y378927D01*
G01X52517Y379082D01*
G01X52517Y377992D01*
G01X51655Y379082D02*
G01X52174Y378355D01*
G01X51396Y378355D01*
G01X51655Y379082D02*
G01X51655Y377992D01*
G01X56169Y238211D02*
G01X56273Y238315D01*
G01X56428Y238366D01*
G01X56636Y238366D01*
G01X56791Y238315D01*
G01X56896Y238211D01*
G01X56896Y238107D01*
G01X56845Y238003D01*
G01X56791Y237952D01*
G01X56687Y237898D01*
G01X56375Y237794D01*
G01X56273Y237744D01*
G01X56220Y237693D01*
G01X56169Y237589D01*
G01X56169Y237431D01*
G01X56273Y237327D01*
G01X56428Y237276D01*
G01X56636Y237276D01*
G01X56791Y237327D01*
G01X56896Y237431D01*
G01X55097Y238366D02*
G01X55618Y237276D01*
G01X55826Y238366D02*
G01X55097Y238366D01*
G01X107442Y166624D02*
G01X108531Y166624D01*
G01X107442Y166624D02*
G01X107442Y166156D01*
G01X107492Y166001D01*
G01X107543Y165948D01*
G01X107647Y165897D01*
G01X107751Y165897D01*
G01X107856Y165948D01*
G01X107909Y166001D01*
G01X107960Y166156D01*
G01X107960Y166624D01*
G01X107960Y166260D02*
G01X108531Y165897D01*
G01X107442Y165033D02*
G01X108168Y165554D01*
G01X108168Y164774D01*
G01X107442Y165033D02*
G01X108531Y165033D01*
G01X107596Y163807D02*
G01X107492Y163860D01*
G01X107442Y164015D01*
G01X107442Y164119D01*
G01X107492Y164274D01*
G01X107647Y164378D01*
G01X107909Y164431D01*
G01X108168Y164431D01*
G01X108376Y164378D01*
G01X108480Y164274D01*
G01X108531Y164119D01*
G01X108531Y164068D01*
G01X108480Y163911D01*
G01X108376Y163807D01*
G01X108219Y163756D01*
G01X108168Y163756D01*
G01X108013Y163807D01*
G01X107909Y163911D01*
G01X107856Y164068D01*
G01X107856Y164119D01*
G01X107909Y164274D01*
G01X108013Y164378D01*
G01X108168Y164431D01*
G01X94246Y171335D02*
G01X95336Y171335D01*
G01X94246Y171335D02*
G01X94246Y170868D01*
G01X94297Y170713D01*
G01X94348Y170660D01*
G01X94452Y170609D01*
G01X94556Y170609D01*
G01X94660Y170660D01*
G01X94714Y170713D01*
G01X94764Y170868D01*
G01X94764Y171335D01*
G01X94764Y170972D02*
G01X95336Y170609D01*
G01X94246Y169745D02*
G01X94973Y170266D01*
G01X94973Y169486D01*
G01X94246Y169745D02*
G01X95336Y169745D01*
G01X94246Y168414D02*
G01X95336Y168935D01*
G01X94246Y169143D02*
G01X94246Y168414D01*
G01X26428Y173875D02*
G01X27518Y173875D01*
G01X26428Y173875D02*
G01X26428Y173408D01*
G01X26479Y173253D01*
G01X26530Y173200D01*
G01X26634Y173149D01*
G01X26738Y173149D01*
G01X26842Y173200D01*
G01X26896Y173253D01*
G01X26946Y173408D01*
G01X26946Y173875D01*
G01X26946Y173512D02*
G01X27518Y173149D01*
G01X26428Y172285D02*
G01X27155Y172806D01*
G01X27155Y172026D01*
G01X26428Y172285D02*
G01X27518Y172285D01*
G01X26428Y171424D02*
G01X26479Y171579D01*
G01X26583Y171630D01*
G01X26687Y171630D01*
G01X26791Y171579D01*
G01X26842Y171475D01*
G01X26896Y171267D01*
G01X26946Y171112D01*
G01X27051Y171008D01*
G01X27155Y170954D01*
G01X27310Y170954D01*
G01X27414Y171008D01*
G01X27467Y171058D01*
G01X27518Y171216D01*
G01X27518Y171424D01*
G01X27467Y171579D01*
G01X27414Y171630D01*
G01X27310Y171683D01*
G01X27155Y171683D01*
G01X27051Y171630D01*
G01X26946Y171526D01*
G01X26896Y171371D01*
G01X26842Y171162D01*
G01X26791Y171058D01*
G01X26687Y171008D01*
G01X26583Y171008D01*
G01X26479Y171058D01*
G01X26428Y171216D01*
G01X26428Y171424D01*
G01X107137Y169303D02*
G01X108226Y169303D01*
G01X107137Y169303D02*
G01X107137Y168836D01*
G01X107188Y168681D01*
G01X107238Y168628D01*
G01X107342Y168577D01*
G01X107447Y168577D01*
G01X107551Y168628D01*
G01X107604Y168681D01*
G01X107655Y168836D01*
G01X107655Y169303D01*
G01X107655Y168940D02*
G01X108226Y168577D01*
G01X107292Y167609D02*
G01X107188Y167662D01*
G01X107137Y167817D01*
G01X107137Y167921D01*
G01X107188Y168076D01*
G01X107342Y168181D01*
G01X107604Y168234D01*
G01X107863Y168234D01*
G01X108071Y168181D01*
G01X108176Y168076D01*
G01X108226Y167921D01*
G01X108226Y167868D01*
G01X108176Y167713D01*
G01X108071Y167609D01*
G01X107914Y167558D01*
G01X107863Y167558D01*
G01X107708Y167609D01*
G01X107604Y167713D01*
G01X107551Y167868D01*
G01X107551Y167921D01*
G01X107604Y168076D01*
G01X107708Y168181D01*
G01X107863Y168234D01*
G01X107342Y167215D02*
G01X107292Y167111D01*
G01X107137Y166954D01*
G01X108226Y166954D01*
G01X94142Y174383D02*
G01X95232Y174383D01*
G01X94142Y174383D02*
G01X94142Y173916D01*
G01X94193Y173761D01*
G01X94244Y173708D01*
G01X94348Y173657D01*
G01X94452Y173657D01*
G01X94556Y173708D01*
G01X94609Y173761D01*
G01X94660Y173916D01*
G01X94660Y174383D01*
G01X94660Y174020D02*
G01X95232Y173657D01*
G01X94297Y172689D02*
G01X94193Y172742D01*
G01X94142Y172897D01*
G01X94142Y173001D01*
G01X94193Y173156D01*
G01X94348Y173261D01*
G01X94609Y173314D01*
G01X94868Y173314D01*
G01X95077Y173261D01*
G01X95181Y173156D01*
G01X95232Y173001D01*
G01X95232Y172948D01*
G01X95181Y172793D01*
G01X95077Y172689D01*
G01X94919Y172638D01*
G01X94868Y172638D01*
G01X94714Y172689D01*
G01X94609Y172793D01*
G01X94556Y172948D01*
G01X94556Y173001D01*
G01X94609Y173156D01*
G01X94714Y173261D01*
G01X94868Y173314D01*
G01X94401Y172242D02*
G01X94348Y172242D01*
G01X94244Y172191D01*
G01X94193Y172138D01*
G01X94142Y172034D01*
G01X94142Y171828D01*
G01X94193Y171724D01*
G01X94244Y171671D01*
G01X94348Y171620D01*
G01X94452Y171620D01*
G01X94556Y171671D01*
G01X94714Y171775D01*
G01X95232Y172295D01*
G01X95232Y171566D01*
G01X26162Y176784D02*
G01X27251Y176784D01*
G01X26162Y176784D02*
G01X26162Y176316D01*
G01X26212Y176161D01*
G01X26263Y176108D01*
G01X26367Y176057D01*
G01X26471Y176057D01*
G01X26576Y176108D01*
G01X26629Y176161D01*
G01X26680Y176316D01*
G01X26680Y176784D01*
G01X26680Y176420D02*
G01X27251Y176057D01*
G01X26316Y175089D02*
G01X26212Y175143D01*
G01X26162Y175298D01*
G01X26162Y175402D01*
G01X26212Y175557D01*
G01X26367Y175661D01*
G01X26629Y175714D01*
G01X26888Y175714D01*
G01X27096Y175661D01*
G01X27200Y175557D01*
G01X27251Y175402D01*
G01X27251Y175348D01*
G01X27200Y175193D01*
G01X27096Y175089D01*
G01X26939Y175039D01*
G01X26888Y175039D01*
G01X26733Y175089D01*
G01X26629Y175193D01*
G01X26576Y175348D01*
G01X26576Y175402D01*
G01X26629Y175557D01*
G01X26733Y175661D01*
G01X26888Y175714D01*
G01X26162Y174591D02*
G01X26162Y174020D01*
G01X26576Y174332D01*
G01X26576Y174175D01*
G01X26629Y174071D01*
G01X26680Y174020D01*
G01X26835Y173967D01*
G01X26939Y173967D01*
G01X27096Y174020D01*
G01X27200Y174124D01*
G01X27251Y174279D01*
G01X27251Y174434D01*
G01X27200Y174591D01*
G01X27147Y174642D01*
G01X27043Y174696D01*
G01X107350Y172097D02*
G01X108440Y172097D01*
G01X107350Y172097D02*
G01X107350Y171630D01*
G01X107401Y171475D01*
G01X107452Y171422D01*
G01X107556Y171371D01*
G01X107660Y171371D01*
G01X107764Y171422D01*
G01X107817Y171475D01*
G01X107868Y171630D01*
G01X107868Y172097D01*
G01X107868Y171734D02*
G01X108440Y171371D01*
G01X107350Y170299D02*
G01X108440Y170820D01*
G01X107350Y171028D02*
G01X107350Y170299D01*
G01X107505Y169334D02*
G01X107401Y169384D01*
G01X107350Y169542D01*
G01X107350Y169646D01*
G01X107401Y169801D01*
G01X107556Y169905D01*
G01X107817Y169956D01*
G01X108076Y169956D01*
G01X108285Y169905D01*
G01X108389Y169801D01*
G01X108440Y169646D01*
G01X108440Y169593D01*
G01X108389Y169438D01*
G01X108285Y169334D01*
G01X108127Y169280D01*
G01X108076Y169280D01*
G01X107922Y169334D01*
G01X107817Y169438D01*
G01X107764Y169593D01*
G01X107764Y169646D01*
G01X107817Y169801D01*
G01X107922Y169905D01*
G01X108076Y169956D01*
G01X94234Y177292D02*
G01X95323Y177292D01*
G01X94234Y177292D02*
G01X94234Y176824D01*
G01X94284Y176669D01*
G01X94335Y176616D01*
G01X94439Y176565D01*
G01X94543Y176565D01*
G01X94648Y176616D01*
G01X94701Y176669D01*
G01X94752Y176824D01*
G01X94752Y177292D01*
G01X94752Y176928D02*
G01X95323Y176565D01*
G01X94234Y175493D02*
G01X95323Y176014D01*
G01X94234Y176222D02*
G01X94234Y175493D01*
G01X94234Y174424D02*
G01X95323Y174942D01*
G01X94234Y175150D02*
G01X94234Y174424D01*
G01X26375Y180225D02*
G01X27465Y180225D01*
G01X26375Y180225D02*
G01X26375Y179758D01*
G01X26426Y179603D01*
G01X26476Y179550D01*
G01X26581Y179499D01*
G01X26685Y179499D01*
G01X26789Y179550D01*
G01X26842Y179603D01*
G01X26893Y179758D01*
G01X26893Y180225D01*
G01X26893Y179862D02*
G01X27465Y179499D01*
G01X26375Y178427D02*
G01X27465Y178948D01*
G01X26375Y179156D02*
G01X26375Y178427D01*
G01X26375Y177825D02*
G01X26426Y177980D01*
G01X26530Y178033D01*
G01X26634Y178033D01*
G01X26738Y177980D01*
G01X26789Y177876D01*
G01X26842Y177670D01*
G01X26893Y177512D01*
G01X26997Y177408D01*
G01X27101Y177358D01*
G01X27256Y177358D01*
G01X27360Y177408D01*
G01X27414Y177462D01*
G01X27465Y177617D01*
G01X27465Y177825D01*
G01X27414Y177980D01*
G01X27360Y178033D01*
G01X27256Y178084D01*
G01X27101Y178084D01*
G01X26997Y178033D01*
G01X26893Y177929D01*
G01X26842Y177774D01*
G01X26789Y177566D01*
G01X26738Y177462D01*
G01X26634Y177408D01*
G01X26530Y177408D01*
G01X26426Y177462D01*
G01X26375Y177617D01*
G01X26375Y177825D01*
G54D10*
G75*
G01X105156Y126746D02*
G3X107188Y126746I1016J-70D01*
G01*
G75*
G01X66802Y126746D02*
G3X68834Y126746I1016J-70D01*
G01*
G75*
G01X66802Y294894D02*
G3X68834Y294894I1016J-70D01*
G01*
G75*
G01X105156Y294894D02*
G3X107188Y294894I1016J-70D01*
G01*
G75*
G01X108902Y368300D02*
G03X108902Y368300I-4000J0D01*
G01*
G75*
G01X70040Y364744D02*
G03X70040Y364744I-4000J0D01*
G01*
G75*
G01X58864Y357378D02*
G03X58864Y357378I-4000J0D01*
G01*
G75*
G01X108648Y254000D02*
G03X108648Y254000I-4000J0D01*
G01*
G75*
G01X98996Y245872D02*
G03X98996Y245872I-4000J0D01*
G01*
G75*
G01X26098Y229616D02*
G03X26098Y229616I-4000J0D01*
G01*
G75*
G01X75628Y147320D02*
G03X75628Y147320I-4000J0D01*
G01*
G75*
G01X60388Y173482D02*
G03X60388Y173482I-4000J0D01*
G01*
G75*
G01X114490Y142494D02*
G03X114490Y142494I-4000J0D01*
G01*
M00*
M02*
