G04 ---------------------------- Layer name :TOP SILK LAYER*
G04 EasyEDA v5.8.16, Sun, 14 Oct 2018 04:50:05 GMT*
G04 5a396672bee444fbbd75647f7a64e84d*
G04 Gerber Generator version 0.2*
G04 Scale: 100 percent, Rotated: No, Reflected: No *
G04 Dimensions in millimeters *
G04 leading zeros omitted , absolute positions ,3 integer and 3 decimal *
%FSLAX33Y33*%
%MOMM*%
G90*
G71D02*

%ADD10C,0.254000*%
%ADD25C,0.177800*%
%ADD26C,0.203200*%

%LPD*%
G54D10*
G01X17780Y190754D02*
G01X17780Y195453D01*
G01X7239Y190754D02*
G01X7239Y195453D01*
G01X17780Y190754D02*
G01X7239Y190754D01*
G01X17780Y195453D02*
G01X7239Y195453D01*
G01X17780Y328930D02*
G01X17780Y333629D01*
G01X7239Y328930D02*
G01X7239Y333629D01*
G01X17780Y328930D02*
G01X7239Y328930D01*
G01X17780Y333629D02*
G01X7239Y333629D01*
G01X27940Y35814D02*
G01X37939Y35814D01*
G01X27940Y35814D02*
G01X27940Y45813D01*
G01X27940Y45813D02*
G01X37939Y45813D01*
G01X37939Y35814D02*
G01X37939Y45813D01*
G01X60309Y35814D02*
G01X123108Y35814D01*
G01X60309Y100893D02*
G01X123108Y100893D01*
G01X123108Y35814D02*
G01X123108Y100893D01*
G01X60309Y100893D02*
G01X60309Y35814D01*
G01X57150Y198628D02*
G01X59690Y198628D01*
G01X57150Y196088D02*
G01X59690Y196088D01*
G01X59690Y198628D02*
G01X59690Y196088D01*
G01X57150Y198628D02*
G01X57150Y196088D01*
G01X88900Y208788D02*
G01X91440Y208788D01*
G01X88900Y206248D02*
G01X91440Y206248D01*
G01X91440Y208788D02*
G01X91440Y206248D01*
G01X88900Y208788D02*
G01X88900Y206248D01*
G01X114554Y187960D02*
G01X117094Y187960D01*
G01X114554Y185420D02*
G01X117094Y185420D01*
G01X117094Y187960D02*
G01X117094Y185420D01*
G01X114554Y187960D02*
G01X114554Y185420D01*
G01X27432Y336804D02*
G01X29972Y336804D01*
G01X27432Y334264D02*
G01X29972Y334264D01*
G01X29972Y336804D02*
G01X29972Y334264D01*
G01X27432Y336804D02*
G01X27432Y334264D01*
G01X77470Y324358D02*
G01X80010Y324358D01*
G01X77470Y321818D02*
G01X80010Y321818D01*
G01X80010Y324358D02*
G01X80010Y321818D01*
G01X77470Y324358D02*
G01X77470Y321818D01*
G01X119634Y326390D02*
G01X122174Y326390D01*
G01X119634Y323850D02*
G01X122174Y323850D01*
G01X122174Y326390D02*
G01X122174Y323850D01*
G01X119634Y326390D02*
G01X119634Y323850D01*
G01X55626Y35814D02*
G01X55626Y86614D01*
G01X55626Y35814D02*
G01X50546Y35814D01*
G01X50546Y35814D02*
G01X50546Y86614D01*
G01X55626Y86614D02*
G01X50546Y86614D01*
G01X7112Y113792D02*
G01X11811Y113792D01*
G01X7112Y124333D02*
G01X11811Y124333D01*
G01X7112Y113792D02*
G01X7112Y124333D01*
G01X11811Y113792D02*
G01X11811Y124333D01*
G01X7112Y274066D02*
G01X11811Y274066D01*
G01X7112Y284607D02*
G01X11811Y284607D01*
G01X7112Y274066D02*
G01X7112Y284607D01*
G01X11811Y274066D02*
G01X11811Y284607D01*
G01X46990Y126746D02*
G01X52578Y126746D01*
G01X52578Y105410D01*
G01X46990Y105410D01*
G01X46990Y126746D01*
G01X46990Y126746D01*
G01X85344Y126746D02*
G01X90932Y126746D01*
G01X90932Y105410D01*
G01X85344Y105410D01*
G01X85344Y126746D01*
G01X85344Y126746D01*
G01X28702Y274828D02*
G01X28702Y273558D01*
G01X23622Y273558D01*
G01X23622Y292862D01*
G01X28702Y292862D01*
G01X28702Y291592D01*
G01X28702Y274828D02*
G01X28702Y291592D01*
G01X85344Y294894D02*
G01X90932Y294894D01*
G01X90932Y273558D01*
G01X85344Y273558D01*
G01X85344Y294894D01*
G01X85344Y294894D01*
G01X44450Y294894D02*
G01X50038Y294894D01*
G01X50038Y273558D01*
G01X44450Y273558D01*
G01X44450Y294894D01*
G01X44450Y294894D01*
G01X53848Y205232D02*
G01X53848Y208931D01*
G01X53848Y205232D02*
G01X62347Y205232D01*
G01X53848Y208931D02*
G01X62347Y208931D01*
G01X62348Y205232D02*
G01X62348Y208931D01*
G01X89154Y197104D02*
G01X92853Y197104D01*
G01X89154Y197104D02*
G01X89154Y188604D01*
G01X92853Y197104D02*
G01X92853Y188604D01*
G01X89154Y188603D02*
G01X92853Y188603D01*
G01X31496Y223774D02*
G01X31496Y221274D01*
G01X31496Y223774D02*
G01X36995Y223774D01*
G01X36995Y223774D02*
G01X36995Y221274D01*
G01X31496Y221274D02*
G01X36995Y221274D01*
G01X78486Y192532D02*
G01X78486Y190032D01*
G01X78486Y192532D02*
G01X83985Y192532D01*
G01X83985Y192532D02*
G01X83985Y190032D01*
G01X78486Y190032D02*
G01X83985Y190032D01*
G01X113030Y221996D02*
G01X113030Y219496D01*
G01X113030Y221996D02*
G01X118529Y221996D01*
G01X118529Y221996D02*
G01X118529Y219496D01*
G01X113030Y219496D02*
G01X118529Y219496D01*
G01X34544Y305562D02*
G01X34544Y308061D01*
G01X34544Y305562D02*
G01X29044Y305562D01*
G01X29044Y305562D02*
G01X29044Y308061D01*
G01X34544Y308061D02*
G01X29044Y308061D01*
G01X54864Y322834D02*
G01X57363Y322834D01*
G01X54864Y322834D02*
G01X54864Y328333D01*
G01X54864Y328333D02*
G01X57363Y328333D01*
G01X57363Y322834D02*
G01X57363Y328333D01*
G01X96012Y315976D02*
G01X93512Y315976D01*
G01X96012Y315976D02*
G01X96012Y310476D01*
G01X96012Y310476D02*
G01X93512Y310476D01*
G01X93512Y315976D02*
G01X93512Y310476D01*
G01X31496Y220980D02*
G01X31496Y218480D01*
G01X31496Y220980D02*
G01X36995Y220980D01*
G01X36995Y220980D02*
G01X36995Y218480D01*
G01X31496Y218480D02*
G01X36995Y218480D01*
G01X78486Y189484D02*
G01X78486Y186984D01*
G01X78486Y189484D02*
G01X83985Y189484D01*
G01X83985Y189484D02*
G01X83985Y186984D01*
G01X78486Y186984D02*
G01X83985Y186984D01*
G01X113030Y225044D02*
G01X113030Y222544D01*
G01X113030Y225044D02*
G01X118529Y225044D01*
G01X118529Y225044D02*
G01X118529Y222544D01*
G01X113030Y222544D02*
G01X118529Y222544D01*
G01X28956Y303784D02*
G01X28956Y301284D01*
G01X28956Y303784D02*
G01X34455Y303784D01*
G01X34455Y303784D02*
G01X34455Y301284D01*
G01X28956Y301284D02*
G01X34455Y301284D01*
G01X84836Y310896D02*
G01X87335Y310896D01*
G01X84836Y310896D02*
G01X84836Y316395D01*
G01X84836Y316395D02*
G01X87335Y316395D01*
G01X87335Y310896D02*
G01X87335Y316395D01*
G01X90424Y310642D02*
G01X92923Y310642D01*
G01X90424Y310642D02*
G01X90424Y316141D01*
G01X90424Y316141D02*
G01X92923Y316141D01*
G01X92923Y310642D02*
G01X92923Y316141D01*
G01X99568Y181102D02*
G01X102067Y181102D01*
G01X99568Y181102D02*
G01X99568Y186601D01*
G01X99568Y186601D02*
G01X102067Y186601D01*
G01X102067Y181102D02*
G01X102067Y186601D01*
G01X78486Y186436D02*
G01X78486Y183936D01*
G01X78486Y186436D02*
G01X83985Y186436D01*
G01X83985Y186436D02*
G01X83985Y183936D01*
G01X78486Y183936D02*
G01X83985Y183936D01*
G01X31496Y217932D02*
G01X31496Y215432D01*
G01X31496Y217932D02*
G01X36995Y217932D01*
G01X36995Y217932D02*
G01X36995Y215432D01*
G01X31496Y215432D02*
G01X36995Y215432D01*
G01X101600Y303276D02*
G01X101600Y305775D01*
G01X101600Y303276D02*
G01X96100Y303276D01*
G01X96100Y303276D02*
G01X96100Y305775D01*
G01X101600Y305775D02*
G01X96100Y305775D01*
G01X48260Y325882D02*
G01X45760Y325882D01*
G01X48260Y325882D02*
G01X48260Y320382D01*
G01X48260Y320382D02*
G01X45760Y320382D01*
G01X45760Y325882D02*
G01X45760Y320382D01*
G01X11430Y313944D02*
G01X13929Y313944D01*
G01X11430Y313944D02*
G01X11430Y319443D01*
G01X11430Y319443D02*
G01X13929Y319443D01*
G01X13929Y313944D02*
G01X13929Y319443D01*
G01X52578Y213868D02*
G01X50078Y213868D01*
G01X52578Y213868D02*
G01X52578Y208368D01*
G01X52578Y208368D02*
G01X50078Y208367D01*
G01X50078Y213868D02*
G01X50078Y208368D01*
G01X69088Y202946D02*
G01X71587Y202946D01*
G01X69088Y202946D02*
G01X69088Y208445D01*
G01X69088Y208445D02*
G01X71587Y208446D01*
G01X71587Y202946D02*
G01X71587Y208445D01*
G01X108966Y176022D02*
G01X108966Y173522D01*
G01X108966Y176022D02*
G01X114465Y176022D01*
G01X114465Y176022D02*
G01X114466Y173522D01*
G01X108966Y173522D02*
G01X114465Y173522D01*
G01X27178Y319532D02*
G01X24678Y319532D01*
G01X27178Y319532D02*
G01X27178Y314032D01*
G01X27178Y314032D02*
G01X24678Y314031D01*
G01X24678Y319532D02*
G01X24678Y314032D01*
G01X53594Y340106D02*
G01X51094Y340106D01*
G01X53594Y340106D02*
G01X53594Y334606D01*
G01X53594Y334606D02*
G01X51094Y334605D01*
G01X51094Y340106D02*
G01X51094Y334606D01*
G01X112014Y330962D02*
G01X112014Y333461D01*
G01X112014Y330962D02*
G01X106514Y330962D01*
G01X106514Y330962D02*
G01X106513Y333461D01*
G01X112014Y333461D02*
G01X106514Y333461D01*
G01X82550Y219456D02*
G01X83566Y219456D01*
G01X82550Y219456D02*
G01X82550Y217457D01*
G01X83566Y219456D02*
G01X83566Y217457D01*
G01X82550Y217456D02*
G01X83566Y217456D01*
G01X112776Y182372D02*
G01X113792Y182372D01*
G01X112776Y182372D02*
G01X112776Y180373D01*
G01X113792Y182372D02*
G01X113792Y180373D01*
G01X112776Y180372D02*
G01X113792Y180372D01*
G01X24130Y333502D02*
G01X23114Y333502D01*
G01X24130Y333502D02*
G01X24130Y335500D01*
G01X23114Y333502D02*
G01X23114Y335500D01*
G01X24130Y335501D02*
G01X23114Y335501D01*
G01X66040Y336804D02*
G01X65024Y336804D01*
G01X66040Y336804D02*
G01X66040Y338802D01*
G01X65024Y336804D02*
G01X65024Y338802D01*
G01X66040Y338803D02*
G01X65024Y338803D01*
G01X111506Y304038D02*
G01X111506Y305054D01*
G01X111506Y304038D02*
G01X113504Y304038D01*
G01X111506Y305054D02*
G01X113504Y305054D01*
G01X113504Y304038D02*
G01X113504Y305054D01*
G01X108966Y179324D02*
G01X108966Y176824D01*
G01X108966Y179324D02*
G01X114465Y179324D01*
G01X114465Y179324D02*
G01X114466Y176824D01*
G01X108966Y176824D02*
G01X114465Y176824D01*
G01X91948Y203454D02*
G01X94447Y203454D01*
G01X91948Y203454D02*
G01X91948Y208953D01*
G01X91948Y208953D02*
G01X94447Y208954D01*
G01X94447Y203454D02*
G01X94447Y208953D01*
G01X61722Y193040D02*
G01X64221Y193040D01*
G01X61722Y193040D02*
G01X61722Y198539D01*
G01X61722Y198539D02*
G01X64221Y198540D01*
G01X64221Y193040D02*
G01X64221Y198539D01*
G01X18288Y319532D02*
G01X15788Y319532D01*
G01X18288Y319532D02*
G01X18288Y314032D01*
G01X18288Y314032D02*
G01X15788Y314031D01*
G01X15788Y319532D02*
G01X15788Y314032D01*
G01X70104Y321818D02*
G01X70104Y319318D01*
G01X70104Y321818D02*
G01X75603Y321818D01*
G01X75603Y321818D02*
G01X75604Y319318D01*
G01X70104Y319318D02*
G01X75603Y319318D01*
G01X112014Y326644D02*
G01X112014Y329143D01*
G01X112014Y326644D02*
G01X106514Y326644D01*
G01X106514Y326644D02*
G01X106513Y329143D01*
G01X112014Y329143D02*
G01X106514Y329143D01*
G01X53594Y203454D02*
G01X53594Y188953D01*
G01X28595Y203454D02*
G01X28595Y188953D01*
G01X53594Y203454D02*
G01X28595Y203454D01*
G01X53594Y188953D02*
G01X28595Y188953D01*
G01X53487Y201284D02*
G01X48407Y201284D01*
G01X53487Y191124D02*
G01X48407Y191124D01*
G01X48407Y201284D02*
G01X48407Y191124D01*
G01X122682Y188976D02*
G01X108181Y188976D01*
G01X122682Y213974D02*
G01X108181Y213974D01*
G01X122682Y188976D02*
G01X122682Y213974D01*
G01X108181Y188976D02*
G01X108181Y213974D01*
G01X120512Y189082D02*
G01X120512Y194162D01*
G01X110352Y189082D02*
G01X110352Y194162D01*
G01X120512Y194162D02*
G01X110352Y194162D01*
G01X27686Y333756D02*
G01X42186Y333756D01*
G01X27686Y308754D02*
G01X42186Y308754D01*
G01X27686Y333756D02*
G01X27686Y308754D01*
G01X42186Y333756D02*
G01X42186Y308754D01*
G01X29855Y333646D02*
G01X29855Y328566D01*
G01X40015Y333646D02*
G01X40015Y328566D01*
G01X29855Y328566D02*
G01X40015Y328566D01*
G01X76708Y308864D02*
G01X62207Y308864D01*
G01X76708Y333862D02*
G01X62207Y333862D01*
G01X76708Y308864D02*
G01X76708Y333862D01*
G01X62207Y308864D02*
G01X62207Y333862D01*
G01X74538Y328782D02*
G01X74538Y333862D01*
G01X64378Y328782D02*
G01X64378Y333862D01*
G01X74538Y328782D02*
G01X64378Y328782D01*
G01X121666Y323342D02*
G01X121666Y308841D01*
G01X96667Y323342D02*
G01X96667Y308841D01*
G01X121666Y323342D02*
G01X96667Y323342D01*
G01X121666Y308841D02*
G01X96667Y308841D01*
G01X121559Y321172D02*
G01X116479Y321172D01*
G01X121559Y311012D02*
G01X116479Y311012D01*
G01X116479Y321172D02*
G01X116479Y311012D01*
G01X88138Y188976D02*
G01X73637Y188976D01*
G01X88138Y213974D02*
G01X73637Y213974D01*
G01X88138Y188976D02*
G01X88138Y213974D01*
G01X73637Y188976D02*
G01X73637Y213974D01*
G01X85968Y208894D02*
G01X85968Y213974D01*
G01X75808Y208894D02*
G01X75808Y213974D01*
G01X85968Y208894D02*
G01X75808Y208894D01*
G01X47244Y208280D02*
G01X49743Y208280D01*
G01X47244Y208280D02*
G01X47244Y213779D01*
G01X47244Y213779D02*
G01X49743Y213780D01*
G01X49743Y208280D02*
G01X49743Y213779D01*
G01X77978Y200914D02*
G01X77978Y198414D01*
G01X77978Y200914D02*
G01X83477Y200914D01*
G01X83477Y200914D02*
G01X83477Y198414D01*
G01X77978Y198414D02*
G01X83477Y198414D01*
G01X99822Y196088D02*
G01X97322Y196088D01*
G01X99822Y196088D02*
G01X99822Y190588D01*
G01X99822Y190588D02*
G01X97322Y190587D01*
G01X97322Y196088D02*
G01X97322Y190588D01*
G01X20320Y313944D02*
G01X22819Y313944D01*
G01X20320Y313944D02*
G01X20320Y319443D01*
G01X20320Y319443D02*
G01X22819Y319444D01*
G01X22819Y313944D02*
G01X22819Y319443D01*
G01X70358Y317754D02*
G01X70358Y315254D01*
G01X70358Y317754D02*
G01X75857Y317754D01*
G01X75857Y317754D02*
G01X75857Y315254D01*
G01X70358Y315254D02*
G01X75857Y315254D01*
G01X106426Y325882D02*
G01X106426Y323382D01*
G01X106426Y325882D02*
G01X111925Y325882D01*
G01X111925Y325882D02*
G01X111926Y323382D01*
G01X106426Y323382D02*
G01X111925Y323382D01*
G01X57150Y183134D02*
G01X58166Y183134D01*
G01X57150Y183134D02*
G01X57150Y181135D01*
G01X58166Y183134D02*
G01X58166Y181135D01*
G01X57150Y181134D02*
G01X58166Y181134D01*
G01X31750Y345440D02*
G01X35449Y345440D01*
G01X31750Y345440D02*
G01X31750Y336940D01*
G01X35449Y345440D02*
G01X35449Y336940D01*
G01X31750Y336939D02*
G01X35449Y336939D01*
G01X84328Y343154D02*
G01X88027Y343154D01*
G01X84328Y343154D02*
G01X84328Y334654D01*
G01X88027Y343154D02*
G01X88027Y334654D01*
G01X84328Y334653D02*
G01X88027Y334653D01*
G01X91440Y343154D02*
G01X95139Y343154D01*
G01X91440Y343154D02*
G01X91440Y334654D01*
G01X95139Y343154D02*
G01X95139Y334654D01*
G01X91440Y334653D02*
G01X95139Y334653D01*
G01X111506Y215138D02*
G01X111506Y218837D01*
G01X111506Y215138D02*
G01X120005Y215138D01*
G01X111506Y218837D02*
G01X120005Y218837D01*
G01X120006Y215138D02*
G01X120006Y218837D01*
G01X109085Y34670D02*
G01X109085Y-15329D01*
G01X109085Y34670D02*
G01X124085Y34670D01*
G01X124085Y34670D02*
G01X124085Y-15329D01*
G01X109085Y-15329D02*
G01X124085Y-15329D01*
G01X109085Y-10329D02*
G01X124085Y-10329D01*
G01X119Y34670D02*
G01X119Y-15329D01*
G01X119Y34670D02*
G01X15119Y34670D01*
G01X15119Y34670D02*
G01X15119Y-15329D01*
G01X119Y-15329D02*
G01X15119Y-15329D01*
G01X119Y-10329D02*
G01X15119Y-10329D01*
G54D25*
G01X10668Y190246D02*
G01X10668Y189156D01*
G01X10668Y189156D02*
G01X11290Y189156D01*
G01X11633Y190246D02*
G01X11633Y189156D01*
G01X11633Y190246D02*
G01X12049Y189156D01*
G01X12466Y190246D02*
G01X12049Y189156D01*
G01X12466Y190246D02*
G01X12466Y189156D01*
G01X12860Y189986D02*
G01X12860Y190040D01*
G01X12913Y190144D01*
G01X12964Y190195D01*
G01X13068Y190246D01*
G01X13276Y190246D01*
G01X13380Y190195D01*
G01X13431Y190144D01*
G01X13484Y190040D01*
G01X13484Y189936D01*
G01X13431Y189831D01*
G01X13327Y189674D01*
G01X12809Y189156D01*
G01X13535Y189156D01*
G01X12700Y328282D02*
G01X12700Y327192D01*
G01X12700Y327192D02*
G01X13322Y327192D01*
G01X13665Y328282D02*
G01X13665Y327192D01*
G01X13665Y328282D02*
G01X14081Y327192D01*
G01X14498Y328282D02*
G01X14081Y327192D01*
G01X14498Y328282D02*
G01X14498Y327192D01*
G01X15359Y328282D02*
G01X14841Y327555D01*
G01X15621Y327555D01*
G01X15359Y328282D02*
G01X15359Y327192D01*
G01X26047Y41003D02*
G01X27137Y41003D01*
G01X26047Y40640D02*
G01X26047Y41366D01*
G01X26253Y41709D02*
G01X26202Y41813D01*
G01X26047Y41970D01*
G01X27137Y41970D01*
G54D26*
G01X32258Y33964D02*
G01X33919Y33964D01*
G01X33088Y33134D02*
G01X33088Y34798D01*
G54D25*
G01X91694Y102984D02*
G01X91694Y101894D01*
G01X91694Y102984D02*
G01X92161Y102984D01*
G01X92316Y102933D01*
G01X92369Y102882D01*
G01X92420Y102778D01*
G01X92420Y102621D01*
G01X92369Y102516D01*
G01X92316Y102466D01*
G01X92161Y102412D01*
G01X91694Y102412D01*
G01X92763Y102984D02*
G01X92763Y101894D01*
G01X58674Y200152D02*
G01X58674Y199374D01*
G01X58724Y199217D01*
G01X58828Y199113D01*
G01X58986Y199062D01*
G01X59090Y199062D01*
G01X59245Y199113D01*
G01X59349Y199217D01*
G01X59400Y199374D01*
G01X59400Y200152D01*
G01X59796Y199892D02*
G01X59796Y199946D01*
G01X59847Y200050D01*
G01X59900Y200101D01*
G01X60004Y200152D01*
G01X60210Y200152D01*
G01X60314Y200101D01*
G01X60368Y200050D01*
G01X60418Y199946D01*
G01X60418Y199842D01*
G01X60368Y199737D01*
G01X60264Y199580D01*
G01X59743Y199062D01*
G01X60472Y199062D01*
G01X61125Y200152D02*
G01X60970Y200101D01*
G01X60866Y199946D01*
G01X60815Y199684D01*
G01X60815Y199529D01*
G01X60866Y199270D01*
G01X60970Y199113D01*
G01X61125Y199062D01*
G01X61229Y199062D01*
G01X61386Y199113D01*
G01X61490Y199270D01*
G01X61541Y199529D01*
G01X61541Y199684D01*
G01X61490Y199946D01*
G01X61386Y200101D01*
G01X61229Y200152D01*
G01X61125Y200152D01*
G01X89154Y210566D02*
G01X89154Y209788D01*
G01X89204Y209631D01*
G01X89308Y209527D01*
G01X89466Y209476D01*
G01X89570Y209476D01*
G01X89725Y209527D01*
G01X89829Y209631D01*
G01X89880Y209788D01*
G01X89880Y210566D01*
G01X90276Y210306D02*
G01X90276Y210360D01*
G01X90327Y210464D01*
G01X90380Y210515D01*
G01X90484Y210566D01*
G01X90690Y210566D01*
G01X90794Y210515D01*
G01X90848Y210464D01*
G01X90898Y210360D01*
G01X90898Y210256D01*
G01X90848Y210151D01*
G01X90744Y209994D01*
G01X90223Y209476D01*
G01X90952Y209476D01*
G01X91295Y210360D02*
G01X91399Y210411D01*
G01X91554Y210566D01*
G01X91554Y209476D01*
G01X117487Y185305D02*
G01X118264Y185305D01*
G01X118422Y185356D01*
G01X118526Y185460D01*
G01X118577Y185618D01*
G01X118577Y185722D01*
G01X118526Y185877D01*
G01X118422Y185981D01*
G01X118264Y186032D01*
G01X117487Y186032D01*
G01X117746Y186428D02*
G01X117693Y186428D01*
G01X117589Y186479D01*
G01X117538Y186532D01*
G01X117487Y186636D01*
G01X117487Y186842D01*
G01X117538Y186946D01*
G01X117589Y186999D01*
G01X117693Y187050D01*
G01X117797Y187050D01*
G01X117901Y186999D01*
G01X118059Y186895D01*
G01X118577Y186375D01*
G01X118577Y187104D01*
G01X117746Y187497D02*
G01X117693Y187497D01*
G01X117589Y187551D01*
G01X117538Y187601D01*
G01X117487Y187706D01*
G01X117487Y187914D01*
G01X117538Y188018D01*
G01X117589Y188069D01*
G01X117693Y188122D01*
G01X117797Y188122D01*
G01X117901Y188069D01*
G01X118059Y187965D01*
G01X118577Y187446D01*
G01X118577Y188173D01*
G01X27432Y338582D02*
G01X27432Y337804D01*
G01X27482Y337647D01*
G01X27586Y337543D01*
G01X27744Y337492D01*
G01X27848Y337492D01*
G01X28003Y337543D01*
G01X28107Y337647D01*
G01X28158Y337804D01*
G01X28158Y338582D01*
G01X28554Y338322D02*
G01X28554Y338376D01*
G01X28605Y338480D01*
G01X28658Y338531D01*
G01X28762Y338582D01*
G01X28968Y338582D01*
G01X29072Y338531D01*
G01X29126Y338480D01*
G01X29176Y338376D01*
G01X29176Y338272D01*
G01X29126Y338167D01*
G01X29022Y338010D01*
G01X28501Y337492D01*
G01X29230Y337492D01*
G01X30195Y338427D02*
G01X30144Y338531D01*
G01X29987Y338582D01*
G01X29883Y338582D01*
G01X29728Y338531D01*
G01X29624Y338376D01*
G01X29573Y338114D01*
G01X29573Y337855D01*
G01X29624Y337647D01*
G01X29728Y337543D01*
G01X29883Y337492D01*
G01X29936Y337492D01*
G01X30091Y337543D01*
G01X30195Y337647D01*
G01X30248Y337804D01*
G01X30248Y337855D01*
G01X30195Y338010D01*
G01X30091Y338114D01*
G01X29936Y338167D01*
G01X29883Y338167D01*
G01X29728Y338114D01*
G01X29624Y338010D01*
G01X29573Y337855D01*
G01X77470Y326136D02*
G01X77470Y325358D01*
G01X77520Y325201D01*
G01X77624Y325097D01*
G01X77782Y325046D01*
G01X77886Y325046D01*
G01X78041Y325097D01*
G01X78145Y325201D01*
G01X78196Y325358D01*
G01X78196Y326136D01*
G01X78592Y325876D02*
G01X78592Y325930D01*
G01X78643Y326034D01*
G01X78696Y326085D01*
G01X78800Y326136D01*
G01X79006Y326136D01*
G01X79110Y326085D01*
G01X79164Y326034D01*
G01X79214Y325930D01*
G01X79214Y325826D01*
G01X79164Y325721D01*
G01X79060Y325564D01*
G01X78539Y325046D01*
G01X79268Y325046D01*
G01X80337Y326136D02*
G01X79819Y325046D01*
G01X79611Y326136D02*
G01X80337Y326136D01*
G01X119634Y328168D02*
G01X119634Y327390D01*
G01X119684Y327233D01*
G01X119788Y327129D01*
G01X119946Y327078D01*
G01X120050Y327078D01*
G01X120205Y327129D01*
G01X120309Y327233D01*
G01X120360Y327390D01*
G01X120360Y328168D01*
G01X120756Y327908D02*
G01X120756Y327962D01*
G01X120807Y328066D01*
G01X120860Y328117D01*
G01X120964Y328168D01*
G01X121170Y328168D01*
G01X121274Y328117D01*
G01X121328Y328066D01*
G01X121378Y327962D01*
G01X121378Y327858D01*
G01X121328Y327753D01*
G01X121224Y327596D01*
G01X120703Y327078D01*
G01X121432Y327078D01*
G01X122034Y328168D02*
G01X121879Y328117D01*
G01X121826Y328013D01*
G01X121826Y327908D01*
G01X121879Y327804D01*
G01X121983Y327753D01*
G01X122189Y327700D01*
G01X122346Y327649D01*
G01X122450Y327545D01*
G01X122501Y327441D01*
G01X122501Y327286D01*
G01X122450Y327182D01*
G01X122397Y327129D01*
G01X122242Y327078D01*
G01X122034Y327078D01*
G01X121879Y327129D01*
G01X121826Y327182D01*
G01X121775Y327286D01*
G01X121775Y327441D01*
G01X121826Y327545D01*
G01X121930Y327649D01*
G01X122085Y327700D01*
G01X122293Y327753D01*
G01X122397Y327804D01*
G01X122450Y327908D01*
G01X122450Y328013D01*
G01X122397Y328117D01*
G01X122242Y328168D01*
G01X122034Y328168D01*
G01X52070Y35306D02*
G01X52070Y34216D01*
G01X52070Y35306D02*
G01X52537Y35306D01*
G01X52692Y35255D01*
G01X52745Y35204D01*
G01X52796Y35100D01*
G01X52796Y34942D01*
G01X52745Y34838D01*
G01X52692Y34787D01*
G01X52537Y34734D01*
G01X52070Y34734D01*
G01X53451Y35306D02*
G01X53347Y35255D01*
G01X53243Y35151D01*
G01X53192Y35046D01*
G01X53139Y34891D01*
G01X53139Y34632D01*
G01X53192Y34475D01*
G01X53243Y34371D01*
G01X53347Y34267D01*
G01X53451Y34216D01*
G01X53660Y34216D01*
G01X53764Y34267D01*
G01X53868Y34371D01*
G01X53919Y34475D01*
G01X53972Y34632D01*
G01X53972Y34891D01*
G01X53919Y35046D01*
G01X53868Y35151D01*
G01X53764Y35255D01*
G01X53660Y35306D01*
G01X53451Y35306D01*
G01X8242Y125821D02*
G01X8242Y124731D01*
G01X8242Y124731D02*
G01X8864Y124731D01*
G01X9207Y125821D02*
G01X9207Y124731D01*
G01X9207Y125821D02*
G01X9624Y124731D01*
G01X10040Y125821D02*
G01X9624Y124731D01*
G01X10040Y125821D02*
G01X10040Y124731D01*
G01X11005Y125666D02*
G01X10955Y125770D01*
G01X10797Y125821D01*
G01X10693Y125821D01*
G01X10538Y125770D01*
G01X10434Y125615D01*
G01X10383Y125354D01*
G01X10383Y125094D01*
G01X10434Y124886D01*
G01X10538Y124782D01*
G01X10693Y124731D01*
G01X10746Y124731D01*
G01X10901Y124782D01*
G01X11005Y124886D01*
G01X11059Y125044D01*
G01X11059Y125094D01*
G01X11005Y125249D01*
G01X10901Y125354D01*
G01X10746Y125407D01*
G01X10693Y125407D01*
G01X10538Y125354D01*
G01X10434Y125249D01*
G01X10383Y125094D01*
G01X8496Y286552D02*
G01X8496Y285462D01*
G01X8496Y285462D02*
G01X9118Y285462D01*
G01X9461Y286552D02*
G01X9461Y285462D01*
G01X9461Y286552D02*
G01X9878Y285462D01*
G01X10294Y286552D02*
G01X9878Y285462D01*
G01X10294Y286552D02*
G01X10294Y285462D01*
G01X11364Y286552D02*
G01X10845Y285462D01*
G01X10637Y286552D02*
G01X11364Y286552D01*
G01X47861Y128524D02*
G01X47861Y127434D01*
G01X47498Y128524D02*
G01X48224Y128524D01*
G01X48567Y128524D02*
G01X49296Y127434D01*
G01X49296Y128524D02*
G01X48567Y127434D01*
G01X49949Y128524D02*
G01X49794Y128473D01*
G01X49690Y128318D01*
G01X49639Y128056D01*
G01X49639Y127901D01*
G01X49690Y127642D01*
G01X49794Y127485D01*
G01X49949Y127434D01*
G01X50053Y127434D01*
G01X50210Y127485D01*
G01X50314Y127642D01*
G01X50365Y127901D01*
G01X50365Y128056D01*
G01X50314Y128318D01*
G01X50210Y128473D01*
G01X50053Y128524D01*
G01X49949Y128524D01*
G01X50708Y127901D02*
G01X51643Y127901D01*
G01X52715Y128524D02*
G01X52194Y127434D01*
G01X51986Y128524D02*
G01X52715Y128524D01*
G54D26*
G01X51970Y125475D02*
G01X51970Y124658D01*
G01X51562Y125067D02*
G01X52379Y125067D01*
G01X47924Y107467D02*
G01X47881Y107558D01*
G01X47790Y107650D01*
G01X47698Y107696D01*
G01X47515Y107696D01*
G01X47426Y107650D01*
G01X47335Y107558D01*
G01X47289Y107467D01*
G01X47244Y107332D01*
G01X47244Y107104D01*
G01X47289Y106967D01*
G01X47335Y106878D01*
G01X47426Y106786D01*
G01X47515Y106740D01*
G01X47698Y106740D01*
G01X47790Y106786D01*
G01X47881Y106878D01*
G01X47924Y106967D01*
G01X47924Y107104D01*
G01X47698Y107104D02*
G01X47924Y107104D01*
G01X48226Y107696D02*
G01X48226Y106740D01*
G01X48226Y107696D02*
G01X48861Y106740D01*
G01X48861Y107696D02*
G01X48861Y106740D01*
G01X49161Y107696D02*
G01X49161Y106740D01*
G01X49161Y107696D02*
G01X49479Y107696D01*
G01X49616Y107650D01*
G01X49707Y107558D01*
G01X49753Y107467D01*
G01X49799Y107332D01*
G01X49799Y107104D01*
G01X49753Y106967D01*
G01X49707Y106878D01*
G01X49616Y106786D01*
G01X49479Y106740D01*
G01X49161Y106740D01*
G54D25*
G01X85090Y128524D02*
G01X85090Y127434D01*
G01X85090Y128524D02*
G01X85557Y128524D01*
G01X85712Y128473D01*
G01X85765Y128422D01*
G01X85816Y128318D01*
G01X85816Y128214D01*
G01X85765Y128109D01*
G01X85712Y128056D01*
G01X85557Y128005D01*
G01X85090Y128005D01*
G01X85453Y128005D02*
G01X85816Y127434D01*
G01X86888Y128369D02*
G01X86784Y128473D01*
G01X86626Y128524D01*
G01X86420Y128524D01*
G01X86263Y128473D01*
G01X86159Y128369D01*
G01X86159Y128264D01*
G01X86212Y128160D01*
G01X86263Y128109D01*
G01X86367Y128056D01*
G01X86680Y127952D01*
G01X86784Y127901D01*
G01X86834Y127850D01*
G01X86888Y127746D01*
G01X86888Y127589D01*
G01X86784Y127485D01*
G01X86626Y127434D01*
G01X86420Y127434D01*
G01X86263Y127485D01*
G01X86159Y127589D01*
G01X87594Y128524D02*
G01X87594Y127434D01*
G01X87231Y128524D02*
G01X87957Y128524D01*
G01X88612Y128524D02*
G01X88455Y128473D01*
G01X88353Y128318D01*
G01X88300Y128056D01*
G01X88300Y127901D01*
G01X88353Y127642D01*
G01X88455Y127485D01*
G01X88612Y127434D01*
G01X88717Y127434D01*
G01X88872Y127485D01*
G01X88976Y127642D01*
G01X89027Y127901D01*
G01X89027Y128056D01*
G01X88976Y128318D01*
G01X88872Y128473D01*
G01X88717Y128524D01*
G01X88612Y128524D01*
G01X89369Y127901D02*
G01X90307Y127901D01*
G01X91376Y128524D02*
G01X90855Y127434D01*
G01X90650Y128524D02*
G01X91376Y128524D01*
G54D26*
G01X90324Y125475D02*
G01X90324Y124658D01*
G01X89916Y125067D02*
G01X90733Y125067D01*
G01X86278Y107467D02*
G01X86235Y107558D01*
G01X86144Y107650D01*
G01X86052Y107696D01*
G01X85869Y107696D01*
G01X85780Y107650D01*
G01X85689Y107558D01*
G01X85643Y107467D01*
G01X85598Y107332D01*
G01X85598Y107104D01*
G01X85643Y106967D01*
G01X85689Y106878D01*
G01X85780Y106786D01*
G01X85869Y106740D01*
G01X86052Y106740D01*
G01X86144Y106786D01*
G01X86235Y106878D01*
G01X86278Y106967D01*
G01X86278Y107104D01*
G01X86052Y107104D02*
G01X86278Y107104D01*
G01X86580Y107696D02*
G01X86580Y106740D01*
G01X86580Y107696D02*
G01X87215Y106740D01*
G01X87215Y107696D02*
G01X87215Y106740D01*
G01X87515Y107696D02*
G01X87515Y106740D01*
G01X87515Y107696D02*
G01X87833Y107696D01*
G01X87970Y107650D01*
G01X88061Y107558D01*
G01X88107Y107467D01*
G01X88153Y107332D01*
G01X88153Y107104D01*
G01X88107Y106967D01*
G01X88061Y106878D01*
G01X87970Y106786D01*
G01X87833Y106740D01*
G01X87515Y106740D01*
G54D25*
G01X24638Y294386D02*
G01X24638Y293608D01*
G01X24688Y293451D01*
G01X24792Y293347D01*
G01X24950Y293296D01*
G01X25054Y293296D01*
G01X25209Y293347D01*
G01X25313Y293451D01*
G01X25364Y293608D01*
G01X25364Y294386D01*
G01X25707Y294180D02*
G01X25811Y294231D01*
G01X25968Y294386D01*
G01X25968Y293296D01*
G01X26934Y294231D02*
G01X26883Y294335D01*
G01X26725Y294386D01*
G01X26621Y294386D01*
G01X26466Y294335D01*
G01X26362Y294180D01*
G01X26311Y293918D01*
G01X26311Y293659D01*
G01X26362Y293451D01*
G01X26466Y293347D01*
G01X26621Y293296D01*
G01X26675Y293296D01*
G01X26830Y293347D01*
G01X26934Y293451D01*
G01X26987Y293608D01*
G01X26987Y293659D01*
G01X26934Y293814D01*
G01X26830Y293918D01*
G01X26675Y293972D01*
G01X26621Y293972D01*
G01X26466Y293918D01*
G01X26362Y293814D01*
G01X26311Y293659D01*
G54D26*
G01X24216Y275081D02*
G01X24216Y275925D01*
G01X24638Y275503D02*
G01X23794Y275503D01*
G01X27744Y290756D02*
G01X27790Y290662D01*
G01X27884Y290568D01*
G01X27978Y290520D01*
G01X28166Y290520D01*
G01X28260Y290568D01*
G01X28354Y290662D01*
G01X28402Y290756D01*
G01X28448Y290896D01*
G01X28448Y291129D01*
G01X28402Y291271D01*
G01X28354Y291365D01*
G01X28260Y291459D01*
G01X28166Y291505D01*
G01X27978Y291505D01*
G01X27884Y291459D01*
G01X27790Y291365D01*
G01X27744Y291271D01*
G01X27744Y291129D01*
G01X27978Y291129D02*
G01X27744Y291129D01*
G01X27434Y290520D02*
G01X27434Y291505D01*
G01X27434Y290520D02*
G01X26779Y291505D01*
G01X26779Y290520D02*
G01X26779Y291505D01*
G01X26469Y290520D02*
G01X26469Y291505D01*
G01X26469Y290520D02*
G01X26139Y290520D01*
G01X25999Y290568D01*
G01X25905Y290662D01*
G01X25859Y290756D01*
G01X25811Y290896D01*
G01X25811Y291129D01*
G01X25859Y291271D01*
G01X25905Y291365D01*
G01X25999Y291459D01*
G01X26139Y291505D01*
G01X26469Y291505D01*
G54D25*
G01X85090Y296671D02*
G01X85090Y295582D01*
G01X85090Y296671D02*
G01X85557Y296671D01*
G01X85712Y296621D01*
G01X85765Y296570D01*
G01X85816Y296466D01*
G01X85816Y296362D01*
G01X85765Y296257D01*
G01X85712Y296204D01*
G01X85557Y296153D01*
G01X85090Y296153D01*
G01X85453Y296153D02*
G01X85816Y295582D01*
G01X86888Y296517D02*
G01X86784Y296621D01*
G01X86626Y296671D01*
G01X86420Y296671D01*
G01X86263Y296621D01*
G01X86159Y296517D01*
G01X86159Y296412D01*
G01X86212Y296308D01*
G01X86263Y296257D01*
G01X86367Y296204D01*
G01X86680Y296100D01*
G01X86784Y296049D01*
G01X86834Y295998D01*
G01X86888Y295894D01*
G01X86888Y295737D01*
G01X86784Y295633D01*
G01X86626Y295582D01*
G01X86420Y295582D01*
G01X86263Y295633D01*
G01X86159Y295737D01*
G01X87594Y296671D02*
G01X87594Y295582D01*
G01X87231Y296671D02*
G01X87957Y296671D01*
G01X88559Y296671D02*
G01X88404Y296621D01*
G01X88353Y296517D01*
G01X88353Y296412D01*
G01X88404Y296308D01*
G01X88508Y296257D01*
G01X88717Y296204D01*
G01X88872Y296153D01*
G01X88976Y296049D01*
G01X89027Y295945D01*
G01X89027Y295790D01*
G01X88976Y295686D01*
G01X88925Y295633D01*
G01X88767Y295582D01*
G01X88559Y295582D01*
G01X88404Y295633D01*
G01X88353Y295686D01*
G01X88300Y295790D01*
G01X88300Y295945D01*
G01X88353Y296049D01*
G01X88455Y296153D01*
G01X88612Y296204D01*
G01X88821Y296257D01*
G01X88925Y296308D01*
G01X88976Y296412D01*
G01X88976Y296517D01*
G01X88925Y296621D01*
G01X88767Y296671D01*
G01X88559Y296671D01*
G01X89369Y296049D02*
G01X90307Y296049D01*
G01X90650Y296466D02*
G01X90754Y296517D01*
G01X90909Y296671D01*
G01X90909Y295582D01*
G01X91770Y296671D02*
G01X91252Y295945D01*
G01X92031Y295945D01*
G01X91770Y296671D02*
G01X91770Y295582D01*
G54D26*
G01X90324Y293623D02*
G01X90324Y292806D01*
G01X89916Y293215D02*
G01X90733Y293215D01*
G01X86278Y275615D02*
G01X86235Y275706D01*
G01X86144Y275798D01*
G01X86052Y275844D01*
G01X85869Y275844D01*
G01X85780Y275798D01*
G01X85689Y275706D01*
G01X85643Y275615D01*
G01X85598Y275480D01*
G01X85598Y275252D01*
G01X85643Y275115D01*
G01X85689Y275026D01*
G01X85780Y274934D01*
G01X85869Y274888D01*
G01X86052Y274888D01*
G01X86144Y274934D01*
G01X86235Y275026D01*
G01X86278Y275115D01*
G01X86278Y275252D01*
G01X86052Y275252D02*
G01X86278Y275252D01*
G01X86580Y275844D02*
G01X86580Y274888D01*
G01X86580Y275844D02*
G01X87215Y274888D01*
G01X87215Y275844D02*
G01X87215Y274888D01*
G01X87515Y275844D02*
G01X87515Y274888D01*
G01X87515Y275844D02*
G01X87833Y275844D01*
G01X87970Y275798D01*
G01X88061Y275706D01*
G01X88107Y275615D01*
G01X88153Y275480D01*
G01X88153Y275252D01*
G01X88107Y275115D01*
G01X88061Y275026D01*
G01X87970Y274934D01*
G01X87833Y274888D01*
G01X87515Y274888D01*
G54D25*
G01X44813Y296671D02*
G01X44813Y295582D01*
G01X44450Y296671D02*
G01X45176Y296671D01*
G01X45519Y296671D02*
G01X46248Y295582D01*
G01X46248Y296671D02*
G01X45519Y295582D01*
G01X46850Y296671D02*
G01X46695Y296621D01*
G01X46642Y296517D01*
G01X46642Y296412D01*
G01X46695Y296308D01*
G01X46799Y296257D01*
G01X47005Y296204D01*
G01X47162Y296153D01*
G01X47266Y296049D01*
G01X47317Y295945D01*
G01X47317Y295790D01*
G01X47266Y295686D01*
G01X47213Y295633D01*
G01X47058Y295582D01*
G01X46850Y295582D01*
G01X46695Y295633D01*
G01X46642Y295686D01*
G01X46591Y295790D01*
G01X46591Y295945D01*
G01X46642Y296049D01*
G01X46746Y296153D01*
G01X46901Y296204D01*
G01X47109Y296257D01*
G01X47213Y296308D01*
G01X47266Y296412D01*
G01X47266Y296517D01*
G01X47213Y296621D01*
G01X47058Y296671D01*
G01X46850Y296671D01*
G01X47660Y296049D02*
G01X48595Y296049D01*
G01X48938Y296466D02*
G01X49042Y296517D01*
G01X49199Y296671D01*
G01X49199Y295582D01*
G01X50060Y296671D02*
G01X49542Y295945D01*
G01X50319Y295945D01*
G01X50060Y296671D02*
G01X50060Y295582D01*
G54D26*
G01X49430Y293623D02*
G01X49430Y292806D01*
G01X49022Y293215D02*
G01X49839Y293215D01*
G01X45384Y275615D02*
G01X45341Y275706D01*
G01X45250Y275798D01*
G01X45158Y275844D01*
G01X44975Y275844D01*
G01X44886Y275798D01*
G01X44795Y275706D01*
G01X44749Y275615D01*
G01X44704Y275480D01*
G01X44704Y275252D01*
G01X44749Y275115D01*
G01X44795Y275026D01*
G01X44886Y274934D01*
G01X44975Y274888D01*
G01X45158Y274888D01*
G01X45250Y274934D01*
G01X45341Y275026D01*
G01X45384Y275115D01*
G01X45384Y275252D01*
G01X45158Y275252D02*
G01X45384Y275252D01*
G01X45686Y275844D02*
G01X45686Y274888D01*
G01X45686Y275844D02*
G01X46321Y274888D01*
G01X46321Y275844D02*
G01X46321Y274888D01*
G01X46621Y275844D02*
G01X46621Y274888D01*
G01X46621Y275844D02*
G01X46939Y275844D01*
G01X47076Y275798D01*
G01X47167Y275706D01*
G01X47213Y275615D01*
G01X47259Y275480D01*
G01X47259Y275252D01*
G01X47213Y275115D01*
G01X47167Y275026D01*
G01X47076Y274934D01*
G01X46939Y274888D01*
G01X46621Y274888D01*
G54D25*
G01X52478Y206954D02*
G01X52374Y206849D01*
G01X52324Y206695D01*
G01X52324Y206486D01*
G01X52374Y206331D01*
G01X52478Y206227D01*
G01X52583Y206227D01*
G01X52687Y206278D01*
G01X52738Y206331D01*
G01X52791Y206435D01*
G01X52895Y206748D01*
G01X52946Y206849D01*
G01X52997Y206903D01*
G01X53101Y206954D01*
G01X53258Y206954D01*
G01X53362Y206849D01*
G01X53413Y206695D01*
G01X53413Y206486D01*
G01X53362Y206331D01*
G01X53258Y206227D01*
G01X52324Y207401D02*
G01X52324Y207972D01*
G01X52738Y207662D01*
G01X52738Y207817D01*
G01X52791Y207921D01*
G01X52842Y207972D01*
G01X52997Y208025D01*
G01X53101Y208025D01*
G01X53258Y207972D01*
G01X53362Y207868D01*
G01X53413Y207713D01*
G01X53413Y207558D01*
G01X53362Y207401D01*
G01X53309Y207350D01*
G01X53205Y207296D01*
G01X91658Y198841D02*
G01X91554Y198945D01*
G01X91399Y198996D01*
G01X91191Y198996D01*
G01X91036Y198945D01*
G01X90932Y198841D01*
G01X90932Y198737D01*
G01X90982Y198633D01*
G01X91036Y198582D01*
G01X91140Y198528D01*
G01X91452Y198424D01*
G01X91554Y198374D01*
G01X91607Y198323D01*
G01X91658Y198219D01*
G01X91658Y198061D01*
G01X91554Y197957D01*
G01X91399Y197906D01*
G01X91191Y197906D01*
G01X91036Y197957D01*
G01X90932Y198061D01*
G01X92522Y198996D02*
G01X92001Y198269D01*
G01X92781Y198269D01*
G01X92522Y198996D02*
G01X92522Y197906D01*
G01X37338Y221160D02*
G01X38427Y221160D01*
G01X37338Y221160D02*
G01X37338Y221627D01*
G01X37388Y221782D01*
G01X37439Y221835D01*
G01X37543Y221886D01*
G01X37647Y221886D01*
G01X37752Y221835D01*
G01X37805Y221782D01*
G01X37856Y221627D01*
G01X37856Y221160D01*
G01X37856Y221523D02*
G01X38427Y221886D01*
G01X37338Y222750D02*
G01X38064Y222229D01*
G01X38064Y223009D01*
G01X37338Y222750D02*
G01X38427Y222750D01*
G01X37701Y224027D02*
G01X37856Y223977D01*
G01X37960Y223873D01*
G01X38011Y223715D01*
G01X38011Y223664D01*
G01X37960Y223509D01*
G01X37856Y223405D01*
G01X37701Y223352D01*
G01X37647Y223352D01*
G01X37492Y223405D01*
G01X37388Y223509D01*
G01X37338Y223664D01*
G01X37338Y223715D01*
G01X37388Y223873D01*
G01X37492Y223977D01*
G01X37701Y224027D01*
G01X37960Y224027D01*
G01X38219Y223977D01*
G01X38376Y223873D01*
G01X38427Y223715D01*
G01X38427Y223611D01*
G01X38376Y223456D01*
G01X38272Y223405D01*
G01X77101Y190131D02*
G01X78191Y190131D01*
G01X77101Y190131D02*
G01X77101Y190599D01*
G01X77152Y190754D01*
G01X77203Y190807D01*
G01X77307Y190858D01*
G01X77411Y190858D01*
G01X77515Y190807D01*
G01X77569Y190754D01*
G01X77619Y190599D01*
G01X77619Y190131D01*
G01X77619Y190494D02*
G01X78191Y190858D01*
G01X77101Y191825D02*
G01X77101Y191305D01*
G01X77569Y191254D01*
G01X77515Y191305D01*
G01X77464Y191462D01*
G01X77464Y191617D01*
G01X77515Y191772D01*
G01X77619Y191876D01*
G01X77774Y191930D01*
G01X77878Y191930D01*
G01X78036Y191876D01*
G01X78140Y191772D01*
G01X78191Y191617D01*
G01X78191Y191462D01*
G01X78140Y191305D01*
G01X78087Y191254D01*
G01X77983Y191201D01*
G01X77101Y192582D02*
G01X77152Y192427D01*
G01X77307Y192323D01*
G01X77569Y192272D01*
G01X77724Y192272D01*
G01X77983Y192323D01*
G01X78140Y192427D01*
G01X78191Y192582D01*
G01X78191Y192686D01*
G01X78140Y192844D01*
G01X77983Y192948D01*
G01X77724Y192999D01*
G01X77569Y192999D01*
G01X77307Y192948D01*
G01X77152Y192844D01*
G01X77101Y192686D01*
G01X77101Y192582D01*
G01X111391Y219849D02*
G01X112481Y219849D01*
G01X111391Y219849D02*
G01X111391Y220317D01*
G01X111442Y220472D01*
G01X111493Y220525D01*
G01X111597Y220576D01*
G01X111701Y220576D01*
G01X111805Y220525D01*
G01X111859Y220472D01*
G01X111909Y220317D01*
G01X111909Y219849D01*
G01X111909Y220212D02*
G01X112481Y220576D01*
G01X111391Y221543D02*
G01X111391Y221023D01*
G01X111859Y220972D01*
G01X111805Y221023D01*
G01X111754Y221180D01*
G01X111754Y221335D01*
G01X111805Y221490D01*
G01X111909Y221594D01*
G01X112064Y221648D01*
G01X112168Y221648D01*
G01X112326Y221594D01*
G01X112430Y221490D01*
G01X112481Y221335D01*
G01X112481Y221180D01*
G01X112430Y221023D01*
G01X112377Y220972D01*
G01X112273Y220919D01*
G01X111597Y221990D02*
G01X111546Y222095D01*
G01X111391Y222250D01*
G01X112481Y222250D01*
G01X34937Y305447D02*
G01X36027Y305447D01*
G01X34937Y305447D02*
G01X34937Y305915D01*
G01X34988Y306070D01*
G01X35039Y306123D01*
G01X35143Y306174D01*
G01X35247Y306174D01*
G01X35351Y306123D01*
G01X35405Y306070D01*
G01X35455Y305915D01*
G01X35455Y305447D01*
G01X35455Y305810D02*
G01X36027Y306174D01*
G01X34937Y307141D02*
G01X34937Y306621D01*
G01X35405Y306570D01*
G01X35351Y306621D01*
G01X35300Y306778D01*
G01X35300Y306933D01*
G01X35351Y307088D01*
G01X35455Y307192D01*
G01X35610Y307246D01*
G01X35714Y307246D01*
G01X35872Y307192D01*
G01X35976Y307088D01*
G01X36027Y306933D01*
G01X36027Y306778D01*
G01X35976Y306621D01*
G01X35923Y306570D01*
G01X35819Y306517D01*
G01X34937Y308211D02*
G01X34937Y307693D01*
G01X35405Y307639D01*
G01X35351Y307693D01*
G01X35300Y307848D01*
G01X35300Y308002D01*
G01X35351Y308160D01*
G01X35455Y308264D01*
G01X35610Y308315D01*
G01X35714Y308315D01*
G01X35872Y308264D01*
G01X35976Y308160D01*
G01X36027Y308002D01*
G01X36027Y307848D01*
G01X35976Y307693D01*
G01X35923Y307639D01*
G01X35819Y307588D01*
G01X53594Y325351D02*
G01X54683Y325351D01*
G01X53594Y325351D02*
G01X53594Y325818D01*
G01X53644Y325973D01*
G01X53695Y326026D01*
G01X53799Y326077D01*
G01X53903Y326077D01*
G01X54008Y326026D01*
G01X54061Y325973D01*
G01X54112Y325818D01*
G01X54112Y325351D01*
G01X54112Y325714D02*
G01X54683Y326077D01*
G01X53594Y327045D02*
G01X53594Y326524D01*
G01X54061Y326473D01*
G01X54008Y326524D01*
G01X53957Y326682D01*
G01X53957Y326837D01*
G01X54008Y326991D01*
G01X54112Y327096D01*
G01X54267Y327149D01*
G01X54371Y327149D01*
G01X54528Y327096D01*
G01X54632Y326991D01*
G01X54683Y326837D01*
G01X54683Y326682D01*
G01X54632Y326524D01*
G01X54579Y326473D01*
G01X54475Y326420D01*
G01X53748Y328114D02*
G01X53644Y328063D01*
G01X53594Y327906D01*
G01X53594Y327802D01*
G01X53644Y327647D01*
G01X53799Y327543D01*
G01X54061Y327492D01*
G01X54320Y327492D01*
G01X54528Y327543D01*
G01X54632Y327647D01*
G01X54683Y327802D01*
G01X54683Y327855D01*
G01X54632Y328010D01*
G01X54528Y328114D01*
G01X54371Y328167D01*
G01X54320Y328167D01*
G01X54165Y328114D01*
G01X54061Y328010D01*
G01X54008Y327855D01*
G01X54008Y327802D01*
G01X54061Y327647D01*
G01X54165Y327543D01*
G01X54320Y327492D01*
G01X93586Y310174D02*
G01X93586Y309085D01*
G01X93586Y310174D02*
G01X94053Y310174D01*
G01X94208Y310123D01*
G01X94261Y310073D01*
G01X94312Y309968D01*
G01X94312Y309864D01*
G01X94261Y309760D01*
G01X94208Y309707D01*
G01X94053Y309656D01*
G01X93586Y309656D01*
G01X93949Y309656D02*
G01X94312Y309085D01*
G01X95280Y310174D02*
G01X94759Y310174D01*
G01X94709Y309707D01*
G01X94759Y309760D01*
G01X94917Y309811D01*
G01X95072Y309811D01*
G01X95227Y309760D01*
G01X95331Y309656D01*
G01X95384Y309501D01*
G01X95384Y309397D01*
G01X95331Y309239D01*
G01X95227Y309135D01*
G01X95072Y309085D01*
G01X94917Y309085D01*
G01X94759Y309135D01*
G01X94709Y309189D01*
G01X94655Y309293D01*
G01X96454Y310174D02*
G01X95935Y309085D01*
G01X95727Y310174D02*
G01X96454Y310174D01*
G01X37223Y218325D02*
G01X38313Y218325D01*
G01X37223Y218325D02*
G01X37223Y218793D01*
G01X37274Y218948D01*
G01X37325Y219001D01*
G01X37429Y219052D01*
G01X37533Y219052D01*
G01X37637Y219001D01*
G01X37691Y218948D01*
G01X37741Y218793D01*
G01X37741Y218325D01*
G01X37741Y218688D02*
G01X38313Y219052D01*
G01X37378Y220019D02*
G01X37274Y219966D01*
G01X37223Y219811D01*
G01X37223Y219707D01*
G01X37274Y219552D01*
G01X37429Y219448D01*
G01X37691Y219395D01*
G01X37950Y219395D01*
G01X38158Y219448D01*
G01X38262Y219552D01*
G01X38313Y219707D01*
G01X38313Y219760D01*
G01X38262Y219915D01*
G01X38158Y220019D01*
G01X38000Y220070D01*
G01X37950Y220070D01*
G01X37795Y220019D01*
G01X37691Y219915D01*
G01X37637Y219760D01*
G01X37637Y219707D01*
G01X37691Y219552D01*
G01X37795Y219448D01*
G01X37950Y219395D01*
G01X37223Y220934D02*
G01X37950Y220413D01*
G01X37950Y221193D01*
G01X37223Y220934D02*
G01X38313Y220934D01*
G01X77101Y187083D02*
G01X78191Y187083D01*
G01X77101Y187083D02*
G01X77101Y187551D01*
G01X77152Y187706D01*
G01X77203Y187759D01*
G01X77307Y187810D01*
G01X77411Y187810D01*
G01X77515Y187759D01*
G01X77569Y187706D01*
G01X77619Y187551D01*
G01X77619Y187083D01*
G01X77619Y187446D02*
G01X78191Y187810D01*
G01X77256Y188777D02*
G01X77152Y188724D01*
G01X77101Y188569D01*
G01X77101Y188465D01*
G01X77152Y188310D01*
G01X77307Y188206D01*
G01X77569Y188153D01*
G01X77828Y188153D01*
G01X78036Y188206D01*
G01X78140Y188310D01*
G01X78191Y188465D01*
G01X78191Y188518D01*
G01X78140Y188673D01*
G01X78036Y188777D01*
G01X77878Y188828D01*
G01X77828Y188828D01*
G01X77673Y188777D01*
G01X77569Y188673D01*
G01X77515Y188518D01*
G01X77515Y188465D01*
G01X77569Y188310D01*
G01X77673Y188206D01*
G01X77828Y188153D01*
G01X77101Y189796D02*
G01X77101Y189275D01*
G01X77569Y189224D01*
G01X77515Y189275D01*
G01X77464Y189433D01*
G01X77464Y189588D01*
G01X77515Y189743D01*
G01X77619Y189847D01*
G01X77774Y189900D01*
G01X77878Y189900D01*
G01X78036Y189847D01*
G01X78140Y189743D01*
G01X78191Y189588D01*
G01X78191Y189433D01*
G01X78140Y189275D01*
G01X78087Y189224D01*
G01X77983Y189171D01*
G01X111391Y222897D02*
G01X112481Y222897D01*
G01X111391Y222897D02*
G01X111391Y223365D01*
G01X111442Y223520D01*
G01X111493Y223573D01*
G01X111597Y223624D01*
G01X111701Y223624D01*
G01X111805Y223573D01*
G01X111859Y223520D01*
G01X111909Y223365D01*
G01X111909Y222897D01*
G01X111909Y223260D02*
G01X112481Y223624D01*
G01X111546Y224591D02*
G01X111442Y224538D01*
G01X111391Y224383D01*
G01X111391Y224279D01*
G01X111442Y224124D01*
G01X111597Y224020D01*
G01X111859Y223967D01*
G01X112118Y223967D01*
G01X112326Y224020D01*
G01X112430Y224124D01*
G01X112481Y224279D01*
G01X112481Y224332D01*
G01X112430Y224487D01*
G01X112326Y224591D01*
G01X112168Y224642D01*
G01X112118Y224642D01*
G01X111963Y224591D01*
G01X111859Y224487D01*
G01X111805Y224332D01*
G01X111805Y224279D01*
G01X111859Y224124D01*
G01X111963Y224020D01*
G01X112118Y223967D01*
G01X111546Y225610D02*
G01X111442Y225557D01*
G01X111391Y225402D01*
G01X111391Y225298D01*
G01X111442Y225143D01*
G01X111597Y225038D01*
G01X111859Y224985D01*
G01X112118Y224985D01*
G01X112326Y225038D01*
G01X112430Y225143D01*
G01X112481Y225298D01*
G01X112481Y225348D01*
G01X112430Y225506D01*
G01X112326Y225610D01*
G01X112168Y225661D01*
G01X112118Y225661D01*
G01X111963Y225610D01*
G01X111859Y225506D01*
G01X111805Y225348D01*
G01X111805Y225298D01*
G01X111859Y225143D01*
G01X111963Y225038D01*
G01X112118Y224985D01*
G01X35052Y301424D02*
G01X36141Y301424D01*
G01X35052Y301424D02*
G01X35052Y301891D01*
G01X35102Y302046D01*
G01X35153Y302099D01*
G01X35257Y302150D01*
G01X35361Y302150D01*
G01X35466Y302099D01*
G01X35519Y302046D01*
G01X35570Y301891D01*
G01X35570Y301424D01*
G01X35570Y301787D02*
G01X36141Y302150D01*
G01X35052Y303222D02*
G01X36141Y302701D01*
G01X35052Y302493D02*
G01X35052Y303222D01*
G01X35052Y303875D02*
G01X35102Y303720D01*
G01X35257Y303616D01*
G01X35519Y303565D01*
G01X35674Y303565D01*
G01X35933Y303616D01*
G01X36090Y303720D01*
G01X36141Y303875D01*
G01X36141Y303979D01*
G01X36090Y304137D01*
G01X35933Y304241D01*
G01X35674Y304292D01*
G01X35519Y304292D01*
G01X35257Y304241D01*
G01X35102Y304137D01*
G01X35052Y303979D01*
G01X35052Y303875D01*
G01X82943Y313436D02*
G01X84033Y313436D01*
G01X82943Y313436D02*
G01X82943Y313903D01*
G01X82994Y314058D01*
G01X83045Y314111D01*
G01X83149Y314162D01*
G01X83253Y314162D01*
G01X83357Y314111D01*
G01X83411Y314058D01*
G01X83461Y313903D01*
G01X83461Y313436D01*
G01X83461Y313799D02*
G01X84033Y314162D01*
G01X82943Y315234D02*
G01X84033Y314713D01*
G01X82943Y314505D02*
G01X82943Y315234D01*
G01X83149Y315577D02*
G01X83098Y315681D01*
G01X82943Y315836D01*
G01X84033Y315836D01*
G01X90170Y310388D02*
G01X90170Y309298D01*
G01X90170Y310388D02*
G01X90637Y310388D01*
G01X90792Y310337D01*
G01X90845Y310286D01*
G01X90896Y310182D01*
G01X90896Y310078D01*
G01X90845Y309974D01*
G01X90792Y309920D01*
G01X90637Y309869D01*
G01X90170Y309869D01*
G01X90533Y309869D02*
G01X90896Y309298D01*
G01X91968Y310388D02*
G01X91447Y309298D01*
G01X91239Y310388D02*
G01X91968Y310388D01*
G01X92362Y310128D02*
G01X92362Y310182D01*
G01X92415Y310286D01*
G01X92466Y310337D01*
G01X92570Y310388D01*
G01X92778Y310388D01*
G01X92882Y310337D01*
G01X92933Y310286D01*
G01X92986Y310182D01*
G01X92986Y310078D01*
G01X92933Y309974D01*
G01X92829Y309816D01*
G01X92311Y309298D01*
G01X93037Y309298D01*
G01X100583Y192278D02*
G01X100583Y191188D01*
G01X100583Y192278D02*
G01X101051Y192278D01*
G01X101206Y192227D01*
G01X101259Y192176D01*
G01X101310Y192072D01*
G01X101310Y191968D01*
G01X101259Y191863D01*
G01X101206Y191810D01*
G01X101051Y191759D01*
G01X100583Y191759D01*
G01X100947Y191759D02*
G01X101310Y191188D01*
G01X102382Y192278D02*
G01X101861Y191188D01*
G01X101653Y192278D02*
G01X102382Y192278D01*
G01X103400Y191914D02*
G01X103347Y191759D01*
G01X103243Y191655D01*
G01X103088Y191604D01*
G01X103035Y191604D01*
G01X102880Y191655D01*
G01X102775Y191759D01*
G01X102725Y191914D01*
G01X102725Y191968D01*
G01X102775Y192123D01*
G01X102880Y192227D01*
G01X103035Y192278D01*
G01X103088Y192278D01*
G01X103243Y192227D01*
G01X103347Y192123D01*
G01X103400Y191914D01*
G01X103400Y191655D01*
G01X103347Y191396D01*
G01X103243Y191239D01*
G01X103088Y191188D01*
G01X102984Y191188D01*
G01X102829Y191239D01*
G01X102775Y191343D01*
G01X77101Y183781D02*
G01X78191Y183781D01*
G01X77101Y183781D02*
G01X77101Y184249D01*
G01X77152Y184404D01*
G01X77203Y184457D01*
G01X77307Y184508D01*
G01X77411Y184508D01*
G01X77515Y184457D01*
G01X77569Y184404D01*
G01X77619Y184249D01*
G01X77619Y183781D01*
G01X77619Y184144D02*
G01X78191Y184508D01*
G01X77101Y185112D02*
G01X77152Y184955D01*
G01X77256Y184904D01*
G01X77360Y184904D01*
G01X77464Y184955D01*
G01X77515Y185059D01*
G01X77569Y185267D01*
G01X77619Y185422D01*
G01X77724Y185526D01*
G01X77828Y185580D01*
G01X77983Y185580D01*
G01X78087Y185526D01*
G01X78140Y185475D01*
G01X78191Y185318D01*
G01X78191Y185112D01*
G01X78140Y184955D01*
G01X78087Y184904D01*
G01X77983Y184851D01*
G01X77828Y184851D01*
G01X77724Y184904D01*
G01X77619Y185008D01*
G01X77569Y185163D01*
G01X77515Y185371D01*
G01X77464Y185475D01*
G01X77360Y185526D01*
G01X77256Y185526D01*
G01X77152Y185475D01*
G01X77101Y185318D01*
G01X77101Y185112D01*
G01X77101Y186232D02*
G01X77152Y186077D01*
G01X77307Y185973D01*
G01X77569Y185922D01*
G01X77724Y185922D01*
G01X77983Y185973D01*
G01X78140Y186077D01*
G01X78191Y186232D01*
G01X78191Y186336D01*
G01X78140Y186494D01*
G01X77983Y186598D01*
G01X77724Y186649D01*
G01X77569Y186649D01*
G01X77307Y186598D01*
G01X77152Y186494D01*
G01X77101Y186336D01*
G01X77101Y186232D01*
G01X37223Y215785D02*
G01X38313Y215785D01*
G01X37223Y215785D02*
G01X37223Y216253D01*
G01X37274Y216408D01*
G01X37325Y216461D01*
G01X37429Y216512D01*
G01X37533Y216512D01*
G01X37637Y216461D01*
G01X37691Y216408D01*
G01X37741Y216253D01*
G01X37741Y215785D01*
G01X37741Y216148D02*
G01X38313Y216512D01*
G01X37223Y217116D02*
G01X37274Y216959D01*
G01X37378Y216908D01*
G01X37482Y216908D01*
G01X37586Y216959D01*
G01X37637Y217063D01*
G01X37691Y217271D01*
G01X37741Y217426D01*
G01X37846Y217530D01*
G01X37950Y217584D01*
G01X38105Y217584D01*
G01X38209Y217530D01*
G01X38262Y217479D01*
G01X38313Y217322D01*
G01X38313Y217116D01*
G01X38262Y216959D01*
G01X38209Y216908D01*
G01X38105Y216855D01*
G01X37950Y216855D01*
G01X37846Y216908D01*
G01X37741Y217012D01*
G01X37691Y217167D01*
G01X37637Y217375D01*
G01X37586Y217479D01*
G01X37482Y217530D01*
G01X37378Y217530D01*
G01X37274Y217479D01*
G01X37223Y217322D01*
G01X37223Y217116D01*
G01X37429Y217926D02*
G01X37378Y218031D01*
G01X37223Y218186D01*
G01X38313Y218186D01*
G01X97536Y307340D02*
G01X97536Y306250D01*
G01X97536Y307340D02*
G01X98003Y307340D01*
G01X98158Y307289D01*
G01X98211Y307238D01*
G01X98262Y307134D01*
G01X98262Y307030D01*
G01X98211Y306925D01*
G01X98158Y306872D01*
G01X98003Y306821D01*
G01X97536Y306821D01*
G01X97899Y306821D02*
G01X98262Y306250D01*
G01X98866Y307340D02*
G01X98709Y307289D01*
G01X98658Y307185D01*
G01X98658Y307080D01*
G01X98709Y306976D01*
G01X98813Y306925D01*
G01X99021Y306872D01*
G01X99176Y306821D01*
G01X99280Y306717D01*
G01X99334Y306613D01*
G01X99334Y306458D01*
G01X99280Y306354D01*
G01X99230Y306301D01*
G01X99072Y306250D01*
G01X98866Y306250D01*
G01X98709Y306301D01*
G01X98658Y306354D01*
G01X98605Y306458D01*
G01X98605Y306613D01*
G01X98658Y306717D01*
G01X98762Y306821D01*
G01X98917Y306872D01*
G01X99126Y306925D01*
G01X99230Y306976D01*
G01X99280Y307080D01*
G01X99280Y307185D01*
G01X99230Y307289D01*
G01X99072Y307340D01*
G01X98866Y307340D01*
G01X100299Y307340D02*
G01X99781Y307340D01*
G01X99728Y306872D01*
G01X99781Y306925D01*
G01X99936Y306976D01*
G01X100091Y306976D01*
G01X100248Y306925D01*
G01X100352Y306821D01*
G01X100403Y306666D01*
G01X100403Y306562D01*
G01X100352Y306405D01*
G01X100248Y306301D01*
G01X100091Y306250D01*
G01X99936Y306250D01*
G01X99781Y306301D01*
G01X99728Y306354D01*
G01X99677Y306458D01*
G01X48514Y322049D02*
G01X49603Y322049D01*
G01X48514Y322049D02*
G01X48514Y322516D01*
G01X48564Y322671D01*
G01X48615Y322724D01*
G01X48719Y322775D01*
G01X48823Y322775D01*
G01X48928Y322724D01*
G01X48981Y322671D01*
G01X49032Y322516D01*
G01X49032Y322049D01*
G01X49032Y322412D02*
G01X49603Y322775D01*
G01X48514Y323380D02*
G01X48564Y323222D01*
G01X48668Y323171D01*
G01X48773Y323171D01*
G01X48877Y323222D01*
G01X48928Y323326D01*
G01X48981Y323535D01*
G01X49032Y323689D01*
G01X49136Y323794D01*
G01X49240Y323847D01*
G01X49395Y323847D01*
G01X49499Y323794D01*
G01X49552Y323743D01*
G01X49603Y323585D01*
G01X49603Y323380D01*
G01X49552Y323222D01*
G01X49499Y323171D01*
G01X49395Y323118D01*
G01X49240Y323118D01*
G01X49136Y323171D01*
G01X49032Y323275D01*
G01X48981Y323430D01*
G01X48928Y323639D01*
G01X48877Y323743D01*
G01X48773Y323794D01*
G01X48668Y323794D01*
G01X48564Y323743D01*
G01X48514Y323585D01*
G01X48514Y323380D01*
G01X48668Y324812D02*
G01X48564Y324761D01*
G01X48514Y324604D01*
G01X48514Y324500D01*
G01X48564Y324345D01*
G01X48719Y324241D01*
G01X48981Y324190D01*
G01X49240Y324190D01*
G01X49448Y324241D01*
G01X49552Y324345D01*
G01X49603Y324500D01*
G01X49603Y324553D01*
G01X49552Y324708D01*
G01X49448Y324812D01*
G01X49291Y324865D01*
G01X49240Y324865D01*
G01X49085Y324812D01*
G01X48981Y324708D01*
G01X48928Y324553D01*
G01X48928Y324500D01*
G01X48981Y324345D01*
G01X49085Y324241D01*
G01X49240Y324190D01*
G01X9906Y315140D02*
G01X10995Y315140D01*
G01X9906Y315140D02*
G01X9906Y315607D01*
G01X9956Y315762D01*
G01X10007Y315815D01*
G01X10111Y315866D01*
G01X10215Y315866D01*
G01X10320Y315815D01*
G01X10373Y315762D01*
G01X10424Y315607D01*
G01X10424Y315140D01*
G01X10424Y315503D02*
G01X10995Y315866D01*
G01X9906Y316471D02*
G01X9956Y316313D01*
G01X10060Y316263D01*
G01X10165Y316263D01*
G01X10269Y316313D01*
G01X10320Y316417D01*
G01X10373Y316626D01*
G01X10424Y316781D01*
G01X10528Y316885D01*
G01X10632Y316938D01*
G01X10787Y316938D01*
G01X10891Y316885D01*
G01X10944Y316834D01*
G01X10995Y316677D01*
G01X10995Y316471D01*
G01X10944Y316313D01*
G01X10891Y316263D01*
G01X10787Y316209D01*
G01X10632Y316209D01*
G01X10528Y316263D01*
G01X10424Y316367D01*
G01X10373Y316522D01*
G01X10320Y316730D01*
G01X10269Y316834D01*
G01X10165Y316885D01*
G01X10060Y316885D01*
G01X9956Y316834D01*
G01X9906Y316677D01*
G01X9906Y316471D01*
G01X9906Y318008D02*
G01X10995Y317489D01*
G01X9906Y317281D02*
G01X9906Y318008D01*
G01X50546Y215392D02*
G01X50546Y214302D01*
G01X50546Y215392D02*
G01X51013Y215392D01*
G01X51168Y215341D01*
G01X51221Y215290D01*
G01X51272Y215186D01*
G01X51272Y215082D01*
G01X51221Y214977D01*
G01X51168Y214924D01*
G01X51013Y214873D01*
G01X50546Y214873D01*
G01X50909Y214873D02*
G01X51272Y214302D01*
G01X52136Y215392D02*
G01X51615Y214665D01*
G01X52395Y214665D01*
G01X52136Y215392D02*
G01X52136Y214302D01*
G01X67564Y205465D02*
G01X68653Y205465D01*
G01X67564Y205465D02*
G01X67564Y205933D01*
G01X67614Y206087D01*
G01X67665Y206141D01*
G01X67769Y206192D01*
G01X67873Y206192D01*
G01X67978Y206141D01*
G01X68031Y206087D01*
G01X68082Y205933D01*
G01X68082Y205465D01*
G01X68082Y205828D02*
G01X68653Y206192D01*
G01X67564Y207159D02*
G01X67564Y206639D01*
G01X68031Y206588D01*
G01X67978Y206639D01*
G01X67927Y206796D01*
G01X67927Y206951D01*
G01X67978Y207106D01*
G01X68082Y207210D01*
G01X68237Y207263D01*
G01X68341Y207263D01*
G01X68498Y207210D01*
G01X68602Y207106D01*
G01X68653Y206951D01*
G01X68653Y206796D01*
G01X68602Y206639D01*
G01X68549Y206588D01*
G01X68445Y206534D01*
G01X114693Y173875D02*
G01X115783Y173875D01*
G01X114693Y173875D02*
G01X114693Y174343D01*
G01X114744Y174498D01*
G01X114795Y174551D01*
G01X114899Y174602D01*
G01X115003Y174602D01*
G01X115107Y174551D01*
G01X115161Y174498D01*
G01X115211Y174343D01*
G01X115211Y173875D01*
G01X115211Y174238D02*
G01X115783Y174602D01*
G01X114848Y175569D02*
G01X114744Y175516D01*
G01X114693Y175361D01*
G01X114693Y175257D01*
G01X114744Y175102D01*
G01X114899Y174998D01*
G01X115161Y174945D01*
G01X115420Y174945D01*
G01X115628Y174998D01*
G01X115732Y175102D01*
G01X115783Y175257D01*
G01X115783Y175310D01*
G01X115732Y175465D01*
G01X115628Y175569D01*
G01X115470Y175620D01*
G01X115420Y175620D01*
G01X115265Y175569D01*
G01X115161Y175465D01*
G01X115107Y175310D01*
G01X115107Y175257D01*
G01X115161Y175102D01*
G01X115265Y174998D01*
G01X115420Y174945D01*
G01X23114Y315607D02*
G01X24203Y315607D01*
G01X23114Y315607D02*
G01X23114Y316075D01*
G01X23164Y316230D01*
G01X23215Y316283D01*
G01X23319Y316334D01*
G01X23423Y316334D01*
G01X23528Y316283D01*
G01X23581Y316230D01*
G01X23632Y316075D01*
G01X23632Y315607D01*
G01X23632Y315970D02*
G01X24203Y316334D01*
G01X23319Y316677D02*
G01X23268Y316781D01*
G01X23114Y316938D01*
G01X24203Y316938D01*
G01X23114Y317591D02*
G01X23164Y317436D01*
G01X23319Y317332D01*
G01X23581Y317281D01*
G01X23736Y317281D01*
G01X23995Y317332D01*
G01X24152Y317436D01*
G01X24203Y317591D01*
G01X24203Y317695D01*
G01X24152Y317853D01*
G01X23995Y317957D01*
G01X23736Y318008D01*
G01X23581Y318008D01*
G01X23319Y317957D01*
G01X23164Y317853D01*
G01X23114Y317695D01*
G01X23114Y317591D01*
G01X49530Y336649D02*
G01X50619Y336649D01*
G01X49530Y336649D02*
G01X49530Y337116D01*
G01X49580Y337271D01*
G01X49631Y337324D01*
G01X49735Y337375D01*
G01X49839Y337375D01*
G01X49944Y337324D01*
G01X49997Y337271D01*
G01X50048Y337116D01*
G01X50048Y336649D01*
G01X50048Y337012D02*
G01X50619Y337375D01*
G01X49735Y337718D02*
G01X49684Y337822D01*
G01X49530Y337979D01*
G01X50619Y337979D01*
G01X49735Y338322D02*
G01X49684Y338427D01*
G01X49530Y338581D01*
G01X50619Y338581D01*
G01X116217Y330847D02*
G01X117307Y330847D01*
G01X116217Y330847D02*
G01X116217Y331315D01*
G01X116268Y331470D01*
G01X116319Y331523D01*
G01X116423Y331574D01*
G01X116527Y331574D01*
G01X116631Y331523D01*
G01X116685Y331470D01*
G01X116735Y331315D01*
G01X116735Y330847D01*
G01X116735Y331210D02*
G01X117307Y331574D01*
G01X116423Y331917D02*
G01X116372Y332021D01*
G01X116217Y332178D01*
G01X117307Y332178D01*
G01X116476Y332572D02*
G01X116423Y332572D01*
G01X116319Y332625D01*
G01X116268Y332676D01*
G01X116217Y332780D01*
G01X116217Y332988D01*
G01X116268Y333093D01*
G01X116319Y333143D01*
G01X116423Y333197D01*
G01X116527Y333197D01*
G01X116631Y333143D01*
G01X116789Y333039D01*
G01X117307Y332521D01*
G01X117307Y333248D01*
G01X83075Y221228D02*
G01X83022Y221333D01*
G01X82918Y221437D01*
G01X82816Y221488D01*
G01X82608Y221488D01*
G01X82504Y221437D01*
G01X82400Y221333D01*
G01X82346Y221228D01*
G01X82296Y221073D01*
G01X82296Y220814D01*
G01X82346Y220657D01*
G01X82400Y220553D01*
G01X82504Y220449D01*
G01X82608Y220398D01*
G01X82816Y220398D01*
G01X82918Y220449D01*
G01X83022Y220553D01*
G01X83075Y220657D01*
G01X84145Y221488D02*
G01X83626Y220398D01*
G01X83418Y221488D02*
G01X84145Y221488D01*
G01X113047Y183890D02*
G01X112994Y183995D01*
G01X112890Y184099D01*
G01X112788Y184150D01*
G01X112580Y184150D01*
G01X112476Y184099D01*
G01X112372Y183995D01*
G01X112318Y183890D01*
G01X112268Y183735D01*
G01X112268Y183476D01*
G01X112318Y183319D01*
G01X112372Y183215D01*
G01X112476Y183111D01*
G01X112580Y183060D01*
G01X112788Y183060D01*
G01X112890Y183111D01*
G01X112994Y183215D01*
G01X113047Y183319D01*
G01X114066Y183786D02*
G01X114012Y183631D01*
G01X113908Y183527D01*
G01X113753Y183476D01*
G01X113703Y183476D01*
G01X113545Y183527D01*
G01X113441Y183631D01*
G01X113390Y183786D01*
G01X113390Y183840D01*
G01X113441Y183995D01*
G01X113545Y184099D01*
G01X113703Y184150D01*
G01X113753Y184150D01*
G01X113908Y184099D01*
G01X114012Y183995D01*
G01X114066Y183786D01*
G01X114066Y183527D01*
G01X114012Y183268D01*
G01X113908Y183111D01*
G01X113753Y183060D01*
G01X113649Y183060D01*
G01X113494Y183111D01*
G01X113441Y183215D01*
G01X23131Y336798D02*
G01X23078Y336903D01*
G01X22974Y337007D01*
G01X22872Y337058D01*
G01X22664Y337058D01*
G01X22560Y337007D01*
G01X22456Y336903D01*
G01X22402Y336798D01*
G01X22352Y336643D01*
G01X22352Y336384D01*
G01X22402Y336227D01*
G01X22456Y336123D01*
G01X22560Y336019D01*
G01X22664Y335968D01*
G01X22872Y335968D01*
G01X22974Y336019D01*
G01X23078Y336123D01*
G01X23131Y336227D01*
G01X23474Y336852D02*
G01X23578Y336903D01*
G01X23733Y337058D01*
G01X23733Y335968D01*
G01X24752Y336694D02*
G01X24701Y336539D01*
G01X24597Y336435D01*
G01X24439Y336384D01*
G01X24389Y336384D01*
G01X24231Y336435D01*
G01X24130Y336539D01*
G01X24076Y336694D01*
G01X24076Y336748D01*
G01X24130Y336903D01*
G01X24231Y337007D01*
G01X24389Y337058D01*
G01X24439Y337058D01*
G01X24597Y337007D01*
G01X24701Y336903D01*
G01X24752Y336694D01*
G01X24752Y336435D01*
G01X24701Y336176D01*
G01X24597Y336019D01*
G01X24439Y335968D01*
G01X24335Y335968D01*
G01X24180Y336019D01*
G01X24130Y336123D01*
G01X23893Y323959D02*
G01X23840Y324063D01*
G01X23736Y324167D01*
G01X23634Y324218D01*
G01X23426Y324218D01*
G01X23322Y324167D01*
G01X23218Y324063D01*
G01X23164Y323959D01*
G01X23114Y323804D01*
G01X23114Y323545D01*
G01X23164Y323387D01*
G01X23218Y323283D01*
G01X23322Y323179D01*
G01X23426Y323128D01*
G01X23634Y323128D01*
G01X23736Y323179D01*
G01X23840Y323283D01*
G01X23893Y323387D01*
G01X24287Y323959D02*
G01X24287Y324012D01*
G01X24340Y324116D01*
G01X24391Y324167D01*
G01X24495Y324218D01*
G01X24704Y324218D01*
G01X24808Y324167D01*
G01X24858Y324116D01*
G01X24912Y324012D01*
G01X24912Y323908D01*
G01X24858Y323804D01*
G01X24754Y323646D01*
G01X24236Y323128D01*
G01X24963Y323128D01*
G01X25618Y324218D02*
G01X25463Y324167D01*
G01X25359Y324012D01*
G01X25306Y323750D01*
G01X25306Y323596D01*
G01X25359Y323336D01*
G01X25463Y323179D01*
G01X25618Y323128D01*
G01X25722Y323128D01*
G01X25877Y323179D01*
G01X25981Y323336D01*
G01X26035Y323596D01*
G01X26035Y323750D01*
G01X25981Y324012D01*
G01X25877Y324167D01*
G01X25722Y324218D01*
G01X25618Y324218D01*
G54D26*
G01X24823Y325882D02*
G01X24823Y327543D01*
G01X25654Y326712D02*
G01X23990Y326712D01*
G54D25*
G01X65041Y340608D02*
G01X64988Y340713D01*
G01X64884Y340817D01*
G01X64782Y340868D01*
G01X64574Y340868D01*
G01X64470Y340817D01*
G01X64366Y340713D01*
G01X64312Y340608D01*
G01X64262Y340453D01*
G01X64262Y340194D01*
G01X64312Y340037D01*
G01X64366Y339933D01*
G01X64470Y339829D01*
G01X64574Y339778D01*
G01X64782Y339778D01*
G01X64884Y339829D01*
G01X64988Y339933D01*
G01X65041Y340037D01*
G01X65435Y340608D02*
G01X65435Y340662D01*
G01X65488Y340766D01*
G01X65539Y340817D01*
G01X65643Y340868D01*
G01X65852Y340868D01*
G01X65956Y340817D01*
G01X66006Y340766D01*
G01X66060Y340662D01*
G01X66060Y340558D01*
G01X66006Y340453D01*
G01X65902Y340296D01*
G01X65384Y339778D01*
G01X66111Y339778D01*
G01X66454Y340662D02*
G01X66558Y340713D01*
G01X66713Y340868D01*
G01X66713Y339778D01*
G01X57421Y344672D02*
G01X57368Y344777D01*
G01X57264Y344881D01*
G01X57162Y344932D01*
G01X56954Y344932D01*
G01X56850Y344881D01*
G01X56746Y344777D01*
G01X56692Y344672D01*
G01X56642Y344517D01*
G01X56642Y344258D01*
G01X56692Y344101D01*
G01X56746Y343997D01*
G01X56850Y343893D01*
G01X56954Y343842D01*
G01X57162Y343842D01*
G01X57264Y343893D01*
G01X57368Y343997D01*
G01X57421Y344101D01*
G01X57815Y344672D02*
G01X57815Y344726D01*
G01X57868Y344830D01*
G01X57919Y344881D01*
G01X58023Y344932D01*
G01X58232Y344932D01*
G01X58336Y344881D01*
G01X58386Y344830D01*
G01X58440Y344726D01*
G01X58440Y344622D01*
G01X58386Y344517D01*
G01X58282Y344360D01*
G01X57764Y343842D01*
G01X58491Y343842D01*
G01X58887Y344672D02*
G01X58887Y344726D01*
G01X58938Y344830D01*
G01X58991Y344881D01*
G01X59093Y344932D01*
G01X59301Y344932D01*
G01X59405Y344881D01*
G01X59458Y344830D01*
G01X59509Y344726D01*
G01X59509Y344622D01*
G01X59458Y344517D01*
G01X59354Y344360D01*
G01X58834Y343842D01*
G01X59563Y343842D01*
G54D26*
G01X55118Y337634D02*
G01X56779Y337634D01*
G01X55948Y336804D02*
G01X55948Y338467D01*
G54D25*
G01X113543Y299610D02*
G01X113438Y299557D01*
G01X113334Y299453D01*
G01X113284Y299351D01*
G01X113284Y299143D01*
G01X113334Y299039D01*
G01X113438Y298935D01*
G01X113543Y298881D01*
G01X113698Y298831D01*
G01X113957Y298831D01*
G01X114114Y298881D01*
G01X114218Y298935D01*
G01X114322Y299039D01*
G01X114373Y299143D01*
G01X114373Y299351D01*
G01X114322Y299453D01*
G01X114218Y299557D01*
G01X114114Y299610D01*
G01X113543Y300004D02*
G01X113489Y300004D01*
G01X113385Y300057D01*
G01X113334Y300108D01*
G01X113284Y300212D01*
G01X113284Y300421D01*
G01X113334Y300525D01*
G01X113385Y300575D01*
G01X113489Y300629D01*
G01X113593Y300629D01*
G01X113698Y300575D01*
G01X113855Y300471D01*
G01X114373Y299953D01*
G01X114373Y300680D01*
G01X113284Y301127D02*
G01X113284Y301698D01*
G01X113698Y301386D01*
G01X113698Y301543D01*
G01X113751Y301647D01*
G01X113802Y301698D01*
G01X113957Y301752D01*
G01X114061Y301752D01*
G01X114218Y301698D01*
G01X114322Y301594D01*
G01X114373Y301439D01*
G01X114373Y301282D01*
G01X114322Y301127D01*
G01X114269Y301076D01*
G01X114165Y301023D01*
G01X119905Y299968D02*
G01X119852Y300073D01*
G01X119748Y300177D01*
G01X119646Y300228D01*
G01X119438Y300228D01*
G01X119334Y300177D01*
G01X119230Y300073D01*
G01X119176Y299968D01*
G01X119126Y299813D01*
G01X119126Y299554D01*
G01X119176Y299397D01*
G01X119230Y299293D01*
G01X119334Y299189D01*
G01X119438Y299138D01*
G01X119646Y299138D01*
G01X119748Y299189D01*
G01X119852Y299293D01*
G01X119905Y299397D01*
G01X120299Y299968D02*
G01X120299Y300022D01*
G01X120352Y300126D01*
G01X120403Y300177D01*
G01X120507Y300228D01*
G01X120716Y300228D01*
G01X120820Y300177D01*
G01X120870Y300126D01*
G01X120924Y300022D01*
G01X120924Y299918D01*
G01X120870Y299813D01*
G01X120766Y299656D01*
G01X120248Y299138D01*
G01X120975Y299138D01*
G01X121838Y300228D02*
G01X121318Y299501D01*
G01X122097Y299501D01*
G01X121838Y300228D02*
G01X121838Y299138D01*
G54D26*
G01X116400Y307340D02*
G01X116400Y305678D01*
G01X115570Y306509D02*
G01X117233Y306509D01*
G54D25*
G01X114947Y176923D02*
G01X116037Y176923D01*
G01X114947Y176923D02*
G01X114947Y177391D01*
G01X114998Y177546D01*
G01X115049Y177599D01*
G01X115153Y177650D01*
G01X115257Y177650D01*
G01X115361Y177599D01*
G01X115415Y177546D01*
G01X115465Y177391D01*
G01X115465Y176923D01*
G01X115465Y177286D02*
G01X116037Y177650D01*
G01X114947Y178097D02*
G01X114947Y178668D01*
G01X115361Y178358D01*
G01X115361Y178513D01*
G01X115415Y178617D01*
G01X115465Y178668D01*
G01X115620Y178722D01*
G01X115724Y178722D01*
G01X115882Y178668D01*
G01X115986Y178564D01*
G01X116037Y178409D01*
G01X116037Y178254D01*
G01X115986Y178097D01*
G01X115933Y178046D01*
G01X115829Y177993D01*
G01X114947Y179583D02*
G01X115674Y179064D01*
G01X115674Y179844D01*
G01X114947Y179583D02*
G01X116037Y179583D01*
G01X94996Y205158D02*
G01X96085Y205158D01*
G01X94996Y205158D02*
G01X94996Y205625D01*
G01X95046Y205780D01*
G01X95097Y205833D01*
G01X95201Y205884D01*
G01X95305Y205884D01*
G01X95410Y205833D01*
G01X95463Y205780D01*
G01X95514Y205625D01*
G01X95514Y205158D01*
G01X95514Y205521D02*
G01X96085Y205884D01*
G01X94996Y206331D02*
G01X94996Y206903D01*
G01X95410Y206593D01*
G01X95410Y206748D01*
G01X95463Y206852D01*
G01X95514Y206903D01*
G01X95669Y206956D01*
G01X95773Y206956D01*
G01X95930Y206903D01*
G01X96034Y206799D01*
G01X96085Y206644D01*
G01X96085Y206489D01*
G01X96034Y206331D01*
G01X95981Y206281D01*
G01X95877Y206227D01*
G01X94996Y207921D02*
G01X94996Y207403D01*
G01X95463Y207350D01*
G01X95410Y207403D01*
G01X95359Y207558D01*
G01X95359Y207713D01*
G01X95410Y207871D01*
G01X95514Y207975D01*
G01X95669Y208026D01*
G01X95773Y208026D01*
G01X95930Y207975D01*
G01X96034Y207871D01*
G01X96085Y207713D01*
G01X96085Y207558D01*
G01X96034Y207403D01*
G01X95981Y207350D01*
G01X95877Y207299D01*
G01X64770Y195557D02*
G01X65859Y195557D01*
G01X64770Y195557D02*
G01X64770Y196024D01*
G01X64820Y196179D01*
G01X64871Y196232D01*
G01X64975Y196283D01*
G01X65079Y196283D01*
G01X65184Y196232D01*
G01X65237Y196179D01*
G01X65288Y196024D01*
G01X65288Y195557D01*
G01X65288Y195920D02*
G01X65859Y196283D01*
G01X64770Y196730D02*
G01X64770Y197302D01*
G01X65184Y196992D01*
G01X65184Y197147D01*
G01X65237Y197251D01*
G01X65288Y197302D01*
G01X65443Y197355D01*
G01X65547Y197355D01*
G01X65704Y197302D01*
G01X65808Y197197D01*
G01X65859Y197043D01*
G01X65859Y196888D01*
G01X65808Y196730D01*
G01X65755Y196679D01*
G01X65651Y196626D01*
G01X64924Y198320D02*
G01X64820Y198269D01*
G01X64770Y198112D01*
G01X64770Y198008D01*
G01X64820Y197853D01*
G01X64975Y197749D01*
G01X65237Y197698D01*
G01X65496Y197698D01*
G01X65704Y197749D01*
G01X65808Y197853D01*
G01X65859Y198008D01*
G01X65859Y198061D01*
G01X65808Y198216D01*
G01X65704Y198320D01*
G01X65547Y198373D01*
G01X65496Y198373D01*
G01X65341Y198320D01*
G01X65237Y198216D01*
G01X65184Y198061D01*
G01X65184Y198008D01*
G01X65237Y197853D01*
G01X65341Y197749D01*
G01X65496Y197698D01*
G01X14478Y315341D02*
G01X15567Y315341D01*
G01X14478Y315341D02*
G01X14478Y315808D01*
G01X14528Y315963D01*
G01X14579Y316016D01*
G01X14683Y316067D01*
G01X14787Y316067D01*
G01X14892Y316016D01*
G01X14945Y315963D01*
G01X14996Y315808D01*
G01X14996Y315341D01*
G01X14996Y315704D02*
G01X15567Y316067D01*
G01X14478Y316931D02*
G01X15204Y316410D01*
G01X15204Y317190D01*
G01X14478Y316931D02*
G01X15567Y316931D01*
G01X14478Y317845D02*
G01X14528Y317690D01*
G01X14683Y317586D01*
G01X14945Y317533D01*
G01X15100Y317533D01*
G01X15359Y317586D01*
G01X15516Y317690D01*
G01X15567Y317845D01*
G01X15567Y317949D01*
G01X15516Y318104D01*
G01X15359Y318208D01*
G01X15100Y318262D01*
G01X14945Y318262D01*
G01X14683Y318208D01*
G01X14528Y318104D01*
G01X14478Y317949D01*
G01X14478Y317845D01*
G01X72136Y323342D02*
G01X72136Y322252D01*
G01X72136Y323342D02*
G01X72603Y323342D01*
G01X72758Y323291D01*
G01X72811Y323240D01*
G01X72862Y323136D01*
G01X72862Y323032D01*
G01X72811Y322927D01*
G01X72758Y322874D01*
G01X72603Y322823D01*
G01X72136Y322823D01*
G01X72499Y322823D02*
G01X72862Y322252D01*
G01X73726Y323342D02*
G01X73205Y322615D01*
G01X73985Y322615D01*
G01X73726Y323342D02*
G01X73726Y322252D01*
G01X74328Y323136D02*
G01X74432Y323187D01*
G01X74587Y323342D01*
G01X74587Y322252D01*
G01X116471Y326529D02*
G01X117561Y326529D01*
G01X116471Y326529D02*
G01X116471Y326997D01*
G01X116522Y327152D01*
G01X116573Y327205D01*
G01X116677Y327256D01*
G01X116781Y327256D01*
G01X116885Y327205D01*
G01X116939Y327152D01*
G01X116989Y326997D01*
G01X116989Y326529D01*
G01X116989Y326892D02*
G01X117561Y327256D01*
G01X116471Y328119D02*
G01X117198Y327599D01*
G01X117198Y328378D01*
G01X116471Y328119D02*
G01X117561Y328119D01*
G01X116730Y328775D02*
G01X116677Y328775D01*
G01X116573Y328825D01*
G01X116522Y328879D01*
G01X116471Y328980D01*
G01X116471Y329189D01*
G01X116522Y329293D01*
G01X116573Y329346D01*
G01X116677Y329397D01*
G01X116781Y329397D01*
G01X116885Y329346D01*
G01X117043Y329242D01*
G01X117561Y328721D01*
G01X117561Y329450D01*
G01X54102Y195813D02*
G01X55191Y195813D01*
G01X54102Y195813D02*
G01X54102Y196489D01*
G01X54620Y195813D02*
G01X54620Y196230D01*
G01X55191Y195813D02*
G01X55191Y196489D01*
G01X54256Y197558D02*
G01X54152Y197454D01*
G01X54102Y197299D01*
G01X54102Y197091D01*
G01X54152Y196936D01*
G01X54256Y196832D01*
G01X54361Y196832D01*
G01X54465Y196883D01*
G01X54516Y196936D01*
G01X54569Y197040D01*
G01X54673Y197350D01*
G01X54724Y197454D01*
G01X54775Y197507D01*
G01X54879Y197558D01*
G01X55036Y197558D01*
G01X55140Y197454D01*
G01X55191Y197299D01*
G01X55191Y197091D01*
G01X55140Y196936D01*
G01X55036Y196832D01*
G01X54102Y197901D02*
G01X55191Y197901D01*
G01X54102Y197901D02*
G01X54102Y198368D01*
G01X54152Y198526D01*
G01X54203Y198577D01*
G01X54307Y198630D01*
G01X54465Y198630D01*
G01X54569Y198577D01*
G01X54620Y198526D01*
G01X54673Y198368D01*
G01X54673Y197901D01*
G01X54102Y199077D02*
G01X54102Y199649D01*
G01X54516Y199336D01*
G01X54516Y199491D01*
G01X54569Y199595D01*
G01X54620Y199649D01*
G01X54775Y199699D01*
G01X54879Y199699D01*
G01X55036Y199649D01*
G01X55140Y199544D01*
G01X55191Y199387D01*
G01X55191Y199232D01*
G01X55140Y199077D01*
G01X55087Y199024D01*
G01X54983Y198973D01*
G54D26*
G01X46852Y196664D02*
G01X46575Y196758D01*
G01X46390Y196941D01*
G01X46299Y197218D01*
G01X46299Y197312D01*
G01X46390Y197589D01*
G01X46575Y197774D01*
G01X46852Y197866D01*
G01X46944Y197866D01*
G01X47221Y197774D01*
G01X47406Y197589D01*
G01X47497Y197312D01*
G01X47497Y197218D01*
G01X47406Y196941D01*
G01X47221Y196758D01*
G01X46852Y196664D01*
G01X46390Y196664D01*
G01X45928Y196758D01*
G01X45651Y196941D01*
G01X45559Y197218D01*
G01X45559Y197403D01*
G01X45651Y197680D01*
G01X45836Y197774D01*
G01X47497Y195501D02*
G01X47406Y195778D01*
G01X47129Y195963D01*
G01X46667Y196054D01*
G01X46390Y196054D01*
G01X45928Y195963D01*
G01X45651Y195778D01*
G01X45559Y195501D01*
G01X45559Y195315D01*
G01X45651Y195038D01*
G01X45928Y194856D01*
G01X46390Y194762D01*
G01X46667Y194762D01*
G01X47129Y194856D01*
G01X47406Y195038D01*
G01X47497Y195315D01*
G01X47497Y195501D01*
G01X46944Y193690D02*
G01X45836Y193690D01*
G01X46667Y194152D02*
G01X46113Y193230D01*
G01X46667Y193230D02*
G01X46113Y194152D01*
G54D25*
G01X105295Y202577D02*
G01X106385Y202577D01*
G01X105295Y202577D02*
G01X105295Y203253D01*
G01X105813Y202577D02*
G01X105813Y202994D01*
G01X106385Y202577D02*
G01X106385Y203253D01*
G01X105450Y204322D02*
G01X105346Y204218D01*
G01X105295Y204063D01*
G01X105295Y203855D01*
G01X105346Y203700D01*
G01X105450Y203596D01*
G01X105554Y203596D01*
G01X105658Y203647D01*
G01X105709Y203700D01*
G01X105763Y203804D01*
G01X105867Y204114D01*
G01X105918Y204218D01*
G01X105968Y204271D01*
G01X106072Y204322D01*
G01X106230Y204322D01*
G01X106334Y204218D01*
G01X106385Y204063D01*
G01X106385Y203855D01*
G01X106334Y203700D01*
G01X106230Y203596D01*
G01X105295Y204665D02*
G01X106385Y204665D01*
G01X105295Y204665D02*
G01X105295Y205132D01*
G01X105346Y205290D01*
G01X105397Y205341D01*
G01X105501Y205394D01*
G01X105658Y205394D01*
G01X105763Y205341D01*
G01X105813Y205290D01*
G01X105867Y205132D01*
G01X105867Y204665D01*
G01X105295Y206359D02*
G01X105295Y205841D01*
G01X105763Y205788D01*
G01X105709Y205841D01*
G01X105658Y205996D01*
G01X105658Y206151D01*
G01X105709Y206308D01*
G01X105813Y206413D01*
G01X105968Y206463D01*
G01X106072Y206463D01*
G01X106230Y206413D01*
G01X106334Y206308D01*
G01X106385Y206151D01*
G01X106385Y205996D01*
G01X106334Y205841D01*
G01X106281Y205788D01*
G01X106177Y205737D01*
G54D26*
G01X115892Y195717D02*
G01X115986Y195994D01*
G01X116169Y196179D01*
G01X116446Y196270D01*
G01X116540Y196270D01*
G01X116817Y196179D01*
G01X117002Y195994D01*
G01X117094Y195717D01*
G01X117094Y195625D01*
G01X117002Y195348D01*
G01X116817Y195163D01*
G01X116540Y195072D01*
G01X116446Y195072D01*
G01X116169Y195163D01*
G01X115986Y195348D01*
G01X115892Y195717D01*
G01X115892Y196179D01*
G01X115986Y196641D01*
G01X116169Y196918D01*
G01X116446Y197010D01*
G01X116631Y197010D01*
G01X116908Y196918D01*
G01X117002Y196733D01*
G01X114729Y195072D02*
G01X115006Y195163D01*
G01X115191Y195440D01*
G01X115282Y195902D01*
G01X115282Y196179D01*
G01X115191Y196641D01*
G01X115006Y196918D01*
G01X114729Y197010D01*
G01X114543Y197010D01*
G01X114266Y196918D01*
G01X114084Y196641D01*
G01X113990Y196179D01*
G01X113990Y195902D01*
G01X114084Y195440D01*
G01X114266Y195163D01*
G01X114543Y195072D01*
G01X114729Y195072D01*
G01X112918Y195625D02*
G01X112918Y196733D01*
G01X113380Y195902D02*
G01X112458Y196456D01*
G01X112458Y195902D02*
G01X113380Y196456D01*
G54D25*
G01X34798Y335648D02*
G01X34798Y334558D01*
G01X34798Y335648D02*
G01X35473Y335648D01*
G01X34798Y335130D02*
G01X35214Y335130D01*
G01X34798Y334558D02*
G01X35473Y334558D01*
G01X36542Y335493D02*
G01X36438Y335597D01*
G01X36283Y335648D01*
G01X36075Y335648D01*
G01X35920Y335597D01*
G01X35816Y335493D01*
G01X35816Y335389D01*
G01X35867Y335285D01*
G01X35920Y335234D01*
G01X36024Y335180D01*
G01X36334Y335076D01*
G01X36438Y335026D01*
G01X36492Y334975D01*
G01X36542Y334871D01*
G01X36542Y334713D01*
G01X36438Y334609D01*
G01X36283Y334558D01*
G01X36075Y334558D01*
G01X35920Y334609D01*
G01X35816Y334713D01*
G01X36885Y335648D02*
G01X36885Y334558D01*
G01X36885Y335648D02*
G01X37353Y335648D01*
G01X37510Y335597D01*
G01X37561Y335546D01*
G01X37614Y335442D01*
G01X37614Y335285D01*
G01X37561Y335180D01*
G01X37510Y335130D01*
G01X37353Y335076D01*
G01X36885Y335076D01*
G01X38633Y335285D02*
G01X38580Y335130D01*
G01X38475Y335026D01*
G01X38320Y334975D01*
G01X38267Y334975D01*
G01X38112Y335026D01*
G01X38008Y335130D01*
G01X37957Y335285D01*
G01X37957Y335338D01*
G01X38008Y335493D01*
G01X38112Y335597D01*
G01X38267Y335648D01*
G01X38320Y335648D01*
G01X38475Y335597D01*
G01X38580Y335493D01*
G01X38633Y335285D01*
G01X38633Y335026D01*
G01X38580Y334766D01*
G01X38475Y334609D01*
G01X38320Y334558D01*
G01X38216Y334558D01*
G01X38061Y334609D01*
G01X38008Y334713D01*
G54D26*
G01X34475Y327014D02*
G01X34381Y326737D01*
G01X34198Y326552D01*
G01X33921Y326461D01*
G01X33827Y326461D01*
G01X33550Y326552D01*
G01X33365Y326737D01*
G01X33274Y327014D01*
G01X33274Y327106D01*
G01X33365Y327383D01*
G01X33550Y327568D01*
G01X33827Y327659D01*
G01X33921Y327659D01*
G01X34198Y327568D01*
G01X34381Y327383D01*
G01X34475Y327014D01*
G01X34475Y326552D01*
G01X34381Y326090D01*
G01X34198Y325813D01*
G01X33921Y325721D01*
G01X33736Y325721D01*
G01X33459Y325813D01*
G01X33365Y325998D01*
G01X35638Y327659D02*
G01X35361Y327568D01*
G01X35176Y327291D01*
G01X35085Y326829D01*
G01X35085Y326552D01*
G01X35176Y326090D01*
G01X35361Y325813D01*
G01X35638Y325721D01*
G01X35824Y325721D01*
G01X36101Y325813D01*
G01X36283Y326090D01*
G01X36377Y326552D01*
G01X36377Y326829D01*
G01X36283Y327291D01*
G01X36101Y327568D01*
G01X35824Y327659D01*
G01X35638Y327659D01*
G01X37449Y327106D02*
G01X37449Y325998D01*
G01X36987Y326829D02*
G01X37909Y326275D01*
G01X37909Y326829D02*
G01X36987Y326275D01*
G54D25*
G01X68580Y335788D02*
G01X68580Y334698D01*
G01X68580Y335788D02*
G01X69255Y335788D01*
G01X68580Y335269D02*
G01X68996Y335269D01*
G01X68580Y334698D02*
G01X69255Y334698D01*
G01X70324Y335633D02*
G01X70220Y335737D01*
G01X70065Y335788D01*
G01X69857Y335788D01*
G01X69702Y335737D01*
G01X69598Y335633D01*
G01X69598Y335528D01*
G01X69649Y335424D01*
G01X69702Y335373D01*
G01X69806Y335320D01*
G01X70116Y335216D01*
G01X70220Y335165D01*
G01X70274Y335114D01*
G01X70324Y335010D01*
G01X70324Y334853D01*
G01X70220Y334749D01*
G01X70065Y334698D01*
G01X69857Y334698D01*
G01X69702Y334749D01*
G01X69598Y334853D01*
G01X70667Y335788D02*
G01X70667Y334698D01*
G01X70667Y335788D02*
G01X71135Y335788D01*
G01X71292Y335737D01*
G01X71343Y335686D01*
G01X71396Y335582D01*
G01X71396Y335424D01*
G01X71343Y335320D01*
G01X71292Y335269D01*
G01X71135Y335216D01*
G01X70667Y335216D01*
G01X71739Y335582D02*
G01X71843Y335633D01*
G01X71998Y335788D01*
G01X71998Y334698D01*
G01X72654Y335788D02*
G01X72496Y335737D01*
G01X72392Y335582D01*
G01X72341Y335320D01*
G01X72341Y335165D01*
G01X72392Y334906D01*
G01X72496Y334749D01*
G01X72654Y334698D01*
G01X72758Y334698D01*
G01X72913Y334749D01*
G01X73017Y334906D01*
G01X73068Y335165D01*
G01X73068Y335320D01*
G01X73017Y335582D01*
G01X72913Y335737D01*
G01X72758Y335788D01*
G01X72654Y335788D01*
G01X122428Y314551D02*
G01X123517Y314551D01*
G01X122428Y314551D02*
G01X122428Y315226D01*
G01X122946Y314551D02*
G01X122946Y314967D01*
G01X123517Y314551D02*
G01X123517Y315226D01*
G01X122582Y316296D02*
G01X122478Y316191D01*
G01X122428Y316036D01*
G01X122428Y315828D01*
G01X122478Y315673D01*
G01X122582Y315569D01*
G01X122687Y315569D01*
G01X122791Y315620D01*
G01X122842Y315673D01*
G01X122895Y315777D01*
G01X122999Y316087D01*
G01X123050Y316191D01*
G01X123101Y316245D01*
G01X123205Y316296D01*
G01X123362Y316296D01*
G01X123466Y316191D01*
G01X123517Y316036D01*
G01X123517Y315828D01*
G01X123466Y315673D01*
G01X123362Y315569D01*
G01X122428Y316638D02*
G01X123517Y316638D01*
G01X122428Y316638D02*
G01X122428Y317106D01*
G01X122478Y317263D01*
G01X122529Y317314D01*
G01X122633Y317367D01*
G01X122791Y317367D01*
G01X122895Y317314D01*
G01X122946Y317263D01*
G01X122999Y317106D01*
G01X122999Y316638D01*
G01X122633Y317710D02*
G01X122582Y317814D01*
G01X122428Y317969D01*
G01X123517Y317969D01*
G01X122633Y318312D02*
G01X122582Y318416D01*
G01X122428Y318571D01*
G01X123517Y318571D01*
G54D26*
G01X114924Y316552D02*
G01X114647Y316646D01*
G01X114462Y316829D01*
G01X114371Y317106D01*
G01X114371Y317200D01*
G01X114462Y317477D01*
G01X114647Y317662D01*
G01X114924Y317754D01*
G01X115016Y317754D01*
G01X115293Y317662D01*
G01X115478Y317477D01*
G01X115569Y317200D01*
G01X115569Y317106D01*
G01X115478Y316829D01*
G01X115293Y316646D01*
G01X114924Y316552D01*
G01X114462Y316552D01*
G01X114000Y316646D01*
G01X113723Y316829D01*
G01X113631Y317106D01*
G01X113631Y317291D01*
G01X113723Y317568D01*
G01X113908Y317662D01*
G01X115569Y315389D02*
G01X115478Y315666D01*
G01X115201Y315851D01*
G01X114739Y315942D01*
G01X114462Y315942D01*
G01X114000Y315851D01*
G01X113723Y315666D01*
G01X113631Y315389D01*
G01X113631Y315203D01*
G01X113723Y314926D01*
G01X114000Y314744D01*
G01X114462Y314650D01*
G01X114739Y314650D01*
G01X115201Y314744D01*
G01X115478Y314926D01*
G01X115569Y315203D01*
G01X115569Y315389D01*
G01X115016Y313578D02*
G01X113908Y313578D01*
G01X114739Y314040D02*
G01X114185Y313118D01*
G01X114739Y313118D02*
G01X114185Y314040D01*
G54D25*
G01X81534Y215900D02*
G01X81534Y214810D01*
G01X81534Y215900D02*
G01X82209Y215900D01*
G01X81534Y215381D02*
G01X81950Y215381D01*
G01X81534Y214810D02*
G01X82209Y214810D01*
G01X83278Y215745D02*
G01X83174Y215849D01*
G01X83019Y215900D01*
G01X82811Y215900D01*
G01X82656Y215849D01*
G01X82552Y215745D01*
G01X82552Y215640D01*
G01X82603Y215536D01*
G01X82656Y215485D01*
G01X82760Y215432D01*
G01X83070Y215328D01*
G01X83174Y215277D01*
G01X83228Y215226D01*
G01X83278Y215122D01*
G01X83278Y214965D01*
G01X83174Y214861D01*
G01X83019Y214810D01*
G01X82811Y214810D01*
G01X82656Y214861D01*
G01X82552Y214965D01*
G01X83621Y215900D02*
G01X83621Y214810D01*
G01X83621Y215900D02*
G01X84089Y215900D01*
G01X84246Y215849D01*
G01X84297Y215798D01*
G01X84350Y215694D01*
G01X84350Y215536D01*
G01X84297Y215432D01*
G01X84246Y215381D01*
G01X84089Y215328D01*
G01X83621Y215328D01*
G01X85211Y215900D02*
G01X84693Y215173D01*
G01X85471Y215173D01*
G01X85211Y215900D02*
G01X85211Y214810D01*
G01X47498Y215392D02*
G01X47498Y214302D01*
G01X47498Y215392D02*
G01X47965Y215392D01*
G01X48120Y215341D01*
G01X48173Y215290D01*
G01X48224Y215186D01*
G01X48224Y215082D01*
G01X48173Y214977D01*
G01X48120Y214924D01*
G01X47965Y214873D01*
G01X47498Y214873D01*
G01X47861Y214873D02*
G01X48224Y214302D01*
G01X48567Y215186D02*
G01X48671Y215237D01*
G01X48828Y215392D01*
G01X48828Y214302D01*
G01X49847Y215028D02*
G01X49794Y214873D01*
G01X49690Y214769D01*
G01X49535Y214718D01*
G01X49481Y214718D01*
G01X49326Y214769D01*
G01X49222Y214873D01*
G01X49171Y215028D01*
G01X49171Y215082D01*
G01X49222Y215237D01*
G01X49326Y215341D01*
G01X49481Y215392D01*
G01X49535Y215392D01*
G01X49690Y215341D01*
G01X49794Y215237D01*
G01X49847Y215028D01*
G01X49847Y214769D01*
G01X49794Y214510D01*
G01X49690Y214353D01*
G01X49535Y214302D01*
G01X49430Y214302D01*
G01X49276Y214353D01*
G01X49222Y214457D01*
G01X79248Y202438D02*
G01X79248Y201348D01*
G01X79248Y202438D02*
G01X79715Y202438D01*
G01X79870Y202387D01*
G01X79923Y202336D01*
G01X79974Y202232D01*
G01X79974Y202128D01*
G01X79923Y202023D01*
G01X79870Y201970D01*
G01X79715Y201919D01*
G01X79248Y201919D01*
G01X79611Y201919D02*
G01X79974Y201348D01*
G01X80370Y202178D02*
G01X80370Y202232D01*
G01X80421Y202336D01*
G01X80474Y202387D01*
G01X80578Y202438D01*
G01X80784Y202438D01*
G01X80888Y202387D01*
G01X80942Y202336D01*
G01X80992Y202232D01*
G01X80992Y202128D01*
G01X80942Y202023D01*
G01X80838Y201866D01*
G01X80317Y201348D01*
G01X81046Y201348D01*
G01X81699Y202438D02*
G01X81544Y202387D01*
G01X81440Y202232D01*
G01X81389Y201970D01*
G01X81389Y201815D01*
G01X81440Y201556D01*
G01X81544Y201399D01*
G01X81699Y201348D01*
G01X81803Y201348D01*
G01X81960Y201399D01*
G01X82064Y201556D01*
G01X82115Y201815D01*
G01X82115Y201970D01*
G01X82064Y202232D01*
G01X81960Y202387D01*
G01X81803Y202438D01*
G01X81699Y202438D01*
G01X95504Y192671D02*
G01X96593Y192671D01*
G01X95504Y192671D02*
G01X95504Y193139D01*
G01X95554Y193294D01*
G01X95605Y193347D01*
G01X95709Y193398D01*
G01X95813Y193398D01*
G01X95918Y193347D01*
G01X95971Y193294D01*
G01X96022Y193139D01*
G01X96022Y192671D01*
G01X96022Y193034D02*
G01X96593Y193398D01*
G01X95763Y193794D02*
G01X95709Y193794D01*
G01X95605Y193845D01*
G01X95554Y193898D01*
G01X95504Y194002D01*
G01X95504Y194208D01*
G01X95554Y194312D01*
G01X95605Y194365D01*
G01X95709Y194416D01*
G01X95813Y194416D01*
G01X95918Y194365D01*
G01X96075Y194261D01*
G01X96593Y193741D01*
G01X96593Y194470D01*
G01X95709Y194812D02*
G01X95658Y194917D01*
G01X95504Y195072D01*
G01X96593Y195072D01*
G01X18796Y315394D02*
G01X19885Y315394D01*
G01X18796Y315394D02*
G01X18796Y315861D01*
G01X18846Y316016D01*
G01X18897Y316069D01*
G01X19001Y316120D01*
G01X19105Y316120D01*
G01X19210Y316069D01*
G01X19263Y316016D01*
G01X19314Y315861D01*
G01X19314Y315394D01*
G01X19314Y315757D02*
G01X19885Y316120D01*
G01X19055Y316517D02*
G01X19001Y316517D01*
G01X18897Y316567D01*
G01X18846Y316621D01*
G01X18796Y316725D01*
G01X18796Y316931D01*
G01X18846Y317035D01*
G01X18897Y317088D01*
G01X19001Y317139D01*
G01X19105Y317139D01*
G01X19210Y317088D01*
G01X19367Y316984D01*
G01X19885Y316463D01*
G01X19885Y317192D01*
G01X18796Y318157D02*
G01X18796Y317639D01*
G01X19263Y317586D01*
G01X19210Y317639D01*
G01X19159Y317794D01*
G01X19159Y317949D01*
G01X19210Y318107D01*
G01X19314Y318211D01*
G01X19469Y318262D01*
G01X19573Y318262D01*
G01X19730Y318211D01*
G01X19834Y318107D01*
G01X19885Y317949D01*
G01X19885Y317794D01*
G01X19834Y317639D01*
G01X19781Y317586D01*
G01X19677Y317535D01*
G01X71882Y314706D02*
G01X71882Y313616D01*
G01X71882Y314706D02*
G01X72349Y314706D01*
G01X72504Y314655D01*
G01X72557Y314604D01*
G01X72608Y314500D01*
G01X72608Y314396D01*
G01X72557Y314291D01*
G01X72504Y314238D01*
G01X72349Y314187D01*
G01X71882Y314187D01*
G01X72245Y314187D02*
G01X72608Y313616D01*
G01X73004Y314446D02*
G01X73004Y314500D01*
G01X73055Y314604D01*
G01X73108Y314655D01*
G01X73212Y314706D01*
G01X73418Y314706D01*
G01X73522Y314655D01*
G01X73576Y314604D01*
G01X73626Y314500D01*
G01X73626Y314396D01*
G01X73576Y314291D01*
G01X73472Y314134D01*
G01X72951Y313616D01*
G01X73680Y313616D01*
G01X74645Y314551D02*
G01X74594Y314655D01*
G01X74437Y314706D01*
G01X74333Y314706D01*
G01X74178Y314655D01*
G01X74074Y314500D01*
G01X74023Y314238D01*
G01X74023Y313979D01*
G01X74074Y313771D01*
G01X74178Y313667D01*
G01X74333Y313616D01*
G01X74386Y313616D01*
G01X74541Y313667D01*
G01X74645Y313771D01*
G01X74698Y313928D01*
G01X74698Y313979D01*
G01X74645Y314134D01*
G01X74541Y314238D01*
G01X74386Y314291D01*
G01X74333Y314291D01*
G01X74178Y314238D01*
G01X74074Y314134D01*
G01X74023Y313979D01*
G01X116586Y323268D02*
G01X117675Y323268D01*
G01X116586Y323268D02*
G01X116586Y323735D01*
G01X116636Y323890D01*
G01X116687Y323943D01*
G01X116791Y323994D01*
G01X116895Y323994D01*
G01X117000Y323943D01*
G01X117053Y323890D01*
G01X117104Y323735D01*
G01X117104Y323268D01*
G01X117104Y323631D02*
G01X117675Y323994D01*
G01X116845Y324390D02*
G01X116791Y324390D01*
G01X116687Y324441D01*
G01X116636Y324495D01*
G01X116586Y324599D01*
G01X116586Y324805D01*
G01X116636Y324909D01*
G01X116687Y324962D01*
G01X116791Y325013D01*
G01X116895Y325013D01*
G01X117000Y324962D01*
G01X117157Y324858D01*
G01X117675Y324337D01*
G01X117675Y325066D01*
G01X116586Y326135D02*
G01X117675Y325617D01*
G01X116586Y325409D02*
G01X116586Y326135D01*
G01X61485Y183128D02*
G01X61432Y183233D01*
G01X61328Y183337D01*
G01X61226Y183388D01*
G01X61018Y183388D01*
G01X60914Y183337D01*
G01X60810Y183233D01*
G01X60756Y183128D01*
G01X60706Y182974D01*
G01X60706Y182714D01*
G01X60756Y182557D01*
G01X60810Y182453D01*
G01X60914Y182349D01*
G01X61018Y182298D01*
G01X61226Y182298D01*
G01X61328Y182349D01*
G01X61432Y182453D01*
G01X61485Y182557D01*
G01X62450Y183388D02*
G01X61932Y183388D01*
G01X61879Y182920D01*
G01X61932Y182974D01*
G01X62087Y183024D01*
G01X62242Y183024D01*
G01X62400Y182974D01*
G01X62504Y182869D01*
G01X62555Y182714D01*
G01X62555Y182610D01*
G01X62504Y182453D01*
G01X62400Y182349D01*
G01X62242Y182298D01*
G01X62087Y182298D01*
G01X61932Y182349D01*
G01X61879Y182402D01*
G01X61828Y182506D01*
G01X33238Y346809D02*
G01X33134Y346913D01*
G01X32979Y346964D01*
G01X32771Y346964D01*
G01X32616Y346913D01*
G01X32512Y346809D01*
G01X32512Y346704D01*
G01X32562Y346600D01*
G01X32616Y346549D01*
G01X32720Y346496D01*
G01X33032Y346392D01*
G01X33134Y346341D01*
G01X33187Y346290D01*
G01X33238Y346186D01*
G01X33238Y346029D01*
G01X33134Y345925D01*
G01X32979Y345874D01*
G01X32771Y345874D01*
G01X32616Y345925D01*
G01X32512Y346029D01*
G01X34256Y346600D02*
G01X34206Y346445D01*
G01X34102Y346341D01*
G01X33947Y346290D01*
G01X33893Y346290D01*
G01X33738Y346341D01*
G01X33634Y346445D01*
G01X33581Y346600D01*
G01X33581Y346654D01*
G01X33634Y346809D01*
G01X33738Y346913D01*
G01X33893Y346964D01*
G01X33947Y346964D01*
G01X34102Y346913D01*
G01X34206Y346809D01*
G01X34256Y346600D01*
G01X34256Y346341D01*
G01X34206Y346082D01*
G01X34102Y345925D01*
G01X33947Y345874D01*
G01X33842Y345874D01*
G01X33685Y345925D01*
G01X33634Y346029D01*
G01X85816Y344777D02*
G01X85712Y344881D01*
G01X85557Y344932D01*
G01X85349Y344932D01*
G01X85194Y344881D01*
G01X85090Y344777D01*
G01X85090Y344672D01*
G01X85140Y344568D01*
G01X85194Y344517D01*
G01X85298Y344464D01*
G01X85610Y344360D01*
G01X85712Y344309D01*
G01X85765Y344258D01*
G01X85816Y344154D01*
G01X85816Y343997D01*
G01X85712Y343893D01*
G01X85557Y343842D01*
G01X85349Y343842D01*
G01X85194Y343893D01*
G01X85090Y343997D01*
G01X86159Y344726D02*
G01X86263Y344777D01*
G01X86420Y344932D01*
G01X86420Y343842D01*
G01X87073Y344932D02*
G01X86918Y344881D01*
G01X86814Y344726D01*
G01X86763Y344464D01*
G01X86763Y344309D01*
G01X86814Y344050D01*
G01X86918Y343893D01*
G01X87073Y343842D01*
G01X87177Y343842D01*
G01X87335Y343893D01*
G01X87439Y344050D01*
G01X87490Y344309D01*
G01X87490Y344464D01*
G01X87439Y344726D01*
G01X87335Y344881D01*
G01X87177Y344932D01*
G01X87073Y344932D01*
G01X93182Y344777D02*
G01X93078Y344881D01*
G01X92923Y344932D01*
G01X92715Y344932D01*
G01X92560Y344881D01*
G01X92456Y344777D01*
G01X92456Y344672D01*
G01X92506Y344568D01*
G01X92560Y344517D01*
G01X92664Y344464D01*
G01X92976Y344360D01*
G01X93078Y344309D01*
G01X93131Y344258D01*
G01X93182Y344154D01*
G01X93182Y343997D01*
G01X93078Y343893D01*
G01X92923Y343842D01*
G01X92715Y343842D01*
G01X92560Y343893D01*
G01X92456Y343997D01*
G01X93525Y344726D02*
G01X93629Y344777D01*
G01X93786Y344932D01*
G01X93786Y343842D01*
G01X94129Y344726D02*
G01X94234Y344777D01*
G01X94388Y344932D01*
G01X94388Y343842D01*
G01X109768Y217642D02*
G01X109664Y217538D01*
G01X109613Y217383D01*
G01X109613Y217175D01*
G01X109664Y217020D01*
G01X109768Y216916D01*
G01X109872Y216916D01*
G01X109976Y216966D01*
G01X110027Y217020D01*
G01X110081Y217124D01*
G01X110185Y217436D01*
G01X110236Y217538D01*
G01X110286Y217591D01*
G01X110390Y217642D01*
G01X110548Y217642D01*
G01X110652Y217538D01*
G01X110703Y217383D01*
G01X110703Y217175D01*
G01X110652Y217020D01*
G01X110548Y216916D01*
G01X109613Y218610D02*
G01X109613Y218089D01*
G01X110081Y218038D01*
G01X110027Y218089D01*
G01X109976Y218246D01*
G01X109976Y218401D01*
G01X110027Y218556D01*
G01X110131Y218660D01*
G01X110286Y218714D01*
G01X110390Y218714D01*
G01X110548Y218660D01*
G01X110652Y218556D01*
G01X110703Y218401D01*
G01X110703Y218246D01*
G01X110652Y218089D01*
G01X110599Y218038D01*
G01X110495Y217985D01*
G01X76217Y223883D02*
G01X76164Y223987D01*
G01X76060Y224091D01*
G01X75958Y224142D01*
G01X75750Y224142D01*
G01X75646Y224091D01*
G01X75542Y223987D01*
G01X75488Y223883D01*
G01X75438Y223728D01*
G01X75438Y223469D01*
G01X75488Y223311D01*
G01X75542Y223207D01*
G01X75646Y223103D01*
G01X75750Y223052D01*
G01X75958Y223052D01*
G01X76060Y223103D01*
G01X76164Y223207D01*
G01X76217Y223311D01*
G01X76819Y224142D02*
G01X76664Y224091D01*
G01X76611Y223987D01*
G01X76611Y223883D01*
G01X76664Y223779D01*
G01X76768Y223728D01*
G01X76974Y223674D01*
G01X77132Y223624D01*
G01X77236Y223520D01*
G01X77287Y223415D01*
G01X77287Y223260D01*
G01X77236Y223156D01*
G01X77182Y223103D01*
G01X77028Y223052D01*
G01X76819Y223052D01*
G01X76664Y223103D01*
G01X76611Y223156D01*
G01X76560Y223260D01*
G01X76560Y223415D01*
G01X76611Y223520D01*
G01X76715Y223624D01*
G01X76873Y223674D01*
G01X77078Y223728D01*
G01X77182Y223779D01*
G01X77236Y223883D01*
G01X77236Y223987D01*
G01X77182Y224091D01*
G01X77028Y224142D01*
G01X76819Y224142D01*
G54D26*
G01X73728Y221234D02*
G01X73728Y219572D01*
G01X72898Y220403D02*
G01X74561Y220403D01*
G54D25*
G01X104665Y189732D02*
G01X104612Y189837D01*
G01X104508Y189941D01*
G01X104406Y189992D01*
G01X104198Y189992D01*
G01X104094Y189941D01*
G01X103990Y189837D01*
G01X103936Y189732D01*
G01X103886Y189577D01*
G01X103886Y189318D01*
G01X103936Y189161D01*
G01X103990Y189057D01*
G01X104094Y188953D01*
G01X104198Y188902D01*
G01X104406Y188902D01*
G01X104508Y188953D01*
G01X104612Y189057D01*
G01X104665Y189161D01*
G01X105008Y189786D02*
G01X105112Y189837D01*
G01X105267Y189992D01*
G01X105267Y188902D01*
G01X105923Y189992D02*
G01X105765Y189941D01*
G01X105664Y189786D01*
G01X105610Y189524D01*
G01X105610Y189369D01*
G01X105664Y189110D01*
G01X105765Y188953D01*
G01X105923Y188902D01*
G01X106027Y188902D01*
G01X106182Y188953D01*
G01X106286Y189110D01*
G01X106337Y189369D01*
G01X106337Y189524D01*
G01X106286Y189786D01*
G01X106182Y189941D01*
G01X106027Y189992D01*
G01X105923Y189992D01*
G54D26*
G01X105986Y188214D02*
G01X105986Y186552D01*
G01X105156Y187383D02*
G01X106819Y187383D01*
G54D25*
G01X62755Y186430D02*
G01X62702Y186535D01*
G01X62598Y186639D01*
G01X62496Y186690D01*
G01X62288Y186690D01*
G01X62184Y186639D01*
G01X62080Y186535D01*
G01X62026Y186430D01*
G01X61976Y186276D01*
G01X61976Y186016D01*
G01X62026Y185859D01*
G01X62080Y185755D01*
G01X62184Y185651D01*
G01X62288Y185600D01*
G01X62496Y185600D01*
G01X62598Y185651D01*
G01X62702Y185755D01*
G01X62755Y185859D01*
G01X63720Y186535D02*
G01X63670Y186639D01*
G01X63512Y186690D01*
G01X63411Y186690D01*
G01X63253Y186639D01*
G01X63149Y186484D01*
G01X63098Y186222D01*
G01X63098Y185963D01*
G01X63149Y185755D01*
G01X63253Y185651D01*
G01X63411Y185600D01*
G01X63461Y185600D01*
G01X63616Y185651D01*
G01X63720Y185755D01*
G01X63774Y185912D01*
G01X63774Y185963D01*
G01X63720Y186118D01*
G01X63616Y186222D01*
G01X63461Y186276D01*
G01X63411Y186276D01*
G01X63253Y186222D01*
G01X63149Y186118D01*
G01X63098Y185963D01*
G54D26*
G01X56202Y191262D02*
G01X56202Y189600D01*
G01X55372Y190431D02*
G01X57035Y190431D01*
G01X56888Y75438D02*
G01X56842Y75529D01*
G01X56705Y75572D01*
G01X56570Y75572D01*
G01X56433Y75529D01*
G01X56388Y75438D01*
G01X56433Y75346D01*
G01X56525Y75300D01*
G01X56751Y75255D01*
G01X56842Y75209D01*
G01X56888Y75120D01*
G01X56888Y75074D01*
G01X56842Y74983D01*
G01X56705Y74937D01*
G01X56570Y74937D01*
G01X56433Y74983D01*
G01X56388Y75074D01*
G01X57459Y75892D02*
G01X57325Y75846D01*
G01X57233Y75709D01*
G01X57188Y75483D01*
G01X57188Y75346D01*
G01X57233Y75120D01*
G01X57325Y74983D01*
G01X57459Y74937D01*
G01X57551Y74937D01*
G01X57688Y74983D01*
G01X57779Y75120D01*
G01X57823Y75346D01*
G01X57823Y75483D01*
G01X57779Y75709D01*
G01X57688Y75846D01*
G01X57551Y75892D01*
G01X57459Y75892D01*
G01X56888Y78069D02*
G01X56842Y78160D01*
G01X56705Y78204D01*
G01X56570Y78204D01*
G01X56433Y78160D01*
G01X56388Y78069D01*
G01X56433Y77978D01*
G01X56525Y77932D01*
G01X56751Y77886D01*
G01X56842Y77840D01*
G01X56888Y77751D01*
G01X56888Y77706D01*
G01X56842Y77614D01*
G01X56705Y77569D01*
G01X56570Y77569D01*
G01X56433Y77614D01*
G01X56388Y77706D01*
G01X57188Y78341D02*
G01X57279Y78386D01*
G01X57414Y78524D01*
G01X57414Y77569D01*
G01X56888Y80609D02*
G01X56842Y80700D01*
G01X56705Y80744D01*
G01X56570Y80744D01*
G01X56433Y80700D01*
G01X56388Y80609D01*
G01X56433Y80518D01*
G01X56525Y80472D01*
G01X56751Y80426D01*
G01X56842Y80380D01*
G01X56888Y80291D01*
G01X56888Y80246D01*
G01X56842Y80154D01*
G01X56705Y80109D01*
G01X56570Y80109D01*
G01X56433Y80154D01*
G01X56388Y80246D01*
G01X57233Y80835D02*
G01X57233Y80881D01*
G01X57279Y80972D01*
G01X57325Y81018D01*
G01X57414Y81064D01*
G01X57597Y81064D01*
G01X57688Y81018D01*
G01X57734Y80972D01*
G01X57779Y80881D01*
G01X57779Y80789D01*
G01X57734Y80700D01*
G01X57642Y80563D01*
G01X57188Y80109D01*
G01X57823Y80109D01*
G01X56888Y83149D02*
G01X56842Y83240D01*
G01X56705Y83284D01*
G01X56570Y83284D01*
G01X56433Y83240D01*
G01X56388Y83149D01*
G01X56433Y83058D01*
G01X56525Y83012D01*
G01X56751Y82966D01*
G01X56842Y82920D01*
G01X56888Y82831D01*
G01X56888Y82786D01*
G01X56842Y82694D01*
G01X56705Y82649D01*
G01X56570Y82649D01*
G01X56433Y82694D01*
G01X56388Y82786D01*
G01X57279Y83604D02*
G01X57779Y83604D01*
G01X57505Y83240D01*
G01X57642Y83240D01*
G01X57734Y83195D01*
G01X57779Y83149D01*
G01X57823Y83012D01*
G01X57823Y82920D01*
G01X57779Y82786D01*
G01X57688Y82694D01*
G01X57551Y82649D01*
G01X57414Y82649D01*
G01X57279Y82694D01*
G01X57233Y82740D01*
G01X57188Y82831D01*
G01X47498Y85852D02*
G01X47498Y84896D01*
G01X47498Y85852D02*
G01X47906Y85852D01*
G01X48044Y85806D01*
G01X48089Y85760D01*
G01X48135Y85669D01*
G01X48135Y85577D01*
G01X48089Y85488D01*
G01X48044Y85443D01*
G01X47906Y85397D01*
G01X47498Y85397D01*
G01X47815Y85397D02*
G01X48135Y84896D01*
G01X49070Y85714D02*
G01X48978Y85806D01*
G01X48844Y85852D01*
G01X48661Y85852D01*
G01X48524Y85806D01*
G01X48435Y85714D01*
G01X48435Y85623D01*
G01X48480Y85531D01*
G01X48524Y85488D01*
G01X48615Y85443D01*
G01X48889Y85351D01*
G01X48978Y85305D01*
G01X49024Y85260D01*
G01X49070Y85168D01*
G01X49070Y85034D01*
G01X48978Y84942D01*
G01X48844Y84896D01*
G01X48661Y84896D01*
G01X48524Y84942D01*
G01X48435Y85034D01*
G01X49690Y85852D02*
G01X49690Y84896D01*
G01X49369Y85852D02*
G01X50007Y85852D01*
G01X46908Y83083D02*
G01X46865Y83174D01*
G01X46774Y83266D01*
G01X46682Y83312D01*
G01X46499Y83312D01*
G01X46410Y83266D01*
G01X46319Y83174D01*
G01X46273Y83083D01*
G01X46228Y82948D01*
G01X46228Y82720D01*
G01X46273Y82583D01*
G01X46319Y82494D01*
G01X46410Y82402D01*
G01X46499Y82356D01*
G01X46682Y82356D01*
G01X46774Y82402D01*
G01X46865Y82494D01*
G01X46908Y82583D01*
G01X46908Y82720D01*
G01X46682Y82720D02*
G01X46908Y82720D01*
G01X47210Y83312D02*
G01X47210Y82356D01*
G01X47210Y83312D02*
G01X47619Y83312D01*
G01X47754Y83266D01*
G01X47800Y83220D01*
G01X47845Y83129D01*
G01X47845Y82991D01*
G01X47800Y82903D01*
G01X47754Y82857D01*
G01X47619Y82811D01*
G01X47210Y82811D01*
G01X48145Y83312D02*
G01X48145Y82356D01*
G01X48719Y83312D02*
G01X48628Y83266D01*
G01X48536Y83174D01*
G01X48491Y83083D01*
G01X48445Y82948D01*
G01X48445Y82720D01*
G01X48491Y82583D01*
G01X48536Y82494D01*
G01X48628Y82402D01*
G01X48719Y82356D01*
G01X48900Y82356D01*
G01X48991Y82402D01*
G01X49082Y82494D01*
G01X49128Y82583D01*
G01X49174Y82720D01*
G01X49174Y82948D01*
G01X49128Y83083D01*
G01X49082Y83174D01*
G01X48991Y83266D01*
G01X48900Y83312D01*
G01X48719Y83312D01*
G01X49745Y83312D02*
G01X49608Y83266D01*
G01X49519Y83129D01*
G01X49474Y82903D01*
G01X49474Y82765D01*
G01X49519Y82539D01*
G01X49608Y82402D01*
G01X49745Y82356D01*
G01X49837Y82356D01*
G01X49974Y82402D01*
G01X50063Y82539D01*
G01X50109Y82765D01*
G01X50109Y82903D01*
G01X50063Y83129D01*
G01X49974Y83266D01*
G01X49837Y83312D01*
G01X49745Y83312D01*
G01X48577Y45212D02*
G01X48577Y44256D01*
G01X48260Y45212D02*
G01X48897Y45212D01*
G01X49197Y45212D02*
G01X49832Y44256D01*
G01X49832Y45212D02*
G01X49197Y44256D01*
G01X48260Y47752D02*
G01X48260Y46796D01*
G01X48260Y47752D02*
G01X48668Y47752D01*
G01X48806Y47706D01*
G01X48851Y47660D01*
G01X48897Y47569D01*
G01X48897Y47477D01*
G01X48851Y47388D01*
G01X48806Y47343D01*
G01X48668Y47297D01*
G01X48260Y47297D01*
G01X48577Y47297D02*
G01X48897Y46796D01*
G01X49197Y47752D02*
G01X49832Y46796D01*
G01X49832Y47752D02*
G01X49197Y46796D01*
G54D10*
G01X-3556Y380238D02*
G01X-3556Y201248D01*
G01X-3556Y179243D02*
G01X-3556Y254D01*
G01X-4318Y378968D02*
G01X-3556Y380238D01*
G01X-2794Y378968D01*
G01X-4318Y1524D02*
G01X-3556Y254D01*
G01X-2794Y1524D01*
G01X-4942Y179982D02*
G01X-4942Y181252D01*
G01X-4017Y180558D01*
G01X-4017Y180906D01*
G01X-3903Y181135D01*
G01X-3786Y181252D01*
G01X-3441Y181366D01*
G01X-3210Y181366D01*
G01X-2862Y181252D01*
G01X-2633Y181021D01*
G01X-2516Y180675D01*
G01X-2516Y180327D01*
G01X-2633Y179982D01*
G01X-2747Y179865D01*
G01X-2978Y179751D01*
G01X-4942Y183746D02*
G01X-2516Y182590D01*
G01X-4942Y182128D02*
G01X-4942Y183746D01*
G01X-4132Y186009D02*
G01X-3786Y185892D01*
G01X-3555Y185661D01*
G01X-3441Y185316D01*
G01X-3441Y185199D01*
G01X-3555Y184854D01*
G01X-3786Y184622D01*
G01X-4132Y184508D01*
G01X-4248Y184508D01*
G01X-4594Y184622D01*
G01X-4825Y184854D01*
G01X-4942Y185199D01*
G01X-4942Y185316D01*
G01X-4825Y185661D01*
G01X-4594Y185892D01*
G01X-4132Y186009D01*
G01X-3555Y186009D01*
G01X-2978Y185892D01*
G01X-2633Y185661D01*
G01X-2516Y185316D01*
G01X-2516Y185085D01*
G01X-2633Y184739D01*
G01X-2862Y184622D01*
G01X-3093Y186886D02*
G01X-2978Y186771D01*
G01X-2862Y186886D01*
G01X-2978Y187002D01*
G01X-3093Y186886D01*
G01X-4132Y189263D02*
G01X-3786Y189149D01*
G01X-3555Y188918D01*
G01X-3441Y188572D01*
G01X-3441Y188455D01*
G01X-3555Y188110D01*
G01X-3786Y187879D01*
G01X-4132Y187764D01*
G01X-4248Y187764D01*
G01X-4594Y187879D01*
G01X-4825Y188110D01*
G01X-4942Y188455D01*
G01X-4942Y188572D01*
G01X-4825Y188918D01*
G01X-4594Y189149D01*
G01X-4132Y189263D01*
G01X-3555Y189263D01*
G01X-2978Y189149D01*
G01X-2633Y188918D01*
G01X-2516Y188572D01*
G01X-2516Y188341D01*
G01X-2633Y187993D01*
G01X-2862Y187879D01*
G01X-4942Y190604D02*
G01X-4825Y190256D01*
G01X-4594Y190142D01*
G01X-4363Y190142D01*
G01X-4132Y190256D01*
G01X-4017Y190487D01*
G01X-3903Y190950D01*
G01X-3786Y191295D01*
G01X-3555Y191526D01*
G01X-3324Y191643D01*
G01X-2978Y191643D01*
G01X-2747Y191526D01*
G01X-2633Y191412D01*
G01X-2516Y191066D01*
G01X-2516Y190604D01*
G01X-2633Y190256D01*
G01X-2747Y190142D01*
G01X-2978Y190025D01*
G01X-3324Y190025D01*
G01X-3555Y190142D01*
G01X-3786Y190373D01*
G01X-3903Y190718D01*
G01X-4017Y191181D01*
G01X-4132Y191412D01*
G01X-4363Y191526D01*
G01X-4594Y191526D01*
G01X-4825Y191412D01*
G01X-4942Y191066D01*
G01X-4942Y190604D01*
G01X-4942Y193558D02*
G01X-3324Y192405D01*
G01X-3324Y194137D01*
G01X-4942Y193558D02*
G01X-2516Y193558D01*
G01X-4132Y194899D02*
G01X-2516Y194899D01*
G01X-3672Y194899D02*
G01X-4017Y195245D01*
G01X-4132Y195476D01*
G01X-4132Y195821D01*
G01X-4017Y196052D01*
G01X-3672Y196169D01*
G01X-2516Y196169D01*
G01X-3672Y196169D02*
G01X-4017Y196515D01*
G01X-4132Y196746D01*
G01X-4132Y197091D01*
G01X-4017Y197322D01*
G01X-3672Y197439D01*
G01X-2516Y197439D01*
G01X-4132Y198201D02*
G01X-2516Y198201D01*
G01X-3672Y198201D02*
G01X-4017Y198547D01*
G01X-4132Y198778D01*
G01X-4132Y199123D01*
G01X-4017Y199354D01*
G01X-3672Y199471D01*
G01X-2516Y199471D01*
G01X-3672Y199471D02*
G01X-4017Y199817D01*
G01X-4132Y200048D01*
G01X-4132Y200393D01*
G01X-4017Y200624D01*
G01X-3672Y200741D01*
G01X-2516Y200741D01*
G01X124460Y-23368D02*
G01X72828Y-23368D01*
G01X51631Y-23368D02*
G01X0Y-23368D01*
G01X123190Y-22606D02*
G01X124460Y-23368D01*
G01X123190Y-24130D01*
G01X1270Y-22606D02*
G01X0Y-23368D01*
G01X1270Y-24130D01*
G01X52138Y-22443D02*
G01X52369Y-22329D01*
G01X52717Y-21983D01*
G01X52717Y-24406D01*
G01X53594Y-22560D02*
G01X53594Y-22443D01*
G01X53708Y-22212D01*
G01X53825Y-22098D01*
G01X54056Y-21983D01*
G01X54518Y-21983D01*
G01X54749Y-22098D01*
G01X54864Y-22212D01*
G01X54978Y-22443D01*
G01X54978Y-22674D01*
G01X54864Y-22905D01*
G01X54632Y-23253D01*
G01X53479Y-24406D01*
G01X55095Y-24406D01*
G01X57010Y-21983D02*
G01X55857Y-23599D01*
G01X57589Y-23599D01*
G01X57010Y-21983D02*
G01X57010Y-24406D01*
G01X58465Y-23830D02*
G01X58351Y-23944D01*
G01X58465Y-24061D01*
G01X58582Y-23944D01*
G01X58465Y-23830D01*
G01X60497Y-21983D02*
G01X59344Y-23599D01*
G01X61074Y-23599D01*
G01X60497Y-21983D02*
G01X60497Y-24406D01*
G01X63223Y-22329D02*
G01X63106Y-22098D01*
G01X62760Y-21983D01*
G01X62529Y-21983D01*
G01X62184Y-22098D01*
G01X61953Y-22443D01*
G01X61836Y-23022D01*
G01X61836Y-23599D01*
G01X61953Y-24061D01*
G01X62184Y-24292D01*
G01X62529Y-24406D01*
G01X62646Y-24406D01*
G01X62992Y-24292D01*
G01X63223Y-24061D01*
G01X63337Y-23713D01*
G01X63337Y-23599D01*
G01X63223Y-23253D01*
G01X62992Y-23022D01*
G01X62646Y-22905D01*
G01X62529Y-22905D01*
G01X62184Y-23022D01*
G01X61953Y-23253D01*
G01X61836Y-23599D01*
G01X64792Y-21983D02*
G01X64447Y-22098D01*
G01X64216Y-22443D01*
G01X64099Y-23022D01*
G01X64099Y-23368D01*
G01X64216Y-23944D01*
G01X64447Y-24292D01*
G01X64792Y-24406D01*
G01X65024Y-24406D01*
G01X65369Y-24292D01*
G01X65600Y-23944D01*
G01X65717Y-23368D01*
G01X65717Y-23022D01*
G01X65600Y-22443D01*
G01X65369Y-22098D01*
G01X65024Y-21983D01*
G01X64792Y-21983D01*
G01X66479Y-22791D02*
G01X66479Y-24406D01*
G01X66479Y-23253D02*
G01X66824Y-22905D01*
G01X67056Y-22791D01*
G01X67401Y-22791D01*
G01X67632Y-22905D01*
G01X67749Y-23253D01*
G01X67749Y-24406D01*
G01X67749Y-23253D02*
G01X68094Y-22905D01*
G01X68326Y-22791D01*
G01X68671Y-22791D01*
G01X68902Y-22905D01*
G01X69019Y-23253D01*
G01X69019Y-24406D01*
G01X69781Y-22791D02*
G01X69781Y-24406D01*
G01X69781Y-23253D02*
G01X70126Y-22905D01*
G01X70358Y-22791D01*
G01X70703Y-22791D01*
G01X70934Y-22905D01*
G01X71051Y-23253D01*
G01X71051Y-24406D01*
G01X71051Y-23253D02*
G01X71396Y-22905D01*
G01X71628Y-22791D01*
G01X71973Y-22791D01*
G01X72204Y-22905D01*
G01X72321Y-23253D01*
G01X72321Y-24406D01*
G75*
G01X50800Y126746D02*
G2X48768Y126746I-1016J-70D01*
G01*
G75*
G01X89154Y126746D02*
G2X87122Y126746I-1016J-70D01*
G01*
G75*
G01X89154Y294894D02*
G2X87122Y294894I-1016J-70D01*
G01*
G75*
G01X48260Y294894D02*
G2X46228Y294894I-1016J-70D01*
G01*
G75*
G01X28448Y275590D02*
G03X28448Y275590I-508J0D01*
G01*
G75*
G01X27114Y328930D02*
G03X27114Y328930I-4000J0D01*
G01*
G75*
G01X62166Y339344D02*
G03X62166Y339344I-4000J0D01*
G01*
G75*
G01X122110Y304292D02*
G03X122110Y304292I-4000J0D01*
G01*
G75*
G01X79438Y218186D02*
G03X79438Y218186I-4000J0D01*
G01*
G75*
G01X111696Y185166D02*
G03X111696Y185166I-4000J0D01*
G01*
G75*
G01X61912Y188214D02*
G03X61912Y188214I-4000J0D01*
G01*
M00*
M02*
