;PTH Drill file created by EasyEDA 
M48
METRIC,LZ,000.000
;Holesize 1 = 0.305 METRIC
T01C0.305
;Holesize 2 = 0.400 METRIC
T02C0.400
;Holesize 3 = 0.640 METRIC
T03C0.640
;Holesize 4 = 0.681 METRIC
T04C0.681
;Holesize 5 = 0.751 METRIC
T05C0.751
;Holesize 6 = 0.915 METRIC
T06C0.915
;Holesize 7 = 0.941 METRIC
T07C0.941
;Holesize 8 = 1.000 METRIC
T08C1.000
;Holesize 9 = 6.000 METRIC
T09C6.000
%
G05
G90
T01
X+029464Y+243078
X+042926Y+147574
X+100838Y+143256
X+049530Y+154940
X+062230Y+147066
X+044196Y+341122
X+044196Y+329692
X+109982Y+330708
X+084074Y+316992
X+098298Y+203200
X+105156Y+194310
X+064516Y+354076
X+052832Y+352806
X+051054Y+303784
X+107696Y+309626
X+109982Y+309880
X+107950Y+321818
X+026924Y+256286
X+091694Y+251968
X+094742Y+229870
X+092710Y+253238
X+095250Y+241300
X+087630Y+256032
X+108671Y+263692
X+109982Y+260604
X+109982Y+256794
X+113792Y+250698
X+120142Y+250698
X+107188Y+263652
X+107696Y+260604
X+107696Y+256794
X+046736Y+207010
X+043942Y+208026
X+041910Y+211328
X+041910Y+186690
X+058928Y+212852
X+068580Y+211074
X+075486Y+197309
X+108966Y+191516
X+107442Y+195326
X+110030Y+206296
X+104902Y+152908
X+108966Y+153162
X+109220Y+148844
X+115316Y+184658
X+097536Y+149606
X+089154Y+153162
X+088900Y+149606
X+103886Y+161544
X+103886Y+153416
X+064008Y+165862
X+061722Y+168148
X+073914Y+168148
X+029210Y+159766
X+056896Y+160274
X+029718Y+163830
X+029718Y+165862
X+046990Y+175006
X+046990Y+167386
X+026416Y+188214
X+016764Y+235204
X+056134Y+249936
X+056134Y+246634
T02
X+081026Y+087884
X+081026Y+089916
X+104394Y+146558
X+100076Y+136652
X+097282Y+141224
X+096266Y+136652
X+096266Y+141224
X+091186Y+141224
X+096266Y+143256
X+081280Y+133604
X+051308Y+149860
X+063754Y+135128
X+063754Y+140716
X+102362Y+135636
X+065532Y+143002
X+097282Y+132588
X+045720Y+097028
X+055880Y+123698
X+045974Y+187706
X+070104Y+133096
X+074422Y+136652
X+071628Y+142494
X+075438Y+136652
X+075438Y+140716
X+075438Y+170180
X+070358Y+170180
X+107696Y+147574
X+107696Y+153162
X+082804Y+182118
X+079502Y+203200
X+077978Y+136652
X+077978Y+140716
X+075692Y+173482
X+066040Y+173482
X+047244Y+188722
X+066548Y+133096
X+066040Y+136652
X+065786Y+140716
X+098806Y+128270
X+082296Y+180594
X+065532Y+180594
X+122174Y+234442
X+088138Y+128016
X+120142Y+137160
X+086868Y+129032
X+120142Y+139192
X+121158Y+172466
X+106172Y+196342
X+115062Y+232664
X+085852Y+125984
X+076454Y+136652
X+076454Y+140716
X+091186Y+177800
X+103632Y+195580
X+091186Y+233426
X+077470Y+125730
X+077470Y+128778
X+091948Y+133604
X+093472Y+136652
X+093472Y+139700
X+102870Y+179578
X+104902Y+196596
X+108204Y+229362
X+069850Y+131826
X+066040Y+131826
X+064770Y+136144
X+064770Y+141732
X+064516Y+172212
X+102108Y+195326
X+039878Y+155956
X+096520Y+223266
X+041910Y+149352
X+038862Y+155956
X+075438Y+239014
X+050546Y+125476
X+049276Y+124968
X+048006Y+124206
X+050546Y+141224
X+049276Y+139446
X+048006Y+138430
X+039624Y+141224
X+038100Y+139446
X+036576Y+138430
X+043942Y+110998
X+033782Y+274066
X+050546Y+087884
X+051308Y+089916
X+038862Y+108204
X+038862Y+110998
X+032766Y+268224
X+052324Y+087884
X+036830Y+108204
X+036830Y+111760
X+031750Y+266954
X+034798Y+108204
X+034798Y+112522
X+030734Y+265684
X+041148Y+243078
X+041148Y+241808
X+041148Y+240538
X+041148Y+239268
X+029718Y+239268
X+044958Y+352298
X+043434Y+351536
X+080518Y+362712
X+106426Y+331978
X+082296Y+333756
X+036322Y+353314
X+072390Y+347726
X+068834Y+353568
X+107696Y+349758
X+110490Y+363728
X+046736Y+345694
X+037338Y+353314
X+073914Y+348488
X+071374Y+353822
X+053594Y+324358
X+056134Y+326898
X+046990Y+331724
X+056642Y+291592
X+056642Y+310896
X+058166Y+291592
X+058166Y+299212
X+059690Y+319532
X+059944Y+330200
X+065278Y+313690
X+087630Y+294640
X+085852Y+298450
X+061214Y+331216
X+096774Y+291846
X+101600Y+314452
X+086106Y+294132
X+085344Y+297180
X+070104Y+300228
X+052324Y+317500
X+049022Y+330962
X+121920Y+362712
X+097536Y+361442
X+101854Y+367792
X+076454Y+356108
X+067818Y+362966
X+036322Y+356870
X+028702Y+329692
X+037592Y+322072
X+103378Y+310896
X+113538Y+243840
X+099568Y+256794
X+112268Y+260858
X+080264Y+242570
X+113792Y+147574
X+114046Y+155448
X+048006Y+173482
X+042672Y+072390
X+069088Y+135890
X+090678Y+134112
X+090678Y+136652
X+080010Y+141732
X+088646Y+140970
X+101600Y+128270
X+101092Y+136652
X+101092Y+141224
T03
X+091302Y+147212
X+091302Y+144672
X+088762Y+147212
X+088762Y+144672
X+086222Y+147212
X+086222Y+144672
X+083682Y+147212
X+083682Y+144670
X+056758Y+167024
X+056758Y+164484
X+054218Y+167024
X+054218Y+164484
X+051678Y+167024
X+051678Y+164484
X+049138Y+167024
X+049138Y+164482
X+120004Y+257956
X+120004Y+255416
X+117464Y+257956
X+117464Y+255416
X+114924Y+257956
X+114924Y+255416
X+112384Y+257956
X+112384Y+255414
X+039253Y+355453
X+039253Y+357993
X+041793Y+355453
X+041793Y+357993
X+044333Y+355453
X+044333Y+357993
X+046873Y+355453
X+046873Y+357992
X+116439Y+365114
X+118979Y+365114
X+116439Y+362574
X+118979Y+362574
X+116439Y+360034
X+118979Y+360034
X+116439Y+357494
X+118981Y+357494
X+074060Y+357515
X+071520Y+357515
X+074060Y+360055
X+071520Y+360055
X+074060Y+362595
X+071520Y+362595
X+074060Y+365135
X+071521Y+365135
X+116439Y+154294
X+118979Y+154294
X+116439Y+151754
X+118979Y+151754
X+116439Y+149214
X+118979Y+149214
X+116439Y+146674
X+118981Y+146674
X+085197Y+245226
X+087737Y+245226
X+085197Y+242686
X+087737Y+242686
X+085197Y+240146
X+087737Y+240146
X+085197Y+237606
X+087739Y+237606
X+020427Y+245226
X+022967Y+245226
X+020427Y+242686
X+022967Y+242686
X+020427Y+240146
X+022967Y+240146
X+020427Y+237606
X+022969Y+237606
X+052216Y+200014
X+049676Y+200014
X+052216Y+197474
X+049676Y+197474
X+052216Y+194934
X+049676Y+194934
X+052216Y+192394
X+049677Y+192394
X+119242Y+190353
X+119242Y+192893
X+116702Y+190353
X+116702Y+192893
X+114162Y+190353
X+114162Y+192893
X+111622Y+190353
X+111622Y+192892
X+031125Y+332378
X+031125Y+329838
X+033665Y+332378
X+033665Y+329838
X+036205Y+332378
X+036205Y+329838
X+038745Y+332378
X+038745Y+329836
X+073268Y+330053
X+073268Y+332593
X+070728Y+330053
X+070728Y+332593
X+068188Y+330053
X+068188Y+332593
X+065648Y+330053
X+065648Y+332592
X+120288Y+319902
X+117748Y+319902
X+120288Y+317362
X+117748Y+317362
X+120288Y+314822
X+117748Y+314822
X+120288Y+312282
X+117749Y+312282
X+084698Y+210165
X+084698Y+212705
X+082158Y+210165
X+082158Y+212705
X+079618Y+210165
X+079618Y+212705
X+077078Y+210165
X+077078Y+212704
T04
X+068580Y+039624
X+068580Y+037084
X+071120Y+039624
X+071120Y+037084
X+073660Y+039624
X+073660Y+037084
X+076200Y+039624
X+076200Y+037084
X+078740Y+039624
X+078740Y+037084
X+081280Y+039624
X+081280Y+037084
X+083820Y+039624
X+083820Y+037084
X+086360Y+039624
X+086360Y+037084
X+088900Y+039624
X+088900Y+037084
X+091440Y+039624
X+091440Y+037084
X+093980Y+039624
X+093980Y+037084
X+096520Y+039624
X+096520Y+037084
X+099060Y+039624
X+099060Y+037084
X+101600Y+039624
X+101600Y+037084
X+104140Y+039624
X+104140Y+037084
X+106680Y+039624
X+106680Y+037084
X+109220Y+039624
X+109220Y+037084
X+111760Y+039624
X+111760Y+037084
X+114300Y+039624
X+114300Y+037084
X+116840Y+039624
X+116840Y+037084
X+054356Y+037084
X+051816Y+037084
X+054356Y+039624
X+051816Y+039624
X+054356Y+042164
X+051816Y+042164
X+054356Y+044704
X+051816Y+044704
X+054356Y+047244
X+051816Y+047244
X+054356Y+049784
X+051816Y+049784
X+054356Y+052324
X+051816Y+052324
X+054356Y+054864
X+051816Y+054864
X+054356Y+057404
X+051816Y+057404
X+054356Y+059944
X+051816Y+059944
X+054356Y+062484
X+051816Y+062484
X+054356Y+065024
X+051816Y+065024
X+054356Y+067564
X+051816Y+067564
X+054356Y+070104
X+051816Y+070104
X+054356Y+072644
X+051816Y+072644
X+054356Y+075184
X+051816Y+075184
X+054356Y+077724
X+051816Y+077724
X+054356Y+080264
X+051816Y+080264
X+054356Y+082804
X+051816Y+082804
X+054356Y+085344
X+051816Y+085344
T05
X+110236Y+124968
X+110236Y+122428
X+110236Y+119888
X+110236Y+117348
X+110236Y+114808
X+110236Y+112268
X+110236Y+109728
X+110236Y+107188
X+102108Y+107188
X+102108Y+109728
X+102108Y+112268
X+102108Y+114808
X+102108Y+117348
X+102108Y+119888
X+102108Y+122428
X+102108Y+124968
X+071882Y+124968
X+071882Y+122428
X+071882Y+119888
X+071882Y+117348
X+071882Y+114808
X+071882Y+112268
X+071882Y+109728
X+071882Y+107188
X+063754Y+107188
X+063754Y+109728
X+063754Y+112268
X+063754Y+114808
X+063754Y+117348
X+063754Y+119888
X+063754Y+122428
X+063754Y+124968
X+071882Y+293116
X+071882Y+290576
X+071882Y+288036
X+071882Y+285496
X+071882Y+282956
X+071882Y+280416
X+071882Y+277876
X+071882Y+275336
X+063754Y+275336
X+063754Y+277876
X+063754Y+280416
X+063754Y+282956
X+063754Y+285496
X+063754Y+288036
X+063754Y+290576
X+063754Y+293116
X+110236Y+293116
X+110236Y+290576
X+110236Y+288036
X+110236Y+285496
X+110236Y+282956
X+110236Y+280416
X+110236Y+277876
X+110236Y+275336
X+102108Y+275336
X+102108Y+277876
X+102108Y+280416
X+102108Y+282956
X+102108Y+285496
X+102108Y+288036
X+102108Y+290576
X+102108Y+293116
X+101019Y+162628
X+101019Y+160088
X+101019Y+157548
X+070793Y+159580
X+070793Y+157040
X+070793Y+154500
X+059109Y+141292
X+059109Y+138752
X+059109Y+136212
X+046409Y+234764
X+046409Y+232224
X+046409Y+229684
X+097463Y+375734
X+097463Y+373194
X+097463Y+370654
X+076381Y+375988
X+076381Y+373448
X+076381Y+370908
X+106099Y+241368
X+106099Y+238828
X+106099Y+236288
X+053775Y+375480
X+053775Y+372940
X+053775Y+370400
X+056823Y+234764
X+056823Y+232224
X+056823Y+229684
X+045720Y+124968
X+045720Y+122428
X+045720Y+119888
X+045720Y+117348
X+045720Y+114808
X+045720Y+112268
X+045720Y+109728
X+045720Y+107188
X+053848Y+107188
X+053848Y+109728
X+053848Y+112268
X+053848Y+114808
X+053848Y+117348
X+053848Y+119888
X+053848Y+122428
X+053848Y+124968
X+084074Y+124968
X+084074Y+122428
X+084074Y+119888
X+084074Y+117348
X+084074Y+114808
X+084074Y+112268
X+084074Y+109728
X+084074Y+107188
X+092202Y+107188
X+092202Y+109728
X+092202Y+112268
X+092202Y+114808
X+092202Y+117348
X+092202Y+119888
X+092202Y+122428
X+092202Y+124968
X+029972Y+275590
X+029972Y+278130
X+029972Y+280670
X+029972Y+283210
X+029972Y+285750
X+029972Y+288290
X+029972Y+290830
X+022352Y+290830
X+022352Y+288290
X+022352Y+285750
X+022352Y+283210
X+022352Y+280670
X+022352Y+278130
X+022352Y+275590
X+084074Y+293116
X+084074Y+290576
X+084074Y+288036
X+084074Y+285496
X+084074Y+282956
X+084074Y+280416
X+084074Y+277876
X+084074Y+275336
X+092202Y+275336
X+092202Y+277876
X+092202Y+280416
X+092202Y+282956
X+092202Y+285496
X+092202Y+288036
X+092202Y+290576
X+092202Y+293116
X+043180Y+293116
X+043180Y+290576
X+043180Y+288036
X+043180Y+285496
X+043180Y+282956
X+043180Y+280416
X+043180Y+277876
X+043180Y+275336
X+051308Y+275336
X+051308Y+277876
X+051308Y+280416
X+051308Y+282956
X+051308Y+285496
X+051308Y+288036
X+051308Y+290576
X+051308Y+293116
X+055557Y+207082
X+058097Y+207082
X+060637Y+207082
X+091004Y+195394
X+091004Y+192854
X+091004Y+190314
X+033600Y+343730
X+033600Y+341190
X+033600Y+338650
X+086178Y+341444
X+086178Y+338904
X+086178Y+336364
X+093290Y+341444
X+093290Y+338904
X+093290Y+336364
X+113215Y+216988
X+115755Y+216988
X+118295Y+216988
T06
X+112014Y+361442
X+078232Y+352298
X+041910Y+352298
X+120650Y+261620
X+080264Y+232410
X+017018Y+247396
X+111252Y+151892
X+096266Y+151638
X+050546Y+169926
X+110284Y+378439
X+121784Y+378439
X+061516Y+372597
X+073016Y+372597
X+029697Y+363679
X+029697Y+352179
X+110727Y+370348
X+110744Y+366348
X+104837Y+370114
X+104837Y+366613
X+063229Y+359139
X+067229Y+359156
X+065975Y+366558
X+065975Y+363057
X+052307Y+362949
X+056307Y+362966
X+054799Y+359192
X+054799Y+355691
X+033761Y+363679
X+033761Y+352179
X+081259Y+364187
X+081259Y+352687
X+110284Y+373359
X+121784Y+373359
X+106728Y+348213
X+118228Y+348213
X+085364Y+352600
X+085364Y+364100
X+050751Y+348508
X+039251Y+348508
X+110284Y+264139
X+121784Y+264139
X+077703Y+246331
X+077703Y+234831
X+028145Y+250464
X+016645Y+250464
X+105934Y+261128
X+101934Y+261112
X+104583Y+255814
X+104583Y+252313
X+100059Y+246396
X+100076Y+242396
X+094931Y+247686
X+094931Y+244185
X+027669Y+231410
X+027686Y+227410
X+023912Y+229680
X+020411Y+229680
X+110538Y+270997
X+122038Y+270997
X+068813Y+246331
X+068813Y+234831
X+028145Y+253512
X+016645Y+253512
X+121871Y+267736
X+110371Y+267736
X+073426Y+234744
X+073426Y+246244
X+016489Y+237187
X+016489Y+225687
X+105966Y+159491
X+117466Y+159491
X+081836Y+161015
X+093336Y+161015
X+073865Y+165374
X+062365Y+165374
X+073168Y+142002
X+069168Y+141986
X+073442Y+147384
X+069941Y+147384
X+061705Y+175530
X+061722Y+171530
X+056323Y+175296
X+056323Y+171795
X+105966Y+162539
X+117466Y+162539
X+073708Y+154665
X+085208Y+154665
X+061927Y+179344
X+050427Y+179344
X+120601Y+130830
X+109101Y+130830
X+085295Y+157500
X+073795Y+157500
X+061996Y+149400
X+061996Y+160900
X+118126Y+139208
X+114126Y+139192
X+110425Y+144308
X+110425Y+140807
X+102849Y+354281
X+102849Y+342781
X+078437Y+348254
X+066937Y+348254
X+049227Y+342920
X+037727Y+342920
X+102918Y+339577
X+114418Y+339577
X+083291Y+377903
X+083291Y+366403
X+053134Y+348467
X+064634Y+348467
X+107236Y+345165
X+118736Y+345165
X+058907Y+372569
X+058907Y+361069
X+025379Y+363679
X+025379Y+352179
X+102821Y+270022
X+091321Y+270022
X+063012Y+252270
X+063012Y+263770
X+040180Y+263631
X+051680Y+263631
X+091234Y+267441
X+102734Y+267441
X+066273Y+263857
X+066273Y+252357
X+051767Y+260370
X+040267Y+260370
X+091234Y+264139
X+102734Y+264139
X+069321Y+263857
X+069321Y+252357
X+051767Y+257068
X+040267Y+257068
X+117299Y+165374
X+105799Y+165374
X+096979Y+170454
X+085479Y+170454
X+017320Y+172699
X+028820Y+172699
X+105712Y+168127
X+117212Y+168127
X+085392Y+173207
X+096892Y+173207
X+028907Y+175280
X+017407Y+175280
X+105712Y+170921
X+117212Y+170921
X+085392Y+176001
X+096892Y+176001
X+028907Y+178328
X+017407Y+178328
X+058420Y+197358
X+090170Y+207518
X+115824Y+186690
X+028702Y+335534
X+078740Y+323088
X+120904Y+325120
X+028496Y+222524
X+039996Y+222524
X+075486Y+191282
X+086986Y+191282
X+110030Y+220746
X+121530Y+220746
X+037543Y+306811
X+026043Y+306811
X+056113Y+319834
X+056113Y+331334
X+094762Y+318975
X+094762Y+307475
X+028496Y+219730
X+039996Y+219730
X+075486Y+188234
X+086986Y+188234
X+110030Y+223794
X+121530Y+223794
X+025956Y+302534
X+037456Y+302534
X+086085Y+307896
X+086085Y+319396
X+091673Y+307642
X+091673Y+319142
X+100817Y+178102
X+100817Y+189602
X+075486Y+185186
X+086986Y+185186
X+028496Y+216682
X+039996Y+216682
X+104599Y+304525
X+093099Y+304525
X+047010Y+328881
X+047010Y+317381
X+012679Y+310944
X+012679Y+322444
X+051328Y+216867
X+051328Y+205367
X+070337Y+199946
X+070337Y+211446
X+105966Y+174772
X+117466Y+174772
X+025928Y+322531
X+025928Y+311031
X+052344Y+343105
X+052344Y+331605
X+115013Y+332211
X+103513Y+332211
X+081009Y+218456
X+085009Y+218440
X+111235Y+181372
X+115235Y+181356
X+025670Y+334501
X+021670Y+334518
X+024928Y+328865
X+021427Y+328865
X+067580Y+337803
X+063580Y+337820
X+058101Y+337529
X+058101Y+341030
X+112505Y+302497
X+112522Y+306497
X+116295Y+304356
X+119796Y+304356
X+105966Y+178074
X+117466Y+178074
X+093197Y+200454
X+093197Y+211954
X+062971Y+190040
X+062971Y+201540
X+017038Y+322531
X+017038Y+311031
X+067104Y+320568
X+078604Y+320568
X+115013Y+327893
X+103513Y+327893
X+048493Y+205280
X+048493Y+216780
X+074978Y+199664
X+086478Y+199664
X+098572Y+199087
X+098572Y+187587
X+021569Y+310944
X+021569Y+322444
X+067358Y+316504
X+078858Y+316504
X+103426Y+324632
X+114926Y+324632
X+055609Y+182134
X+059609Y+182118
X+073623Y+218250
X+077124Y+218250
X+109382Y+185230
X+105881Y+185230
X+056097Y+188278
X+059598Y+188278
T07
X+012510Y+159914
X+009839Y+159914
X+015180Y+159914
X+012256Y+240686
X+009585Y+240686
X+014926Y+240686
X+012510Y+355240
X+009839Y+355240
X+015180Y+355240
X+012510Y+193653
X+009839Y+193653
X+015180Y+193653
X+012510Y+331829
X+009839Y+331829
X+015180Y+331829
X+010011Y+119061
X+010011Y+121732
X+010011Y+116391
X+010011Y+279335
X+010011Y+282006
X+010011Y+276665
T08
X+032939Y+038314
X+032939Y+043314
T09
X+116586Y+026670
X+116586Y+004670
X+007620Y+026670
X+007620Y+004670
M30
